M48
; DRILL file KiCad 10.0.4-10.0.4~ubuntu26.04.1 date 2026-07-04T16:39:57
; FORMAT={-:-/ absolute / metric / decimal}
; #@! TF.CreationDate,2026-07-04T16:39:57+02:00
; #@! TF.GenerationSoftware,Kicad,Pcbnew,10.0.4-10.0.4~ubuntu26.04.1
; #@! TF.FileFunction,Plated,1,4,PTH
FMAT,2
METRIC
; #@! TA.AperFunction,Plated,PTH,ViaDrill
T1C0.300
; #@! TA.AperFunction,Plated,PTH,ComponentDrill
T2C1.000
%
G90
G05
T1
X206.47Y-76.0
X206.475Y-44.0
X208.0Y-42.475
X208.0Y-45.525
X208.0Y-74.5
X208.0Y-77.5
X210.7Y-41.55
X210.7Y-42.73
X210.7Y-44.0
X210.7Y-47.53
X210.7Y-48.77
X210.7Y-50.03
X210.7Y-53.55
X210.7Y-54.79
X210.7Y-55.99
X210.7Y-61.53
X210.7Y-62.78
X210.7Y-64.07
X210.7Y-67.56
X210.7Y-68.82
X210.7Y-70.08
X210.7Y-73.5
X210.7Y-74.81
X210.7Y-76.08
X211.07Y-45.9
X211.07Y-51.9
X211.07Y-57.9
X211.07Y-71.9
X211.1Y-41.55
X211.1Y-42.1
X211.1Y-43.37
X211.1Y-44.0
X211.1Y-44.63
X211.1Y-47.53
X211.1Y-48.1
X211.1Y-48.77
X211.1Y-49.37
X211.1Y-50.03
X211.1Y-50.63
X211.1Y-53.55
X211.1Y-54.1
X211.1Y-54.79
X211.1Y-55.37
X211.1Y-55.99
X211.1Y-56.63
X211.1Y-61.53
X211.1Y-62.1
X211.1Y-62.78
X211.1Y-63.37
X211.1Y-64.07
X211.1Y-64.63
X211.1Y-65.9
X211.1Y-67.56
X211.1Y-68.1
X211.1Y-68.82
X211.1Y-69.37
X211.1Y-70.08
X211.1Y-70.63
X211.1Y-73.5
X211.1Y-74.1
X211.1Y-74.81
X211.1Y-75.37
X211.1Y-76.08
X211.1Y-76.63
X211.1Y-77.9
X211.11Y-42.73
X211.5Y-41.55
X211.5Y-42.73
X211.5Y-44.0
X211.5Y-47.53
X211.5Y-48.77
X211.5Y-50.03
X211.5Y-53.55
X211.5Y-54.79
X211.5Y-55.99
X211.5Y-61.53
X211.5Y-62.78
X211.5Y-64.07
X211.5Y-67.56
X211.5Y-68.82
X211.5Y-70.08
X211.5Y-73.5
X211.5Y-74.81
X211.5Y-76.08
X212.25Y-67.0
X212.25Y-73.0
X212.25Y-79.0
X212.3Y-47.0
X212.3Y-53.0
X212.3Y-59.0
X212.475Y-38.0
X212.475Y-82.0
X213.2Y-47.02
X213.2Y-53.02
X213.2Y-59.02
X213.2Y-67.02
X213.2Y-73.02
X213.2Y-79.02
X213.4Y-43.4
X213.4Y-44.0
X213.4Y-44.6
X213.4Y-49.4
X213.4Y-50.0
X213.4Y-50.6
X213.4Y-55.4
X213.4Y-56.0
X213.4Y-56.6
X213.4Y-63.4
X213.4Y-64.0
X213.4Y-64.6
X213.4Y-69.4
X213.4Y-70.0
X213.4Y-70.6
X213.4Y-75.4
X213.4Y-76.0
X213.4Y-76.6
X214.0Y-36.475
X214.0Y-39.525
X214.0Y-42.9
X214.0Y-44.0
X214.0Y-45.1
X214.0Y-48.9
X214.0Y-50.0
X214.0Y-51.1
X214.0Y-54.9
X214.0Y-56.0
X214.0Y-57.1
X214.0Y-62.9
X214.0Y-64.0
X214.0Y-65.1
X214.0Y-68.9
X214.0Y-70.0
X214.0Y-71.1
X214.0Y-74.9
X214.0Y-76.0
X214.0Y-77.1
X214.0Y-80.475
X214.0Y-83.525
X214.6Y-42.9
X214.6Y-43.4
X214.6Y-44.0
X214.6Y-44.6
X214.6Y-45.1
X214.6Y-48.9
X214.6Y-49.4
X214.6Y-50.0
X214.6Y-50.6
X214.6Y-51.1
X214.6Y-54.9
X214.6Y-55.4
X214.6Y-56.0
X214.6Y-56.6
X214.6Y-57.1
X214.6Y-62.9
X214.6Y-63.4
X214.6Y-64.0
X214.6Y-64.6
X214.6Y-65.1
X214.6Y-68.9
X214.6Y-69.4
X214.6Y-70.0
X214.6Y-70.6
X214.6Y-71.1
X214.6Y-74.9
X214.6Y-75.4
X214.6Y-76.0
X214.6Y-76.6
X214.6Y-77.1
X215.2Y-42.9
X215.2Y-44.0
X215.2Y-45.1
X215.2Y-48.9
X215.2Y-50.0
X215.2Y-51.1
X215.2Y-54.9
X215.2Y-56.0
X215.2Y-57.1
X215.2Y-62.9
X215.2Y-64.0
X215.2Y-65.1
X215.2Y-68.9
X215.2Y-70.0
X215.2Y-71.1
X215.2Y-74.9
X215.2Y-76.0
X215.2Y-77.1
X215.8Y-43.4
X215.8Y-44.0
X215.8Y-44.6
X215.8Y-49.4
X215.8Y-50.0
X215.8Y-50.6
X215.8Y-55.4
X215.8Y-56.0
X215.8Y-56.6
X215.8Y-63.4
X215.8Y-64.0
X215.8Y-64.6
X215.8Y-69.4
X215.8Y-70.0
X215.8Y-70.6
X215.8Y-75.4
X215.8Y-76.0
X215.8Y-76.6
X218.33Y-65.9
X218.35Y-51.89
X218.35Y-57.9
X218.35Y-71.89
X218.35Y-77.9
X218.4Y-41.07
X218.4Y-60.57
X218.47Y-45.91
X219.4Y-41.07
X219.4Y-60.57
X220.0Y-78.95
X220.4Y-41.07
X220.4Y-60.57
X221.0Y-47.0
X221.0Y-67.0
X221.4Y-41.07
X221.4Y-60.57
X221.8Y-47.0
X221.8Y-67.0
X222.0Y-78.95
X222.1Y-53.0
X222.4Y-60.18
X222.4Y-61.02
X222.401Y-72.999
X222.6Y-47.0
X222.6Y-67.0
X222.63Y-41.06
X223.0Y-53.0
X223.262Y-73.011
X223.47Y-41.06
X223.61Y-60.3
X223.9Y-53.0
X224.08Y-72.98
X226.1Y-82.1
X226.1Y-82.7
X226.1Y-83.3
X226.1Y-83.9
X226.254Y-69.612
X226.27Y-50.21
X226.32Y-41.25
X226.835Y-70.162
X226.89Y-49.679
X226.9Y-82.1
X226.9Y-83.9
X227.5Y-50.26
X227.5Y-69.718
X227.6Y-82.1
X227.6Y-83.9
X227.82Y-41.06
X228.11Y-49.655
X228.3Y-82.1
X228.3Y-82.7
X228.3Y-83.3
X228.3Y-83.9
X229.0Y-40.8
X229.0Y-82.1
X229.0Y-82.7
X229.0Y-83.3
X229.0Y-83.9
X229.024Y-41.317
X229.2Y-53.43
X229.2Y-54.27
X229.2Y-69.37
X229.2Y-69.85
X229.2Y-70.33
X229.21Y-57.19
X229.24Y-58.1
X229.38Y-56.75
X229.38Y-57.64
X229.5Y-44.2
X229.5Y-44.7
X229.5Y-58.99
X229.5Y-61.0
X229.61Y-49.37
X229.61Y-49.85
X229.65Y-69.37
X229.65Y-69.85
X229.83Y-50.28
X229.85Y-62.5
X229.85Y-63.0
X230.0Y-40.85
X230.0Y-45.71
X230.0Y-46.55
X230.0Y-60.05
X230.0Y-65.58
X230.0Y-66.42
X230.02Y-64.66
X230.06Y-49.848
X230.092Y-49.387
X230.1Y-44.2
X230.1Y-44.7
X230.1Y-69.37
X230.1Y-69.85
X230.17Y-76.03
X230.19Y-75.2
X230.2Y-73.52
X230.2Y-74.36
X230.36Y-62.01
X230.36Y-62.5
X230.36Y-62.99
X230.5Y-58.99
X230.5Y-61.0
X230.524Y-69.374
X230.973Y-41.32
X231.0Y-40.8
X231.0Y-82.1
X231.0Y-82.7
X231.0Y-83.3
X231.0Y-83.9
X231.485Y-44.506
X231.58Y-43.712
X231.7Y-82.1
X231.7Y-82.7
X231.7Y-83.3
X231.7Y-83.9
X231.9Y-70.23
X232.4Y-82.1
X232.4Y-83.9
X232.441Y-49.707
X232.48Y-69.66
X233.1Y-50.16
X233.1Y-82.1
X233.1Y-83.9
X233.104Y-70.188
X233.732Y-69.68
X233.763Y-49.5
X233.9Y-82.1
X233.9Y-82.7
X233.9Y-83.3
X233.9Y-83.9
X234.27Y-79.2
X236.0Y-47.0
X236.03Y-66.91
X236.39Y-59.9
X236.8Y-47.0
X237.03Y-66.91
X237.08Y-78.94
X237.4Y-53.0
X237.4Y-73.0
X237.6Y-47.0
X237.6Y-58.78
X237.6Y-59.62
X237.92Y-78.94
X238.0Y-40.85
X238.03Y-66.91
X238.2Y-53.0
X238.2Y-73.0
X238.6Y-59.63
X239.0Y-53.0
X239.0Y-73.0
X239.0Y-78.93
X239.6Y-59.63
X240.0Y-40.84
X240.0Y-78.93
X240.6Y-59.63
X241.0Y-78.93
X241.6Y-59.63
X241.65Y-42.11
X241.65Y-48.11
X241.65Y-62.12
X241.65Y-68.11
X241.69Y-54.1
X241.69Y-74.08
X242.0Y-78.93
X244.2Y-43.4
X244.2Y-44.0
X244.2Y-44.6
X244.2Y-49.4
X244.2Y-50.0
X244.2Y-50.6
X244.2Y-55.4
X244.2Y-56.0
X244.2Y-56.6
X244.2Y-63.4
X244.2Y-64.0
X244.2Y-64.6
X244.2Y-69.4
X244.2Y-70.0
X244.2Y-70.6
X244.3Y-75.4
X244.3Y-76.0
X244.3Y-76.6
X244.475Y-38.0
X244.475Y-82.0
X244.8Y-42.9
X244.8Y-44.0
X244.8Y-45.1
X244.8Y-48.9
X244.8Y-50.0
X244.8Y-51.1
X244.8Y-54.9
X244.8Y-56.0
X244.8Y-57.1
X244.8Y-62.9
X244.8Y-64.0
X244.8Y-65.1
X244.8Y-68.9
X244.8Y-70.0
X244.8Y-71.1
X244.9Y-74.9
X244.9Y-76.0
X244.9Y-77.1
X245.4Y-42.9
X245.4Y-43.4
X245.4Y-44.0
X245.4Y-44.6
X245.4Y-45.1
X245.4Y-48.9
X245.4Y-49.4
X245.4Y-50.0
X245.4Y-50.6
X245.4Y-51.1
X245.4Y-54.9
X245.4Y-55.4
X245.4Y-56.0
X245.4Y-56.6
X245.4Y-57.1
X245.4Y-62.9
X245.4Y-63.4
X245.4Y-64.0
X245.4Y-64.6
X245.4Y-65.1
X245.4Y-68.9
X245.4Y-69.4
X245.4Y-70.0
X245.4Y-70.6
X245.4Y-71.1
X245.5Y-74.9
X245.5Y-75.4
X245.5Y-76.0
X245.5Y-76.6
X245.5Y-77.1
X246.0Y-36.475
X246.0Y-39.525
X246.0Y-42.9
X246.0Y-44.0
X246.0Y-45.1
X246.0Y-48.9
X246.0Y-50.0
X246.0Y-51.1
X246.0Y-54.9
X246.0Y-56.0
X246.0Y-57.1
X246.0Y-62.9
X246.0Y-64.0
X246.0Y-65.1
X246.0Y-68.9
X246.0Y-70.0
X246.0Y-71.1
X246.0Y-80.475
X246.0Y-83.525
X246.1Y-74.9
X246.1Y-76.0
X246.1Y-77.1
X246.576Y-60.956
X246.59Y-52.97
X246.6Y-40.98
X246.6Y-43.4
X246.6Y-44.0
X246.6Y-44.6
X246.6Y-46.98
X246.6Y-49.4
X246.6Y-50.0
X246.6Y-50.6
X246.6Y-55.4
X246.6Y-56.0
X246.6Y-56.6
X246.6Y-63.4
X246.6Y-64.0
X246.6Y-64.6
X246.6Y-66.8
X246.6Y-69.4
X246.6Y-70.0
X246.6Y-70.6
X246.6Y-72.98
X246.7Y-75.4
X246.7Y-76.0
X246.7Y-76.6
X247.58Y-73.0
X247.59Y-61.0
X247.6Y-41.0
X247.6Y-47.0
X247.6Y-53.0
X247.6Y-67.0
X248.5Y-43.96
X248.5Y-45.26
X248.5Y-46.46
X248.5Y-50.01
X248.5Y-51.26
X248.5Y-52.49
X248.5Y-55.99
X248.5Y-57.24
X248.5Y-58.49
X248.5Y-63.97
X248.5Y-65.26
X248.5Y-66.5
X248.5Y-69.99
X248.5Y-71.25
X248.5Y-72.48
X248.5Y-75.99
X248.5Y-77.26
X248.5Y-78.49
X248.9Y-43.37
X248.9Y-43.95
X248.9Y-44.63
X248.9Y-45.25
X248.9Y-45.9
X248.9Y-46.45
X248.9Y-49.37
X248.9Y-50.0
X248.9Y-50.63
X248.9Y-51.25
X248.9Y-51.9
X248.9Y-52.48
X248.9Y-55.37
X248.9Y-55.98
X248.9Y-56.63
X248.9Y-57.23
X248.9Y-57.9
X248.9Y-58.48
X248.9Y-63.37
X248.9Y-63.96
X248.9Y-64.63
X248.9Y-65.25
X248.9Y-65.9
X248.9Y-66.49
X248.9Y-68.1
X248.9Y-69.37
X248.9Y-69.98
X248.9Y-70.63
X248.9Y-71.24
X248.9Y-71.9
X248.9Y-72.47
X248.9Y-75.37
X248.9Y-75.98
X248.9Y-76.63
X248.9Y-77.25
X248.9Y-77.9
X248.9Y-78.48
X248.93Y-42.1
X248.93Y-48.1
X248.93Y-54.1
X248.93Y-62.1
X248.93Y-74.1
X249.3Y-43.96
X249.3Y-45.26
X249.3Y-46.46
X249.3Y-50.01
X249.3Y-51.26
X249.3Y-52.49
X249.3Y-55.99
X249.3Y-57.24
X249.3Y-58.49
X249.3Y-63.97
X249.3Y-65.26
X249.3Y-66.5
X249.3Y-69.99
X249.3Y-71.25
X249.3Y-72.48
X249.3Y-75.99
X249.3Y-77.26
X249.3Y-78.49
X250.475Y-44.0
X250.5Y-76.0
X252.0Y-42.475
X252.0Y-45.525
X252.0Y-74.5
X252.0Y-77.5
T2
X227.5Y-83.05
X232.5Y-83.05
M30
