%TF.GenerationSoftware,KiCad,Pcbnew,9.0.7*%
%TF.CreationDate,2026-05-26T21:36:15+02:00*%
%TF.ProjectId,esc,6573632e-6b69-4636-9164-5f7063625858,rev?*%
%TF.SameCoordinates,Original*%
%TF.FileFunction,Soldermask,Bot*%
%TF.FilePolarity,Negative*%
%FSLAX46Y46*%
G04 Gerber Fmt 4.6, Leading zero omitted, Abs format (unit mm)*
G04 Created by KiCad (PCBNEW 9.0.7) date 2026-05-26 21:36:15*
%MOMM*%
%LPD*%
G01*
G04 APERTURE LIST*
G04 Aperture macros list*
%AMRoundRect*
0 Rectangle with rounded corners*
0 $1 Rounding radius*
0 $2 $3 $4 $5 $6 $7 $8 $9 X,Y pos of 4 corners*
0 Add a 4 corners polygon primitive as box body*
4,1,4,$2,$3,$4,$5,$6,$7,$8,$9,$2,$3,0*
0 Add four circle primitives for the rounded corners*
1,1,$1+$1,$2,$3*
1,1,$1+$1,$4,$5*
1,1,$1+$1,$6,$7*
1,1,$1+$1,$8,$9*
0 Add four rect primitives between the rounded corners*
20,1,$1+$1,$2,$3,$4,$5,0*
20,1,$1+$1,$4,$5,$6,$7,0*
20,1,$1+$1,$6,$7,$8,$9,0*
20,1,$1+$1,$8,$9,$2,$3,0*%
G04 Aperture macros list end*
%ADD10C,2.200000*%
%ADD11C,1.600000*%
%ADD12C,0.750000*%
%ADD13O,1.200000X2.000000*%
%ADD14O,1.200000X1.800000*%
%ADD15R,1.200000X0.700000*%
%ADD16R,3.800000X4.600000*%
%ADD17R,0.900000X0.800000*%
%ADD18R,0.500000X0.540000*%
%ADD19R,0.540000X0.500000*%
%ADD20R,0.540000X0.566000*%
%ADD21R,0.566000X0.540000*%
%ADD22R,0.800000X0.900000*%
%ADD23RoundRect,0.450000X1.050000X1.050000X-1.050000X1.050000X-1.050000X-1.050000X1.050000X-1.050000X0*%
%ADD24R,0.500000X1.500000*%
G04 APERTURE END LIST*
D10*
%TO.C,REF\u002A\u002A*%
X211450000Y-41450000D03*
%TD*%
%TO.C,REF\u002A\u002A*%
X211450000Y-78550000D03*
%TD*%
%TO.C,REF\u002A\u002A*%
X248550000Y-78550000D03*
%TD*%
D11*
%TO.C,C0*%
X227490000Y-83050000D03*
X232490000Y-83050000D03*
%TD*%
D10*
%TO.C,REF\u002A\u002A*%
X248550000Y-41450000D03*
%TD*%
D12*
%TO.C,USBC1*%
X232900000Y-39950000D03*
X227100000Y-39950000D03*
D13*
X225670000Y-40450000D03*
D14*
X225670000Y-36270000D03*
X234330000Y-36270000D03*
D13*
X234330000Y-40450000D03*
%TD*%
D15*
%TO.C,Q13*%
X212800000Y-47900000D03*
X212800000Y-46630000D03*
X212800000Y-45370000D03*
X212800000Y-44100000D03*
X218600000Y-44100000D03*
X218600000Y-45360000D03*
X218600000Y-46630000D03*
X218600000Y-47900000D03*
D16*
X216240000Y-46000000D03*
%TD*%
D17*
%TO.C,C19*%
X233110000Y-48190000D03*
X233110000Y-46790000D03*
%TD*%
D18*
%TO.C,C15*%
X232340000Y-64370000D03*
X231500000Y-64370000D03*
%TD*%
D19*
%TO.C,C6*%
X228230000Y-61440000D03*
X228230000Y-60600000D03*
%TD*%
D20*
%TO.C,R32*%
X224280000Y-72470000D03*
X224280000Y-71610000D03*
%TD*%
D21*
%TO.C,R56*%
X236470000Y-77180000D03*
X237330000Y-77180000D03*
%TD*%
D20*
%TO.C,R21*%
X230720000Y-69030000D03*
X230720000Y-69890000D03*
%TD*%
%TO.C,R58*%
X236480000Y-72450000D03*
X236480000Y-71590000D03*
%TD*%
D19*
%TO.C,C7*%
X229560000Y-60610000D03*
X229560000Y-61450000D03*
%TD*%
D21*
%TO.C,R20*%
X233670000Y-44500000D03*
X234530000Y-44500000D03*
%TD*%
D19*
%TO.C,C36*%
X226410000Y-46220000D03*
X226410000Y-47060000D03*
%TD*%
D21*
%TO.C,R4*%
X226230000Y-61260000D03*
X227090000Y-61260000D03*
%TD*%
D20*
%TO.C,R55*%
X240200000Y-61660000D03*
X240200000Y-62520000D03*
%TD*%
D21*
%TO.C,R43*%
X222580000Y-42700000D03*
X223440000Y-42700000D03*
%TD*%
D19*
%TO.C,C28*%
X226790000Y-69590000D03*
X226790000Y-70430000D03*
%TD*%
D22*
%TO.C,C16*%
X232600000Y-65580000D03*
X231200000Y-65580000D03*
%TD*%
D15*
%TO.C,Q15*%
X212800000Y-53400000D03*
X212800000Y-52130000D03*
X212800000Y-50870000D03*
X212800000Y-49600000D03*
X218600000Y-49600000D03*
X218600000Y-50860000D03*
X218600000Y-52130000D03*
X218600000Y-53400000D03*
D16*
X216240000Y-51500000D03*
%TD*%
D17*
%TO.C,C47*%
X233560000Y-70540000D03*
X233560000Y-69140000D03*
%TD*%
D15*
%TO.C,Q24*%
X241600000Y-65400000D03*
X241600000Y-64130000D03*
X241600000Y-62870000D03*
X241600000Y-61600000D03*
X247400000Y-61600000D03*
X247400000Y-62860000D03*
X247400000Y-64130000D03*
X247400000Y-65400000D03*
D16*
X245040000Y-63500000D03*
%TD*%
D18*
%TO.C,C26*%
X234530000Y-45500000D03*
X233690000Y-45500000D03*
%TD*%
D20*
%TO.C,R5*%
X232500000Y-37070000D03*
X232500000Y-37930000D03*
%TD*%
D15*
%TO.C,Q11*%
X212800000Y-76400000D03*
X212800000Y-75130000D03*
X212800000Y-73870000D03*
X212800000Y-72600000D03*
X218600000Y-72600000D03*
X218600000Y-73860000D03*
X218600000Y-75130000D03*
X218600000Y-76400000D03*
D16*
X216240000Y-74500000D03*
%TD*%
D20*
%TO.C,R16*%
X235680000Y-54750000D03*
X235680000Y-53890000D03*
%TD*%
D17*
%TO.C,C17*%
X230910000Y-61100000D03*
X230910000Y-59700000D03*
%TD*%
D15*
%TO.C,Q20*%
X241600000Y-76400000D03*
X241600000Y-75130000D03*
X241600000Y-73870000D03*
X241600000Y-72600000D03*
X247400000Y-72600000D03*
X247400000Y-73860000D03*
X247400000Y-75130000D03*
X247400000Y-76400000D03*
D16*
X245040000Y-74500000D03*
%TD*%
D19*
%TO.C,C41*%
X224160000Y-48030000D03*
X224160000Y-48870000D03*
%TD*%
D17*
%TO.C,C45*%
X231200000Y-76070000D03*
X231200000Y-77470000D03*
%TD*%
D15*
%TO.C,Q22*%
X241600000Y-70900000D03*
X241600000Y-69630000D03*
X241600000Y-68370000D03*
X241600000Y-67100000D03*
X247400000Y-67100000D03*
X247400000Y-68360000D03*
X247400000Y-69630000D03*
X247400000Y-70900000D03*
D16*
X245040000Y-69000000D03*
%TD*%
D20*
%TO.C,R12*%
X240200000Y-49540000D03*
X240200000Y-50400000D03*
%TD*%
D19*
%TO.C,C25*%
X235500000Y-47530000D03*
X235500000Y-46690000D03*
%TD*%
D21*
%TO.C,R61*%
X232510000Y-59480000D03*
X233370000Y-59480000D03*
%TD*%
D15*
%TO.C,Q17*%
X212800000Y-58900000D03*
X212800000Y-57630000D03*
X212800000Y-56370000D03*
X212800000Y-55100000D03*
X218600000Y-55100000D03*
X218600000Y-56360000D03*
X218600000Y-57630000D03*
X218600000Y-58900000D03*
D16*
X216240000Y-57000000D03*
%TD*%
D15*
%TO.C,Q4*%
X241600000Y-53400000D03*
X241600000Y-52130000D03*
X241600000Y-50870000D03*
X241600000Y-49600000D03*
X247400000Y-49600000D03*
X247400000Y-50860000D03*
X247400000Y-52130000D03*
X247400000Y-53400000D03*
D16*
X245040000Y-51500000D03*
%TD*%
D20*
%TO.C,R7*%
X230520000Y-43070000D03*
X230520000Y-43930000D03*
%TD*%
D22*
%TO.C,C38*%
X230490000Y-41630000D03*
X229090000Y-41630000D03*
%TD*%
D17*
%TO.C,C43*%
X229780000Y-76080000D03*
X229780000Y-77480000D03*
%TD*%
D19*
%TO.C,C34*%
X224170000Y-74560000D03*
X224170000Y-73720000D03*
%TD*%
D23*
%TO.C,J16*%
X232000000Y-83000000D03*
X228000000Y-83000000D03*
%TD*%
D18*
%TO.C,C50*%
X233360000Y-58500000D03*
X232520000Y-58500000D03*
%TD*%
D20*
%TO.C,R53*%
X240200000Y-67070000D03*
X240200000Y-67930000D03*
%TD*%
%TO.C,R57*%
X235510000Y-78040000D03*
X235510000Y-77180000D03*
%TD*%
D15*
%TO.C,Q2*%
X241600000Y-58900000D03*
X241600000Y-57630000D03*
X241600000Y-56370000D03*
X241600000Y-55100000D03*
X247400000Y-55100000D03*
X247400000Y-56360000D03*
X247400000Y-57630000D03*
X247400000Y-58900000D03*
D16*
X245040000Y-57000000D03*
%TD*%
D19*
%TO.C,C42*%
X223390000Y-52990000D03*
X223390000Y-53830000D03*
%TD*%
D20*
%TO.C,R45*%
X223170000Y-47000000D03*
X223170000Y-46140000D03*
%TD*%
%TO.C,R14*%
X240200000Y-44070000D03*
X240200000Y-44930000D03*
%TD*%
D15*
%TO.C,Q9*%
X212800000Y-70900000D03*
X212800000Y-69630000D03*
X212800000Y-68370000D03*
X212800000Y-67100000D03*
X218600000Y-67100000D03*
X218600000Y-68360000D03*
X218600000Y-69630000D03*
X218600000Y-70900000D03*
D16*
X216240000Y-69000000D03*
%TD*%
D20*
%TO.C,R6*%
X227500000Y-37070000D03*
X227500000Y-37930000D03*
%TD*%
D17*
%TO.C,C21*%
X231660000Y-48570000D03*
X231660000Y-49970000D03*
%TD*%
D21*
%TO.C,R44*%
X220700000Y-42700000D03*
X221560000Y-42700000D03*
%TD*%
D19*
%TO.C,C20*%
X231770000Y-47400000D03*
X231770000Y-46560000D03*
%TD*%
D20*
%TO.C,R51*%
X240200000Y-72670000D03*
X240200000Y-73530000D03*
%TD*%
%TO.C,R15*%
X235680000Y-52900000D03*
X235680000Y-52040000D03*
%TD*%
%TO.C,R18*%
X236500000Y-46670000D03*
X236500000Y-47530000D03*
%TD*%
D21*
%TO.C,R60*%
X234370000Y-58490000D03*
X235230000Y-58490000D03*
%TD*%
D22*
%TO.C,C37*%
X226450000Y-44980000D03*
X227850000Y-44980000D03*
%TD*%
D19*
%TO.C,C48*%
X234540000Y-77170000D03*
X234540000Y-78010000D03*
%TD*%
%TO.C,C49*%
X236480000Y-73440000D03*
X236480000Y-74280000D03*
%TD*%
D20*
%TO.C,R33*%
X223170000Y-74550000D03*
X223170000Y-73690000D03*
%TD*%
%TO.C,R10*%
X240200000Y-55070000D03*
X240200000Y-55930000D03*
%TD*%
D17*
%TO.C,C29*%
X227990000Y-70550000D03*
X227990000Y-69150000D03*
%TD*%
D20*
%TO.C,R17*%
X236500000Y-48570000D03*
X236500000Y-49430000D03*
%TD*%
D19*
%TO.C,C44*%
X228550000Y-76390000D03*
X228550000Y-77230000D03*
%TD*%
D21*
%TO.C,R19*%
X235570000Y-44500000D03*
X236430000Y-44500000D03*
%TD*%
D19*
%TO.C,C33*%
X225300000Y-71610000D03*
X225300000Y-72450000D03*
%TD*%
D20*
%TO.C,R48*%
X222400000Y-53850000D03*
X222400000Y-52990000D03*
%TD*%
D18*
%TO.C,C40*%
X221560000Y-43700000D03*
X220720000Y-43700000D03*
%TD*%
D17*
%TO.C,C27*%
X225540000Y-68930000D03*
X225540000Y-70330000D03*
%TD*%
D20*
%TO.C,R30*%
X224650000Y-65090000D03*
X224650000Y-65950000D03*
%TD*%
%TO.C,R46*%
X223170000Y-48890000D03*
X223170000Y-48030000D03*
%TD*%
D15*
%TO.C,Q6*%
X241600000Y-47900000D03*
X241600000Y-46630000D03*
X241600000Y-45370000D03*
X241600000Y-44100000D03*
X247400000Y-44100000D03*
X247400000Y-45360000D03*
X247400000Y-46630000D03*
X247400000Y-47900000D03*
D16*
X245040000Y-46000000D03*
%TD*%
D19*
%TO.C,C24*%
X234700000Y-53890000D03*
X234700000Y-54730000D03*
%TD*%
D18*
%TO.C,C18*%
X226230000Y-60300000D03*
X227070000Y-60300000D03*
%TD*%
D20*
%TO.C,R29*%
X223680000Y-66920000D03*
X223680000Y-67780000D03*
%TD*%
%TO.C,R59*%
X235470000Y-74290000D03*
X235470000Y-73430000D03*
%TD*%
D17*
%TO.C,C35*%
X227840000Y-46400000D03*
X227840000Y-47800000D03*
%TD*%
D20*
%TO.C,R31*%
X223280000Y-71610000D03*
X223280000Y-70750000D03*
%TD*%
D24*
%TO.C,X1*%
X226895000Y-62990000D03*
X228095000Y-62990000D03*
X229295000Y-62990000D03*
%TD*%
D15*
%TO.C,Q7*%
X212800000Y-65400000D03*
X212800000Y-64130000D03*
X212800000Y-62870000D03*
X212800000Y-61600000D03*
X218600000Y-61600000D03*
X218600000Y-62860000D03*
X218600000Y-64130000D03*
X218600000Y-65400000D03*
D16*
X216240000Y-63500000D03*
%TD*%
D19*
%TO.C,C32*%
X223670000Y-65950000D03*
X223670000Y-65110000D03*
%TD*%
D20*
%TO.C,R47*%
X222370000Y-51920000D03*
X222370000Y-51060000D03*
%TD*%
%TO.C,R34*%
X225140000Y-73700000D03*
X225140000Y-74560000D03*
%TD*%
M02*
