%TF.GenerationSoftware,KiCad,Pcbnew,10.0.4-10.0.4~ubuntu26.04.1*%
%TF.CreationDate,2026-07-04T16:40:03+02:00*%
%TF.ProjectId,esc,6573632e-6b69-4636-9164-5f7063625858,rev?*%
%TF.SameCoordinates,Original*%
%TF.FileFunction,Copper,L4,Bot*%
%TF.FilePolarity,Positive*%
%FSLAX46Y46*%
G04 Gerber Fmt 4.6, Leading zero omitted, Abs format (unit mm)*
G04 Created by KiCad (PCBNEW 10.0.4-10.0.4~ubuntu26.04.1) date 2026-07-04 16:40:03*
%MOMM*%
%LPD*%
G01*
G04 APERTURE LIST*
G04 Aperture macros list*
%AMRoundRect*
0 Rectangle with rounded corners*
0 $1 Rounding radius*
0 $2 $3 $4 $5 $6 $7 $8 $9 X,Y pos of 4 corners*
0 Add a 4 corners polygon primitive as box body*
4,1,4,$2,$3,$4,$5,$6,$7,$8,$9,$2,$3,0*
0 Add four circle primitives for the rounded corners*
1,1,$1+$1,$2,$3*
1,1,$1+$1,$4,$5*
1,1,$1+$1,$6,$7*
1,1,$1+$1,$8,$9*
0 Add four rect primitives between the rounded corners*
20,1,$1+$1,$2,$3,$4,$5,0*
20,1,$1+$1,$4,$5,$6,$7,0*
20,1,$1+$1,$6,$7,$8,$9,0*
20,1,$1+$1,$8,$9,$2,$3,0*%
%AMFreePoly0*
4,1,16,0.401585,0.200063,0.436915,0.185357,0.451498,0.149976,0.451489,0.149113,0.449330,0.035550,0.435502,0.001971,0.256762,-0.185227,0.221754,-0.200685,0.220599,-0.200698,-0.401244,-0.200698,-0.436599,-0.186053,-0.451244,-0.150715,-0.451345,0.151443,-0.436712,0.186804,-0.401362,0.201460,0.401585,0.200063,0.401585,0.200063,$1*%
%AMFreePoly1*
4,1,16,0.255954,0.186002,0.256762,0.185176,0.435502,-0.002022,0.449330,-0.035601,0.451489,-0.149164,0.437519,-0.184791,0.402448,-0.200105,0.401585,-0.200114,-0.401258,-0.201511,-0.436639,-0.186928,-0.451345,-0.151598,-0.451244,0.150664,-0.436588,0.186014,-0.401244,0.200647,0.220599,0.200647,0.255954,0.186002,0.255954,0.186002,$1*%
%AMFreePoly2*
4,1,16,0.186499,0.418424,0.201155,0.383074,0.199758,-0.419873,0.185052,-0.455203,0.149671,-0.469786,0.148808,-0.469777,0.035245,-0.467618,0.001666,-0.453790,-0.185532,-0.275050,-0.200990,-0.240042,-0.201003,-0.238887,-0.201003,0.382956,-0.186358,0.418311,-0.151020,0.432956,0.151138,0.433057,0.186499,0.418424,0.186499,0.418424,$1*%
%AMFreePoly3*
4,1,16,0.151172,0.432956,0.186522,0.418300,0.201155,0.382956,0.201155,-0.238887,0.186510,-0.274242,0.185684,-0.275050,-0.001514,-0.453790,-0.035093,-0.467618,-0.148656,-0.469777,-0.184283,-0.455807,-0.199597,-0.420736,-0.199606,-0.419873,-0.201003,0.382970,-0.186420,0.418351,-0.151090,0.433057,0.151172,0.432956,0.151172,0.432956,$1*%
%AMFreePoly4*
4,1,16,0.436599,0.185952,0.451244,0.150614,0.451345,-0.151545,0.436712,-0.186906,0.401362,-0.201562,-0.401585,-0.200165,-0.436915,-0.185459,-0.451498,-0.150078,-0.451489,-0.149215,-0.449330,-0.035651,-0.435502,-0.002072,-0.256762,0.185126,-0.221754,0.200584,-0.220599,0.200597,0.401244,0.200597,0.436599,0.185952,0.436599,0.185952,$1*%
%AMFreePoly5*
4,1,16,0.436639,0.186801,0.451345,0.151471,0.451244,-0.150791,0.436588,-0.186141,0.401244,-0.200774,-0.220599,-0.200774,-0.255954,-0.186129,-0.256762,-0.185303,-0.435502,0.001895,-0.449330,0.035474,-0.451489,0.149037,-0.437519,0.184664,-0.402448,0.199978,-0.401585,0.199987,0.401258,0.201384,0.436639,0.186801,0.436639,0.186801,$1*%
%AMFreePoly6*
4,1,16,-0.148783,0.469777,-0.035220,0.467618,-0.001641,0.453790,0.185557,0.275050,0.201015,0.240042,0.201028,0.238887,0.201028,-0.382956,0.186383,-0.418311,0.151045,-0.432956,-0.151113,-0.433057,-0.186474,-0.418424,-0.201130,-0.383074,-0.199733,0.419873,-0.185027,0.455203,-0.149646,0.469786,-0.148783,0.469777,-0.148783,0.469777,$1*%
%AMFreePoly7*
4,1,16,0.184435,0.455807,0.199749,0.420736,0.199758,0.419873,0.201155,-0.382970,0.186572,-0.418351,0.151242,-0.433057,-0.151020,-0.432956,-0.186370,-0.418300,-0.201003,-0.382956,-0.201003,0.238887,-0.186358,0.274242,-0.185532,0.275050,0.001666,0.453790,0.035245,0.467618,0.148808,0.469777,0.184435,0.455807,0.184435,0.455807,$1*%
G04 Aperture macros list end*
%TA.AperFunction,ComponentPad*%
%ADD10C,1.600000*%
%TD*%
%TA.AperFunction,SMDPad,CuDef*%
%ADD11RoundRect,0.150000X0.350000X0.600000X-0.350000X0.600000X-0.350000X-0.600000X0.350000X-0.600000X0*%
%TD*%
%TA.AperFunction,SMDPad,CuDef*%
%ADD12R,0.540000X0.500000*%
%TD*%
%TA.AperFunction,SMDPad,CuDef*%
%ADD13R,0.566000X0.540000*%
%TD*%
%TA.AperFunction,SMDPad,CuDef*%
%ADD14O,0.280000X0.800000*%
%TD*%
%TA.AperFunction,SMDPad,CuDef*%
%ADD15O,0.800000X0.280000*%
%TD*%
%TA.AperFunction,SMDPad,CuDef*%
%ADD16R,2.700000X2.700000*%
%TD*%
%TA.AperFunction,SMDPad,CuDef*%
%ADD17R,0.540000X0.566000*%
%TD*%
%TA.AperFunction,SMDPad,CuDef*%
%ADD18RoundRect,0.450000X1.050000X1.050000X-1.050000X1.050000X-1.050000X-1.050000X1.050000X-1.050000X0*%
%TD*%
%TA.AperFunction,SMDPad,CuDef*%
%ADD19R,0.500000X0.540000*%
%TD*%
%TA.AperFunction,SMDPad,CuDef*%
%ADD20FreePoly0,0.000000*%
%TD*%
%TA.AperFunction,SMDPad,CuDef*%
%ADD21R,1.000000X0.300000*%
%TD*%
%TA.AperFunction,SMDPad,CuDef*%
%ADD22FreePoly1,0.000000*%
%TD*%
%TA.AperFunction,SMDPad,CuDef*%
%ADD23FreePoly2,0.000000*%
%TD*%
%TA.AperFunction,SMDPad,CuDef*%
%ADD24R,0.300000X1.000000*%
%TD*%
%TA.AperFunction,SMDPad,CuDef*%
%ADD25FreePoly3,0.000000*%
%TD*%
%TA.AperFunction,SMDPad,CuDef*%
%ADD26FreePoly4,0.000000*%
%TD*%
%TA.AperFunction,SMDPad,CuDef*%
%ADD27FreePoly5,0.000000*%
%TD*%
%TA.AperFunction,SMDPad,CuDef*%
%ADD28FreePoly6,0.000000*%
%TD*%
%TA.AperFunction,SMDPad,CuDef*%
%ADD29FreePoly7,0.000000*%
%TD*%
%TA.AperFunction,SMDPad,CuDef*%
%ADD30R,0.900000X0.800000*%
%TD*%
%TA.AperFunction,SMDPad,CuDef*%
%ADD31RoundRect,0.450000X-1.050000X-1.050000X1.050000X-1.050000X1.050000X1.050000X-1.050000X1.050000X0*%
%TD*%
%TA.AperFunction,SMDPad,CuDef*%
%ADD32FreePoly0,180.000000*%
%TD*%
%TA.AperFunction,SMDPad,CuDef*%
%ADD33FreePoly1,180.000000*%
%TD*%
%TA.AperFunction,SMDPad,CuDef*%
%ADD34FreePoly2,180.000000*%
%TD*%
%TA.AperFunction,SMDPad,CuDef*%
%ADD35FreePoly3,180.000000*%
%TD*%
%TA.AperFunction,SMDPad,CuDef*%
%ADD36FreePoly4,180.000000*%
%TD*%
%TA.AperFunction,SMDPad,CuDef*%
%ADD37FreePoly5,180.000000*%
%TD*%
%TA.AperFunction,SMDPad,CuDef*%
%ADD38FreePoly6,180.000000*%
%TD*%
%TA.AperFunction,SMDPad,CuDef*%
%ADD39FreePoly7,180.000000*%
%TD*%
%TA.AperFunction,ViaPad*%
%ADD40C,0.600000*%
%TD*%
%TA.AperFunction,Conductor*%
%ADD41C,0.200000*%
%TD*%
G04 APERTURE END LIST*
D10*
%TO.P,C0,1,1_1*%
%TO.N,GND*%
X227500000Y-83050000D03*
%TO.P,C0,2,2_2*%
%TO.N,B+*%
X232500000Y-83050000D03*
%TD*%
D11*
%TO.P,DShot_M4,1,Pin_1_1*%
%TO.N,DShot_M4*%
X222000000Y-76500000D03*
%TD*%
D12*
%TO.P,C9,1*%
%TO.N,OUT3*%
X236650000Y-48890000D03*
%TO.P,C9,2*%
%TO.N,Net-(GD1-BOOT3)*%
X236650000Y-49730000D03*
%TD*%
D13*
%TO.P,R48,1*%
%TO.N,Net-(Q18-G)*%
X211070000Y-57900000D03*
%TO.P,R48,2*%
%TO.N,GLS3*%
X211930000Y-57900000D03*
%TD*%
D14*
%TO.P,GD4,1,CP_1*%
%TO.N,Net-(GD4-CP)*%
X239450000Y-75000000D03*
%TO.P,GD4,2,DT/MODE_2*%
%TO.N,Net-(GD4-DT{slash}MODE)*%
X238950000Y-75000000D03*
%TO.P,GD4,3,SCREF_3*%
%TO.N,Net-(GD4-SCREF)*%
X238450000Y-75000000D03*
%TO.P,GD4,4,VS_4*%
%TO.N,B+*%
X237950000Y-75000000D03*
%TO.P,GD4,5,REG12_5*%
%TO.N,Net-(GD4-REG12)*%
X237450000Y-75000000D03*
%TO.P,GD4,6,nFAULT_6*%
%TO.N,Net-(GD4-nFAULT)*%
X236950000Y-75000000D03*
D15*
%TO.P,GD4,7,INH1/IN1_7*%
%TO.N,INH1_M4*%
X236200000Y-74250000D03*
%TO.P,GD4,8,INH2/IN2_8*%
%TO.N,INH2_M4*%
X236200000Y-73750000D03*
%TO.P,GD4,9,INH3/IN3_9*%
%TO.N,INH3_M4*%
X236200000Y-73250000D03*
%TO.P,GD4,10,INL1/EN1_10*%
%TO.N,EN1_M4*%
X236200000Y-72750000D03*
%TO.P,GD4,11,INL2/EN2_11*%
%TO.N,EN2_M4*%
X236200000Y-72250000D03*
%TO.P,GD4,12,INL3/EN3_12*%
%TO.N,EN3_M4*%
X236200000Y-71750000D03*
D14*
%TO.P,GD4,13,BOOT3_13*%
%TO.N,Net-(GD4-BOOT3)*%
X236950000Y-71000000D03*
%TO.P,GD4,14,GHS3_14*%
%TO.N,GHS3*%
X237450000Y-71000000D03*
%TO.P,GD4,15,OUT3_15*%
%TO.N,OUT3*%
X237950000Y-71000000D03*
%TO.P,GD4,16,GLS3_16*%
%TO.N,GLS3*%
X238450000Y-71000000D03*
%TO.P,GD4,17,BOOT2_17*%
%TO.N,Net-(GD4-BOOT2)*%
X238950000Y-71000000D03*
%TO.P,GD4,18,GHS2_18*%
%TO.N,GHS2*%
X239440000Y-71000000D03*
D15*
%TO.P,GD4,19,OUT2_19*%
%TO.N,OUT2*%
X240200000Y-71750000D03*
%TO.P,GD4,20,GLS2_20*%
%TO.N,GLS2*%
X240200000Y-72250000D03*
%TO.P,GD4,21,BOOT1_21*%
%TO.N,Net-(GD4-BOOT1)*%
X240200000Y-72750000D03*
%TO.P,GD4,22,GHS1_22*%
%TO.N,GHS1*%
X240200000Y-73250000D03*
%TO.P,GD4,23,OUT1_23*%
%TO.N,OUT1*%
X240200000Y-73750000D03*
%TO.P,GD4,24,GLS1_24*%
%TO.N,GLS1*%
X240200000Y-74250000D03*
D16*
%TO.P,GD4,25,EP_25*%
%TO.N,GND*%
X238190000Y-73000000D03*
%TD*%
D17*
%TO.P,R53,1*%
%TO.N,PHASE_C_M3*%
X215200000Y-59030000D03*
%TO.P,R53,2*%
%TO.N,OUT3*%
X215200000Y-58170000D03*
%TD*%
D13*
%TO.P,R1,1*%
%TO.N,Net-(M1-PF2-NRST)*%
X230230000Y-51400000D03*
%TO.P,R1,2*%
%TO.N,3V3*%
X229370000Y-51400000D03*
%TD*%
D18*
%TO.P,J5,1,Pin_1_1*%
%TO.N,OUT2*%
X214600000Y-70000000D03*
%TD*%
%TO.P,J6,1,Pin_1_1*%
%TO.N,OUT3*%
X214600000Y-76000000D03*
%TD*%
D17*
%TO.P,R56,1*%
%TO.N,3V3*%
X239000000Y-78930000D03*
%TO.P,R56,2*%
%TO.N,Net-(GD4-SCREF)*%
X239000000Y-78070000D03*
%TD*%
D19*
%TO.P,C8,1*%
%TO.N,OUT2*%
X243400000Y-47010000D03*
%TO.P,C8,2*%
%TO.N,Net-(GD1-BOOT2)*%
X242560000Y-47010000D03*
%TD*%
D12*
%TO.P,C28,1*%
%TO.N,PHASE_A_M2*%
X213200000Y-67020000D03*
%TO.P,C28,2*%
%TO.N,GND*%
X213200000Y-66180000D03*
%TD*%
D17*
%TO.P,R29,1*%
%TO.N,Net-(Q11-G)*%
X218350000Y-77900000D03*
%TO.P,R29,2*%
%TO.N,GHS3*%
X218350000Y-77040000D03*
%TD*%
D19*
%TO.P,C37,1*%
%TO.N,OUT1*%
X216270000Y-47030000D03*
%TO.P,C37,2*%
%TO.N,Net-(GD3-BOOT1)*%
X217110000Y-47030000D03*
%TD*%
D12*
%TO.P,C17,1*%
%TO.N,3V3*%
X231000000Y-65580000D03*
%TO.P,C17,2*%
%TO.N,GND*%
X231000000Y-66420000D03*
%TD*%
D20*
%TO.P,M1,1,PC15-OSCX_OUT_1*%
%TO.N,unconnected-(M1-PC15-OSCX_OUT-Pad1)*%
X231550000Y-53990000D03*
D21*
%TO.P,M1,2,VDD/VDDA_2*%
%TO.N,3V3*%
X231650000Y-53490000D03*
%TO.P,M1,3,VSS/VSSA_3*%
%TO.N,GND*%
X231650000Y-52990000D03*
%TO.P,M1,4,PF2-NRST_4*%
%TO.N,Net-(M1-PF2-NRST)*%
X231650000Y-52490000D03*
D22*
%TO.P,M1,5,PA0_5*%
%TO.N,VIRTUAL_NEUTRAL_POINT*%
X231550000Y-51990000D03*
D23*
%TO.P,M1,6,PA1_6*%
%TO.N,DShot_M1*%
X232100000Y-51440000D03*
D24*
%TO.P,M1,7,PA2_7*%
%TO.N,PHASE_C_M1*%
X232600000Y-51560000D03*
%TO.P,M1,8,PA3_8*%
%TO.N,PHASE_B_M1*%
X233100000Y-51560000D03*
%TO.P,M1,9,PA4_9*%
%TO.N,PHASE_A_M1*%
X233600000Y-51560000D03*
D25*
%TO.P,M1,10,PA5_10*%
%TO.N,EN3_M1*%
X234100000Y-51440000D03*
D26*
%TO.P,M1,11,PA6_11*%
%TO.N,EN2_M1*%
X234650000Y-51990000D03*
D21*
%TO.P,M1,12,PA7_12*%
%TO.N,EN1_M1*%
X234550000Y-52490000D03*
%TO.P,M1,13,PA8_13*%
%TO.N,INH3_M1*%
X234550000Y-52990000D03*
%TO.P,M1,14,PA11[PA9]_14*%
%TO.N,INH2_M1*%
X234550000Y-53490000D03*
D27*
%TO.P,M1,15,PA12[PA10]_15*%
%TO.N,INH1_M1*%
X234650000Y-53990000D03*
D28*
%TO.P,M1,16,PA13_16*%
%TO.N,SWDIO_M1*%
X234100000Y-54560000D03*
D24*
%TO.P,M1,17,PA14-BOOT0_17*%
%TO.N,SWCLK_M1*%
X233600000Y-54440000D03*
%TO.P,M1,18,PB6_18*%
%TO.N,unconnected-(M1-PB6-Pad18)*%
X233100000Y-54440000D03*
%TO.P,M1,19,PB7_19*%
%TO.N,unconnected-(M1-PB7-Pad19)*%
X232600000Y-54440000D03*
D29*
%TO.P,M1,20,PC14-OSCX_IN_20*%
%TO.N,unconnected-(M1-PC14-OSCX_IN-Pad20)*%
X232100000Y-54560000D03*
%TD*%
D17*
%TO.P,R35,1*%
%TO.N,PHASE_C_M2*%
X215200000Y-79030000D03*
%TO.P,R35,2*%
%TO.N,OUT3*%
X215200000Y-78170000D03*
%TD*%
D30*
%TO.P,C35,1*%
%TO.N,Net-(GD3-REG12)*%
X224900000Y-42650000D03*
%TO.P,C35,2*%
%TO.N,GND*%
X224900000Y-41250000D03*
%TD*%
%TO.P,C21,1*%
%TO.N,Net-(GD2-REG12)*%
X225030000Y-61700000D03*
%TO.P,C21,2*%
%TO.N,GND*%
X225030000Y-60300000D03*
%TD*%
D17*
%TO.P,R9,1*%
%TO.N,Net-(Q3-G)*%
X241650000Y-48110000D03*
%TO.P,R9,2*%
%TO.N,GHS2*%
X241650000Y-48970000D03*
%TD*%
D18*
%TO.P,J3,1,Pin_1_1*%
%TO.N,OUT3*%
X245400000Y-44000000D03*
%TD*%
D12*
%TO.P,C3,1*%
%TO.N,3V3*%
X229200000Y-54270000D03*
%TO.P,C3,2*%
%TO.N,GND*%
X229200000Y-53430000D03*
%TD*%
D17*
%TO.P,R65,1*%
%TO.N,Net-(Q23-G)*%
X241650000Y-62120000D03*
%TO.P,R65,2*%
%TO.N,GHS3*%
X241650000Y-62980000D03*
%TD*%
D12*
%TO.P,C2,1*%
%TO.N,3V3*%
X230200000Y-54270000D03*
%TO.P,C2,2*%
%TO.N,GND*%
X230200000Y-53430000D03*
%TD*%
D13*
%TO.P,R24,1*%
%TO.N,Net-(GD2-nFAULT)*%
X224370000Y-63900000D03*
%TO.P,R24,2*%
%TO.N,3V3*%
X225230000Y-63900000D03*
%TD*%
D17*
%TO.P,R36,1*%
%TO.N,GND*%
X214200000Y-78170000D03*
%TO.P,R36,2*%
%TO.N,PHASE_C_M2*%
X214200000Y-79030000D03*
%TD*%
D30*
%TO.P,C50,1*%
%TO.N,Net-(GD4-REG12)*%
X235690000Y-77800000D03*
%TO.P,C50,2*%
%TO.N,GND*%
X235690000Y-79200000D03*
%TD*%
D13*
%TO.P,R78,1*%
%TO.N,GND*%
X227700000Y-73900000D03*
%TO.P,R78,2*%
%TO.N,VIRTUAL_NEUTRAL_POINT*%
X226840000Y-73900000D03*
%TD*%
D20*
%TO.P,M4,1,PC15-OSCX_OUT_1*%
%TO.N,unconnected-(M4-PC15-OSCX_OUT-Pad1)*%
X231550000Y-73990000D03*
D21*
%TO.P,M4,2,VDD/VDDA_2*%
%TO.N,3V3*%
X231650000Y-73490000D03*
%TO.P,M4,3,VSS/VSSA_3*%
%TO.N,GND*%
X231650000Y-72990000D03*
%TO.P,M4,4,PF2-NRST_4*%
%TO.N,Net-(M4-PF2-NRST)*%
X231650000Y-72490000D03*
D22*
%TO.P,M4,5,PA0_5*%
%TO.N,VIRTUAL_NEUTRAL_POINT*%
X231550000Y-71990000D03*
D23*
%TO.P,M4,6,PA1_6*%
%TO.N,DShot_M4*%
X232100000Y-71440000D03*
D24*
%TO.P,M4,7,PA2_7*%
%TO.N,PHASE_C_M4*%
X232600000Y-71560000D03*
%TO.P,M4,8,PA3_8*%
%TO.N,PHASE_B_M4*%
X233100000Y-71560000D03*
%TO.P,M4,9,PA4_9*%
%TO.N,PHASE_A_M4*%
X233600000Y-71560000D03*
D25*
%TO.P,M4,10,PA5_10*%
%TO.N,EN3_M4*%
X234100000Y-71440000D03*
D26*
%TO.P,M4,11,PA6_11*%
%TO.N,EN2_M4*%
X234650000Y-71990000D03*
D21*
%TO.P,M4,12,PA7_12*%
%TO.N,EN1_M4*%
X234550000Y-72490000D03*
%TO.P,M4,13,PA8_13*%
%TO.N,INH3_M4*%
X234550000Y-72990000D03*
%TO.P,M4,14,PA11[PA9]_14*%
%TO.N,INH2_M4*%
X234550000Y-73490000D03*
D27*
%TO.P,M4,15,PA12[PA10]_15*%
%TO.N,INH1_M4*%
X234650000Y-73990000D03*
D28*
%TO.P,M4,16,PA13_16*%
%TO.N,SWDIO_M4*%
X234100000Y-74560000D03*
D24*
%TO.P,M4,17,PA14-BOOT0_17*%
%TO.N,SWCLK_M4*%
X233600000Y-74440000D03*
%TO.P,M4,18,PB6_18*%
%TO.N,unconnected-(M4-PB6-Pad18)*%
X233100000Y-74440000D03*
%TO.P,M4,19,PB7_19*%
%TO.N,unconnected-(M4-PB7-Pad19)*%
X232600000Y-74440000D03*
D29*
%TO.P,M4,20,PC14-OSCX_IN_20*%
%TO.N,unconnected-(M4-PC14-OSCX_IN-Pad20)*%
X232100000Y-74560000D03*
%TD*%
D31*
%TO.P,J9,1,Pin_1_1*%
%TO.N,OUT3*%
X214600000Y-56000000D03*
%TD*%
D17*
%TO.P,R50,1*%
%TO.N,GND*%
X214200000Y-46170000D03*
%TO.P,R50,2*%
%TO.N,PHASE_A_M3*%
X214200000Y-47030000D03*
%TD*%
%TO.P,R13,1*%
%TO.N,PHASE_A_M1*%
X244600000Y-52970000D03*
%TO.P,R13,2*%
%TO.N,OUT1*%
X244600000Y-53830000D03*
%TD*%
D13*
%TO.P,R6,1*%
%TO.N,Net-(GD1-nFAULT)*%
X235730000Y-56000000D03*
%TO.P,R6,2*%
%TO.N,3V3*%
X234870000Y-56000000D03*
%TD*%
D12*
%TO.P,C58,1*%
%TO.N,PHASE_A_M4*%
X246600000Y-72980000D03*
%TO.P,C58,2*%
%TO.N,GND*%
X246600000Y-73820000D03*
%TD*%
D17*
%TO.P,R49,1*%
%TO.N,PHASE_A_M3*%
X215200000Y-47030000D03*
%TO.P,R49,2*%
%TO.N,OUT1*%
X215200000Y-46170000D03*
%TD*%
D12*
%TO.P,C39,1*%
%TO.N,OUT3*%
X223330000Y-51250000D03*
%TO.P,C39,2*%
%TO.N,Net-(GD3-BOOT3)*%
X223330000Y-50410000D03*
%TD*%
D17*
%TO.P,R47,1*%
%TO.N,Net-(Q17-G)*%
X218350000Y-57900000D03*
%TO.P,R47,2*%
%TO.N,GHS3*%
X218350000Y-57040000D03*
%TD*%
D30*
%TO.P,C5,1*%
%TO.N,Net-(GD1-REG12)*%
X236390000Y-58500000D03*
%TO.P,C5,2*%
%TO.N,GND*%
X236390000Y-59900000D03*
%TD*%
D17*
%TO.P,R20,1*%
%TO.N,3V3*%
X221400000Y-60570000D03*
%TO.P,R20,2*%
%TO.N,Net-(GD2-SCREF)*%
X221400000Y-61430000D03*
%TD*%
D11*
%TO.P,SWCLK_M1,1,Pin_1_1*%
%TO.N,SWCLK_M1*%
X238000000Y-40850000D03*
%TD*%
D13*
%TO.P,R26,1*%
%TO.N,Net-(Q8-G)*%
X211070000Y-65900000D03*
%TO.P,R26,2*%
%TO.N,GLS1*%
X211930000Y-65900000D03*
%TD*%
D32*
%TO.P,M2,1,PC15-OSCX_OUT_1*%
%TO.N,unconnected-(M2-PC15-OSCX_OUT-Pad1)*%
X228450000Y-66010000D03*
D21*
%TO.P,M2,2,VDD/VDDA_2*%
%TO.N,3V3*%
X228350000Y-66510000D03*
%TO.P,M2,3,VSS/VSSA_3*%
%TO.N,GND*%
X228350000Y-67010000D03*
%TO.P,M2,4,PF2-NRST_4*%
%TO.N,Net-(M2-PF2-NRST)*%
X228350000Y-67510000D03*
D33*
%TO.P,M2,5,PA0_5*%
%TO.N,VIRTUAL_NEUTRAL_POINT*%
X228450000Y-68010000D03*
D34*
%TO.P,M2,6,PA1_6*%
%TO.N,DShot_M2*%
X227900000Y-68560000D03*
D24*
%TO.P,M2,7,PA2_7*%
%TO.N,PHASE_C_M2*%
X227400000Y-68440000D03*
%TO.P,M2,8,PA3_8*%
%TO.N,PHASE_B_M2*%
X226900000Y-68440000D03*
%TO.P,M2,9,PA4_9*%
%TO.N,PHASE_A_M2*%
X226400000Y-68440000D03*
D35*
%TO.P,M2,10,PA5_10*%
%TO.N,EN3_M2*%
X225900000Y-68560000D03*
D36*
%TO.P,M2,11,PA6_11*%
%TO.N,EN2_M2*%
X225350000Y-68010000D03*
D21*
%TO.P,M2,12,PA7_12*%
%TO.N,EN1_M2*%
X225450000Y-67510000D03*
%TO.P,M2,13,PA8_13*%
%TO.N,INH3_M2*%
X225450000Y-67010000D03*
%TO.P,M2,14,PA11[PA9]_14*%
%TO.N,INH2_M2*%
X225450000Y-66510000D03*
D37*
%TO.P,M2,15,PA12[PA10]_15*%
%TO.N,INH1_M2*%
X225350000Y-66010000D03*
D38*
%TO.P,M2,16,PA13_16*%
%TO.N,SWDIO_M2*%
X225900000Y-65440000D03*
D24*
%TO.P,M2,17,PA14-BOOT0_17*%
%TO.N,SWCLK_M2*%
X226400000Y-65560000D03*
%TO.P,M2,18,PB6_18*%
%TO.N,unconnected-(M2-PB6-Pad18)*%
X226900000Y-65560000D03*
%TO.P,M2,19,PB7_19*%
%TO.N,unconnected-(M2-PB7-Pad19)*%
X227400000Y-65560000D03*
D39*
%TO.P,M2,20,PC14-OSCX_IN_20*%
%TO.N,unconnected-(M2-PC14-OSCX_IN-Pad20)*%
X227900000Y-65440000D03*
%TD*%
D13*
%TO.P,R73,1*%
%TO.N,VIRTUAL_NEUTRAL_POINT*%
X234140000Y-48000000D03*
%TO.P,R73,2*%
%TO.N,OUT1*%
X235000000Y-48000000D03*
%TD*%
D17*
%TO.P,R14,1*%
%TO.N,GND*%
X245600000Y-53830000D03*
%TO.P,R14,2*%
%TO.N,PHASE_A_M1*%
X245600000Y-52970000D03*
%TD*%
%TO.P,R54,1*%
%TO.N,GND*%
X214200000Y-58170000D03*
%TO.P,R54,2*%
%TO.N,PHASE_C_M3*%
X214200000Y-59030000D03*
%TD*%
%TO.P,R23,1*%
%TO.N,Net-(GD2-DT{slash}MODE)*%
X219400000Y-61430000D03*
%TO.P,R23,2*%
%TO.N,GND*%
X219400000Y-60570000D03*
%TD*%
D31*
%TO.P,J8,1,Pin_1_1*%
%TO.N,OUT2*%
X214600000Y-50000000D03*
%TD*%
D14*
%TO.P,GD2,1,CP_1*%
%TO.N,Net-(GD2-CP)*%
X220550000Y-65000000D03*
%TO.P,GD2,2,DT/MODE_2*%
%TO.N,Net-(GD2-DT{slash}MODE)*%
X221050000Y-65000000D03*
%TO.P,GD2,3,SCREF_3*%
%TO.N,Net-(GD2-SCREF)*%
X221550000Y-65000000D03*
%TO.P,GD2,4,VS_4*%
%TO.N,B+*%
X222050000Y-65000000D03*
%TO.P,GD2,5,REG12_5*%
%TO.N,Net-(GD2-REG12)*%
X222550000Y-65000000D03*
%TO.P,GD2,6,nFAULT_6*%
%TO.N,Net-(GD2-nFAULT)*%
X223050000Y-65000000D03*
D15*
%TO.P,GD2,7,INH1/IN1_7*%
%TO.N,INH1_M2*%
X223800000Y-65750000D03*
%TO.P,GD2,8,INH2/IN2_8*%
%TO.N,INH2_M2*%
X223800000Y-66250000D03*
%TO.P,GD2,9,INH3/IN3_9*%
%TO.N,INH3_M2*%
X223800000Y-66750000D03*
%TO.P,GD2,10,INL1/EN1_10*%
%TO.N,EN1_M2*%
X223800000Y-67250000D03*
%TO.P,GD2,11,INL2/EN2_11*%
%TO.N,EN2_M2*%
X223800000Y-67750000D03*
%TO.P,GD2,12,INL3/EN3_12*%
%TO.N,EN3_M2*%
X223800000Y-68250000D03*
D14*
%TO.P,GD2,13,BOOT3_13*%
%TO.N,Net-(GD2-BOOT3)*%
X223050000Y-69000000D03*
%TO.P,GD2,14,GHS3_14*%
%TO.N,GHS3*%
X222550000Y-69000000D03*
%TO.P,GD2,15,OUT3_15*%
%TO.N,OUT3*%
X222050000Y-69000000D03*
%TO.P,GD2,16,GLS3_16*%
%TO.N,GLS3*%
X221550000Y-69000000D03*
%TO.P,GD2,17,BOOT2_17*%
%TO.N,Net-(GD2-BOOT2)*%
X221050000Y-69000000D03*
%TO.P,GD2,18,GHS2_18*%
%TO.N,GHS2*%
X220560000Y-69000000D03*
D15*
%TO.P,GD2,19,OUT2_19*%
%TO.N,OUT2*%
X219800000Y-68250000D03*
%TO.P,GD2,20,GLS2_20*%
%TO.N,GLS2*%
X219800000Y-67750000D03*
%TO.P,GD2,21,BOOT1_21*%
%TO.N,Net-(GD2-BOOT1)*%
X219800000Y-67250000D03*
%TO.P,GD2,22,GHS1_22*%
%TO.N,GHS1*%
X219800000Y-66750000D03*
%TO.P,GD2,23,OUT1_23*%
%TO.N,OUT1*%
X219800000Y-66250000D03*
%TO.P,GD2,24,GLS1_24*%
%TO.N,GLS1*%
X219800000Y-65750000D03*
D16*
%TO.P,GD2,25,EP_25*%
%TO.N,GND*%
X221810000Y-67000000D03*
%TD*%
D17*
%TO.P,R21,1*%
%TO.N,Net-(GD2-SCREF)*%
X220400000Y-61430000D03*
%TO.P,R21,2*%
%TO.N,GND*%
X220400000Y-60570000D03*
%TD*%
%TO.P,R59,1*%
%TO.N,Net-(GD4-DT{slash}MODE)*%
X241000000Y-78070000D03*
%TO.P,R59,2*%
%TO.N,GND*%
X241000000Y-78930000D03*
%TD*%
%TO.P,R40,1*%
%TO.N,GND*%
X218400000Y-41070000D03*
%TO.P,R40,2*%
%TO.N,Net-(GD3-CP)*%
X218400000Y-41930000D03*
%TD*%
D13*
%TO.P,R25,1*%
%TO.N,Net-(Q7-G)*%
X218330000Y-65900000D03*
%TO.P,R25,2*%
%TO.N,GHS1*%
X217470000Y-65900000D03*
%TD*%
D17*
%TO.P,R39,1*%
%TO.N,Net-(GD3-SCREF)*%
X220400000Y-41930000D03*
%TO.P,R39,2*%
%TO.N,GND*%
X220400000Y-41070000D03*
%TD*%
D30*
%TO.P,C6,1*%
%TO.N,Net-(GD1-REG12)*%
X234970000Y-58500000D03*
%TO.P,C6,2*%
%TO.N,GND*%
X234970000Y-59900000D03*
%TD*%
D18*
%TO.P,POWER_OUT1,1,Pin_1_1*%
%TO.N,B+*%
X232000000Y-83000000D03*
%TO.P,POWER_OUT1,2,Pin_2_2*%
%TO.N,GND*%
X228000000Y-83000000D03*
%TD*%
D19*
%TO.P,C1,1*%
%TO.N,Net-(M1-PF2-NRST)*%
X230220000Y-52400000D03*
%TO.P,C1,2*%
%TO.N,GND*%
X229380000Y-52400000D03*
%TD*%
D13*
%TO.P,R8,1*%
%TO.N,Net-(Q2-G)*%
X248930000Y-54100000D03*
%TO.P,R8,2*%
%TO.N,GLS1*%
X248070000Y-54100000D03*
%TD*%
D19*
%TO.P,C62,1*%
%TO.N,VIRTUAL_NEUTRAL_POINT*%
X226850000Y-72900000D03*
%TO.P,C62,2*%
%TO.N,GND*%
X227690000Y-72900000D03*
%TD*%
D13*
%TO.P,R77,1*%
%TO.N,VIRTUAL_NEUTRAL_POINT*%
X225880000Y-72400000D03*
%TO.P,R77,2*%
%TO.N,OUT1*%
X225020000Y-72400000D03*
%TD*%
D30*
%TO.P,C20,1*%
%TO.N,Net-(GD2-REG12)*%
X223610000Y-61700000D03*
%TO.P,C20,2*%
%TO.N,GND*%
X223610000Y-60300000D03*
%TD*%
D17*
%TO.P,R87,1*%
%TO.N,VIRTUAL_NEUTRAL_POINT*%
X237030000Y-66050000D03*
%TO.P,R87,2*%
%TO.N,OUT2*%
X237030000Y-66910000D03*
%TD*%
%TO.P,R71,1*%
%TO.N,PHASE_C_M4*%
X244600000Y-60970000D03*
%TO.P,R71,2*%
%TO.N,OUT3*%
X244600000Y-61830000D03*
%TD*%
%TO.P,R52,1*%
%TO.N,GND*%
X214200000Y-52170000D03*
%TO.P,R52,2*%
%TO.N,PHASE_B_M3*%
X214200000Y-53030000D03*
%TD*%
%TO.P,R5,1*%
%TO.N,Net-(GD1-DT{slash}MODE)*%
X240600000Y-58770000D03*
%TO.P,R5,2*%
%TO.N,GND*%
X240600000Y-59630000D03*
%TD*%
%TO.P,R72,1*%
%TO.N,GND*%
X245600000Y-61830000D03*
%TO.P,R72,2*%
%TO.N,PHASE_C_M4*%
X245600000Y-60970000D03*
%TD*%
%TO.P,R4,1*%
%TO.N,GND*%
X241600000Y-59630000D03*
%TO.P,R4,2*%
%TO.N,Net-(GD1-CP)*%
X241600000Y-58770000D03*
%TD*%
D13*
%TO.P,R37,1*%
%TO.N,Net-(M3-PF2-NRST)*%
X229870000Y-48490000D03*
%TO.P,R37,2*%
%TO.N,3V3*%
X230730000Y-48490000D03*
%TD*%
D12*
%TO.P,C14,1*%
%TO.N,PHASE_B_M1*%
X246600000Y-46980000D03*
%TO.P,C14,2*%
%TO.N,GND*%
X246600000Y-47820000D03*
%TD*%
D11*
%TO.P,3V3,1,Pin_1_1*%
%TO.N,3V3*%
X230000000Y-40850000D03*
%TD*%
D12*
%TO.P,C24,1*%
%TO.N,OUT3*%
X223120000Y-70910000D03*
%TO.P,C24,2*%
%TO.N,Net-(GD2-BOOT3)*%
X223120000Y-70070000D03*
%TD*%
D17*
%TO.P,R34,1*%
%TO.N,GND*%
X214200000Y-72170000D03*
%TO.P,R34,2*%
%TO.N,PHASE_B_M2*%
X214200000Y-73030000D03*
%TD*%
D11*
%TO.P,SWCLK_M4,1,Pin_1_1*%
%TO.N,SWCLK_M4*%
X224000000Y-76500000D03*
%TD*%
D17*
%TO.P,R41,1*%
%TO.N,Net-(GD3-DT{slash}MODE)*%
X219400000Y-41930000D03*
%TO.P,R41,2*%
%TO.N,GND*%
X219400000Y-41070000D03*
%TD*%
D19*
%TO.P,C34,1*%
%TO.N,B+*%
X223470000Y-41060000D03*
%TO.P,C34,2*%
%TO.N,GND*%
X222630000Y-41060000D03*
%TD*%
D12*
%TO.P,C59,1*%
%TO.N,PHASE_B_M4*%
X246600000Y-66780000D03*
%TO.P,C59,2*%
%TO.N,GND*%
X246600000Y-67620000D03*
%TD*%
D13*
%TO.P,R60,1*%
%TO.N,Net-(GD4-nFAULT)*%
X235700000Y-75850000D03*
%TO.P,R60,2*%
%TO.N,3V3*%
X234840000Y-75850000D03*
%TD*%
D11*
%TO.P,SWDIO_M1,1,Pin_1_1*%
%TO.N,SWDIO_M1*%
X240000000Y-40840000D03*
%TD*%
%TO.P,SWDIO_M2,1,Pin_1_1*%
%TO.N,SWDIO_M2*%
X220000000Y-78950000D03*
%TD*%
D19*
%TO.P,C16,1*%
%TO.N,Net-(M2-PF2-NRST)*%
X229880000Y-67370000D03*
%TO.P,C16,2*%
%TO.N,GND*%
X230720000Y-67370000D03*
%TD*%
D18*
%TO.P,J10,1,Pin_1_1*%
%TO.N,OUT1*%
X245500000Y-76000000D03*
%TD*%
D12*
%TO.P,C44,1*%
%TO.N,PHASE_B_M3*%
X213200000Y-53020000D03*
%TO.P,C44,2*%
%TO.N,GND*%
X213200000Y-52180000D03*
%TD*%
D13*
%TO.P,R74,1*%
%TO.N,VIRTUAL_NEUTRAL_POINT*%
X234140000Y-47000000D03*
%TO.P,R74,2*%
%TO.N,OUT2*%
X235000000Y-47000000D03*
%TD*%
D11*
%TO.P,SWDIO_M3,1,Pin_1_1*%
%TO.N,SWDIO_M3*%
X236000000Y-40840000D03*
%TD*%
D13*
%TO.P,R64,1*%
%TO.N,Net-(Q22-G)*%
X248930000Y-68100000D03*
%TO.P,R64,2*%
%TO.N,GLS2*%
X248070000Y-68100000D03*
%TD*%
D17*
%TO.P,R88,1*%
%TO.N,VIRTUAL_NEUTRAL_POINT*%
X236030000Y-66050000D03*
%TO.P,R88,2*%
%TO.N,OUT3*%
X236030000Y-66910000D03*
%TD*%
D13*
%TO.P,R80,1*%
%TO.N,VIRTUAL_NEUTRAL_POINT*%
X225880000Y-74400000D03*
%TO.P,R80,2*%
%TO.N,OUT3*%
X225020000Y-74400000D03*
%TD*%
D12*
%TO.P,C29,1*%
%TO.N,PHASE_B_M2*%
X213200000Y-73020000D03*
%TO.P,C29,2*%
%TO.N,GND*%
X213200000Y-72180000D03*
%TD*%
D13*
%TO.P,R76,1*%
%TO.N,GND*%
X232270000Y-45000000D03*
%TO.P,R76,2*%
%TO.N,VIRTUAL_NEUTRAL_POINT*%
X233130000Y-45000000D03*
%TD*%
D17*
%TO.P,R31,1*%
%TO.N,PHASE_A_M2*%
X215200000Y-67030000D03*
%TO.P,R31,2*%
%TO.N,OUT1*%
X215200000Y-66170000D03*
%TD*%
D12*
%TO.P,C45,1*%
%TO.N,PHASE_C_M3*%
X213200000Y-59020000D03*
%TO.P,C45,2*%
%TO.N,GND*%
X213200000Y-58180000D03*
%TD*%
D13*
%TO.P,R84,1*%
%TO.N,VIRTUAL_NEUTRAL_POINT*%
X225730000Y-54000000D03*
%TO.P,R84,2*%
%TO.N,OUT3*%
X224870000Y-54000000D03*
%TD*%
D30*
%TO.P,C36,1*%
%TO.N,Net-(GD3-REG12)*%
X226320000Y-42650000D03*
%TO.P,C36,2*%
%TO.N,GND*%
X226320000Y-41250000D03*
%TD*%
D19*
%TO.P,C49,1*%
%TO.N,B+*%
X237080000Y-78940000D03*
%TO.P,C49,2*%
%TO.N,GND*%
X237920000Y-78940000D03*
%TD*%
D17*
%TO.P,R15,1*%
%TO.N,PHASE_B_M1*%
X244600000Y-46970000D03*
%TO.P,R15,2*%
%TO.N,OUT2*%
X244600000Y-47830000D03*
%TD*%
D19*
%TO.P,C31,1*%
%TO.N,Net-(M3-PF2-NRST)*%
X229880000Y-47500000D03*
%TO.P,C31,2*%
%TO.N,GND*%
X230720000Y-47500000D03*
%TD*%
D13*
%TO.P,R44,1*%
%TO.N,Net-(Q14-G)*%
X211070000Y-45900000D03*
%TO.P,R44,2*%
%TO.N,GLS1*%
X211930000Y-45900000D03*
%TD*%
D12*
%TO.P,C15,1*%
%TO.N,PHASE_C_M1*%
X246600000Y-40980000D03*
%TO.P,C15,2*%
%TO.N,GND*%
X246600000Y-41820000D03*
%TD*%
D19*
%TO.P,C22,1*%
%TO.N,OUT1*%
X216280000Y-67000000D03*
%TO.P,C22,2*%
%TO.N,Net-(GD2-BOOT1)*%
X217120000Y-67000000D03*
%TD*%
D18*
%TO.P,J4,1,Pin_1_1*%
%TO.N,OUT1*%
X214600000Y-64000000D03*
%TD*%
D17*
%TO.P,R82,1*%
%TO.N,GND*%
X225750000Y-55970000D03*
%TO.P,R82,2*%
%TO.N,VIRTUAL_NEUTRAL_POINT*%
X225750000Y-55110000D03*
%TD*%
%TO.P,R58,1*%
%TO.N,GND*%
X242000000Y-78930000D03*
%TO.P,R58,2*%
%TO.N,Net-(GD4-CP)*%
X242000000Y-78070000D03*
%TD*%
%TO.P,R67,1*%
%TO.N,PHASE_A_M4*%
X244600000Y-72970000D03*
%TO.P,R67,2*%
%TO.N,OUT1*%
X244600000Y-73830000D03*
%TD*%
D12*
%TO.P,C32,1*%
%TO.N,3V3*%
X231000000Y-45710000D03*
%TO.P,C32,2*%
%TO.N,GND*%
X231000000Y-46550000D03*
%TD*%
%TO.P,C63,1*%
%TO.N,VIRTUAL_NEUTRAL_POINT*%
X226830000Y-55170000D03*
%TO.P,C63,2*%
%TO.N,GND*%
X226830000Y-56010000D03*
%TD*%
D13*
%TO.P,R62,1*%
%TO.N,Net-(Q20-G)*%
X248930000Y-74100000D03*
%TO.P,R62,2*%
%TO.N,GLS1*%
X248070000Y-74100000D03*
%TD*%
D12*
%TO.P,C43,1*%
%TO.N,PHASE_A_M3*%
X213200000Y-47020000D03*
%TO.P,C43,2*%
%TO.N,GND*%
X213200000Y-46180000D03*
%TD*%
D17*
%TO.P,R70,1*%
%TO.N,GND*%
X245600000Y-67630000D03*
%TO.P,R70,2*%
%TO.N,PHASE_B_M4*%
X245600000Y-66770000D03*
%TD*%
D13*
%TO.P,R79,1*%
%TO.N,VIRTUAL_NEUTRAL_POINT*%
X225880000Y-73400000D03*
%TO.P,R79,2*%
%TO.N,OUT2*%
X225020000Y-73400000D03*
%TD*%
D12*
%TO.P,C33,1*%
%TO.N,3V3*%
X230000000Y-45710000D03*
%TO.P,C33,2*%
%TO.N,GND*%
X230000000Y-46550000D03*
%TD*%
D19*
%TO.P,C53,1*%
%TO.N,OUT2*%
X243410000Y-67000000D03*
%TO.P,C53,2*%
%TO.N,Net-(GD4-BOOT2)*%
X242570000Y-67000000D03*
%TD*%
D17*
%TO.P,R17,1*%
%TO.N,PHASE_C_M1*%
X244600000Y-40970000D03*
%TO.P,R17,2*%
%TO.N,OUT3*%
X244600000Y-41830000D03*
%TD*%
D13*
%TO.P,R28,1*%
%TO.N,Net-(Q10-G)*%
X211070000Y-71900000D03*
%TO.P,R28,2*%
%TO.N,GLS2*%
X211930000Y-71900000D03*
%TD*%
%TO.P,R10,1*%
%TO.N,Net-(Q4-G)*%
X248930000Y-48100000D03*
%TO.P,R10,2*%
%TO.N,GLS2*%
X248070000Y-48100000D03*
%TD*%
D14*
%TO.P,GD1,1,CP_1*%
%TO.N,Net-(GD1-CP)*%
X239450000Y-55000000D03*
%TO.P,GD1,2,DT/MODE_2*%
%TO.N,Net-(GD1-DT{slash}MODE)*%
X238950001Y-55000000D03*
%TO.P,GD1,3,SCREF_3*%
%TO.N,Net-(GD1-SCREF)*%
X238450000Y-55000000D03*
%TO.P,GD1,4,VS_4*%
%TO.N,B+*%
X237950000Y-55000000D03*
%TO.P,GD1,5,REG12_5*%
%TO.N,Net-(GD1-REG12)*%
X237449999Y-55000000D03*
%TO.P,GD1,6,nFAULT_6*%
%TO.N,Net-(GD1-nFAULT)*%
X236950000Y-55000000D03*
D15*
%TO.P,GD1,7,INH1/IN1_7*%
%TO.N,INH1_M1*%
X236200000Y-54250000D03*
%TO.P,GD1,8,INH2/IN2_8*%
%TO.N,INH2_M1*%
X236200000Y-53750001D03*
%TO.P,GD1,9,INH3/IN3_9*%
%TO.N,INH3_M1*%
X236200000Y-53250000D03*
%TO.P,GD1,10,INL1/EN1_10*%
%TO.N,EN1_M1*%
X236200000Y-52750000D03*
%TO.P,GD1,11,INL2/EN2_11*%
%TO.N,EN2_M1*%
X236200000Y-52249999D03*
%TO.P,GD1,12,INL3/EN3_12*%
%TO.N,EN3_M1*%
X236200000Y-51750000D03*
D14*
%TO.P,GD1,13,BOOT3_13*%
%TO.N,Net-(GD1-BOOT3)*%
X236950000Y-51000000D03*
%TO.P,GD1,14,GHS3_14*%
%TO.N,GHS3*%
X237449999Y-51000000D03*
%TO.P,GD1,15,OUT3_15*%
%TO.N,OUT3*%
X237950000Y-51000000D03*
%TO.P,GD1,16,GLS3_16*%
%TO.N,GLS3*%
X238450000Y-51000000D03*
%TO.P,GD1,17,BOOT2_17*%
%TO.N,Net-(GD1-BOOT2)*%
X238950001Y-51000000D03*
%TO.P,GD1,18,GHS2_18*%
%TO.N,GHS2*%
X239440000Y-51000000D03*
D15*
%TO.P,GD1,19,OUT2_19*%
%TO.N,OUT2*%
X240200000Y-51750000D03*
%TO.P,GD1,20,GLS2_20*%
%TO.N,GLS2*%
X240200000Y-52249999D03*
%TO.P,GD1,21,BOOT1_21*%
%TO.N,Net-(GD1-BOOT1)*%
X240200000Y-52750000D03*
%TO.P,GD1,22,GHS1_22*%
%TO.N,GHS1*%
X240200000Y-53250000D03*
%TO.P,GD1,23,OUT1_23*%
%TO.N,OUT1*%
X240200000Y-53750001D03*
%TO.P,GD1,24,GLS1_24*%
%TO.N,GLS1*%
X240200000Y-54250000D03*
D16*
%TO.P,GD1,25,EP_25*%
%TO.N,GND*%
X238190000Y-53000000D03*
%TD*%
D18*
%TO.P,J11,1,Pin_1_1*%
%TO.N,OUT2*%
X245400000Y-70000000D03*
%TD*%
D13*
%TO.P,R66,1*%
%TO.N,Net-(Q24-G)*%
X248930000Y-62100000D03*
%TO.P,R66,2*%
%TO.N,GLS3*%
X248070000Y-62100000D03*
%TD*%
D17*
%TO.P,R33,1*%
%TO.N,PHASE_B_M2*%
X215200000Y-73030000D03*
%TO.P,R33,2*%
%TO.N,OUT2*%
X215200000Y-72170000D03*
%TD*%
%TO.P,R16,1*%
%TO.N,GND*%
X245600000Y-47830000D03*
%TO.P,R16,2*%
%TO.N,PHASE_B_M1*%
X245600000Y-46970000D03*
%TD*%
%TO.P,R38,1*%
%TO.N,3V3*%
X221400000Y-41070000D03*
%TO.P,R38,2*%
%TO.N,Net-(GD3-SCREF)*%
X221400000Y-41930000D03*
%TD*%
%TO.P,R69,1*%
%TO.N,PHASE_B_M4*%
X244600000Y-66770000D03*
%TO.P,R69,2*%
%TO.N,OUT2*%
X244600000Y-67630000D03*
%TD*%
D18*
%TO.P,J2,1,Pin_1_1*%
%TO.N,OUT2*%
X245400000Y-50000000D03*
%TD*%
D13*
%TO.P,R55,1*%
%TO.N,Net-(M4-PF2-NRST)*%
X230230000Y-71570000D03*
%TO.P,R55,2*%
%TO.N,3V3*%
X229370000Y-71570000D03*
%TD*%
%TO.P,R75,1*%
%TO.N,VIRTUAL_NEUTRAL_POINT*%
X234140000Y-46000000D03*
%TO.P,R75,2*%
%TO.N,OUT3*%
X235000000Y-46000000D03*
%TD*%
D17*
%TO.P,R3,1*%
%TO.N,Net-(GD1-SCREF)*%
X239600000Y-58770000D03*
%TO.P,R3,2*%
%TO.N,GND*%
X239600000Y-59630000D03*
%TD*%
D12*
%TO.P,C54,1*%
%TO.N,OUT3*%
X236790000Y-68960000D03*
%TO.P,C54,2*%
%TO.N,Net-(GD4-BOOT3)*%
X236790000Y-69800000D03*
%TD*%
%TO.P,C48,1*%
%TO.N,3V3*%
X229200000Y-74360000D03*
%TO.P,C48,2*%
%TO.N,GND*%
X229200000Y-73520000D03*
%TD*%
D13*
%TO.P,R30,1*%
%TO.N,Net-(Q12-G)*%
X211070000Y-77900000D03*
%TO.P,R30,2*%
%TO.N,GLS3*%
X211930000Y-77900000D03*
%TD*%
D19*
%TO.P,C61,1*%
%TO.N,VIRTUAL_NEUTRAL_POINT*%
X233120000Y-46000000D03*
%TO.P,C61,2*%
%TO.N,GND*%
X232280000Y-46000000D03*
%TD*%
D13*
%TO.P,R61,1*%
%TO.N,Net-(Q19-G)*%
X241690000Y-74080000D03*
%TO.P,R61,2*%
%TO.N,GHS1*%
X242550000Y-74080000D03*
%TD*%
D12*
%TO.P,C19,1*%
%TO.N,B+*%
X222400000Y-61020000D03*
%TO.P,C19,2*%
%TO.N,GND*%
X222400000Y-60180000D03*
%TD*%
D11*
%TO.P,DShot_M1,1,Pin_1_1*%
%TO.N,DShot_M1*%
X240000000Y-43200000D03*
%TD*%
%TO.P,DShot_M3,1,Pin_1_1*%
%TO.N,DShot_M3*%
X238000000Y-43200000D03*
%TD*%
%TO.P,SWDIO_M4,1,Pin_1_1*%
%TO.N,SWDIO_M4*%
X224000000Y-78950000D03*
%TD*%
D12*
%TO.P,C64,1*%
%TO.N,VIRTUAL_NEUTRAL_POINT*%
X236520000Y-65020000D03*
%TO.P,C64,2*%
%TO.N,GND*%
X236520000Y-64180000D03*
%TD*%
D19*
%TO.P,C23,1*%
%TO.N,OUT2*%
X216480000Y-73000000D03*
%TO.P,C23,2*%
%TO.N,Net-(GD2-BOOT2)*%
X217320000Y-73000000D03*
%TD*%
D17*
%TO.P,R85,1*%
%TO.N,VIRTUAL_NEUTRAL_POINT*%
X238030000Y-66050000D03*
%TO.P,R85,2*%
%TO.N,OUT1*%
X238030000Y-66910000D03*
%TD*%
%TO.P,R57,1*%
%TO.N,Net-(GD4-SCREF)*%
X240000000Y-78070000D03*
%TO.P,R57,2*%
%TO.N,GND*%
X240000000Y-78930000D03*
%TD*%
D13*
%TO.P,R12,1*%
%TO.N,Net-(Q6-G)*%
X248930000Y-42100000D03*
%TO.P,R12,2*%
%TO.N,GLS3*%
X248070000Y-42100000D03*
%TD*%
D12*
%TO.P,C60,1*%
%TO.N,PHASE_C_M4*%
X246600000Y-60980000D03*
%TO.P,C60,2*%
%TO.N,GND*%
X246600000Y-61820000D03*
%TD*%
D17*
%TO.P,R68,1*%
%TO.N,GND*%
X245600000Y-73830000D03*
%TO.P,R68,2*%
%TO.N,PHASE_A_M4*%
X245600000Y-72970000D03*
%TD*%
%TO.P,R45,1*%
%TO.N,Net-(Q15-G)*%
X218350000Y-51890000D03*
%TO.P,R45,2*%
%TO.N,GHS2*%
X218350000Y-51030000D03*
%TD*%
%TO.P,R86,1*%
%TO.N,GND*%
X237520000Y-64170000D03*
%TO.P,R86,2*%
%TO.N,VIRTUAL_NEUTRAL_POINT*%
X237520000Y-65030000D03*
%TD*%
D19*
%TO.P,C7,1*%
%TO.N,OUT1*%
X243520000Y-52930000D03*
%TO.P,C7,2*%
%TO.N,Net-(GD1-BOOT1)*%
X242680000Y-52930000D03*
%TD*%
D12*
%TO.P,C47,1*%
%TO.N,3V3*%
X230200000Y-74360000D03*
%TO.P,C47,2*%
%TO.N,GND*%
X230200000Y-73520000D03*
%TD*%
D11*
%TO.P,DShot_M2,1,Pin_1_1*%
%TO.N,DShot_M2*%
X220000000Y-76500000D03*
%TD*%
D13*
%TO.P,R43,1*%
%TO.N,Net-(Q13-G)*%
X218470000Y-45910000D03*
%TO.P,R43,2*%
%TO.N,GHS1*%
X217610000Y-45910000D03*
%TD*%
D18*
%TO.P,J1,1,Pin_1_1*%
%TO.N,OUT1*%
X245400000Y-56000000D03*
%TD*%
D11*
%TO.P,SWCLK_M3,1,Pin_1_1*%
%TO.N,SWCLK_M3*%
X236000000Y-43200000D03*
%TD*%
D12*
%TO.P,C18,1*%
%TO.N,3V3*%
X230000000Y-65580000D03*
%TO.P,C18,2*%
%TO.N,GND*%
X230000000Y-66420000D03*
%TD*%
D18*
%TO.P,J12,1,Pin_1_1*%
%TO.N,OUT3*%
X245400000Y-64000000D03*
%TD*%
D13*
%TO.P,R7,1*%
%TO.N,Net-(Q1-G)*%
X241690000Y-54100000D03*
%TO.P,R7,2*%
%TO.N,GHS1*%
X242550000Y-54100000D03*
%TD*%
%TO.P,R19,1*%
%TO.N,Net-(M2-PF2-NRST)*%
X229870000Y-68370000D03*
%TO.P,R19,2*%
%TO.N,3V3*%
X230730000Y-68370000D03*
%TD*%
D14*
%TO.P,GD3,1,CP_1*%
%TO.N,Net-(GD3-CP)*%
X220550000Y-45000000D03*
%TO.P,GD3,2,DT/MODE_2*%
%TO.N,Net-(GD3-DT{slash}MODE)*%
X221050000Y-45000000D03*
%TO.P,GD3,3,SCREF_3*%
%TO.N,Net-(GD3-SCREF)*%
X221550000Y-45000000D03*
%TO.P,GD3,4,VS_4*%
%TO.N,B+*%
X222050000Y-45000000D03*
%TO.P,GD3,5,REG12_5*%
%TO.N,Net-(GD3-REG12)*%
X222550000Y-45000000D03*
%TO.P,GD3,6,nFAULT_6*%
%TO.N,Net-(GD3-nFAULT)*%
X223050000Y-45000000D03*
D15*
%TO.P,GD3,7,INH1/IN1_7*%
%TO.N,INH1_M3*%
X223800000Y-45750000D03*
%TO.P,GD3,8,INH2/IN2_8*%
%TO.N,INH2_M3*%
X223800000Y-46250000D03*
%TO.P,GD3,9,INH3/IN3_9*%
%TO.N,INH3_M3*%
X223800000Y-46750000D03*
%TO.P,GD3,10,INL1/EN1_10*%
%TO.N,EN1_M3*%
X223800000Y-47250000D03*
%TO.P,GD3,11,INL2/EN2_11*%
%TO.N,EN2_M3*%
X223800000Y-47750000D03*
%TO.P,GD3,12,INL3/EN3_12*%
%TO.N,EN3_M3*%
X223800000Y-48250000D03*
D14*
%TO.P,GD3,13,BOOT3_13*%
%TO.N,Net-(GD3-BOOT3)*%
X223050000Y-49000000D03*
%TO.P,GD3,14,GHS3_14*%
%TO.N,GHS3*%
X222550000Y-49000000D03*
%TO.P,GD3,15,OUT3_15*%
%TO.N,OUT3*%
X222050000Y-49000000D03*
%TO.P,GD3,16,GLS3_16*%
%TO.N,GLS3*%
X221550000Y-49000000D03*
%TO.P,GD3,17,BOOT2_17*%
%TO.N,Net-(GD3-BOOT2)*%
X221050000Y-49000000D03*
%TO.P,GD3,18,GHS2_18*%
%TO.N,GHS2*%
X220560000Y-49000000D03*
D15*
%TO.P,GD3,19,OUT2_19*%
%TO.N,OUT2*%
X219800000Y-48250000D03*
%TO.P,GD3,20,GLS2_20*%
%TO.N,GLS2*%
X219800000Y-47750000D03*
%TO.P,GD3,21,BOOT1_21*%
%TO.N,Net-(GD3-BOOT1)*%
X219800000Y-47250000D03*
%TO.P,GD3,22,GHS1_22*%
%TO.N,GHS1*%
X219800000Y-46750000D03*
%TO.P,GD3,23,OUT1_23*%
%TO.N,OUT1*%
X219800000Y-46250000D03*
%TO.P,GD3,24,GLS1_24*%
%TO.N,GLS1*%
X219800000Y-45750000D03*
D16*
%TO.P,GD3,25,EP_25*%
%TO.N,GND*%
X221810000Y-47000000D03*
%TD*%
D17*
%TO.P,R22,1*%
%TO.N,GND*%
X218400000Y-60570000D03*
%TO.P,R22,2*%
%TO.N,Net-(GD2-CP)*%
X218400000Y-61430000D03*
%TD*%
%TO.P,R51,1*%
%TO.N,PHASE_B_M3*%
X215200000Y-53030000D03*
%TO.P,R51,2*%
%TO.N,OUT2*%
X215200000Y-52170000D03*
%TD*%
%TO.P,R27,1*%
%TO.N,Net-(Q9-G)*%
X218350000Y-71890000D03*
%TO.P,R27,2*%
%TO.N,GHS2*%
X218350000Y-71030000D03*
%TD*%
D13*
%TO.P,R81,1*%
%TO.N,VIRTUAL_NEUTRAL_POINT*%
X225730000Y-52000000D03*
%TO.P,R81,2*%
%TO.N,OUT1*%
X224870000Y-52000000D03*
%TD*%
%TO.P,R42,1*%
%TO.N,Net-(GD3-nFAULT)*%
X224300000Y-44110000D03*
%TO.P,R42,2*%
%TO.N,3V3*%
X225160000Y-44110000D03*
%TD*%
D12*
%TO.P,C4,1*%
%TO.N,B+*%
X237600000Y-58780000D03*
%TO.P,C4,2*%
%TO.N,GND*%
X237600000Y-59620000D03*
%TD*%
D19*
%TO.P,C38,1*%
%TO.N,OUT2*%
X216680000Y-53000000D03*
%TO.P,C38,2*%
%TO.N,Net-(GD3-BOOT2)*%
X217520000Y-53000000D03*
%TD*%
D31*
%TO.P,J7,1,Pin_1_1*%
%TO.N,OUT1*%
X214600000Y-44000000D03*
%TD*%
D12*
%TO.P,C30,1*%
%TO.N,PHASE_C_M2*%
X213200000Y-79020000D03*
%TO.P,C30,2*%
%TO.N,GND*%
X213200000Y-78180000D03*
%TD*%
D19*
%TO.P,C52,1*%
%TO.N,OUT1*%
X243420000Y-72930000D03*
%TO.P,C52,2*%
%TO.N,Net-(GD4-BOOT1)*%
X242580000Y-72930000D03*
%TD*%
D13*
%TO.P,R46,1*%
%TO.N,Net-(Q16-G)*%
X211070000Y-51900000D03*
%TO.P,R46,2*%
%TO.N,GLS2*%
X211930000Y-51900000D03*
%TD*%
D17*
%TO.P,R32,1*%
%TO.N,GND*%
X214200000Y-66170000D03*
%TO.P,R32,2*%
%TO.N,PHASE_A_M2*%
X214200000Y-67030000D03*
%TD*%
D11*
%TO.P,SWCLK_M2,1,Pin_1_1*%
%TO.N,SWCLK_M2*%
X222000000Y-78950000D03*
%TD*%
D19*
%TO.P,C46,1*%
%TO.N,Net-(M4-PF2-NRST)*%
X230220000Y-72570000D03*
%TO.P,C46,2*%
%TO.N,GND*%
X229380000Y-72570000D03*
%TD*%
D30*
%TO.P,C51,1*%
%TO.N,Net-(GD4-REG12)*%
X234270000Y-77800000D03*
%TO.P,C51,2*%
%TO.N,GND*%
X234270000Y-79200000D03*
%TD*%
D12*
%TO.P,C13,1*%
%TO.N,PHASE_A_M1*%
X246600000Y-52980000D03*
%TO.P,C13,2*%
%TO.N,GND*%
X246600000Y-53820000D03*
%TD*%
D17*
%TO.P,R11,1*%
%TO.N,Net-(Q5-G)*%
X241650000Y-42110000D03*
%TO.P,R11,2*%
%TO.N,GHS3*%
X241650000Y-42970000D03*
%TD*%
D32*
%TO.P,M3,1,PC15-OSCX_OUT_1*%
%TO.N,unconnected-(M3-PC15-OSCX_OUT-Pad1)*%
X228450000Y-46010000D03*
D21*
%TO.P,M3,2,VDD/VDDA_2*%
%TO.N,3V3*%
X228350000Y-46510000D03*
%TO.P,M3,3,VSS/VSSA_3*%
%TO.N,GND*%
X228350000Y-47010000D03*
%TO.P,M3,4,PF2-NRST_4*%
%TO.N,Net-(M3-PF2-NRST)*%
X228350000Y-47510000D03*
D33*
%TO.P,M3,5,PA0_5*%
%TO.N,VIRTUAL_NEUTRAL_POINT*%
X228450000Y-48010000D03*
D34*
%TO.P,M3,6,PA1_6*%
%TO.N,DShot_M3*%
X227900000Y-48560000D03*
D24*
%TO.P,M3,7,PA2_7*%
%TO.N,PHASE_C_M3*%
X227400000Y-48440000D03*
%TO.P,M3,8,PA3_8*%
%TO.N,PHASE_B_M3*%
X226900000Y-48440000D03*
%TO.P,M3,9,PA4_9*%
%TO.N,PHASE_A_M3*%
X226400000Y-48440000D03*
D35*
%TO.P,M3,10,PA5_10*%
%TO.N,EN3_M3*%
X225900000Y-48560000D03*
D36*
%TO.P,M3,11,PA6_11*%
%TO.N,EN2_M3*%
X225350000Y-48010000D03*
D21*
%TO.P,M3,12,PA7_12*%
%TO.N,EN1_M3*%
X225450000Y-47510000D03*
%TO.P,M3,13,PA8_13*%
%TO.N,INH3_M3*%
X225450000Y-47010000D03*
%TO.P,M3,14,PA11[PA9]_14*%
%TO.N,INH2_M3*%
X225450000Y-46510000D03*
D37*
%TO.P,M3,15,PA12[PA10]_15*%
%TO.N,INH1_M3*%
X225350000Y-46010000D03*
D38*
%TO.P,M3,16,PA13_16*%
%TO.N,SWDIO_M3*%
X225900000Y-45440000D03*
D24*
%TO.P,M3,17,PA14-BOOT0_17*%
%TO.N,SWCLK_M3*%
X226400000Y-45560000D03*
%TO.P,M3,18,PB6_18*%
%TO.N,unconnected-(M3-PB6-Pad18)*%
X226900000Y-45560000D03*
%TO.P,M3,19,PB7_19*%
%TO.N,unconnected-(M3-PB7-Pad19)*%
X227400000Y-45560000D03*
D39*
%TO.P,M3,20,PC14-OSCX_IN_20*%
%TO.N,unconnected-(M3-PC14-OSCX_IN-Pad20)*%
X227900000Y-45440000D03*
%TD*%
D17*
%TO.P,R63,1*%
%TO.N,Net-(Q21-G)*%
X241650000Y-68110000D03*
%TO.P,R63,2*%
%TO.N,GHS2*%
X241650000Y-68970000D03*
%TD*%
D13*
%TO.P,R83,1*%
%TO.N,VIRTUAL_NEUTRAL_POINT*%
X225730000Y-53000000D03*
%TO.P,R83,2*%
%TO.N,OUT2*%
X224870000Y-53000000D03*
%TD*%
D17*
%TO.P,R2,1*%
%TO.N,3V3*%
X238600000Y-59630000D03*
%TO.P,R2,2*%
%TO.N,Net-(GD1-SCREF)*%
X238600000Y-58770000D03*
%TD*%
%TO.P,R18,1*%
%TO.N,GND*%
X245600000Y-41830000D03*
%TO.P,R18,2*%
%TO.N,PHASE_C_M1*%
X245600000Y-40970000D03*
%TD*%
D40*
%TO.N,GND*%
X222600000Y-47000000D03*
X244475000Y-82000000D03*
X226100000Y-83300000D03*
X230091812Y-49387222D03*
X234270000Y-79200000D03*
X230100000Y-69850000D03*
X247580000Y-73000000D03*
X211500000Y-68820000D03*
X248500000Y-75990000D03*
X222400000Y-60180000D03*
X228300000Y-83900000D03*
X214000000Y-83525000D03*
X248500000Y-51260000D03*
X208000000Y-77500000D03*
X249300000Y-52490000D03*
X252000000Y-42475000D03*
X230000000Y-46550000D03*
X211500000Y-55990000D03*
X249300000Y-55990000D03*
X211100000Y-75370000D03*
X241600000Y-59630000D03*
X248500000Y-65260000D03*
X210700000Y-47530000D03*
X229380000Y-57640000D03*
X229500000Y-44200000D03*
X211500000Y-67560000D03*
X211500000Y-70080000D03*
X248500000Y-72480000D03*
X248900000Y-45250000D03*
X211500000Y-73500000D03*
X229200000Y-70330000D03*
X249300000Y-43960000D03*
X211100000Y-41550000D03*
X226320000Y-41250000D03*
X210700000Y-42730000D03*
X248900000Y-49370000D03*
X211100000Y-62100000D03*
X227600000Y-83900000D03*
X248900000Y-66490000D03*
X211100000Y-48100000D03*
X248900000Y-55370000D03*
X229650000Y-69850000D03*
X211500000Y-44000000D03*
X211100000Y-70630000D03*
X241000000Y-78930000D03*
X230360000Y-62500000D03*
X248900000Y-76630000D03*
X248500000Y-66500000D03*
X248900000Y-71240000D03*
X206470000Y-76000000D03*
X218400000Y-41070000D03*
X246000000Y-80475000D03*
X248900000Y-78480000D03*
X248500000Y-78490000D03*
X229240000Y-58100000D03*
X249300000Y-75990000D03*
X228300000Y-82700000D03*
X211500000Y-50030000D03*
X249300000Y-72480000D03*
X229000000Y-82700000D03*
X248500000Y-57240000D03*
X249300000Y-57240000D03*
X248900000Y-50000000D03*
X229000000Y-82100000D03*
X249300000Y-63970000D03*
X229610000Y-49850000D03*
X211100000Y-63370000D03*
X238200000Y-73000000D03*
X219400000Y-60570000D03*
X206475000Y-44000000D03*
X248900000Y-72470000D03*
X222630000Y-41060000D03*
X240000000Y-78930000D03*
X242000000Y-78930000D03*
X221000000Y-47000000D03*
X239600000Y-59630000D03*
X208000000Y-74500000D03*
X211100000Y-69370000D03*
X247600000Y-53000000D03*
X212250000Y-79000000D03*
X211500000Y-74810000D03*
X229850000Y-62500000D03*
X211500000Y-48770000D03*
X248500000Y-46460000D03*
X210700000Y-48770000D03*
X248500000Y-52490000D03*
X229610000Y-49370000D03*
X211500000Y-41550000D03*
X226100000Y-83900000D03*
X211100000Y-54100000D03*
X248900000Y-52480000D03*
X237600000Y-59620000D03*
X212475000Y-82000000D03*
X252000000Y-77500000D03*
X248500000Y-63970000D03*
X211100000Y-47530000D03*
X238200000Y-53000000D03*
X211100000Y-50030000D03*
X212300000Y-53000000D03*
X249300000Y-78490000D03*
X246000000Y-36475000D03*
X237400000Y-73000000D03*
X211100000Y-44630000D03*
X229000000Y-83300000D03*
X248500000Y-58490000D03*
X248900000Y-58480000D03*
X212475000Y-38000000D03*
X211100000Y-42100000D03*
X248500000Y-69990000D03*
X211500000Y-42730000D03*
X248900000Y-50630000D03*
X208000000Y-42475000D03*
X230100000Y-44700000D03*
X230100000Y-69370000D03*
X214000000Y-36475000D03*
X249300000Y-51260000D03*
X229210000Y-57190000D03*
X236390000Y-59900000D03*
X210700000Y-73500000D03*
X248900000Y-56630000D03*
X248900000Y-63960000D03*
X248900000Y-57900000D03*
X230190000Y-75200000D03*
X248500000Y-45260000D03*
X250500000Y-76000000D03*
X211100000Y-68100000D03*
X211100000Y-76080000D03*
X214000000Y-39525000D03*
X220400000Y-60570000D03*
X211100000Y-55990000D03*
X248900000Y-77900000D03*
X229000000Y-83900000D03*
X210700000Y-68820000D03*
X249300000Y-50010000D03*
X247590000Y-61000000D03*
X221000000Y-67000000D03*
X211100000Y-48770000D03*
X252000000Y-45525000D03*
X246000000Y-39525000D03*
X248900000Y-44630000D03*
X248500000Y-77260000D03*
X211500000Y-64070000D03*
X226900000Y-82100000D03*
X249300000Y-66500000D03*
X211100000Y-54790000D03*
X210700000Y-55990000D03*
X229830000Y-50280000D03*
X211100000Y-64070000D03*
X229200000Y-69370000D03*
X252000000Y-74500000D03*
X214000000Y-80475000D03*
X212250000Y-73000000D03*
X248900000Y-46450000D03*
X239000000Y-73000000D03*
X230020000Y-64660000D03*
X211500000Y-54790000D03*
X210700000Y-44000000D03*
X211500000Y-76080000D03*
X208000000Y-45525000D03*
X248500000Y-50010000D03*
X228300000Y-82100000D03*
X211100000Y-67560000D03*
X248900000Y-55980000D03*
X249300000Y-65260000D03*
X230360000Y-62010000D03*
X248900000Y-43950000D03*
X220400000Y-41070000D03*
X211500000Y-53550000D03*
X240600000Y-59630000D03*
X248900000Y-75370000D03*
X249300000Y-46460000D03*
X228300000Y-83300000D03*
X211100000Y-61530000D03*
X249300000Y-71250000D03*
X227600000Y-82100000D03*
X211100000Y-74810000D03*
X210700000Y-62780000D03*
X221800000Y-67000000D03*
X211100000Y-73500000D03*
X210700000Y-50030000D03*
X221800000Y-47000000D03*
X248900000Y-65900000D03*
X226900000Y-83900000D03*
X230524339Y-69374339D03*
X210700000Y-70080000D03*
X211100000Y-43370000D03*
X210700000Y-41550000D03*
X218400000Y-60570000D03*
X211100000Y-56630000D03*
X211100000Y-76630000D03*
X210700000Y-54790000D03*
X231485161Y-44506100D03*
X249300000Y-69990000D03*
X211100000Y-50630000D03*
X211100000Y-53550000D03*
X247600000Y-47000000D03*
X229380000Y-56750000D03*
X239000000Y-53000000D03*
X248900000Y-45900000D03*
X211500000Y-62780000D03*
X211100000Y-49370000D03*
X211100000Y-68820000D03*
X211100000Y-55370000D03*
X247600000Y-67000000D03*
X210700000Y-53550000D03*
X248900000Y-51900000D03*
X211100000Y-74100000D03*
X210700000Y-74810000D03*
X248900000Y-71900000D03*
X248900000Y-75980000D03*
X212300000Y-59000000D03*
X223610000Y-60300000D03*
X212300000Y-47000000D03*
X237400000Y-53000000D03*
X248900000Y-64630000D03*
X211500000Y-47530000D03*
X226100000Y-82700000D03*
X210700000Y-61530000D03*
X211100000Y-70080000D03*
X248900000Y-65250000D03*
X248500000Y-55990000D03*
X229500000Y-44700000D03*
X248500000Y-71250000D03*
X247600000Y-41000000D03*
X211100000Y-64630000D03*
X248900000Y-77250000D03*
X230060000Y-49848328D03*
X246000000Y-83525000D03*
X248900000Y-70630000D03*
X222600000Y-67000000D03*
X248900000Y-57230000D03*
X212250000Y-67000000D03*
X248900000Y-63370000D03*
X230100000Y-44200000D03*
X237920000Y-78940000D03*
X249300000Y-58490000D03*
X248900000Y-43370000D03*
X211110000Y-42730000D03*
X230360000Y-62990000D03*
X230200000Y-73520000D03*
X248500000Y-43960000D03*
X211100000Y-62780000D03*
X210700000Y-67560000D03*
X250475000Y-44000000D03*
X229200000Y-69850000D03*
X226100000Y-82100000D03*
X249300000Y-45260000D03*
X248900000Y-69980000D03*
X211100000Y-44000000D03*
X229200000Y-53430000D03*
X210700000Y-64070000D03*
X248900000Y-51250000D03*
X230000000Y-66420000D03*
X219400000Y-41070000D03*
X249300000Y-77260000D03*
X210700000Y-76080000D03*
X211500000Y-61530000D03*
X244475000Y-38000000D03*
X229850000Y-63000000D03*
X229650000Y-69370000D03*
X248900000Y-69370000D03*
%TO.N,Net-(Q14-G)*%
X211070000Y-45900000D03*
%TO.N,OUT1*%
X244800000Y-57100000D03*
X244200000Y-55400000D03*
X245400000Y-56000000D03*
X245400000Y-57100000D03*
X214000000Y-64000000D03*
X244300000Y-76600000D03*
X214000000Y-44000000D03*
X224080000Y-72980000D03*
X214000000Y-45100000D03*
X244800000Y-56000000D03*
X215800000Y-64600000D03*
X246700000Y-76600000D03*
X244200000Y-56000000D03*
X244300000Y-75400000D03*
X215200000Y-64000000D03*
X215200000Y-62900000D03*
X215800000Y-44600000D03*
X246100000Y-74900000D03*
X214000000Y-62900000D03*
X245500000Y-77100000D03*
X244300000Y-76000000D03*
X245500000Y-75400000D03*
X238030000Y-66910000D03*
X213400000Y-64600000D03*
X244200000Y-56600000D03*
X246100000Y-77100000D03*
X214600000Y-64000000D03*
X245400000Y-56600000D03*
X214600000Y-43400000D03*
X214600000Y-44600000D03*
X215800000Y-44000000D03*
X244800000Y-54900000D03*
X223900000Y-53000000D03*
X215200000Y-42900000D03*
X245400000Y-55400000D03*
X246600000Y-55400000D03*
X213400000Y-44600000D03*
X214600000Y-64600000D03*
X246600000Y-56000000D03*
X214600000Y-62900000D03*
X246000000Y-56000000D03*
X213400000Y-64000000D03*
X246000000Y-54900000D03*
X215800000Y-43400000D03*
X214600000Y-63400000D03*
X244900000Y-74900000D03*
X246100000Y-76000000D03*
X214600000Y-45100000D03*
X215200000Y-65100000D03*
X215200000Y-45100000D03*
X213400000Y-43400000D03*
X215800000Y-64000000D03*
X246000000Y-57100000D03*
X245500000Y-76600000D03*
X213400000Y-63400000D03*
X215200000Y-44000000D03*
X245400000Y-54900000D03*
X214000000Y-65100000D03*
X246600000Y-56600000D03*
X213400000Y-44000000D03*
X244900000Y-77100000D03*
X246700000Y-75400000D03*
X215800000Y-63400000D03*
X245500000Y-74900000D03*
X214600000Y-65100000D03*
X214000000Y-42900000D03*
X214600000Y-44000000D03*
X245500000Y-76000000D03*
X214600000Y-42900000D03*
X244900000Y-76000000D03*
X236000000Y-47000000D03*
X246700000Y-76000000D03*
%TO.N,Net-(Q13-G)*%
X218470000Y-45910000D03*
%TO.N,B+*%
X232400000Y-83900000D03*
X233900000Y-83300000D03*
X223470000Y-41060000D03*
X231700000Y-83900000D03*
X232400000Y-82100000D03*
X231700000Y-83300000D03*
X231000000Y-82700000D03*
X233900000Y-82100000D03*
X237600000Y-58780000D03*
X231000000Y-83300000D03*
X233900000Y-82700000D03*
X231700000Y-82700000D03*
X233100000Y-82100000D03*
X237080000Y-78940000D03*
X231000000Y-83900000D03*
X233900000Y-83900000D03*
X233100000Y-83900000D03*
X222400000Y-61020000D03*
X231000000Y-82100000D03*
X231700000Y-82100000D03*
%TO.N,OUT2*%
X214600000Y-70000000D03*
X245400000Y-70600000D03*
X246600000Y-50000000D03*
X246000000Y-68900000D03*
X237030000Y-66910000D03*
X214000000Y-68900000D03*
X244200000Y-50600000D03*
X245400000Y-50600000D03*
X246000000Y-70000000D03*
X215200000Y-51100000D03*
X244800000Y-70000000D03*
X214600000Y-69400000D03*
X245400000Y-49400000D03*
X245400000Y-50000000D03*
X246600000Y-49400000D03*
X244200000Y-69400000D03*
X244200000Y-70600000D03*
X215200000Y-71100000D03*
X214600000Y-68900000D03*
X245400000Y-48900000D03*
X245400000Y-69400000D03*
X214000000Y-71100000D03*
X215800000Y-50000000D03*
X246600000Y-69400000D03*
X236800000Y-47000000D03*
X214600000Y-49400000D03*
X246600000Y-70600000D03*
X246000000Y-48900000D03*
X214600000Y-50000000D03*
X215800000Y-49400000D03*
X214600000Y-50600000D03*
X244800000Y-48900000D03*
X244200000Y-49400000D03*
X215200000Y-70000000D03*
X244800000Y-71100000D03*
X213400000Y-49400000D03*
X214000000Y-50000000D03*
X246000000Y-71100000D03*
X214600000Y-48900000D03*
X213400000Y-50000000D03*
X213400000Y-70600000D03*
X214000000Y-51100000D03*
X215800000Y-69400000D03*
X213400000Y-69400000D03*
X215800000Y-70600000D03*
X215800000Y-50600000D03*
X246600000Y-70000000D03*
X214600000Y-51100000D03*
X245400000Y-51100000D03*
X215200000Y-50000000D03*
X246600000Y-50600000D03*
X215800000Y-70000000D03*
X213400000Y-50600000D03*
X245400000Y-68900000D03*
X223000000Y-53000000D03*
X245400000Y-71100000D03*
X244800000Y-50000000D03*
X215200000Y-48900000D03*
X244800000Y-68900000D03*
X246000000Y-50000000D03*
X244200000Y-70000000D03*
X214000000Y-70000000D03*
X244200000Y-50000000D03*
X246000000Y-51100000D03*
X223262133Y-73010662D03*
X244800000Y-51100000D03*
X214000000Y-48900000D03*
X214600000Y-71100000D03*
X213400000Y-70000000D03*
X215200000Y-68900000D03*
X245400000Y-70000000D03*
X214600000Y-70600000D03*
%TO.N,Net-(Q3-G)*%
X241650000Y-48110000D03*
%TO.N,Net-(Q16-G)*%
X211070000Y-51900000D03*
%TO.N,Net-(Q15-G)*%
X218350000Y-51890000D03*
%TO.N,Net-(Q12-G)*%
X211100000Y-77900000D03*
%TO.N,OUT3*%
X214000000Y-54900000D03*
X245400000Y-64600000D03*
X236030000Y-66910000D03*
X222401472Y-72998530D03*
X213400000Y-75400000D03*
X214600000Y-54900000D03*
X214600000Y-55400000D03*
X214600000Y-74900000D03*
X215800000Y-55400000D03*
X245400000Y-62900000D03*
X213400000Y-76600000D03*
X244800000Y-42900000D03*
X244800000Y-64000000D03*
X214600000Y-77100000D03*
X215800000Y-76600000D03*
X215200000Y-57100000D03*
X244800000Y-44000000D03*
X245400000Y-44000000D03*
X246600000Y-63400000D03*
X244800000Y-62900000D03*
X246000000Y-65100000D03*
X213400000Y-56600000D03*
X246600000Y-64000000D03*
X245400000Y-63400000D03*
X246000000Y-45100000D03*
X245400000Y-42900000D03*
X215200000Y-56000000D03*
X244200000Y-63400000D03*
X237600000Y-47000000D03*
X214600000Y-56000000D03*
X214600000Y-57100000D03*
X246000000Y-42900000D03*
X244200000Y-44600000D03*
X245400000Y-44600000D03*
X246600000Y-43400000D03*
X214600000Y-56600000D03*
X245400000Y-64000000D03*
X214600000Y-76000000D03*
X215800000Y-76000000D03*
X214000000Y-57100000D03*
X245400000Y-45100000D03*
X222100000Y-53000000D03*
X244200000Y-43400000D03*
X244200000Y-64000000D03*
X215800000Y-56600000D03*
X244800000Y-45100000D03*
X246000000Y-44000000D03*
X245400000Y-43400000D03*
X214000000Y-77100000D03*
X215200000Y-76000000D03*
X214600000Y-75400000D03*
X213400000Y-76000000D03*
X214000000Y-74900000D03*
X215200000Y-54900000D03*
X214000000Y-76000000D03*
X246600000Y-44000000D03*
X245400000Y-65100000D03*
X214000000Y-56000000D03*
X246600000Y-64600000D03*
X244800000Y-65100000D03*
X213400000Y-56000000D03*
X215800000Y-75400000D03*
X244200000Y-64600000D03*
X215200000Y-77100000D03*
X215800000Y-56000000D03*
X244200000Y-44000000D03*
X246000000Y-64000000D03*
X214600000Y-76600000D03*
X246000000Y-62900000D03*
X246600000Y-44600000D03*
X213400000Y-55400000D03*
X215200000Y-74900000D03*
%TO.N,Net-(Q24-G)*%
X248930000Y-62100000D03*
%TO.N,Net-(Q21-G)*%
X241650000Y-68110000D03*
%TO.N,Net-(Q11-G)*%
X218350000Y-77900000D03*
%TO.N,Net-(Q20-G)*%
X248930000Y-74100000D03*
%TO.N,Net-(Q22-G)*%
X248900000Y-68100000D03*
%TO.N,Net-(Q17-G)*%
X218350000Y-57900000D03*
%TO.N,Net-(Q4-G)*%
X248930000Y-48100000D03*
%TO.N,Net-(Q10-G)*%
X211070000Y-71900000D03*
%TO.N,Net-(Q2-G)*%
X248930000Y-54100000D03*
%TO.N,Net-(Q18-G)*%
X211070000Y-57900000D03*
%TO.N,Net-(Q9-G)*%
X218350000Y-71890000D03*
%TO.N,Net-(Q19-G)*%
X241690000Y-74080000D03*
%TO.N,Net-(Q1-G)*%
X241690000Y-54100000D03*
%TO.N,Net-(Q23-G)*%
X241650000Y-62120000D03*
%TO.N,Net-(Q5-G)*%
X241650000Y-42110000D03*
%TO.N,Net-(Q8-G)*%
X211100000Y-65900000D03*
%TO.N,Net-(Q6-G)*%
X248930000Y-42100000D03*
%TO.N,Net-(Q7-G)*%
X218330000Y-65900000D03*
%TO.N,DShot_M4*%
X231900000Y-70230000D03*
X230170000Y-76030000D03*
%TO.N,PHASE_C_M3*%
X213200000Y-59020000D03*
X227500000Y-50260000D03*
%TO.N,3V3*%
X230000000Y-60050000D03*
X230000000Y-65580000D03*
X229023870Y-41316843D03*
X221400000Y-60570000D03*
X230200000Y-74360000D03*
X229000000Y-40800000D03*
X229200000Y-54270000D03*
X227820000Y-41060000D03*
X221400000Y-41070000D03*
X230973494Y-41319580D03*
X230000000Y-45710000D03*
X230000000Y-40850000D03*
X239000000Y-78930000D03*
X231000000Y-40800000D03*
X238600000Y-59630000D03*
%TO.N,PHASE_A_M2*%
X213200000Y-67020000D03*
X226254366Y-69611733D03*
%TO.N,PHASE_C_M1*%
X246600000Y-40980000D03*
X232440764Y-49706776D03*
%TO.N,PHASE_B_M1*%
X233100000Y-50160000D03*
X246600000Y-46980000D03*
%TO.N,PHASE_A_M1*%
X246590000Y-52970000D03*
X233763080Y-49500000D03*
%TO.N,SWDIO_M1*%
X240000000Y-40840000D03*
X230500000Y-58990000D03*
%TO.N,SWCLK_M1*%
X238000000Y-40850000D03*
X229500000Y-58990000D03*
%TO.N,PHASE_C_M2*%
X213200000Y-79020000D03*
X227500000Y-69717610D03*
%TO.N,PHASE_C_M4*%
X246575735Y-60955735D03*
X232480000Y-69660000D03*
%TO.N,PHASE_B_M4*%
X233104102Y-70187625D03*
X246600000Y-66800002D03*
%TO.N,PHASE_A_M4*%
X233732070Y-69679601D03*
X246600000Y-72980000D03*
%TO.N,PHASE_A_M3*%
X226270000Y-50210000D03*
X213200000Y-47020000D03*
%TO.N,PHASE_B_M2*%
X213200000Y-73020000D03*
X226834898Y-70162176D03*
%TO.N,SWDIO_M2*%
X229500000Y-61000000D03*
X220000000Y-78950000D03*
%TO.N,SWCLK_M2*%
X222000000Y-78950000D03*
X230500000Y-61000000D03*
%TO.N,PHASE_B_M3*%
X226890000Y-49679236D03*
X213200000Y-53020000D03*
%TO.N,DShot_M3*%
X228110000Y-49655002D03*
X231580000Y-43711741D03*
%TD*%
%TO.N,GND*%
D41*
X229300000Y-73420000D02*
X229300000Y-72650000D01*
X246780000Y-41820000D02*
X247600000Y-41000000D01*
X213200000Y-72190000D02*
X213060000Y-72190000D01*
X213200000Y-52180000D02*
X212730000Y-52180000D01*
X223610000Y-60300000D02*
X225030000Y-60300000D01*
X214200000Y-78180000D02*
X213210000Y-78180000D01*
X213060000Y-78190000D02*
X212250000Y-79000000D01*
X246980000Y-67620000D02*
X247600000Y-67000000D01*
X246600000Y-73820000D02*
X246760000Y-73820000D01*
X245610000Y-41820000D02*
X245600000Y-41830000D01*
X230000000Y-66420000D02*
X231000000Y-66420000D01*
X237520000Y-64130000D02*
X236520000Y-64130000D01*
X230200000Y-53430000D02*
X230640000Y-52990000D01*
X213060000Y-66190000D02*
X212250000Y-67000000D01*
X246590000Y-47830000D02*
X246600000Y-47820000D01*
X235690000Y-79200000D02*
X234270000Y-79200000D01*
X229710000Y-66420000D02*
X230000000Y-66420000D01*
X230840000Y-67250000D02*
X230720000Y-67370000D01*
X245600000Y-73830000D02*
X246590000Y-73830000D01*
X229290000Y-52490000D02*
X229380000Y-52400000D01*
X229300000Y-72650000D02*
X229380000Y-72570000D01*
X213210000Y-78180000D02*
X213200000Y-78190000D01*
X245600000Y-53830000D02*
X246590000Y-53830000D01*
X246760000Y-73820000D02*
X247580000Y-73000000D01*
X230200000Y-73520000D02*
X230300000Y-73520000D01*
X246600000Y-67620000D02*
X246980000Y-67620000D01*
X213200000Y-58180000D02*
X214190000Y-58180000D01*
X230200000Y-73520000D02*
X229400000Y-73520000D01*
X214190000Y-66180000D02*
X213200000Y-66180000D01*
X214200000Y-46170000D02*
X213210000Y-46170000D01*
X230020000Y-64660000D02*
X230940000Y-64660000D01*
X230830000Y-72990000D02*
X231650000Y-72990000D01*
X246600000Y-41820000D02*
X245610000Y-41820000D01*
X230640000Y-52990000D02*
X231650000Y-52990000D01*
X213200000Y-78190000D02*
X213060000Y-78190000D01*
X213060000Y-72190000D02*
X212250000Y-73000000D01*
X229120000Y-67010000D02*
X229710000Y-66420000D01*
X230190000Y-75200000D02*
X229000000Y-75200000D01*
X230300000Y-73520000D02*
X230830000Y-72990000D01*
X234970000Y-59900000D02*
X236390000Y-59900000D01*
X212300000Y-46610000D02*
X212300000Y-47000000D01*
X246780000Y-53820000D02*
X247600000Y-53000000D01*
X230000000Y-46550000D02*
X231000000Y-46550000D01*
X228350000Y-67010000D02*
X229120000Y-67010000D01*
X231616101Y-44506100D02*
X232110001Y-45000000D01*
X232110001Y-45000000D02*
X232270000Y-45000000D01*
X246600000Y-47820000D02*
X246780000Y-47820000D01*
X246770000Y-61820000D02*
X247590000Y-61000000D01*
X230720000Y-46830000D02*
X231000000Y-46550000D01*
X246600000Y-61820000D02*
X246770000Y-61820000D01*
X229400000Y-73520000D02*
X229300000Y-73420000D01*
X230840000Y-66580000D02*
X230840000Y-67250000D01*
X230000000Y-46550000D02*
X229575686Y-46550000D01*
X229290000Y-53340000D02*
X229290000Y-52490000D01*
X214200000Y-52170000D02*
X213210000Y-52170000D01*
X213200000Y-58180000D02*
X212920000Y-58180000D01*
X212730000Y-46180000D02*
X212300000Y-46610000D01*
X213210000Y-72180000D02*
X213200000Y-72190000D01*
X230720000Y-47500000D02*
X230720000Y-46830000D01*
X212300000Y-52610000D02*
X212300000Y-53000000D01*
X214200000Y-72180000D02*
X213210000Y-72180000D01*
X246590000Y-61830000D02*
X246600000Y-61820000D01*
X245600000Y-61830000D02*
X246590000Y-61830000D01*
X213210000Y-46170000D02*
X213200000Y-46180000D01*
X214200000Y-66170000D02*
X214190000Y-66180000D01*
X246590000Y-53830000D02*
X246600000Y-53820000D01*
X232280000Y-46000000D02*
X232280000Y-45010000D01*
X212920000Y-58180000D02*
X212300000Y-58800000D01*
X227690000Y-73890000D02*
X227700000Y-73900000D01*
X246780000Y-47820000D02*
X247600000Y-47000000D01*
X245600000Y-47830000D02*
X246590000Y-47830000D01*
X246590000Y-67630000D02*
X246600000Y-67620000D01*
X229575686Y-46550000D02*
X229115686Y-47010000D01*
X246590000Y-73830000D02*
X246600000Y-73820000D01*
X212300000Y-58800000D02*
X212300000Y-59000000D01*
X214190000Y-58180000D02*
X214200000Y-58170000D01*
X246600000Y-53820000D02*
X246780000Y-53820000D01*
X229200000Y-53430000D02*
X230200000Y-53430000D01*
X231420000Y-64180000D02*
X236520000Y-64180000D01*
X213210000Y-52170000D02*
X213200000Y-52180000D01*
X245600000Y-67630000D02*
X246590000Y-67630000D01*
X213200000Y-66190000D02*
X213060000Y-66190000D01*
X246600000Y-41820000D02*
X246780000Y-41820000D01*
X229115686Y-47010000D02*
X228350000Y-47010000D01*
X227690000Y-72900000D02*
X227690000Y-73890000D01*
X212730000Y-52180000D02*
X212300000Y-52610000D01*
X213200000Y-46180000D02*
X212730000Y-46180000D01*
X232280000Y-45010000D02*
X232270000Y-45000000D01*
X229380000Y-52400000D02*
X229370000Y-52400000D01*
X230940000Y-64660000D02*
X231420000Y-64180000D01*
X231485161Y-44506100D02*
X231616101Y-44506100D01*
X231000000Y-66420000D02*
X230840000Y-66580000D01*
X229000000Y-75200000D02*
X227700000Y-73900000D01*
X229200000Y-53430000D02*
X229290000Y-53340000D01*
%TO.N,OUT1*%
X240200000Y-73750000D02*
X240660000Y-73750000D01*
X242515686Y-56000000D02*
X245400000Y-56000000D01*
X215200000Y-64600000D02*
X214600000Y-64000000D01*
X224080000Y-72980000D02*
X224670000Y-72390000D01*
X215200000Y-46170000D02*
X215200000Y-44600000D01*
X240200000Y-53750001D02*
X240795001Y-53750001D01*
X219370000Y-46250000D02*
X219080000Y-45960000D01*
X240660000Y-73750000D02*
X240980000Y-74070000D01*
X219800000Y-46250000D02*
X219370000Y-46250000D01*
X243520000Y-54120000D02*
X245400000Y-56000000D01*
X219080000Y-45960000D02*
X219080000Y-45440000D01*
X240980000Y-53935000D02*
X240980000Y-54464314D01*
X224310000Y-52000000D02*
X224870000Y-52000000D01*
X215200000Y-66180000D02*
X215200000Y-64600000D01*
X219400000Y-66250000D02*
X219050000Y-65900000D01*
X244600000Y-55200000D02*
X245400000Y-56000000D01*
X243420000Y-72930000D02*
X243420000Y-73920000D01*
X236000000Y-47000000D02*
X235000000Y-48000000D01*
X242520000Y-76000000D02*
X245500000Y-76000000D01*
X223900000Y-53000000D02*
X223900000Y-52410000D01*
X217640000Y-44000000D02*
X214600000Y-44000000D01*
X240980000Y-74460000D02*
X242520000Y-76000000D01*
X219800000Y-66250000D02*
X219400000Y-66250000D01*
X240795001Y-53750001D02*
X240980000Y-53935000D01*
X224670000Y-72390000D02*
X225010000Y-72390000D01*
X225010000Y-72390000D02*
X225020000Y-72400000D01*
X216270000Y-45670000D02*
X214600000Y-44000000D01*
X240980000Y-74070000D02*
X240980000Y-74460000D01*
X219080000Y-45440000D02*
X217640000Y-44000000D01*
X243520000Y-52930000D02*
X243520000Y-54120000D01*
X216280000Y-65680000D02*
X214600000Y-64000000D01*
X217460000Y-64000000D02*
X214600000Y-64000000D01*
X215200000Y-44600000D02*
X214600000Y-44000000D01*
X223900000Y-52410000D02*
X224310000Y-52000000D01*
X216270000Y-47030000D02*
X216270000Y-45670000D01*
X244600000Y-75100000D02*
X244600000Y-73830000D01*
X219050000Y-65590000D02*
X217460000Y-64000000D01*
X243420000Y-73920000D02*
X245500000Y-76000000D01*
X216280000Y-67000000D02*
X216280000Y-65680000D01*
X240980000Y-54464314D02*
X242515686Y-56000000D01*
X219050000Y-65900000D02*
X219050000Y-65590000D01*
X245500000Y-76000000D02*
X244600000Y-75100000D01*
X244600000Y-53830000D02*
X244600000Y-55200000D01*
%TO.N,B+*%
X237080000Y-78390000D02*
X237080000Y-78940000D01*
X237950000Y-55000000D02*
X237950000Y-58430000D01*
X222050000Y-62390000D02*
X222400000Y-62040000D01*
X222050000Y-65000000D02*
X222050000Y-62390000D01*
X223470000Y-42240000D02*
X223470000Y-41060000D01*
X237950000Y-75000000D02*
X237950000Y-77520000D01*
X237950000Y-58430000D02*
X237600000Y-58780000D01*
X222050000Y-45000000D02*
X222050000Y-43660000D01*
X222050000Y-43660000D02*
X223470000Y-42240000D01*
X237950000Y-77520000D02*
X237080000Y-78390000D01*
X222400000Y-62040000D02*
X222400000Y-61020000D01*
%TO.N,OUT2*%
X216480000Y-71880000D02*
X214600000Y-70000000D01*
X223600000Y-53600000D02*
X224270000Y-53600000D01*
X223000000Y-53000000D02*
X223600000Y-53600000D01*
X235600000Y-46400000D02*
X235000000Y-47000000D01*
X215200000Y-70600000D02*
X214600000Y-70000000D01*
X236800000Y-47000000D02*
X236800000Y-46951471D01*
X244600000Y-47830000D02*
X244600000Y-49200000D01*
X225010000Y-73400000D02*
X225020000Y-73390000D01*
X244600000Y-49200000D02*
X245400000Y-50000000D01*
X223262133Y-73010662D02*
X223831471Y-73580000D01*
X240200000Y-51750000D02*
X243650000Y-51750000D01*
X245400000Y-70000000D02*
X244600000Y-69200000D01*
X223831471Y-73580000D02*
X224328529Y-73580000D01*
X245400000Y-70000000D02*
X243410000Y-68010000D01*
X216680000Y-53000000D02*
X216680000Y-52080000D01*
X243400000Y-48000000D02*
X245400000Y-50000000D01*
X243400000Y-47010000D02*
X243400000Y-48000000D01*
X236800000Y-46951471D02*
X236248529Y-46400000D01*
X219800000Y-48250000D02*
X216350000Y-48250000D01*
X215200000Y-50600000D02*
X214600000Y-50000000D01*
X215200000Y-72180000D02*
X215200000Y-70600000D01*
X224508529Y-73400000D02*
X225010000Y-73400000D01*
X244600000Y-69200000D02*
X244600000Y-67630000D01*
X224270000Y-53600000D02*
X224870000Y-53000000D01*
X243650000Y-51750000D02*
X245400000Y-50000000D01*
X216480000Y-73000000D02*
X216480000Y-71880000D01*
X243650000Y-71750000D02*
X240200000Y-71750000D01*
X245400000Y-70000000D02*
X243650000Y-71750000D01*
X224328529Y-73580000D02*
X224508529Y-73400000D01*
X216680000Y-52080000D02*
X214600000Y-50000000D01*
X243410000Y-68010000D02*
X243410000Y-67000000D01*
X216350000Y-48250000D02*
X214600000Y-50000000D01*
X215200000Y-52170000D02*
X215200000Y-50600000D01*
X236248529Y-46400000D02*
X235600000Y-46400000D01*
X219800000Y-68250000D02*
X216350000Y-68250000D01*
X216350000Y-68250000D02*
X214600000Y-70000000D01*
%TO.N,OUT3*%
X219650000Y-54450000D02*
X219650000Y-58070000D01*
X222050000Y-50798685D02*
X222050000Y-49000000D01*
X240940000Y-41667000D02*
X241257000Y-41350000D01*
X241210000Y-61500000D02*
X240360000Y-62350000D01*
X237600000Y-47000000D02*
X237600000Y-46951471D01*
X219100000Y-58620000D02*
X217220000Y-58620000D01*
X244600000Y-43200000D02*
X245280000Y-43880000D01*
X222100000Y-53000000D02*
X223100000Y-54000000D01*
X244600000Y-41830000D02*
X244600000Y-43200000D01*
X223330000Y-51250000D02*
X222850000Y-51250000D01*
X245280000Y-43880000D02*
X245400000Y-44000000D01*
X215140000Y-76000000D02*
X214600000Y-76000000D01*
X242750000Y-41350000D02*
X245400000Y-44000000D01*
X215200000Y-58170000D02*
X215200000Y-56600000D01*
X237950000Y-51000000D02*
X237950000Y-49670000D01*
X215200000Y-56600000D02*
X214600000Y-56000000D01*
X217220000Y-58620000D02*
X214600000Y-56000000D01*
X240360000Y-65860000D02*
X237260000Y-68960000D01*
X244600000Y-63200000D02*
X244600000Y-61830000D01*
X245400000Y-64000000D02*
X243530000Y-64000000D01*
X222050000Y-69000000D02*
X222050000Y-70474370D01*
X218790000Y-78730000D02*
X217870000Y-78730000D01*
X215200000Y-76600000D02*
X214600000Y-76000000D01*
X242900000Y-61500000D02*
X241210000Y-61500000D01*
X237580000Y-48890000D02*
X240940000Y-45530000D01*
X237600000Y-46951471D02*
X236648529Y-46000000D01*
X222850000Y-51250000D02*
X219650000Y-54450000D01*
X215200000Y-78180000D02*
X215200000Y-76600000D01*
X223792942Y-74390000D02*
X225020000Y-74390000D01*
X223100000Y-54000000D02*
X224870000Y-54000000D01*
X217870000Y-78730000D02*
X215140000Y-76000000D01*
X222401472Y-72998530D02*
X223792942Y-74390000D01*
X240360000Y-62350000D02*
X240360000Y-65860000D01*
X216848685Y-56000000D02*
X222050000Y-50798685D01*
X219180000Y-74570000D02*
X219180000Y-78340000D01*
X236648529Y-46000000D02*
X235000000Y-46000000D01*
X222050000Y-70474370D02*
X216524370Y-76000000D01*
X240940000Y-45530000D02*
X240940000Y-41667000D01*
X222840000Y-70910000D02*
X219180000Y-74570000D01*
X214600000Y-56000000D02*
X216848685Y-56000000D01*
X245400000Y-64000000D02*
X242900000Y-61500000D01*
X237260000Y-68960000D02*
X236790000Y-68960000D01*
X223120000Y-70910000D02*
X222840000Y-70910000D01*
X219180000Y-78340000D02*
X218790000Y-78730000D01*
X243530000Y-64000000D02*
X237950000Y-69580000D01*
X236650000Y-48890000D02*
X237580000Y-48890000D01*
X241257000Y-41350000D02*
X242750000Y-41350000D01*
X243620000Y-44000000D02*
X245400000Y-44000000D01*
X237950000Y-69580000D02*
X237950000Y-71000000D01*
X237950000Y-49670000D02*
X243620000Y-44000000D01*
X219650000Y-58070000D02*
X219100000Y-58620000D01*
X216524370Y-76000000D02*
X214600000Y-76000000D01*
X245400000Y-64000000D02*
X244600000Y-63200000D01*
%TO.N,DShot_M4*%
X222000000Y-75810000D02*
X222000000Y-76500000D01*
X222580000Y-75230000D02*
X222000000Y-75810000D01*
X230160000Y-76040000D02*
X229170000Y-76040000D01*
X229170000Y-76040000D02*
X228360000Y-75230000D01*
X231900000Y-70340000D02*
X232050000Y-70490000D01*
X232050000Y-70490000D02*
X232050000Y-71390000D01*
X231900000Y-70230000D02*
X231900000Y-70340000D01*
X228360000Y-75230000D02*
X222580000Y-75230000D01*
X232050000Y-71390000D02*
X232100000Y-71440000D01*
X230170000Y-76030000D02*
X230160000Y-76040000D01*
%TO.N,Net-(GD1-BOOT3)*%
X236950000Y-50030000D02*
X236650000Y-49730000D01*
X236950000Y-51000000D02*
X236950000Y-50030000D01*
%TO.N,GLS3*%
X247900000Y-44667848D02*
X247900000Y-42270000D01*
X212240000Y-74470000D02*
X212240000Y-77590000D01*
X221550000Y-49000000D02*
X221550000Y-50733000D01*
X218010000Y-73910000D02*
X212800000Y-73910000D01*
X246767848Y-45800000D02*
X247900000Y-44667848D01*
X242140000Y-65980000D02*
X246900000Y-65980000D01*
X212100000Y-57730000D02*
X211930000Y-57900000D01*
X238450000Y-71000000D02*
X238450000Y-69670000D01*
X213232152Y-54200000D02*
X212100000Y-55332152D01*
X247750000Y-62420000D02*
X248070000Y-62100000D01*
X247900000Y-42270000D02*
X248070000Y-42100000D01*
X242400000Y-45800000D02*
X246767848Y-45800000D01*
X238450000Y-49750000D02*
X242400000Y-45800000D01*
X218083000Y-54200000D02*
X213232152Y-54200000D01*
X246900000Y-65980000D02*
X247750000Y-65130000D01*
X212100000Y-55332152D02*
X212100000Y-57730000D01*
X212240000Y-77590000D02*
X211930000Y-77900000D01*
X221550000Y-70370000D02*
X218010000Y-73910000D01*
X212800000Y-73910000D02*
X212240000Y-74470000D01*
X238450000Y-69670000D02*
X242140000Y-65980000D01*
X238450000Y-51000000D02*
X238450000Y-49750000D01*
X247750000Y-65130000D02*
X247750000Y-62420000D01*
X221550000Y-69000000D02*
X221550000Y-70370000D01*
X221550000Y-50733000D02*
X218083000Y-54200000D01*
%TO.N,Net-(GD4-CP)*%
X239450000Y-75000000D02*
X239450000Y-75520000D01*
X239450000Y-75520000D02*
X242000000Y-78070000D01*
%TO.N,Net-(GD4-DT{slash}MODE)*%
X238950000Y-75000000D02*
X238950000Y-76020000D01*
X238950000Y-76020000D02*
X241000000Y-78070000D01*
%TO.N,Net-(GD4-SCREF)*%
X238450000Y-75000000D02*
X238450000Y-77520000D01*
X238450000Y-77520000D02*
X239000000Y-78070000D01*
%TO.N,Net-(GD4-REG12)*%
X237450000Y-75000000D02*
X237450000Y-76040000D01*
X237450000Y-76040000D02*
X235690000Y-77800000D01*
X235690000Y-77800000D02*
X234270000Y-77800000D01*
%TO.N,Net-(GD4-nFAULT)*%
X236950000Y-75560000D02*
X236660000Y-75850000D01*
X236660000Y-75850000D02*
X235700000Y-75850000D01*
X236950000Y-75000000D02*
X236950000Y-75560000D01*
%TO.N,INH1_M4*%
X235405626Y-74250000D02*
X235405626Y-74249998D01*
X235145628Y-73990000D02*
X234650000Y-73990000D01*
X235405626Y-74249998D02*
X235145628Y-73990000D01*
X236200000Y-74250000D02*
X235405626Y-74250000D01*
%TO.N,INH2_M4*%
X235199929Y-73478616D02*
X234550000Y-73478616D01*
X235471313Y-73750000D02*
X235199929Y-73478616D01*
X236200000Y-73750000D02*
X235471313Y-73750000D01*
%TO.N,INH3_M4*%
X235660000Y-73250000D02*
X235400000Y-72990000D01*
X236200000Y-73250000D02*
X235660000Y-73250000D01*
X235400000Y-72990000D02*
X234550000Y-72990000D01*
%TO.N,EN1_M4*%
X235491562Y-72501562D02*
X234550000Y-72501562D01*
X236200000Y-72750000D02*
X235740000Y-72750000D01*
X235740000Y-72750000D02*
X235491562Y-72501562D01*
%TO.N,EN2_M4*%
X235557746Y-71990000D02*
X235817746Y-72250000D01*
X234650000Y-71990000D02*
X235557746Y-71990000D01*
X235817746Y-72250000D02*
X236200000Y-72250000D01*
%TO.N,EN3_M4*%
X234050000Y-71440000D02*
X234050000Y-71450000D01*
X235583432Y-71450000D02*
X235883432Y-71750000D01*
X234050000Y-71450000D02*
X235583432Y-71450000D01*
X234100000Y-71440000D02*
X234050000Y-71440000D01*
X235883432Y-71750000D02*
X236200000Y-71750000D01*
%TO.N,Net-(GD4-BOOT3)*%
X236950000Y-71000000D02*
X236950000Y-70550000D01*
X236790000Y-70390000D02*
X236790000Y-69800000D01*
X236950000Y-70550000D02*
X236790000Y-70390000D01*
%TO.N,GHS3*%
X237449999Y-51000000D02*
X237449999Y-49590001D01*
X237449999Y-49590001D02*
X241650000Y-45390000D01*
X222550000Y-49000000D02*
X222550000Y-50870000D01*
X218350000Y-74750000D02*
X218350000Y-77040000D01*
X222550000Y-69000000D02*
X222550000Y-70550000D01*
X237450000Y-69470000D02*
X241650000Y-65270000D01*
X237450000Y-71000000D02*
X237450000Y-69470000D01*
X241650000Y-65270000D02*
X241650000Y-62980000D01*
X222550000Y-70550000D02*
X218350000Y-74750000D01*
X218350000Y-55070000D02*
X218350000Y-57040000D01*
X241650000Y-45390000D02*
X241650000Y-42970000D01*
X222550000Y-50870000D02*
X218350000Y-55070000D01*
%TO.N,Net-(GD4-BOOT2)*%
X241730000Y-67000000D02*
X242570000Y-67000000D01*
X238950000Y-71000000D02*
X238950000Y-69780000D01*
X238950000Y-69780000D02*
X241730000Y-67000000D01*
%TO.N,GHS2*%
X218530000Y-71030000D02*
X218350000Y-71030000D01*
X241000000Y-68970000D02*
X241650000Y-68970000D01*
X239620000Y-51000000D02*
X241650000Y-48970000D01*
X220560000Y-49550000D02*
X219080000Y-51030000D01*
X220560000Y-69000000D02*
X218530000Y-71030000D01*
X239440000Y-70530000D02*
X241000000Y-68970000D01*
X239440000Y-51000000D02*
X239620000Y-51000000D01*
X220560000Y-49000000D02*
X220560000Y-49550000D01*
X239440000Y-71000000D02*
X239440000Y-70530000D01*
X219080000Y-51030000D02*
X218350000Y-51030000D01*
%TO.N,GLS2*%
X247900000Y-48270000D02*
X248070000Y-48100000D01*
X240200000Y-52249999D02*
X246317849Y-52249999D01*
X212100000Y-71730000D02*
X211930000Y-71900000D01*
X246317849Y-52249999D02*
X247900000Y-50667848D01*
X247750000Y-71450000D02*
X247750000Y-68420000D01*
X240200000Y-72250000D02*
X246950000Y-72250000D01*
X212100000Y-68890000D02*
X212100000Y-71730000D01*
X219800000Y-47750000D02*
X213420000Y-47750000D01*
X213240000Y-67750000D02*
X212100000Y-68890000D01*
X219800000Y-67750000D02*
X213240000Y-67750000D01*
X247750000Y-68420000D02*
X248070000Y-68100000D01*
X246950000Y-72250000D02*
X247750000Y-71450000D01*
X212100000Y-51730000D02*
X211930000Y-51900000D01*
X213420000Y-47750000D02*
X212100000Y-49070000D01*
X212100000Y-49070000D02*
X212100000Y-51730000D01*
X247900000Y-50667848D02*
X247900000Y-48270000D01*
%TO.N,Net-(GD4-BOOT1)*%
X240200000Y-72750000D02*
X242400000Y-72750000D01*
X242400000Y-72750000D02*
X242580000Y-72930000D01*
%TO.N,GHS1*%
X217610000Y-46380000D02*
X217610000Y-45910000D01*
X217980000Y-46750000D02*
X217610000Y-46380000D01*
X242550000Y-73950000D02*
X242550000Y-74080000D01*
X219800000Y-46750000D02*
X217980000Y-46750000D01*
X242550000Y-53950000D02*
X242550000Y-54100000D01*
X241850000Y-73250000D02*
X242550000Y-73950000D01*
X240200000Y-73250000D02*
X241850000Y-73250000D01*
X219800000Y-66750000D02*
X217990000Y-66750000D01*
X241850000Y-53250000D02*
X242550000Y-53950000D01*
X240200000Y-53250000D02*
X241850000Y-53250000D01*
X217470000Y-66230000D02*
X217470000Y-65900000D01*
X217990000Y-66750000D02*
X217470000Y-66230000D01*
%TO.N,GLS1*%
X212100000Y-45730000D02*
X211930000Y-45900000D01*
X247160000Y-78030000D02*
X247740000Y-77450000D01*
X247740000Y-77450000D02*
X247740000Y-74430000D01*
X219800000Y-45750000D02*
X219800000Y-45190000D01*
X212100000Y-62980000D02*
X212100000Y-65730000D01*
X213200000Y-41880000D02*
X212100000Y-42980000D01*
X216490000Y-41880000D02*
X213200000Y-41880000D01*
X219800000Y-65750000D02*
X219800000Y-65620000D01*
X212100000Y-65730000D02*
X211930000Y-65900000D01*
X247900000Y-54270000D02*
X248070000Y-54100000D01*
X240200000Y-74250000D02*
X240200000Y-74340000D01*
X240200000Y-74340000D02*
X243890000Y-78030000D01*
X243750000Y-57800000D02*
X246767848Y-57800000D01*
X240200000Y-54250000D02*
X243750000Y-57800000D01*
X247740000Y-74430000D02*
X248070000Y-74100000D01*
X246767848Y-57800000D02*
X247900000Y-56667848D01*
X219800000Y-45190000D02*
X216490000Y-41880000D01*
X243890000Y-78030000D02*
X247160000Y-78030000D01*
X247900000Y-56667848D02*
X247900000Y-54270000D01*
X219800000Y-65620000D02*
X216040000Y-61860000D01*
X212100000Y-42980000D02*
X212100000Y-45730000D01*
X213220000Y-61860000D02*
X212100000Y-62980000D01*
X216040000Y-61860000D02*
X213220000Y-61860000D01*
%TO.N,PHASE_C_M3*%
X227490000Y-50181728D02*
X227490000Y-49341471D01*
X227510000Y-50250000D02*
X227510000Y-50201728D01*
X213210000Y-59030000D02*
X213200000Y-59020000D01*
X227490000Y-49341471D02*
X227388845Y-49240316D01*
X215200000Y-59030000D02*
X214200000Y-59030000D01*
X227388845Y-49240316D02*
X227388845Y-48440000D01*
X214200000Y-59030000D02*
X213210000Y-59030000D01*
X227510000Y-50201728D02*
X227490000Y-50181728D01*
X227500000Y-50260000D02*
X227510000Y-50250000D01*
%TO.N,Net-(M1-PF2-NRST)*%
X230210000Y-52400000D02*
X230210000Y-51420000D01*
X230311511Y-52501511D02*
X230210000Y-52400000D01*
X231650000Y-52501511D02*
X230311511Y-52501511D01*
X230210000Y-51420000D02*
X230230000Y-51400000D01*
%TO.N,3V3*%
X231000075Y-73478540D02*
X231081460Y-73478540D01*
X229290000Y-66274314D02*
X229042854Y-66521460D01*
X230788655Y-53689960D02*
X231000075Y-53478540D01*
X229420000Y-60050000D02*
X225570000Y-63900000D01*
X228600000Y-53890000D02*
X228980000Y-54270000D01*
X227820000Y-41060000D02*
X227820000Y-42660000D01*
X230200000Y-74360000D02*
X230670000Y-74360000D01*
X234870000Y-56000000D02*
X234540000Y-56000000D01*
X231590000Y-47630000D02*
X230730000Y-48490000D01*
X231600000Y-65930000D02*
X231600000Y-67640000D01*
X229042854Y-66521460D02*
X228350000Y-66521460D01*
X230200000Y-74360000D02*
X228930000Y-74360000D01*
X230788655Y-73771345D02*
X230788655Y-73689960D01*
X230788655Y-73689960D02*
X231000075Y-73478540D01*
X230450000Y-54270000D02*
X230770000Y-53950000D01*
X229370000Y-51400000D02*
X228600000Y-52170000D01*
X230490000Y-60050000D02*
X229420000Y-60050000D01*
X228600000Y-74030000D02*
X228600000Y-72340000D01*
X230000000Y-65580000D02*
X231250000Y-65580000D01*
X229290000Y-66010000D02*
X229290000Y-66274314D01*
X228600000Y-52170000D02*
X228600000Y-53890000D01*
X230870000Y-68370000D02*
X230730000Y-68370000D01*
X230770000Y-53950000D02*
X230770000Y-53710000D01*
X231250000Y-65580000D02*
X231600000Y-65930000D01*
X231600000Y-67640000D02*
X230870000Y-68370000D01*
X230670000Y-74360000D02*
X230788655Y-74241345D01*
X229720000Y-65580000D02*
X229290000Y-66010000D01*
X230000000Y-45710000D02*
X231470000Y-45710000D01*
X225570000Y-63900000D02*
X225230000Y-63900000D01*
X231081460Y-73478540D02*
X231650000Y-73478540D01*
X230200000Y-54270000D02*
X230450000Y-54270000D01*
X227820000Y-42660000D02*
X226990000Y-43490000D01*
X231001460Y-53478540D02*
X231650000Y-53478540D01*
X230788655Y-53691345D02*
X230788655Y-53689960D01*
X228930000Y-74360000D02*
X228600000Y-74030000D01*
X228980000Y-54270000D02*
X229200000Y-54270000D01*
X229038540Y-46521460D02*
X228350000Y-46521460D01*
X225780000Y-43490000D02*
X225160000Y-44110000D01*
X231470000Y-45710000D02*
X231590000Y-45830000D01*
X234540000Y-56000000D02*
X230490000Y-60050000D01*
X230000000Y-45710000D02*
X229850000Y-45710000D01*
X230770000Y-53710000D02*
X230788655Y-53691345D01*
X226990000Y-43490000D02*
X225780000Y-43490000D01*
X230788655Y-74241345D02*
X230788655Y-73771345D01*
X231590000Y-45830000D02*
X231590000Y-47630000D01*
X231000075Y-53478540D02*
X231001460Y-53478540D01*
X228600000Y-72340000D02*
X229370000Y-71570000D01*
X230000000Y-65580000D02*
X229720000Y-65580000D01*
X229850000Y-45710000D02*
X229038540Y-46521460D01*
%TO.N,Net-(GD1-BOOT2)*%
X238950001Y-49819999D02*
X241760000Y-47010000D01*
X241760000Y-47010000D02*
X242560000Y-47010000D01*
X238950001Y-51000000D02*
X238950001Y-49819999D01*
%TO.N,PHASE_A_M2*%
X215190000Y-67030000D02*
X215200000Y-67040000D01*
X226411003Y-69456287D02*
X226411003Y-68440000D01*
X213210000Y-67030000D02*
X215190000Y-67030000D01*
X226255557Y-69611733D02*
X226411003Y-69456287D01*
X226254366Y-69611733D02*
X226255557Y-69611733D01*
X213200000Y-67020000D02*
X213210000Y-67030000D01*
%TO.N,Net-(GD3-BOOT1)*%
X219800000Y-47250000D02*
X217330000Y-47250000D01*
X217330000Y-47250000D02*
X217110000Y-47030000D01*
%TO.N,VIRTUAL_NEUTRAL_POINT*%
X237520000Y-65290000D02*
X237030000Y-65780000D01*
X231280000Y-69210000D02*
X231280000Y-71720000D01*
X226860000Y-72720000D02*
X228530000Y-71050000D01*
X236520000Y-65020000D02*
X235470000Y-65020000D01*
X225880000Y-73400000D02*
X225880000Y-74400000D01*
X237520000Y-65030000D02*
X237520000Y-65290000D01*
X228870000Y-50550000D02*
X228870000Y-48430000D01*
X226850000Y-72900000D02*
X226850000Y-73890000D01*
X225730000Y-53000000D02*
X225730000Y-54000000D01*
X228870000Y-48430000D02*
X228450000Y-48010000D01*
X225880000Y-72400000D02*
X225880000Y-73400000D01*
X237030000Y-65780000D02*
X237030000Y-66050000D01*
X225750000Y-55110000D02*
X226770000Y-55110000D01*
X226850000Y-72900000D02*
X226860000Y-72890000D01*
X231150000Y-51990000D02*
X230980000Y-51820000D01*
X226830000Y-52590000D02*
X228870000Y-50550000D01*
X237520000Y-64990000D02*
X237490000Y-65020000D01*
X225730000Y-55090000D02*
X225750000Y-55110000D01*
X234140000Y-47000000D02*
X234140000Y-46000000D01*
X237490000Y-65020000D02*
X236520000Y-65020000D01*
X235470000Y-65020000D02*
X231280000Y-69210000D01*
X233120000Y-47253000D02*
X233120000Y-46000000D01*
X226770000Y-55110000D02*
X226830000Y-55170000D01*
X236030000Y-66050000D02*
X237030000Y-66050000D01*
X234140000Y-48000000D02*
X234140000Y-47000000D01*
X228530000Y-68090000D02*
X228450000Y-68010000D01*
X234140000Y-46000000D02*
X233120000Y-46000000D01*
X226830000Y-55170000D02*
X226830000Y-52590000D01*
X230980000Y-49393000D02*
X233120000Y-47253000D01*
X231280000Y-71720000D02*
X231550000Y-71990000D01*
X228530000Y-71050000D02*
X228530000Y-68090000D01*
X225730000Y-52000000D02*
X225730000Y-53000000D01*
X225880000Y-73400000D02*
X226340000Y-73400000D01*
X233120000Y-46000000D02*
X233120000Y-45010000D01*
X226860000Y-72890000D02*
X226860000Y-72720000D01*
X230980000Y-51820000D02*
X230980000Y-49393000D01*
X231550000Y-51990000D02*
X231150000Y-51990000D01*
X226340000Y-73400000D02*
X226840000Y-73900000D01*
X226850000Y-73890000D02*
X226840000Y-73900000D01*
X233120000Y-45010000D02*
X233130000Y-45000000D01*
X225730000Y-54000000D02*
X225730000Y-55090000D01*
X237030000Y-66050000D02*
X238030000Y-66050000D01*
%TO.N,DShot_M1*%
X240030000Y-43230000D02*
X240000000Y-43200000D01*
X235520000Y-48900000D02*
X236780000Y-47640000D01*
X237808529Y-47640000D02*
X240030000Y-45418529D01*
X232100000Y-51440000D02*
X231670000Y-51010000D01*
X236780000Y-47640000D02*
X237808529Y-47640000D01*
X231670000Y-49420953D02*
X232190953Y-48900000D01*
X231670000Y-51010000D02*
X231670000Y-49420953D01*
X232190953Y-48900000D02*
X235520000Y-48900000D01*
X240030000Y-45418529D02*
X240030000Y-43230000D01*
%TO.N,PHASE_C_M1*%
X232611155Y-50908363D02*
X232611155Y-51548845D01*
X246590000Y-40970000D02*
X246600000Y-40980000D01*
X244600000Y-40970000D02*
X245600000Y-40970000D01*
X232439482Y-50736690D02*
X232611155Y-50908363D01*
X232440764Y-49706776D02*
X232439482Y-49708058D01*
X245600000Y-40970000D02*
X246590000Y-40970000D01*
X232439482Y-49708058D02*
X232439482Y-50736690D01*
%TO.N,PHASE_B_M1*%
X245600000Y-46970000D02*
X246590000Y-46970000D01*
X244600000Y-46970000D02*
X245600000Y-46970000D01*
X233100000Y-51560000D02*
X233100000Y-50160000D01*
%TO.N,PHASE_A_M1*%
X233588997Y-50908359D02*
X233588997Y-51560000D01*
X233763080Y-49500000D02*
X233763080Y-50734276D01*
X244600000Y-52970000D02*
X245600000Y-52970000D01*
X245600000Y-52970000D02*
X246590000Y-52970000D01*
X246590000Y-52970000D02*
X246600000Y-52980000D01*
X233763080Y-50734276D02*
X233588997Y-50908359D01*
%TO.N,EN3_M1*%
X236200000Y-51750000D02*
X235890000Y-51750000D01*
X235890000Y-51750000D02*
X235580000Y-51440000D01*
X235580000Y-51440000D02*
X234100000Y-51440000D01*
%TO.N,EN2_M1*%
X235817745Y-52249999D02*
X236200000Y-52249999D01*
X235557746Y-51990000D02*
X235817745Y-52249999D01*
X234650000Y-51990000D02*
X235557746Y-51990000D01*
%TO.N,EN1_M1*%
X235199925Y-52501562D02*
X234550000Y-52501562D01*
X235201487Y-52500000D02*
X235199925Y-52501562D01*
X235502060Y-52500000D02*
X235201487Y-52500000D01*
X235752060Y-52750000D02*
X235502060Y-52500000D01*
X236200000Y-52750000D02*
X235752060Y-52750000D01*
%TO.N,INH3_M1*%
X235426375Y-52990000D02*
X235686375Y-53250000D01*
X234550000Y-52990000D02*
X235426375Y-52990000D01*
X235686375Y-53250000D02*
X236200000Y-53250000D01*
%TO.N,INH2_M1*%
X235201313Y-53480000D02*
X235199929Y-53478616D01*
X236200000Y-53750001D02*
X235620001Y-53750001D01*
X235350000Y-53480000D02*
X235201313Y-53480000D01*
X235199929Y-53478616D02*
X234550000Y-53478616D01*
X235620001Y-53750001D02*
X235350000Y-53480000D01*
%TO.N,INH1_M1*%
X235280000Y-53990000D02*
X234650000Y-53990000D01*
X236200000Y-54250000D02*
X235540000Y-54250000D01*
X235540000Y-54250000D02*
X235280000Y-53990000D01*
%TO.N,SWDIO_M1*%
X230550000Y-58990000D02*
X230520000Y-59020000D01*
X234100000Y-55280000D02*
X230550000Y-58830000D01*
X230550000Y-58830000D02*
X230550000Y-58990000D01*
X234100000Y-54560000D02*
X234100000Y-55280000D01*
%TO.N,SWCLK_M1*%
X233588870Y-54440000D02*
X233588870Y-55225444D01*
X230100000Y-58390000D02*
X229500000Y-58990000D01*
X233588870Y-55225444D02*
X230424314Y-58390000D01*
X230424314Y-58390000D02*
X230100000Y-58390000D01*
%TO.N,PHASE_C_M2*%
X213210000Y-79040000D02*
X215200000Y-79040000D01*
X227500000Y-69717610D02*
X227500000Y-69570000D01*
X213200000Y-79030000D02*
X213210000Y-79040000D01*
X213200000Y-79020000D02*
X213200000Y-79030000D01*
X227500000Y-69570000D02*
X227388845Y-69458845D01*
X227388845Y-69458845D02*
X227388845Y-68440000D01*
%TO.N,Net-(GD3-REG12)*%
X226320000Y-42650000D02*
X224900000Y-42650000D01*
X224300000Y-42650000D02*
X224900000Y-42650000D01*
X222550000Y-44400000D02*
X224300000Y-42650000D01*
X222550000Y-45000000D02*
X222550000Y-44400000D01*
%TO.N,Net-(GD2-REG12)*%
X222550000Y-62760000D02*
X223610000Y-61700000D01*
X222550000Y-65000000D02*
X222550000Y-62760000D01*
X223610000Y-61700000D02*
X225030000Y-61700000D01*
%TO.N,Net-(GD2-nFAULT)*%
X223680000Y-63900000D02*
X224370000Y-63900000D01*
X223050000Y-64530000D02*
X223680000Y-63900000D01*
X223050000Y-65000000D02*
X223050000Y-64530000D01*
%TO.N,Net-(M4-PF2-NRST)*%
X230220000Y-72570000D02*
X230288489Y-72501511D01*
X230288489Y-72501511D02*
X231638489Y-72501511D01*
X230220000Y-72570000D02*
X230220000Y-71580000D01*
X230220000Y-71580000D02*
X230230000Y-71570000D01*
%TO.N,PHASE_C_M4*%
X232480000Y-69660000D02*
X232500000Y-69680000D01*
X245600000Y-60970000D02*
X246561470Y-60970000D01*
X246561470Y-60970000D02*
X246575735Y-60955735D01*
X232500000Y-70418529D02*
X232611155Y-70529684D01*
X232500000Y-69680000D02*
X232500000Y-70418529D01*
X232611155Y-70529684D02*
X232611155Y-71548845D01*
X244600000Y-60970000D02*
X245600000Y-60970000D01*
%TO.N,PHASE_B_M4*%
X245600000Y-66770000D02*
X246590000Y-66770000D01*
X233100000Y-70191727D02*
X233100000Y-71560000D01*
X233104102Y-70187625D02*
X233100000Y-70191727D01*
X246590000Y-66770000D02*
X246600000Y-66780000D01*
X244600000Y-66770000D02*
X245600000Y-66770000D01*
%TO.N,PHASE_A_M4*%
X246600000Y-72980000D02*
X246590000Y-72970000D01*
X246590000Y-72970000D02*
X245600000Y-72970000D01*
X233730000Y-69681671D02*
X233730000Y-70400000D01*
X233730000Y-70400000D02*
X233588997Y-70541003D01*
X233588997Y-70541003D02*
X233588997Y-71560000D01*
X233730000Y-69677531D02*
X233732070Y-69679601D01*
X244600000Y-72970000D02*
X245600000Y-72970000D01*
X233732070Y-69679601D02*
X233730000Y-69681671D01*
%TO.N,SWDIO_M4*%
X231830000Y-77370000D02*
X225580000Y-77370000D01*
X234100000Y-75100000D02*
X231830000Y-77370000D01*
X234100000Y-74560000D02*
X234100000Y-75100000D01*
X225580000Y-77370000D02*
X224000000Y-78950000D01*
%TO.N,SWCLK_M4*%
X224000000Y-76900000D02*
X231720000Y-76900000D01*
X233588870Y-75031130D02*
X233588870Y-74440000D01*
X231720000Y-76900000D02*
X233588870Y-75031130D01*
%TO.N,PHASE_A_M3*%
X226270000Y-50210000D02*
X226280000Y-50200000D01*
X214200000Y-47030000D02*
X213210000Y-47030000D01*
X213210000Y-47030000D02*
X213200000Y-47020000D01*
X226280000Y-49370000D02*
X226411003Y-49238997D01*
X226280000Y-50200000D02*
X226280000Y-49370000D01*
X215200000Y-47030000D02*
X214200000Y-47030000D01*
X226411003Y-49238997D02*
X226411003Y-48440000D01*
%TO.N,Net-(GD1-nFAULT)*%
X236490000Y-56000000D02*
X235730000Y-56000000D01*
X236950000Y-55000000D02*
X236950000Y-55540000D01*
X236950000Y-55540000D02*
X236490000Y-56000000D01*
%TO.N,Net-(GD3-BOOT3)*%
X223050000Y-49000000D02*
X223050000Y-50130000D01*
X223050000Y-50130000D02*
X223330000Y-50410000D01*
%TO.N,Net-(GD1-REG12)*%
X237449999Y-55000000D02*
X237449999Y-57440001D01*
X234970000Y-58500000D02*
X236390000Y-58500000D01*
X237449999Y-57440001D02*
X236390000Y-58500000D01*
%TO.N,Net-(GD2-SCREF)*%
X221550000Y-61580000D02*
X221400000Y-61430000D01*
X221550000Y-65000000D02*
X221550000Y-61580000D01*
X220400000Y-61430000D02*
X221400000Y-61430000D01*
%TO.N,Net-(M2-PF2-NRST)*%
X229870000Y-67380000D02*
X229880000Y-67370000D01*
X229880000Y-67370000D02*
X229751511Y-67498489D01*
X229751511Y-67498489D02*
X228361511Y-67498489D01*
X229870000Y-68370000D02*
X229870000Y-67380000D01*
%TO.N,DShot_M2*%
X227900000Y-69121471D02*
X228100000Y-69321471D01*
X228100000Y-70914314D02*
X227194314Y-71820000D01*
X227194314Y-71820000D02*
X222731473Y-71820000D01*
X227900000Y-68560000D02*
X227900000Y-69121471D01*
X228100000Y-69321471D02*
X228100000Y-70914314D01*
X222731473Y-71820000D02*
X220000000Y-74551473D01*
X220000000Y-74551473D02*
X220000000Y-76500000D01*
%TO.N,PHASE_B_M2*%
X226834898Y-70161703D02*
X226900000Y-70096601D01*
X213200000Y-73030000D02*
X213210000Y-73040000D01*
X226834898Y-70162176D02*
X226834898Y-70161703D01*
X213200000Y-73020000D02*
X213200000Y-73030000D01*
X213210000Y-73040000D02*
X215200000Y-73040000D01*
X226900000Y-70096601D02*
X226900000Y-68440000D01*
%TO.N,EN3_M2*%
X224480000Y-68560000D02*
X225900000Y-68560000D01*
X223800000Y-68250000D02*
X224170000Y-68250000D01*
X224170000Y-68250000D02*
X224480000Y-68560000D01*
%TO.N,EN2_M2*%
X224308629Y-67750000D02*
X224568629Y-68010000D01*
X223800000Y-67750000D02*
X224308629Y-67750000D01*
X224568629Y-68010000D02*
X225350000Y-68010000D01*
%TO.N,EN1_M2*%
X224622753Y-67498438D02*
X225438438Y-67498438D01*
X223800000Y-67250000D02*
X224374315Y-67250000D01*
X224374315Y-67250000D02*
X224622753Y-67498438D01*
%TO.N,INH3_M2*%
X224700000Y-67010000D02*
X225450000Y-67010000D01*
X224440000Y-66750000D02*
X224700000Y-67010000D01*
X223800000Y-66750000D02*
X224440000Y-66750000D01*
%TO.N,INH2_M2*%
X224528687Y-66250000D02*
X224800071Y-66521384D01*
X223800000Y-66250000D02*
X224528687Y-66250000D01*
X224800071Y-66521384D02*
X225450000Y-66521384D01*
%TO.N,INH1_M2*%
X224870000Y-66010000D02*
X225350000Y-66010000D01*
X223800000Y-65750000D02*
X224610000Y-65750000D01*
X224610000Y-65750000D02*
X224870000Y-66010000D01*
%TO.N,SWDIO_M2*%
X229500000Y-61000000D02*
X225900000Y-64600000D01*
X225900000Y-64600000D02*
X225900000Y-65440000D01*
%TO.N,SWCLK_M2*%
X229390000Y-61810000D02*
X226411130Y-64788870D01*
X230500000Y-61000000D02*
X230500000Y-61010000D01*
X229700000Y-61810000D02*
X229390000Y-61810000D01*
X226411130Y-64788870D02*
X226411130Y-65560000D01*
X230500000Y-61010000D02*
X229700000Y-61810000D01*
%TO.N,Net-(GD2-DT{slash}MODE)*%
X221050000Y-63080000D02*
X219400000Y-61430000D01*
X221050000Y-65000000D02*
X221050000Y-63080000D01*
%TO.N,Net-(GD2-CP)*%
X220550000Y-65000000D02*
X220550000Y-63580000D01*
X220550000Y-63580000D02*
X218400000Y-61430000D01*
%TO.N,Net-(GD2-BOOT3)*%
X223050000Y-69000000D02*
X223050000Y-70000000D01*
X223050000Y-70000000D02*
X223120000Y-70070000D01*
%TO.N,Net-(GD2-BOOT2)*%
X218320000Y-73000000D02*
X217320000Y-73000000D01*
X221050000Y-70270000D02*
X218320000Y-73000000D01*
X221050000Y-69000000D02*
X221050000Y-70270000D01*
%TO.N,Net-(GD2-BOOT1)*%
X219800000Y-67250000D02*
X217370000Y-67250000D01*
X217370000Y-67250000D02*
X217120000Y-67000000D01*
%TO.N,Net-(GD3-CP)*%
X218400000Y-41930000D02*
X218400000Y-42290000D01*
X220550000Y-44440000D02*
X220550000Y-45000000D01*
X218400000Y-42290000D02*
X220550000Y-44440000D01*
%TO.N,Net-(GD3-SCREF)*%
X221550000Y-45000000D02*
X221550000Y-42080000D01*
X221550000Y-42080000D02*
X221400000Y-41930000D01*
X220400000Y-41930000D02*
X221400000Y-41930000D01*
%TO.N,PHASE_B_M3*%
X214200000Y-53030000D02*
X213210000Y-53030000D01*
X226894559Y-49626035D02*
X226894559Y-49600329D01*
X215200000Y-53030000D02*
X214200000Y-53030000D01*
X226890000Y-49630594D02*
X226894559Y-49626035D01*
X213210000Y-53030000D02*
X213200000Y-53020000D01*
X226894559Y-49600329D02*
X226900000Y-49594888D01*
X226890000Y-49679236D02*
X226890000Y-49630594D01*
X226900000Y-49594888D02*
X226900000Y-48440000D01*
%TO.N,Net-(GD1-DT{slash}MODE)*%
X238950001Y-57120001D02*
X240600000Y-58770000D01*
X238950001Y-55000000D02*
X238950001Y-57120001D01*
%TO.N,Net-(GD1-CP)*%
X239450000Y-56620000D02*
X241600000Y-58770000D01*
X239450000Y-55000000D02*
X239450000Y-56620000D01*
%TO.N,Net-(M3-PF2-NRST)*%
X229870000Y-48490000D02*
X229870000Y-47510000D01*
X229870000Y-47510000D02*
X229880000Y-47500000D01*
X229880000Y-47500000D02*
X229878489Y-47498489D01*
X229878489Y-47498489D02*
X228350000Y-47498489D01*
%TO.N,Net-(GD3-DT{slash}MODE)*%
X221050000Y-44230000D02*
X219400000Y-42580000D01*
X221050000Y-45000000D02*
X221050000Y-44230000D01*
X219400000Y-42580000D02*
X219400000Y-41930000D01*
%TO.N,SWDIO_M3*%
X226570000Y-43890000D02*
X227155686Y-43890000D01*
X227155686Y-43890000D02*
X228965686Y-42080000D01*
X225900000Y-45440000D02*
X225900000Y-44560000D01*
X225900000Y-44560000D02*
X226570000Y-43890000D01*
X228965686Y-42080000D02*
X234740000Y-42080000D01*
X234740000Y-42080000D02*
X235980000Y-40840000D01*
X235980000Y-40840000D02*
X236000000Y-40840000D01*
%TO.N,Net-(GD1-SCREF)*%
X238450000Y-58620000D02*
X238600000Y-58770000D01*
X238450000Y-55000000D02*
X238450000Y-58620000D01*
X239600000Y-58770000D02*
X238600000Y-58770000D01*
%TO.N,Net-(GD1-BOOT1)*%
X242500000Y-52750000D02*
X242680000Y-52930000D01*
X240200000Y-52750000D02*
X242500000Y-52750000D01*
%TO.N,DShot_M3*%
X232178259Y-44310000D02*
X237710000Y-44310000D01*
X231580000Y-43711741D02*
X232178259Y-44310000D01*
X238000000Y-44020000D02*
X238000000Y-43200000D01*
X237710000Y-44310000D02*
X238000000Y-44020000D01*
X228093234Y-49638236D02*
X228093234Y-49483234D01*
X228110000Y-49655002D02*
X228093234Y-49638236D01*
X228093234Y-49483234D02*
X227900000Y-49290000D01*
X227900000Y-49290000D02*
X227900000Y-48560000D01*
%TO.N,SWCLK_M3*%
X227340000Y-44310000D02*
X226810000Y-44310000D01*
X234840000Y-42480000D02*
X229170000Y-42480000D01*
X226810000Y-44310000D02*
X226411130Y-44708870D01*
X235560000Y-43200000D02*
X234840000Y-42480000D01*
X229170000Y-42480000D02*
X227340000Y-44310000D01*
X226411130Y-44708870D02*
X226411130Y-45548870D01*
X236000000Y-43200000D02*
X235560000Y-43200000D01*
%TO.N,Net-(GD3-nFAULT)*%
X223050000Y-45000000D02*
X223050000Y-44650000D01*
X223050000Y-44650000D02*
X223590000Y-44110000D01*
X223590000Y-44110000D02*
X224300000Y-44110000D01*
%TO.N,INH1_M3*%
X224620000Y-45750000D02*
X224880000Y-46010000D01*
X223800000Y-45750000D02*
X224620000Y-45750000D01*
X224880000Y-46010000D02*
X225350000Y-46010000D01*
%TO.N,INH2_M3*%
X224520000Y-46250000D02*
X224791384Y-46521384D01*
X223800000Y-46250000D02*
X224520000Y-46250000D01*
X224791384Y-46521384D02*
X225450000Y-46521384D01*
%TO.N,INH3_M3*%
X223800000Y-46750000D02*
X224447157Y-46750000D01*
X224447157Y-46750000D02*
X224707157Y-47010000D01*
X224707157Y-47010000D02*
X225450000Y-47010000D01*
%TO.N,EN1_M3*%
X224617068Y-47498438D02*
X225438438Y-47498438D01*
X224368630Y-47250000D02*
X224617068Y-47498438D01*
X223800000Y-47250000D02*
X224368630Y-47250000D01*
%TO.N,EN2_M3*%
X224562944Y-48010000D02*
X225350000Y-48010000D01*
X223800000Y-47750000D02*
X224302944Y-47750000D01*
X224302944Y-47750000D02*
X224562944Y-48010000D01*
%TO.N,EN3_M3*%
X223800000Y-48250000D02*
X224200000Y-48250000D01*
X224200000Y-48250000D02*
X224510000Y-48560000D01*
X224510000Y-48560000D02*
X225900000Y-48560000D01*
%TO.N,Net-(GD3-BOOT2)*%
X218560000Y-53000000D02*
X217520000Y-53000000D01*
X221050000Y-50510000D02*
X218560000Y-53000000D01*
X221050000Y-49000000D02*
X221050000Y-50510000D01*
%TD*%
%TA.AperFunction,Conductor*%
%TO.N,GND*%
G36*
X226852625Y-81519685D02*
G01*
X226898380Y-81572489D01*
X226909585Y-81624413D01*
X226900989Y-84203535D01*
X226900414Y-84375913D01*
X226880506Y-84442887D01*
X226827550Y-84488465D01*
X226776415Y-84499500D01*
X226006960Y-84499500D01*
X225993077Y-84498720D01*
X225902734Y-84488541D01*
X225875662Y-84482362D01*
X225796464Y-84454649D01*
X225771447Y-84442602D01*
X225700395Y-84397957D01*
X225678686Y-84380644D01*
X225619355Y-84321313D01*
X225602042Y-84299604D01*
X225557397Y-84228552D01*
X225545351Y-84203539D01*
X225517636Y-84124333D01*
X225511458Y-84097264D01*
X225501280Y-84006922D01*
X225500500Y-83993040D01*
X225500500Y-81624000D01*
X225520185Y-81556961D01*
X225572989Y-81511206D01*
X225624500Y-81500000D01*
X226785586Y-81500000D01*
X226852625Y-81519685D01*
G37*
%TD.AperFunction*%
%TD*%
%TA.AperFunction,Conductor*%
%TO.N,3V3*%
G36*
X231243039Y-40520185D02*
G01*
X231288794Y-40572989D01*
X231300000Y-40624500D01*
X231300000Y-41355500D01*
X231280315Y-41422539D01*
X231227511Y-41468294D01*
X231176000Y-41479500D01*
X229055715Y-41479500D01*
X229044748Y-41479500D01*
X229044744Y-41479499D01*
X228886629Y-41479499D01*
X228843624Y-41491022D01*
X228830727Y-41491723D01*
X228808783Y-41486554D01*
X228786243Y-41486018D01*
X228775429Y-41478698D01*
X228762718Y-41475705D01*
X228747050Y-41459491D01*
X228728381Y-41446855D01*
X228723240Y-41434851D01*
X228714166Y-41425460D01*
X228709751Y-41403350D01*
X228700877Y-41382626D01*
X228700000Y-41367906D01*
X228700000Y-40624500D01*
X228719685Y-40557461D01*
X228772489Y-40511706D01*
X228824000Y-40500500D01*
X231176000Y-40500500D01*
X231243039Y-40520185D01*
G37*
%TD.AperFunction*%
%TD*%
%TA.AperFunction,Conductor*%
%TO.N,B+*%
G36*
X234442539Y-81519685D02*
G01*
X234488294Y-81572489D01*
X234499500Y-81624000D01*
X234499500Y-83993040D01*
X234498720Y-84006923D01*
X234488541Y-84097265D01*
X234482362Y-84124337D01*
X234454649Y-84203535D01*
X234442602Y-84228552D01*
X234397957Y-84299604D01*
X234380644Y-84321313D01*
X234321313Y-84380644D01*
X234299604Y-84397957D01*
X234228552Y-84442602D01*
X234203535Y-84454649D01*
X234124337Y-84482362D01*
X234097265Y-84488541D01*
X234006923Y-84498720D01*
X233993040Y-84499500D01*
X233224000Y-84499500D01*
X233156961Y-84479815D01*
X233111206Y-84427011D01*
X233100000Y-84375500D01*
X233100000Y-81624000D01*
X233119685Y-81556961D01*
X233172489Y-81511206D01*
X233224000Y-81500000D01*
X234375500Y-81500000D01*
X234442539Y-81519685D01*
G37*
%TD.AperFunction*%
%TD*%
M02*
