%TF.GenerationSoftware,KiCad,Pcbnew,9.0.7*%
%TF.CreationDate,2026-05-26T21:36:15+02:00*%
%TF.ProjectId,esc,6573632e-6b69-4636-9164-5f7063625858,rev?*%
%TF.SameCoordinates,Original*%
%TF.FileFunction,Copper,L5,Inr*%
%TF.FilePolarity,Positive*%
%FSLAX46Y46*%
G04 Gerber Fmt 4.6, Leading zero omitted, Abs format (unit mm)*
G04 Created by KiCad (PCBNEW 9.0.7) date 2026-05-26 21:36:15*
%MOMM*%
%LPD*%
G01*
G04 APERTURE LIST*
%TA.AperFunction,ComponentPad*%
%ADD10C,1.600000*%
%TD*%
%TA.AperFunction,ComponentPad*%
%ADD11C,0.750000*%
%TD*%
%TA.AperFunction,ComponentPad*%
%ADD12O,1.200000X2.000000*%
%TD*%
%TA.AperFunction,ComponentPad*%
%ADD13O,1.200000X1.800000*%
%TD*%
%TA.AperFunction,ViaPad*%
%ADD14C,0.600000*%
%TD*%
%TA.AperFunction,Conductor*%
%ADD15C,0.200000*%
%TD*%
%TA.AperFunction,Conductor*%
%ADD16C,0.280000*%
%TD*%
G04 APERTURE END LIST*
D10*
%TO.N,GND*%
%TO.C,C0*%
X227490000Y-83050000D03*
%TO.N,B+*%
X232490000Y-83050000D03*
%TD*%
D11*
%TO.N,*%
%TO.C,USBC1*%
X232900000Y-39950000D03*
X227100000Y-39950000D03*
D12*
%TO.N,GND*%
X225670000Y-40450000D03*
D13*
X225670000Y-36270000D03*
X234330000Y-36270000D03*
D12*
X234330000Y-40450000D03*
%TD*%
D14*
%TO.N,B+*%
X231130000Y-81200000D03*
X242500000Y-59800000D03*
X218500000Y-42500000D03*
X218500000Y-77500000D03*
X243500000Y-59800000D03*
X214500000Y-59800000D03*
X215500000Y-42500000D03*
X240500000Y-42500000D03*
X243500000Y-60500000D03*
X214500000Y-60500000D03*
X217500000Y-60500000D03*
X232930000Y-81200000D03*
X244500000Y-77500000D03*
X241500000Y-60500000D03*
X218500000Y-60500000D03*
X233839226Y-51144323D03*
X232330000Y-81200000D03*
X216500000Y-42500000D03*
X241500000Y-42500000D03*
X241500000Y-77500000D03*
X240500000Y-77500000D03*
X233658257Y-76069944D03*
X214500000Y-77500000D03*
X233530000Y-81200000D03*
X215500000Y-60500000D03*
X232960000Y-75910000D03*
X217500000Y-42500000D03*
X227099239Y-67616463D03*
X226259103Y-67788526D03*
X218500000Y-59800000D03*
X215500000Y-77500000D03*
X244500000Y-59800000D03*
X242500000Y-42500000D03*
X242500000Y-77500000D03*
X244440000Y-60500000D03*
X226752601Y-42492376D03*
X216500000Y-77500000D03*
X240500000Y-59800000D03*
X230530000Y-81200000D03*
X241500000Y-59800000D03*
X216500000Y-60500000D03*
X217500000Y-77500000D03*
X240500000Y-60500000D03*
X242500000Y-60500000D03*
X217500000Y-59800000D03*
X231730000Y-81200000D03*
X226270000Y-43170000D03*
X243500000Y-42500000D03*
X243500000Y-77500000D03*
X244500000Y-42500000D03*
X215500000Y-59800000D03*
X232930000Y-51510000D03*
X214500000Y-42500000D03*
X216500000Y-59800000D03*
%TO.N,3V3*%
X230874265Y-68274265D03*
X222370000Y-76490000D03*
X236715331Y-62740001D03*
X236600000Y-67360000D03*
X226236680Y-64691248D03*
X232219702Y-67030435D03*
X225020000Y-51740000D03*
X221450000Y-60600000D03*
X231450000Y-44520000D03*
X220000000Y-41000000D03*
X237390000Y-41120000D03*
X226680000Y-78400000D03*
%TO.N,RESET*%
X229459999Y-64508278D03*
X230910000Y-61100000D03*
X233320000Y-78400000D03*
%TO.N,BOOT0*%
X222320000Y-78400000D03*
X225315331Y-61740001D03*
%TO.N,Net-(M1-VCP)*%
X232407412Y-50904273D03*
%TO.N,PHASE_A_M1*%
X230750001Y-55325332D03*
%TO.N,PHASE_B_M1*%
X231250000Y-53294668D03*
%TO.N,PHASE_C_M1*%
X230349999Y-53197653D03*
%TO.N,Net-(M2-VCP)*%
X227658464Y-68188540D03*
%TO.N,PHASE_A_M2*%
X225315332Y-60740001D03*
%TO.N,PHASE_B_M2*%
X223271972Y-61250825D03*
%TO.N,PHASE_C_M2*%
X223130000Y-60350000D03*
%TO.N,Net-(M3-VCP)*%
X228448716Y-43098716D03*
%TO.N,Net-(M3-CPH)*%
X228536265Y-43916265D03*
%TO.N,Net-(M3-CPL)*%
X229270000Y-44710000D03*
%TO.N,PHASE_A_M3*%
X226021223Y-57732580D03*
%TO.N,PHASE_B_M3*%
X225315332Y-58740000D03*
%TO.N,PHASE_C_M3*%
X223284668Y-58240000D03*
%TO.N,Net-(M4-VCP)*%
X232300000Y-76510000D03*
%TO.N,Net-(M4-DVDD)*%
X232110000Y-68910814D03*
%TO.N,PHASE_A_M4*%
X234684668Y-62239999D03*
%TO.N,PHASE_B_M4*%
X236715332Y-61739999D03*
%TO.N,PHASE_C_M4*%
X234684668Y-61239999D03*
%TO.N,Net-(U2A-PH0-OSC_IN(PH0))*%
X228250001Y-64674668D03*
%TO.N,Net-(U2A-PH1-OSC_OUT(PH1))*%
X228750001Y-66705331D03*
%TO.N,GND*%
X227070000Y-59660000D03*
X238500000Y-43550000D03*
X220733869Y-58414751D03*
X221950000Y-41800000D03*
X220710000Y-75660000D03*
X233230000Y-36030000D03*
X220723016Y-57123972D03*
X220720000Y-64160000D03*
X228280000Y-81200000D03*
X221280000Y-63850000D03*
X236610000Y-75050000D03*
X239300000Y-75880000D03*
X221293869Y-58084751D03*
X215300000Y-41000000D03*
X220760000Y-70000000D03*
X221293869Y-57454751D03*
X221320000Y-70320000D03*
X239289998Y-65510000D03*
X239299998Y-52280000D03*
X239280000Y-76490000D03*
X222918844Y-65564022D03*
X231700000Y-63180000D03*
X220640000Y-46180000D03*
X232340000Y-42900000D03*
X220599000Y-48080000D03*
X224540000Y-40776482D03*
X236570000Y-54860000D03*
X220714441Y-64809978D03*
X239280000Y-69410000D03*
X220740000Y-69360000D03*
X220730000Y-51820000D03*
X221312538Y-74719997D03*
X226770000Y-36080000D03*
X238750000Y-52610000D03*
X221280000Y-76030000D03*
X238730000Y-76190000D03*
X234600000Y-63230000D03*
X237900000Y-59650000D03*
X227090000Y-81190000D03*
X235460000Y-40732574D03*
X244700000Y-41000000D03*
X239299998Y-70670000D03*
X225110000Y-52750000D03*
X239357549Y-45977549D03*
X239299998Y-53540137D03*
X237310000Y-58400000D03*
X239299998Y-57320000D03*
X221320998Y-69654816D03*
X220723659Y-65430069D03*
X227680000Y-81200000D03*
X238730000Y-75560000D03*
X222735735Y-69514265D03*
X221270000Y-52170000D03*
X220690000Y-76270000D03*
X222710000Y-55330000D03*
X238710000Y-69130000D03*
X239315113Y-52890173D03*
X239289998Y-64169997D03*
X221283659Y-65120069D03*
X238760000Y-47570000D03*
X229480000Y-81200000D03*
X230910000Y-58950000D03*
X220770000Y-70640000D03*
X228890000Y-59570000D03*
X221150000Y-47140000D03*
X238710000Y-58270000D03*
X234030000Y-42540000D03*
X223500000Y-68580000D03*
X221274441Y-64499978D03*
X230450000Y-78530000D03*
X238701032Y-63814847D03*
X239387580Y-47267315D03*
X239299998Y-46620000D03*
X221144483Y-47773485D03*
X238750000Y-51990000D03*
X238730000Y-58940000D03*
X215300000Y-79000000D03*
X232683304Y-68338925D03*
X236430000Y-65080000D03*
X225315331Y-63240001D03*
X239289998Y-64820000D03*
X221261643Y-51500768D03*
X220724726Y-74997452D03*
X221304562Y-69005022D03*
X237680000Y-78400000D03*
X228880000Y-81200000D03*
X231555717Y-67598088D03*
X226490000Y-81190000D03*
X224630000Y-76080000D03*
X221310000Y-52820000D03*
X220599000Y-47429997D03*
X220712554Y-53076048D03*
X244700000Y-79000000D03*
X220730000Y-57790000D03*
X238730000Y-57610000D03*
X231680000Y-57940000D03*
X238690000Y-70420003D03*
X239290000Y-75250000D03*
X239280000Y-70040000D03*
X239299998Y-58650000D03*
X239299998Y-47920000D03*
X221281404Y-75369253D03*
X238740000Y-74950000D03*
X222790000Y-63360000D03*
X220720000Y-52440000D03*
X238760000Y-53230000D03*
X238690000Y-69770000D03*
X220620000Y-46810000D03*
X238760000Y-46950000D03*
X221293869Y-58724751D03*
X238720000Y-64480000D03*
X238721032Y-65164847D03*
X239300112Y-57990636D03*
%TO.N,INHA_M1*%
X232250000Y-52080000D03*
X230567445Y-44947001D03*
%TO.N,GLA1*%
X236500000Y-50500000D03*
%TO.N,GHC1*%
X239271000Y-43141000D03*
X245629000Y-43141000D03*
%TO.N,EN_M1*%
X233250001Y-53294669D03*
X233384379Y-43268292D03*
%TO.N,SHA1*%
X236500000Y-51500000D03*
X246200000Y-56370000D03*
X248500000Y-58700000D03*
X247500000Y-56700000D03*
X248500000Y-57700000D03*
X246200000Y-57630000D03*
X248500000Y-56700000D03*
X247500000Y-58700000D03*
X246200000Y-58900000D03*
X247500000Y-57700000D03*
%TO.N,PUPL1*%
X229798284Y-48596331D03*
X230000000Y-45563327D03*
X230204219Y-46881777D03*
%TO.N,CS_M1*%
X234880000Y-43150000D03*
X233786074Y-55277594D03*
%TO.N,INHB_M1*%
X230559059Y-46148001D03*
X232750001Y-55325331D03*
%TO.N,GLC1*%
X237500000Y-44500000D03*
%TO.N,INHC_M1*%
X230264568Y-47679497D03*
X231749999Y-55325331D03*
%TO.N,PUPL2*%
X230199120Y-71871777D03*
X229970000Y-73740000D03*
X229994901Y-70553327D03*
%TO.N,GLB1*%
X237500000Y-49500000D03*
%TO.N,SHB1*%
X247500000Y-51200000D03*
X246200000Y-52130000D03*
X238500000Y-49500000D03*
X247500000Y-52200000D03*
X248500000Y-53200000D03*
X246200000Y-50870000D03*
X248500000Y-51200000D03*
X247500000Y-53200000D03*
X246200000Y-53400000D03*
X248500000Y-52200000D03*
%TO.N,INHC_M2*%
X229433429Y-71640000D03*
X230750001Y-66705332D03*
%TO.N,EN_M2*%
X227250000Y-64674668D03*
X226749998Y-76130000D03*
%TO.N,CS_M2*%
X225910000Y-76080000D03*
X226750000Y-66705332D03*
%TO.N,INHA_M2*%
X229304478Y-74183936D03*
X230528504Y-64478903D03*
%TO.N,INHB_M2*%
X229469584Y-72841000D03*
X229750000Y-66705332D03*
%TO.N,CS_M3*%
X225070000Y-50810000D03*
X225315331Y-56739999D03*
%TO.N,EN_M3*%
X223284669Y-57240001D03*
X226407662Y-50839674D03*
%TO.N,INHB_M3*%
X229485225Y-47860126D03*
X229079670Y-52596976D03*
%TO.N,INHC_M3*%
X228750001Y-55325332D03*
X229438528Y-46650000D03*
%TO.N,INHB_M4*%
X233009000Y-66900000D03*
X230554666Y-71137294D03*
%TO.N,INHC_M4*%
X233270000Y-64410000D03*
X230260999Y-72669381D03*
%TO.N,Net-(USBC1-CC1)*%
X231750000Y-39780000D03*
%TO.N,Net-(USBC1-CC2)*%
X228130000Y-39760000D03*
%TO.N,D-*%
X227987043Y-51677891D03*
X230748897Y-39950005D03*
%TO.N,D+*%
X227000000Y-51700000D03*
X229249955Y-39910000D03*
%TO.N,GHB1*%
X247300000Y-48750000D03*
X237751344Y-47386012D03*
%TO.N,GHA1*%
X247300000Y-54250000D03*
X236780000Y-52470000D03*
%TO.N,SHC1*%
X247500000Y-47600000D03*
X247500000Y-45600000D03*
X248500000Y-45600000D03*
X246200000Y-46630000D03*
X238500000Y-44500000D03*
X248500000Y-46600000D03*
X247500000Y-46600000D03*
X246200000Y-47900000D03*
X248500000Y-47600000D03*
X246200000Y-45370000D03*
%TO.N,GHA2*%
X225590000Y-67350000D03*
X212300000Y-60680000D03*
%TO.N,SHB2*%
X212500000Y-70600000D03*
X222008052Y-70728149D03*
X212500000Y-68600000D03*
X211500000Y-69630000D03*
X211500000Y-68600000D03*
X213800000Y-70900000D03*
X213800000Y-68360000D03*
X213800000Y-69630000D03*
X212500000Y-69630000D03*
X211500000Y-70600000D03*
%TO.N,SHC2*%
X212500000Y-75050000D03*
X211500000Y-74100000D03*
X213800000Y-73860000D03*
X213800000Y-76400000D03*
X222210961Y-73000000D03*
X211500000Y-76000000D03*
X212500000Y-76000000D03*
X213800000Y-75130000D03*
X212500000Y-74100000D03*
X211500000Y-75050000D03*
%TO.N,GHC2*%
X211940000Y-71830000D03*
%TO.N,SHA2*%
X212500000Y-64130000D03*
X211500000Y-65100000D03*
X213800000Y-65400000D03*
X212500000Y-63100000D03*
X211500000Y-63100000D03*
X211500000Y-64130000D03*
X213800000Y-64130000D03*
X224640000Y-67350000D03*
X213800000Y-62860000D03*
X212500000Y-65100000D03*
%TO.N,GHB2*%
X212300000Y-66250000D03*
X221920000Y-71610000D03*
%TO.N,GHA3*%
X212699998Y-44100000D03*
X225810000Y-42480000D03*
%TO.N,GLB3*%
X222812549Y-44287451D03*
X220530000Y-49600000D03*
%TO.N,SHB3*%
X212500000Y-53100000D03*
X212500000Y-52130000D03*
X211500000Y-51200000D03*
X213800000Y-53400000D03*
X211500000Y-52130000D03*
X213800000Y-50860000D03*
X212500000Y-51200000D03*
X211500000Y-53100000D03*
X222119256Y-45814353D03*
X213800000Y-52130000D03*
%TO.N,SHA3*%
X213800000Y-45370000D03*
X213800000Y-47900000D03*
X211500000Y-45550000D03*
X211500000Y-46630000D03*
X224500000Y-42500000D03*
X213800000Y-46630000D03*
X211500000Y-47600000D03*
X212500000Y-45550000D03*
X212500000Y-46630000D03*
X212500000Y-47600000D03*
%TO.N,SHC3*%
X213800000Y-58900000D03*
X212560000Y-58600000D03*
X213800000Y-57630000D03*
X212500000Y-57630000D03*
X211560000Y-58600000D03*
X212500000Y-56600000D03*
X213800000Y-56360000D03*
X211500000Y-56600000D03*
X221892549Y-50017451D03*
X211500000Y-57630000D03*
%TO.N,GHB3*%
X221914359Y-46590892D03*
X212300000Y-48749998D03*
%TO.N,GHC3*%
X221952176Y-47390000D03*
X212300000Y-54250002D03*
%TO.N,GHB4*%
X247300000Y-66250000D03*
X238480000Y-72351000D03*
%TO.N,SHC4*%
X246200000Y-62870000D03*
X247500000Y-65000000D03*
X234460866Y-59358358D03*
X246200000Y-64130000D03*
X248500000Y-65000000D03*
X247500000Y-63200000D03*
X248500000Y-63200000D03*
X246200000Y-65400000D03*
X238645515Y-71568306D03*
X248500000Y-64130000D03*
X247500000Y-64130000D03*
%TO.N,GLA4*%
X237840000Y-76120000D03*
%TO.N,SHB4*%
X246200000Y-69630000D03*
X248500000Y-68600000D03*
X248500000Y-69630000D03*
X248500000Y-70600000D03*
X247500000Y-68600000D03*
X247500000Y-70600000D03*
X247500000Y-69630000D03*
X246200000Y-70900000D03*
X246200000Y-68370000D03*
X238031610Y-73176198D03*
%TO.N,SHA4*%
X247500000Y-75130000D03*
X247500000Y-74200000D03*
X236582198Y-76386433D03*
X246200000Y-73870000D03*
X246200000Y-75130000D03*
X246200000Y-76400000D03*
X248500000Y-75130000D03*
X248500000Y-76000000D03*
X248500000Y-74200000D03*
X247500000Y-76000000D03*
%TO.N,GLC4*%
X237860000Y-70220000D03*
%TO.N,GHA4*%
X247300000Y-71750000D03*
X234440000Y-75900000D03*
%TO.N,GHC4*%
X239150000Y-60840000D03*
X247236881Y-60716881D03*
X237850000Y-71710000D03*
%TO.N,GLB4*%
X237708984Y-73908261D03*
X239299998Y-67150000D03*
%TO.N,DShot*%
X236715332Y-59240001D03*
X240000000Y-41000000D03*
%TD*%
D15*
%TO.N,RESET*%
X234411000Y-64051000D02*
X234411000Y-71726100D01*
X231699000Y-76779000D02*
X233320000Y-78400000D01*
X231460000Y-61100000D02*
X234411000Y-64051000D01*
X234411000Y-71726100D02*
X231699000Y-74438100D01*
X231699000Y-74438100D02*
X231699000Y-76779000D01*
X230910000Y-61100000D02*
X231460000Y-61100000D01*
%TO.N,BOOT0*%
X222320000Y-78400000D02*
X223130000Y-77590000D01*
X234010000Y-64280000D02*
X231470001Y-61740001D01*
X234010000Y-71560000D02*
X234010000Y-64280000D01*
X227980000Y-77590000D02*
X234010000Y-71560000D01*
X231470001Y-61740001D02*
X225315331Y-61740001D01*
X223130000Y-77590000D02*
X227980000Y-77590000D01*
%TO.N,INHA_M1*%
X232250000Y-52080000D02*
X231968472Y-52080000D01*
X231968472Y-52080000D02*
X231460000Y-51571528D01*
X231460000Y-51571528D02*
X231460000Y-45839556D01*
X231460000Y-45839556D02*
X230567445Y-44947001D01*
D16*
%TO.N,GHC1*%
X245629000Y-43141000D02*
X239271000Y-43141000D01*
D15*
%TO.N,EN_M1*%
X233384379Y-43294377D02*
X234500000Y-44409998D01*
X234500000Y-52044670D02*
X233250001Y-53294669D01*
X233384379Y-43268292D02*
X233384379Y-43294377D01*
X234500000Y-44409998D02*
X234500000Y-52044670D01*
D16*
%TO.N,SHA1*%
X245475000Y-57630000D02*
X246200000Y-57630000D01*
X236500000Y-51500000D02*
X236500000Y-51510000D01*
X236130000Y-51880000D02*
X236130000Y-53010000D01*
X236130000Y-53010000D02*
X238100000Y-54980000D01*
X242825000Y-54980000D02*
X245475000Y-57630000D01*
X238100000Y-54980000D02*
X242825000Y-54980000D01*
X236500000Y-51510000D02*
X236130000Y-51880000D01*
D15*
%TO.N,CS_M1*%
X234880000Y-44222898D02*
X234901000Y-44243898D01*
X234901000Y-44243898D02*
X234901000Y-54162668D01*
X234901000Y-54162668D02*
X233786074Y-55277594D01*
X234880000Y-43150000D02*
X234880000Y-44222898D01*
%TO.N,INHB_M1*%
X230865568Y-46454510D02*
X230865568Y-51825625D01*
X230865568Y-51825625D02*
X232750001Y-53710058D01*
X230559059Y-46148001D02*
X230865568Y-46454510D01*
X232750001Y-53710058D02*
X232750001Y-55325331D01*
%TO.N,INHC_M1*%
X230270000Y-48218104D02*
X230399284Y-48347388D01*
X231390000Y-53940000D02*
X231749999Y-54299999D01*
X230060000Y-53940000D02*
X231390000Y-53940000D01*
X231749999Y-54299999D02*
X231749999Y-55325331D01*
X230270000Y-52150000D02*
X229655935Y-52764065D01*
X230399284Y-48347388D02*
X230399284Y-48845274D01*
X230270000Y-48974558D02*
X230270000Y-52150000D01*
X230270000Y-47684929D02*
X230270000Y-48218104D01*
X229655935Y-53535935D02*
X230060000Y-53940000D01*
X230399284Y-48845274D02*
X230270000Y-48974558D01*
X230264568Y-47679497D02*
X230270000Y-47684929D01*
X229655935Y-52764065D02*
X229655935Y-53535935D01*
%TO.N,PUPL2*%
X229970000Y-73740000D02*
X230040323Y-73740000D01*
X229670159Y-70553327D02*
X229994901Y-70553327D01*
X228832429Y-71391057D02*
X229670159Y-70553327D01*
X230313338Y-71871777D02*
X230199120Y-71871777D01*
X228832429Y-71888943D02*
X228832429Y-71391057D01*
X230011227Y-70537001D02*
X229994901Y-70553327D01*
X229829897Y-72241000D02*
X229184486Y-72241000D01*
X229184486Y-72241000D02*
X228832429Y-71888943D01*
X230199120Y-71871777D02*
X229829897Y-72241000D01*
D16*
%TO.N,SHB1*%
X238500000Y-49500000D02*
X241130000Y-52130000D01*
X241130000Y-52130000D02*
X246200000Y-52130000D01*
X246200000Y-52104480D02*
X246200000Y-52130000D01*
D15*
%TO.N,EN_M2*%
X226750000Y-70670000D02*
X228660464Y-68759536D01*
X228660464Y-68759536D02*
X228660464Y-67465737D01*
X226750000Y-76129998D02*
X226750000Y-70670000D01*
X226749998Y-76130000D02*
X226750000Y-76129998D01*
X227250000Y-66055273D02*
X227250000Y-64674668D01*
X228660464Y-67465737D02*
X227250000Y-66055273D01*
%TO.N,CS_M2*%
X225910000Y-75670000D02*
X226150000Y-75430000D01*
X226150000Y-70546947D02*
X228259464Y-68437483D01*
X228259464Y-68437483D02*
X228259464Y-67926745D01*
X227038051Y-66705332D02*
X226750000Y-66705332D01*
X228259464Y-67926745D02*
X227038051Y-66705332D01*
X226150000Y-75430000D02*
X226150000Y-70546947D01*
X225910000Y-76080000D02*
X225910000Y-75670000D01*
%TO.N,INHA_M2*%
X230998944Y-67306332D02*
X230993668Y-67306332D01*
X231420000Y-65844670D02*
X231420000Y-66885276D01*
X228330000Y-69970000D02*
X228330000Y-73209458D01*
X230528504Y-64478903D02*
X230582519Y-64532918D01*
X228330000Y-73209458D02*
X229304478Y-74183936D01*
X230993668Y-67306332D02*
X228330000Y-69970000D01*
X230582519Y-64532918D02*
X230582519Y-65007189D01*
X230582519Y-65007189D02*
X231420000Y-65844670D01*
X231420000Y-66885276D02*
X230998944Y-67306332D01*
%TO.N,CS_M3*%
X225810000Y-56245330D02*
X225315331Y-56739999D01*
X225207662Y-50810000D02*
X225799000Y-51401338D01*
X225070000Y-50810000D02*
X225207662Y-50810000D01*
X225810000Y-52032052D02*
X225810000Y-56245330D01*
X225799000Y-51401338D02*
X225799000Y-52021052D01*
X225799000Y-52021052D02*
X225810000Y-52032052D01*
%TO.N,EN_M3*%
X226399000Y-56506273D02*
X225564274Y-57340999D01*
X226540001Y-50972013D02*
X226540001Y-51310056D01*
X226399000Y-51451057D02*
X226399000Y-56506273D01*
X226540001Y-51310056D02*
X226399000Y-51451057D01*
X223385667Y-57340999D02*
X223284669Y-57240001D01*
X225564274Y-57340999D02*
X223385667Y-57340999D01*
X226407662Y-50839674D02*
X226540001Y-50972013D01*
%TO.N,INHB_M3*%
X229119889Y-52556757D02*
X229119889Y-48225462D01*
X229079670Y-52596976D02*
X229119889Y-52556757D01*
X229119889Y-48225462D02*
X229485225Y-47860126D01*
%TO.N,INHC_M3*%
X228478670Y-52845919D02*
X228478670Y-52348033D01*
X228760000Y-55315333D02*
X228760000Y-53127249D01*
X228478670Y-52348033D02*
X228710000Y-52116703D01*
X228710000Y-47378528D02*
X229438528Y-46650000D01*
X228760000Y-53127249D02*
X228478670Y-52845919D01*
X228710000Y-52116703D02*
X228710000Y-47378528D01*
X228750001Y-55325332D02*
X228760000Y-55315333D01*
%TO.N,INHC_M4*%
X233609000Y-69311840D02*
X230448063Y-72472777D01*
X233609000Y-64749000D02*
X233609000Y-69311840D01*
X233270000Y-64410000D02*
X233609000Y-64749000D01*
X230147908Y-72669381D02*
X230260999Y-72669381D01*
%TO.N,D-*%
X227987043Y-51677891D02*
X227977891Y-51677891D01*
X227725001Y-42973901D02*
X230748897Y-39950005D01*
X227977891Y-51677891D02*
X227725001Y-51425001D01*
X227725001Y-51425001D02*
X227725001Y-42973901D01*
%TO.N,D+*%
X227274999Y-51425001D02*
X227274999Y-42787506D01*
X229249955Y-40812550D02*
X229249955Y-39910000D01*
X227000000Y-51700000D02*
X227274999Y-51425001D01*
X227274999Y-42787506D02*
X229249955Y-40812550D01*
D16*
%TO.N,GHB1*%
X247290000Y-48750000D02*
X239033489Y-48750000D01*
X237751344Y-47467855D02*
X237751344Y-47386012D01*
X239033489Y-48750000D02*
X237751344Y-47467855D01*
%TO.N,GHA1*%
X247460000Y-54250000D02*
X247251000Y-54041000D01*
X242109764Y-53790000D02*
X239609764Y-51290000D01*
X247251000Y-54041000D02*
X244921000Y-54041000D01*
X239609764Y-51290000D02*
X237970000Y-51290000D01*
X236790000Y-52470000D02*
X236780000Y-52470000D01*
X244670000Y-53790000D02*
X242109764Y-53790000D01*
X237970000Y-51290000D02*
X236790000Y-52470000D01*
X244921000Y-54041000D02*
X244670000Y-53790000D01*
%TO.N,SHC1*%
X244070000Y-44500000D02*
X246200000Y-46630000D01*
X238500000Y-44500000D02*
X244070000Y-44500000D01*
%TO.N,GHA2*%
X225590000Y-67350000D02*
X225590000Y-67253489D01*
X225590000Y-67253489D02*
X219616511Y-61280000D01*
X219616511Y-61280000D02*
X212900000Y-61280000D01*
X212900000Y-61280000D02*
X212300000Y-60680000D01*
%TO.N,SHB2*%
X216421000Y-72251000D02*
X213800000Y-69630000D01*
X222185511Y-72251000D02*
X216421000Y-72251000D01*
X222561000Y-71281097D02*
X222561000Y-71875511D01*
X222561000Y-71875511D02*
X222185511Y-72251000D01*
X222008052Y-70728149D02*
X222561000Y-71281097D01*
%TO.N,SHC2*%
X222210961Y-73000000D02*
X215930000Y-73000000D01*
X215930000Y-73000000D02*
X213800000Y-75130000D01*
%TO.N,SHA2*%
X224640000Y-67350000D02*
X217020000Y-67350000D01*
X217020000Y-67350000D02*
X213800000Y-64130000D01*
%TO.N,GHB2*%
X218650000Y-71610000D02*
X213290000Y-66250000D01*
X221920000Y-71610000D02*
X218650000Y-71610000D01*
X213290000Y-66250000D02*
X212300000Y-66250000D01*
%TO.N,GHA3*%
X213209998Y-43590000D02*
X212699998Y-44100000D01*
X225800000Y-42480000D02*
X225179000Y-41859000D01*
X225179000Y-41859000D02*
X223321000Y-41859000D01*
X221590000Y-43590000D02*
X213209998Y-43590000D01*
X223321000Y-41859000D02*
X221590000Y-43590000D01*
X225810000Y-42480000D02*
X225800000Y-42480000D01*
%TO.N,SHB3*%
X220374489Y-45539000D02*
X219999000Y-45914489D01*
X222119256Y-45814353D02*
X222119256Y-45779256D01*
X222119256Y-45779256D02*
X221840000Y-45500000D01*
X220381000Y-45539000D02*
X220374489Y-45539000D01*
X213800000Y-52120000D02*
X213800000Y-52130000D01*
X221840000Y-45500000D02*
X220420000Y-45500000D01*
X220420000Y-45500000D02*
X220381000Y-45539000D01*
X219999000Y-45914489D02*
X219999000Y-45921000D01*
X219999000Y-45921000D02*
X213800000Y-52120000D01*
%TO.N,SHA3*%
X223693489Y-42500000D02*
X221983489Y-44210000D01*
X224500000Y-42500000D02*
X223693489Y-42500000D01*
X221983489Y-44210000D02*
X217260000Y-44210000D01*
X217260000Y-44210000D02*
X216100000Y-45370000D01*
X216100000Y-45370000D02*
X213800000Y-45370000D01*
%TO.N,SHC3*%
X219320000Y-57630000D02*
X213800000Y-57630000D01*
X221915262Y-50017451D02*
X222770000Y-50872189D01*
X222770000Y-50872189D02*
X222770000Y-54180000D01*
X222770000Y-54180000D02*
X220467028Y-56482972D01*
X220082016Y-56867984D02*
X219320000Y-57630000D01*
X221892549Y-50017451D02*
X221915262Y-50017451D01*
X220457505Y-56482972D02*
X220082016Y-56858461D01*
X220082016Y-56858461D02*
X220082016Y-56867984D01*
X220467028Y-56482972D02*
X220457505Y-56482972D01*
%TO.N,GHB3*%
X221914359Y-46590892D02*
X222249228Y-46590892D01*
X222249228Y-46590892D02*
X222780000Y-46060120D01*
X214065511Y-48541000D02*
X214059000Y-48541000D01*
X222780000Y-46060120D02*
X222780000Y-45540000D01*
X217746511Y-44860000D02*
X214065511Y-48541000D01*
X214059000Y-48541000D02*
X213850002Y-48749998D01*
X222780000Y-45540000D02*
X222100000Y-44860000D01*
X213850002Y-48749998D02*
X212300000Y-48749998D01*
X222100000Y-44860000D02*
X217746511Y-44860000D01*
%TO.N,GHC3*%
X221250000Y-50280000D02*
X222170000Y-51200000D01*
X222170000Y-53409764D02*
X221329762Y-54250002D01*
X221250000Y-49750000D02*
X221250000Y-50280000D01*
X221329762Y-54250002D02*
X212300000Y-54250002D01*
X221952176Y-49047824D02*
X221250000Y-49750000D01*
X222170000Y-51200000D02*
X222170000Y-53409764D01*
X221952176Y-47390000D02*
X221952176Y-49047824D01*
%TO.N,GHB4*%
X247300000Y-66250000D02*
X246890000Y-66250000D01*
X240789000Y-72351000D02*
X238480000Y-72351000D01*
X246890000Y-66250000D02*
X240789000Y-72351000D01*
%TO.N,SHC4*%
X245140000Y-64130000D02*
X246200000Y-64130000D01*
X234468358Y-59358358D02*
X235560000Y-60450000D01*
X244180000Y-65090000D02*
X245140000Y-64130000D01*
X234460866Y-59358358D02*
X234468358Y-59358358D01*
X244180000Y-68120000D02*
X244180000Y-65090000D01*
X237030000Y-60450000D02*
X240560000Y-63980000D01*
X240560000Y-63980000D02*
X240560000Y-70590000D01*
X240560000Y-70590000D02*
X239581694Y-71568306D01*
X235560000Y-60450000D02*
X237030000Y-60450000D01*
X239581694Y-71568306D02*
X238645515Y-71568306D01*
X240731694Y-71568306D02*
X244180000Y-68120000D01*
X238645515Y-71568306D02*
X240731694Y-71568306D01*
%TO.N,SHB4*%
X244230000Y-69630000D02*
X246200000Y-69630000D01*
X238035412Y-73180000D02*
X240680000Y-73180000D01*
X238031610Y-73176198D02*
X238035412Y-73180000D01*
X240680000Y-73180000D02*
X244230000Y-69630000D01*
%TO.N,SHA4*%
X239675511Y-77234489D02*
X241780000Y-75130000D01*
X237430254Y-77234489D02*
X239675511Y-77234489D01*
X236582198Y-76386433D02*
X237430254Y-77234489D01*
X241780000Y-75130000D02*
X246200000Y-75130000D01*
%TO.N,GHA4*%
X234630000Y-75710000D02*
X234440000Y-75900000D01*
X247190000Y-71750000D02*
X245330000Y-71750000D01*
X243140000Y-73940000D02*
X238840000Y-73940000D01*
X245330000Y-71750000D02*
X243140000Y-73940000D01*
X237070000Y-75710000D02*
X234630000Y-75710000D01*
X238840000Y-73940000D02*
X237070000Y-75710000D01*
%TO.N,GHC4*%
X246643762Y-61310000D02*
X247236881Y-60716881D01*
X239620000Y-61310000D02*
X246643762Y-61310000D01*
X239150000Y-60840000D02*
X239620000Y-61310000D01*
%TO.N,GLB4*%
X237209000Y-73409479D02*
X237209000Y-69271000D01*
X239299998Y-67180002D02*
X239299998Y-67150000D01*
X237707782Y-73908261D02*
X237209000Y-73409479D01*
X237209000Y-69271000D02*
X239299998Y-67180002D01*
X237708984Y-73908261D02*
X237707782Y-73908261D01*
%TO.N,DShot*%
X235649000Y-44831001D02*
X235649000Y-58173669D01*
X235649000Y-58173669D02*
X236715332Y-59240001D01*
X240000000Y-41000000D02*
X239990000Y-40990000D01*
X239490001Y-40990000D02*
X235649000Y-44831001D01*
X239990000Y-40990000D02*
X239490001Y-40990000D01*
%TD*%
M02*
