%TF.GenerationSoftware,KiCad,Pcbnew,10.0.4-10.0.4~ubuntu26.04.1*%
%TF.CreationDate,2026-06-21T15:03:49+02:00*%
%TF.ProjectId,esc,6573632e-6b69-4636-9164-5f7063625858,rev?*%
%TF.SameCoordinates,Original*%
%TF.FileFunction,Copper,L6,Bot*%
%TF.FilePolarity,Positive*%
%FSLAX46Y46*%
G04 Gerber Fmt 4.6, Leading zero omitted, Abs format (unit mm)*
G04 Created by KiCad (PCBNEW 10.0.4-10.0.4~ubuntu26.04.1) date 2026-06-21 15:03:49*
%MOMM*%
%LPD*%
G01*
G04 APERTURE LIST*
G04 Aperture macros list*
%AMRoundRect*
0 Rectangle with rounded corners*
0 $1 Rounding radius*
0 $2 $3 $4 $5 $6 $7 $8 $9 X,Y pos of 4 corners*
0 Add a 4 corners polygon primitive as box body*
4,1,4,$2,$3,$4,$5,$6,$7,$8,$9,$2,$3,0*
0 Add four circle primitives for the rounded corners*
1,1,$1+$1,$2,$3*
1,1,$1+$1,$4,$5*
1,1,$1+$1,$6,$7*
1,1,$1+$1,$8,$9*
0 Add four rect primitives between the rounded corners*
20,1,$1+$1,$2,$3,$4,$5,0*
20,1,$1+$1,$4,$5,$6,$7,0*
20,1,$1+$1,$6,$7,$8,$9,0*
20,1,$1+$1,$8,$9,$2,$3,0*%
%AMRotRect*
0 Rectangle, with rotation*
0 The origin of the aperture is its center*
0 $1 length*
0 $2 width*
0 $3 Rotation angle, in degrees counterclockwise*
0 Add horizontal line*
21,1,$1,$2,0,0,$3*%
%AMFreePoly0*
4,1,16,0.401585,0.200063,0.436915,0.185357,0.451498,0.149976,0.451489,0.149113,0.449330,0.035550,0.435502,0.001971,0.256762,-0.185227,0.221754,-0.200685,0.220599,-0.200698,-0.401244,-0.200698,-0.436599,-0.186053,-0.451244,-0.150715,-0.451345,0.151443,-0.436712,0.186804,-0.401362,0.201460,0.401585,0.200063,0.401585,0.200063,$1*%
%AMFreePoly1*
4,1,16,0.255954,0.186002,0.256762,0.185176,0.435502,-0.002022,0.449330,-0.035601,0.451489,-0.149164,0.437519,-0.184791,0.402448,-0.200105,0.401585,-0.200114,-0.401258,-0.201511,-0.436639,-0.186928,-0.451345,-0.151598,-0.451244,0.150664,-0.436588,0.186014,-0.401244,0.200647,0.220599,0.200647,0.255954,0.186002,0.255954,0.186002,$1*%
%AMFreePoly2*
4,1,16,0.186499,0.418424,0.201155,0.383074,0.199758,-0.419873,0.185052,-0.455203,0.149671,-0.469786,0.148808,-0.469777,0.035245,-0.467618,0.001666,-0.453790,-0.185532,-0.275050,-0.200990,-0.240042,-0.201003,-0.238887,-0.201003,0.382956,-0.186358,0.418311,-0.151020,0.432956,0.151138,0.433057,0.186499,0.418424,0.186499,0.418424,$1*%
%AMFreePoly3*
4,1,16,0.151172,0.432956,0.186522,0.418300,0.201155,0.382956,0.201155,-0.238887,0.186510,-0.274242,0.185684,-0.275050,-0.001514,-0.453790,-0.035093,-0.467618,-0.148656,-0.469777,-0.184283,-0.455807,-0.199597,-0.420736,-0.199606,-0.419873,-0.201003,0.382970,-0.186420,0.418351,-0.151090,0.433057,0.151172,0.432956,0.151172,0.432956,$1*%
%AMFreePoly4*
4,1,16,0.436599,0.185952,0.451244,0.150614,0.451345,-0.151545,0.436712,-0.186906,0.401362,-0.201562,-0.401585,-0.200165,-0.436915,-0.185459,-0.451498,-0.150078,-0.451489,-0.149215,-0.449330,-0.035651,-0.435502,-0.002072,-0.256762,0.185126,-0.221754,0.200584,-0.220599,0.200597,0.401244,0.200597,0.436599,0.185952,0.436599,0.185952,$1*%
%AMFreePoly5*
4,1,16,0.436639,0.186801,0.451345,0.151471,0.451244,-0.150791,0.436588,-0.186141,0.401244,-0.200774,-0.220599,-0.200774,-0.255954,-0.186129,-0.256762,-0.185303,-0.435502,0.001895,-0.449330,0.035474,-0.451489,0.149037,-0.437519,0.184664,-0.402448,0.199978,-0.401585,0.199987,0.401258,0.201384,0.436639,0.186801,0.436639,0.186801,$1*%
%AMFreePoly6*
4,1,16,-0.148783,0.469777,-0.035220,0.467618,-0.001641,0.453790,0.185557,0.275050,0.201015,0.240042,0.201028,0.238887,0.201028,-0.382956,0.186383,-0.418311,0.151045,-0.432956,-0.151113,-0.433057,-0.186474,-0.418424,-0.201130,-0.383074,-0.199733,0.419873,-0.185027,0.455203,-0.149646,0.469786,-0.148783,0.469777,-0.148783,0.469777,$1*%
%AMFreePoly7*
4,1,16,0.184435,0.455807,0.199749,0.420736,0.199758,0.419873,0.201155,-0.382970,0.186572,-0.418351,0.151242,-0.433057,-0.151020,-0.432956,-0.186370,-0.418300,-0.201003,-0.382956,-0.201003,0.238887,-0.186358,0.274242,-0.185532,0.275050,0.001666,0.453790,0.035245,0.467618,0.148808,0.469777,0.184435,0.455807,0.184435,0.455807,$1*%
G04 Aperture macros list end*
%TA.AperFunction,ComponentPad*%
%ADD10C,1.600000*%
%TD*%
%TA.AperFunction,SMDPad,CuDef*%
%ADD11R,0.540000X0.500000*%
%TD*%
%TA.AperFunction,SMDPad,CuDef*%
%ADD12R,0.566000X0.540000*%
%TD*%
%TA.AperFunction,SMDPad,CuDef*%
%ADD13R,0.540000X0.566000*%
%TD*%
%TA.AperFunction,SMDPad,CuDef*%
%ADD14RotRect,0.500000X0.540000X225.000000*%
%TD*%
%TA.AperFunction,SMDPad,CuDef*%
%ADD15R,1.200000X0.700000*%
%TD*%
%TA.AperFunction,SMDPad,CuDef*%
%ADD16R,3.800000X4.600000*%
%TD*%
%TA.AperFunction,SMDPad,CuDef*%
%ADD17R,0.500000X0.540000*%
%TD*%
%TA.AperFunction,SMDPad,CuDef*%
%ADD18R,0.900000X0.800000*%
%TD*%
%TA.AperFunction,SMDPad,CuDef*%
%ADD19FreePoly0,90.000000*%
%TD*%
%TA.AperFunction,SMDPad,CuDef*%
%ADD20R,0.300000X1.000000*%
%TD*%
%TA.AperFunction,SMDPad,CuDef*%
%ADD21FreePoly1,90.000000*%
%TD*%
%TA.AperFunction,SMDPad,CuDef*%
%ADD22FreePoly2,90.000000*%
%TD*%
%TA.AperFunction,SMDPad,CuDef*%
%ADD23R,1.000000X0.300000*%
%TD*%
%TA.AperFunction,SMDPad,CuDef*%
%ADD24FreePoly3,90.000000*%
%TD*%
%TA.AperFunction,SMDPad,CuDef*%
%ADD25FreePoly4,90.000000*%
%TD*%
%TA.AperFunction,SMDPad,CuDef*%
%ADD26FreePoly5,90.000000*%
%TD*%
%TA.AperFunction,SMDPad,CuDef*%
%ADD27FreePoly6,90.000000*%
%TD*%
%TA.AperFunction,SMDPad,CuDef*%
%ADD28FreePoly7,90.000000*%
%TD*%
%TA.AperFunction,SMDPad,CuDef*%
%ADD29O,0.800000X0.280000*%
%TD*%
%TA.AperFunction,SMDPad,CuDef*%
%ADD30O,0.280000X0.800000*%
%TD*%
%TA.AperFunction,SMDPad,CuDef*%
%ADD31R,2.700000X2.700000*%
%TD*%
%TA.AperFunction,SMDPad,CuDef*%
%ADD32RoundRect,0.150000X0.350000X0.600000X-0.350000X0.600000X-0.350000X-0.600000X0.350000X-0.600000X0*%
%TD*%
%TA.AperFunction,SMDPad,CuDef*%
%ADD33RoundRect,0.450000X1.050000X1.050000X-1.050000X1.050000X-1.050000X-1.050000X1.050000X-1.050000X0*%
%TD*%
%TA.AperFunction,SMDPad,CuDef*%
%ADD34FreePoly0,270.000000*%
%TD*%
%TA.AperFunction,SMDPad,CuDef*%
%ADD35FreePoly1,270.000000*%
%TD*%
%TA.AperFunction,SMDPad,CuDef*%
%ADD36FreePoly2,270.000000*%
%TD*%
%TA.AperFunction,SMDPad,CuDef*%
%ADD37FreePoly3,270.000000*%
%TD*%
%TA.AperFunction,SMDPad,CuDef*%
%ADD38FreePoly4,270.000000*%
%TD*%
%TA.AperFunction,SMDPad,CuDef*%
%ADD39FreePoly5,270.000000*%
%TD*%
%TA.AperFunction,SMDPad,CuDef*%
%ADD40FreePoly6,270.000000*%
%TD*%
%TA.AperFunction,SMDPad,CuDef*%
%ADD41FreePoly7,270.000000*%
%TD*%
%TA.AperFunction,ViaPad*%
%ADD42C,0.600000*%
%TD*%
%TA.AperFunction,Conductor*%
%ADD43C,0.200000*%
%TD*%
G04 APERTURE END LIST*
D10*
%TO.P,C0,1,1_1*%
%TO.N,GND*%
X232500000Y-83050000D03*
%TO.P,C0,2,2_2*%
%TO.N,B+*%
X227500000Y-83050000D03*
%TD*%
D11*
%TO.P,C9,1*%
%TO.N,OUT3*%
X234270000Y-48150000D03*
%TO.P,C9,2*%
%TO.N,Net-(U3-BOOT3)*%
X234270000Y-48990000D03*
%TD*%
D12*
%TO.P,R48,1*%
%TO.N,Net-(Q18-G)*%
X221180000Y-47900000D03*
%TO.P,R48,2*%
%TO.N,GLS3*%
X222040000Y-47900000D03*
%TD*%
D13*
%TO.P,R53,1*%
%TO.N,PHASE_C_M3*%
X223560000Y-44930000D03*
%TO.P,R53,2*%
%TO.N,OUT3*%
X223560000Y-44070000D03*
%TD*%
%TO.P,R1,1*%
%TO.N,Net-(U2-PF2-NRST)*%
X233510000Y-42620000D03*
%TO.P,R1,2*%
%TO.N,3V3*%
X233510000Y-41760000D03*
%TD*%
D14*
%TO.P,C8,1*%
%TO.N,OUT2*%
X235896985Y-51313015D03*
%TO.P,C8,2*%
%TO.N,Net-(U3-BOOT2)*%
X235303015Y-51906985D03*
%TD*%
D15*
%TO.P,Q14,1,S_1*%
%TO.N,GND*%
X219900000Y-55100000D03*
%TO.P,Q14,2,S_2*%
X219900000Y-56370000D03*
%TO.P,Q14,3,S_3*%
X219900000Y-57630000D03*
%TO.P,Q14,4,G_4*%
%TO.N,Net-(Q14-G)*%
X219900000Y-58900000D03*
%TO.P,Q14,5,D_5*%
%TO.N,OUT1*%
X214100000Y-58900000D03*
%TO.P,Q14,6,D_6*%
X214100000Y-57640000D03*
%TO.P,Q14,7,D_7*%
X214100000Y-56370000D03*
%TO.P,Q14,8,D_8*%
X214100000Y-55100000D03*
D16*
%TO.P,Q14,9,D_9*%
X216460000Y-57000000D03*
%TD*%
D17*
%TO.P,C17,1*%
%TO.N,3V3*%
X229370000Y-77230000D03*
%TO.P,C17,2*%
%TO.N,GND*%
X228530000Y-77230000D03*
%TD*%
D18*
%TO.P,C21,1*%
%TO.N,Net-(U6-REG12)*%
X236300000Y-63000000D03*
%TO.P,C21,2*%
%TO.N,GND*%
X236300000Y-61600000D03*
%TD*%
D17*
%TO.P,C3,1*%
%TO.N,3V3*%
X230700000Y-41630000D03*
%TO.P,C3,2*%
%TO.N,GND*%
X231540000Y-41630000D03*
%TD*%
%TO.P,C2,1*%
%TO.N,3V3*%
X230710000Y-42660000D03*
%TO.P,C2,2*%
%TO.N,GND*%
X231550000Y-42660000D03*
%TD*%
D13*
%TO.P,R24,1*%
%TO.N,Net-(U6-nFAULT)*%
X230500000Y-71250000D03*
%TO.P,R24,2*%
%TO.N,3V3*%
X230500000Y-72110000D03*
%TD*%
D15*
%TO.P,Q16,1,S_1*%
%TO.N,GND*%
X219900000Y-49600000D03*
%TO.P,Q16,2,S_2*%
X219900000Y-50870000D03*
%TO.P,Q16,3,S_3*%
X219900000Y-52130000D03*
%TO.P,Q16,4,G_4*%
%TO.N,Net-(Q16-G)*%
X219900000Y-53400000D03*
%TO.P,Q16,5,D_5*%
%TO.N,OUT2*%
X214100000Y-53400000D03*
%TO.P,Q16,6,D_6*%
X214100000Y-52140000D03*
%TO.P,Q16,7,D_7*%
X214100000Y-50870000D03*
%TO.P,Q16,8,D_8*%
X214100000Y-49600000D03*
D16*
%TO.P,Q16,9,D_9*%
X216460000Y-51500000D03*
%TD*%
D15*
%TO.P,Q12,1,S_1*%
%TO.N,GND*%
X219900000Y-72600000D03*
%TO.P,Q12,2,S_2*%
X219900000Y-73870000D03*
%TO.P,Q12,3,S_3*%
X219900000Y-75130000D03*
%TO.P,Q12,4,G_4*%
%TO.N,Net-(Q12-G)*%
X219900000Y-76400000D03*
%TO.P,Q12,5,D_5*%
%TO.N,OUT3*%
X214100000Y-76400000D03*
%TO.P,Q12,6,D_6*%
X214100000Y-75140000D03*
%TO.P,Q12,7,D_7*%
X214100000Y-73870000D03*
%TO.P,Q12,8,D_8*%
X214100000Y-72600000D03*
D16*
%TO.P,Q12,9,D_9*%
X216460000Y-74500000D03*
%TD*%
D15*
%TO.P,Q24,1,S_1*%
%TO.N,GND*%
X240100000Y-76400000D03*
%TO.P,Q24,2,S_2*%
X240100000Y-75130000D03*
%TO.P,Q24,3,S_3*%
X240100000Y-73870000D03*
%TO.P,Q24,4,G_4*%
%TO.N,Net-(Q24-G)*%
X240100000Y-72600000D03*
%TO.P,Q24,5,D_5*%
%TO.N,OUT3*%
X245900000Y-72600000D03*
%TO.P,Q24,6,D_6*%
X245900000Y-73860000D03*
%TO.P,Q24,7,D_7*%
X245900000Y-75130000D03*
%TO.P,Q24,8,D_8*%
X245900000Y-76400000D03*
D16*
%TO.P,Q24,9,D_9*%
X243540000Y-74500000D03*
%TD*%
D13*
%TO.P,R50,1*%
%TO.N,GND*%
X224500000Y-47500000D03*
%TO.P,R50,2*%
%TO.N,PHASE_A_M3*%
X224500000Y-46640000D03*
%TD*%
%TO.P,R6,1*%
%TO.N,Net-(U3-nFAULT)*%
X229000000Y-49550000D03*
%TO.P,R6,2*%
%TO.N,3V3*%
X229000000Y-48690000D03*
%TD*%
D11*
%TO.P,C58,1*%
%TO.N,PHASE_A_M4*%
X234460000Y-73320000D03*
%TO.P,C58,2*%
%TO.N,GND*%
X234460000Y-72480000D03*
%TD*%
D13*
%TO.P,R49,1*%
%TO.N,PHASE_A_M3*%
X225500000Y-46640000D03*
%TO.P,R49,2*%
%TO.N,OUT1*%
X225500000Y-47500000D03*
%TD*%
D18*
%TO.P,C5,1*%
%TO.N,Net-(U3-REG12)*%
X225120000Y-57600000D03*
%TO.P,C5,2*%
%TO.N,GND*%
X225120000Y-59000000D03*
%TD*%
D13*
%TO.P,R20,1*%
%TO.N,3V3*%
X232670000Y-61870000D03*
%TO.P,R20,2*%
%TO.N,Net-(U6-SCREF)*%
X232670000Y-62730000D03*
%TD*%
D12*
%TO.P,R26,1*%
%TO.N,Net-(Q8-G)*%
X221180000Y-65400000D03*
%TO.P,R26,2*%
%TO.N,GLS1*%
X222040000Y-65400000D03*
%TD*%
D19*
%TO.P,U7,1,PC15-OSCX_OUT_1*%
%TO.N,unconnected-(U7-PC15-OSCX_OUT-Pad1)*%
X229240000Y-75850000D03*
D20*
%TO.P,U7,2,VDD/VDDA_2*%
%TO.N,3V3*%
X228740000Y-75750000D03*
%TO.P,U7,3,VSS/VSSA_3*%
%TO.N,GND*%
X228240000Y-75750000D03*
%TO.P,U7,4,PF2-NRST_4*%
%TO.N,Net-(U7-PF2-NRST)*%
X227740000Y-75750000D03*
D21*
%TO.P,U7,5,PA0_5*%
%TO.N,unconnected-(U7-PA0-Pad5)*%
X227240000Y-75850000D03*
D22*
%TO.P,U7,6,PA1_6*%
%TO.N,DShot_M2*%
X226690000Y-75300000D03*
D23*
%TO.P,U7,7,PA2_7*%
%TO.N,PHASE_C_M2*%
X226810000Y-74800000D03*
%TO.P,U7,8,PA3_8*%
%TO.N,PHASE_B_M2*%
X226810000Y-74300000D03*
%TO.P,U7,9,PA4_9*%
%TO.N,PHASE_A_M2*%
X226810000Y-73800000D03*
D24*
%TO.P,U7,10,PA5_10*%
%TO.N,EN3_M2*%
X226690000Y-73300000D03*
D25*
%TO.P,U7,11,PA6_11*%
%TO.N,EN2_M2*%
X227240000Y-72750000D03*
D20*
%TO.P,U7,12,PA7_12*%
%TO.N,EN1_M2*%
X227740000Y-72850000D03*
%TO.P,U7,13,PA8_13*%
%TO.N,INH3_M2*%
X228240000Y-72850000D03*
%TO.P,U7,14,PA11[PA9]_14*%
%TO.N,INH2_M2*%
X228740000Y-72850000D03*
D26*
%TO.P,U7,15,PA12[PA10]_15*%
%TO.N,INH1_M2*%
X229240000Y-72750000D03*
D27*
%TO.P,U7,16,PA13_16*%
%TO.N,SWDIO_M2*%
X229810000Y-73300000D03*
D23*
%TO.P,U7,17,PA14-BOOT0_17*%
%TO.N,SWCLK_M2*%
X229690000Y-73800000D03*
%TO.P,U7,18,PB6_18*%
%TO.N,unconnected-(U7-PB6-Pad18)*%
X229690000Y-74300000D03*
%TO.P,U7,19,PB7_19*%
%TO.N,unconnected-(U7-PB7-Pad19)*%
X229690000Y-74800000D03*
D28*
%TO.P,U7,20,PC14-OSCX_IN_20*%
%TO.N,unconnected-(U7-PC14-OSCX_IN-Pad20)*%
X229810000Y-75300000D03*
%TD*%
D15*
%TO.P,Q20,1,S_1*%
%TO.N,GND*%
X240100000Y-65400000D03*
%TO.P,Q20,2,S_2*%
X240100000Y-64130000D03*
%TO.P,Q20,3,S_3*%
X240100000Y-62870000D03*
%TO.P,Q20,4,G_4*%
%TO.N,Net-(Q20-G)*%
X240100000Y-61600000D03*
%TO.P,Q20,5,D_5*%
%TO.N,OUT1*%
X245900000Y-61600000D03*
%TO.P,Q20,6,D_6*%
X245900000Y-62860000D03*
%TO.P,Q20,7,D_7*%
X245900000Y-64130000D03*
%TO.P,Q20,8,D_8*%
X245900000Y-65400000D03*
D16*
%TO.P,Q20,9,D_9*%
X243540000Y-63500000D03*
%TD*%
D13*
%TO.P,R54,1*%
%TO.N,GND*%
X224560000Y-44070000D03*
%TO.P,R54,2*%
%TO.N,PHASE_C_M3*%
X224560000Y-44930000D03*
%TD*%
D15*
%TO.P,Q22,1,S_1*%
%TO.N,GND*%
X240100000Y-70900000D03*
%TO.P,Q22,2,S_2*%
X240100000Y-69630000D03*
%TO.P,Q22,3,S_3*%
X240100000Y-68370000D03*
%TO.P,Q22,4,G_4*%
%TO.N,Net-(Q22-G)*%
X240100000Y-67100000D03*
%TO.P,Q22,5,D_5*%
%TO.N,OUT2*%
X245900000Y-67100000D03*
%TO.P,Q22,6,D_6*%
X245900000Y-68360000D03*
%TO.P,Q22,7,D_7*%
X245900000Y-69630000D03*
%TO.P,Q22,8,D_8*%
X245900000Y-70900000D03*
D16*
%TO.P,Q22,9,D_9*%
X243540000Y-69000000D03*
%TD*%
D13*
%TO.P,R23,1*%
%TO.N,Net-(U6-DT{slash}MODE)*%
X230500000Y-62730000D03*
%TO.P,R23,2*%
%TO.N,GND*%
X230500000Y-61870000D03*
%TD*%
D29*
%TO.P,U6,1,CP_1*%
%TO.N,Net-(U6-CP)*%
X230000000Y-67750000D03*
%TO.P,U6,2,DT/MODE_2*%
%TO.N,Net-(U6-DT{slash}MODE)*%
X230000000Y-68250000D03*
%TO.P,U6,3,SCREF_3*%
%TO.N,Net-(U6-SCREF)*%
X230000000Y-68750000D03*
%TO.P,U6,4,VS_4*%
%TO.N,B+*%
X230000000Y-69250000D03*
%TO.P,U6,5,REG12_5*%
%TO.N,Net-(U6-REG12)*%
X230000000Y-69750000D03*
%TO.P,U6,6,nFAULT_6*%
%TO.N,Net-(U6-nFAULT)*%
X230000000Y-70250000D03*
D30*
%TO.P,U6,7,INH1/IN1_7*%
%TO.N,INH1_M2*%
X229250000Y-71000000D03*
%TO.P,U6,8,INH2/IN2_8*%
%TO.N,INH2_M2*%
X228750000Y-71000000D03*
%TO.P,U6,9,INH3/IN3_9*%
%TO.N,INH3_M2*%
X228250000Y-71000000D03*
%TO.P,U6,10,INL1/EN1_10*%
%TO.N,EN1_M2*%
X227750000Y-71000000D03*
%TO.P,U6,11,INL2/EN2_11*%
%TO.N,EN2_M2*%
X227250000Y-71000000D03*
%TO.P,U6,12,INL3/EN3_12*%
%TO.N,EN3_M2*%
X226750000Y-71000000D03*
D29*
%TO.P,U6,13,BOOT3_13*%
%TO.N,Net-(U6-BOOT3)*%
X226000000Y-70250000D03*
%TO.P,U6,14,GHS3_14*%
%TO.N,GHS3*%
X226000000Y-69750000D03*
%TO.P,U6,15,OUT3_15*%
%TO.N,OUT3*%
X226000000Y-69250000D03*
%TO.P,U6,16,GLS3_16*%
%TO.N,GLS3*%
X226000000Y-68750000D03*
%TO.P,U6,17,BOOT2_17*%
%TO.N,Net-(U6-BOOT2)*%
X226000000Y-68250000D03*
%TO.P,U6,18,GHS2_18*%
%TO.N,GHS2*%
X226000000Y-67760000D03*
D30*
%TO.P,U6,19,OUT2_19*%
%TO.N,OUT2*%
X226750000Y-67000000D03*
%TO.P,U6,20,GLS2_20*%
%TO.N,GLS2*%
X227250000Y-67000000D03*
%TO.P,U6,21,BOOT1_21*%
%TO.N,Net-(U6-BOOT1)*%
X227750000Y-67000000D03*
%TO.P,U6,22,GHS1_22*%
%TO.N,GHS1*%
X228250000Y-67000000D03*
%TO.P,U6,23,OUT1_23*%
%TO.N,OUT1*%
X228750000Y-67000000D03*
%TO.P,U6,24,GLS1_24*%
%TO.N,GLS1*%
X229250000Y-67000000D03*
D31*
%TO.P,U6,25,EP_25*%
%TO.N,GND*%
X228000000Y-69010000D03*
%TD*%
D13*
%TO.P,R21,1*%
%TO.N,Net-(U6-SCREF)*%
X231670000Y-62730000D03*
%TO.P,R21,2*%
%TO.N,GND*%
X231670000Y-61870000D03*
%TD*%
D32*
%TO.P,SWDIO_M1,1,Pin_1_1*%
%TO.N,SWDIO_M1*%
X220000000Y-40850000D03*
%TD*%
D18*
%TO.P,C6,1*%
%TO.N,Net-(U3-REG12)*%
X223700000Y-57600000D03*
%TO.P,C6,2*%
%TO.N,GND*%
X223700000Y-59000000D03*
%TD*%
D33*
%TO.P,POWER_OUT1,1,Pin_1_1*%
%TO.N,B+*%
X232000000Y-83000000D03*
%TO.P,POWER_OUT1,2,Pin_2_2*%
%TO.N,GND*%
X228000000Y-83000000D03*
%TD*%
D11*
%TO.P,C1,1*%
%TO.N,Net-(U2-PF2-NRST)*%
X232500000Y-42610000D03*
%TO.P,C1,2*%
%TO.N,GND*%
X232500000Y-41770000D03*
%TD*%
D12*
%TO.P,R8,1*%
%TO.N,Net-(Q2-G)*%
X238830000Y-55090000D03*
%TO.P,R8,2*%
%TO.N,GLS1*%
X237970000Y-55090000D03*
%TD*%
D15*
%TO.P,Q4,1,S_1*%
%TO.N,GND*%
X240100000Y-53400000D03*
%TO.P,Q4,2,S_2*%
X240100000Y-52130000D03*
%TO.P,Q4,3,S_3*%
X240100000Y-50870000D03*
%TO.P,Q4,4,G_4*%
%TO.N,Net-(Q4-G)*%
X240100000Y-49600000D03*
%TO.P,Q4,5,D_5*%
%TO.N,OUT2*%
X245900000Y-49600000D03*
%TO.P,Q4,6,D_6*%
X245900000Y-50860000D03*
%TO.P,Q4,7,D_7*%
X245900000Y-52130000D03*
%TO.P,Q4,8,D_8*%
X245900000Y-53400000D03*
D16*
%TO.P,Q4,9,D_9*%
X243540000Y-51500000D03*
%TD*%
D18*
%TO.P,C20,1*%
%TO.N,Net-(U6-REG12)*%
X234880000Y-63000000D03*
%TO.P,C20,2*%
%TO.N,GND*%
X234880000Y-61600000D03*
%TD*%
D13*
%TO.P,R71,1*%
%TO.N,PHASE_C_M4*%
X234460000Y-75270000D03*
%TO.P,R71,2*%
%TO.N,OUT3*%
X234460000Y-76130000D03*
%TD*%
D12*
%TO.P,R52,1*%
%TO.N,GND*%
X227430000Y-45990000D03*
%TO.P,R52,2*%
%TO.N,PHASE_B_M3*%
X226570000Y-45990000D03*
%TD*%
D13*
%TO.P,R5,1*%
%TO.N,Net-(U3-DT{slash}MODE)*%
X229500000Y-57870000D03*
%TO.P,R5,2*%
%TO.N,GND*%
X229500000Y-58730000D03*
%TD*%
D15*
%TO.P,Q10,1,S_1*%
%TO.N,GND*%
X219900000Y-67100000D03*
%TO.P,Q10,2,S_2*%
X219900000Y-68370000D03*
%TO.P,Q10,3,S_3*%
X219900000Y-69630000D03*
%TO.P,Q10,4,G_4*%
%TO.N,Net-(Q10-G)*%
X219900000Y-70900000D03*
%TO.P,Q10,5,D_5*%
%TO.N,OUT2*%
X214100000Y-70900000D03*
%TO.P,Q10,6,D_6*%
X214100000Y-69640000D03*
%TO.P,Q10,7,D_7*%
X214100000Y-68370000D03*
%TO.P,Q10,8,D_8*%
X214100000Y-67100000D03*
D16*
%TO.P,Q10,9,D_9*%
X216460000Y-69000000D03*
%TD*%
D13*
%TO.P,R72,1*%
%TO.N,GND*%
X235450000Y-76130000D03*
%TO.P,R72,2*%
%TO.N,PHASE_C_M4*%
X235450000Y-75270000D03*
%TD*%
%TO.P,R4,1*%
%TO.N,GND*%
X230500000Y-58730000D03*
%TO.P,R4,2*%
%TO.N,Net-(U3-CP)*%
X230500000Y-57870000D03*
%TD*%
D11*
%TO.P,C24,1*%
%TO.N,OUT3*%
X225340000Y-71680000D03*
%TO.P,C24,2*%
%TO.N,Net-(U6-BOOT3)*%
X225340000Y-70840000D03*
%TD*%
D17*
%TO.P,C59,1*%
%TO.N,PHASE_B_M4*%
X233020000Y-75200000D03*
%TO.P,C59,2*%
%TO.N,GND*%
X232180000Y-75200000D03*
%TD*%
D11*
%TO.P,C16,1*%
%TO.N,Net-(U7-PF2-NRST)*%
X227580000Y-77320000D03*
%TO.P,C16,2*%
%TO.N,GND*%
X227580000Y-78160000D03*
%TD*%
D32*
%TO.P,SWCLK_M2,1,Pin_1_1*%
%TO.N,SWCLK_M2*%
X238000000Y-79150000D03*
%TD*%
D17*
%TO.P,C44,1*%
%TO.N,PHASE_B_M3*%
X226580000Y-45000000D03*
%TO.P,C44,2*%
%TO.N,GND*%
X227420000Y-45000000D03*
%TD*%
D15*
%TO.P,Q2,1,S_1*%
%TO.N,GND*%
X240100000Y-58900000D03*
%TO.P,Q2,2,S_2*%
X240100000Y-57630000D03*
%TO.P,Q2,3,S_3*%
X240100000Y-56370000D03*
%TO.P,Q2,4,G_4*%
%TO.N,Net-(Q2-G)*%
X240100000Y-55100000D03*
%TO.P,Q2,5,D_5*%
%TO.N,OUT1*%
X245900000Y-55100000D03*
%TO.P,Q2,6,D_6*%
X245900000Y-56360000D03*
%TO.P,Q2,7,D_7*%
X245900000Y-57630000D03*
%TO.P,Q2,8,D_8*%
X245900000Y-58900000D03*
D16*
%TO.P,Q2,9,D_9*%
X243540000Y-57000000D03*
%TD*%
D15*
%TO.P,Q18,1,S_1*%
%TO.N,GND*%
X219900000Y-44100000D03*
%TO.P,Q18,2,S_2*%
X219900000Y-45370000D03*
%TO.P,Q18,3,S_3*%
X219900000Y-46630000D03*
%TO.P,Q18,4,G_4*%
%TO.N,Net-(Q18-G)*%
X219900000Y-47900000D03*
%TO.P,Q18,5,D_5*%
%TO.N,OUT3*%
X214100000Y-47900000D03*
%TO.P,Q18,6,D_6*%
X214100000Y-46640000D03*
%TO.P,Q18,7,D_7*%
X214100000Y-45370000D03*
%TO.P,Q18,8,D_8*%
X214100000Y-44100000D03*
D16*
%TO.P,Q18,9,D_9*%
X216460000Y-46000000D03*
%TD*%
D12*
%TO.P,R64,1*%
%TO.N,Net-(Q22-G)*%
X238830000Y-67100000D03*
%TO.P,R64,2*%
%TO.N,GLS2*%
X237970000Y-67100000D03*
%TD*%
D11*
%TO.P,C45,1*%
%TO.N,PHASE_C_M3*%
X225570000Y-44920000D03*
%TO.P,C45,2*%
%TO.N,GND*%
X225570000Y-44080000D03*
%TD*%
D32*
%TO.P,SWDIO_M2,1,Pin_1_1*%
%TO.N,SWDIO_M2*%
X240000000Y-79150000D03*
%TD*%
D12*
%TO.P,R44,1*%
%TO.N,Net-(Q14-G)*%
X221180000Y-58900000D03*
%TO.P,R44,2*%
%TO.N,GLS1*%
X222040000Y-58900000D03*
%TD*%
D17*
%TO.P,C22,1*%
%TO.N,OUT1*%
X225140000Y-65160000D03*
%TO.P,C22,2*%
%TO.N,Net-(U6-BOOT1)*%
X225980000Y-65160000D03*
%TD*%
D13*
%TO.P,R67,1*%
%TO.N,PHASE_A_M4*%
X236460000Y-73330000D03*
%TO.P,R67,2*%
%TO.N,OUT1*%
X236460000Y-72470000D03*
%TD*%
D34*
%TO.P,U2,1,PC15-OSCX_OUT_1*%
%TO.N,unconnected-(U2-PC15-OSCX_OUT-Pad1)*%
X230760000Y-44640000D03*
D20*
%TO.P,U2,2,VDD/VDDA_2*%
%TO.N,3V3*%
X231260000Y-44740000D03*
%TO.P,U2,3,VSS/VSSA_3*%
%TO.N,GND*%
X231760000Y-44740000D03*
%TO.P,U2,4,PF2-NRST_4*%
%TO.N,Net-(U2-PF2-NRST)*%
X232260000Y-44740000D03*
D35*
%TO.P,U2,5,PA0_5*%
%TO.N,unconnected-(U2-PA0-Pad5)*%
X232760000Y-44640000D03*
D36*
%TO.P,U2,6,PA1_6*%
%TO.N,DShot_M1*%
X233310000Y-45190000D03*
D23*
%TO.P,U2,7,PA2_7*%
%TO.N,PHASE_C_M1*%
X233190000Y-45690000D03*
%TO.P,U2,8,PA3_8*%
%TO.N,PHASE_B_M1*%
X233190000Y-46190000D03*
%TO.P,U2,9,PA4_9*%
%TO.N,PHASE_A_M1*%
X233190000Y-46690000D03*
D37*
%TO.P,U2,10,PA5_10*%
%TO.N,EN3_M1*%
X233310000Y-47190000D03*
D38*
%TO.P,U2,11,PA6_11*%
%TO.N,EN2_M1*%
X232760000Y-47740000D03*
D20*
%TO.P,U2,12,PA7_12*%
%TO.N,EN1_M1*%
X232260000Y-47640000D03*
%TO.P,U2,13,PA8_13*%
%TO.N,INH3_M1*%
X231760000Y-47640000D03*
%TO.P,U2,14,PA11[PA9]_14*%
%TO.N,INH2_M1*%
X231260000Y-47640000D03*
D39*
%TO.P,U2,15,PA12[PA10]_15*%
%TO.N,INH1_M1*%
X230760000Y-47740000D03*
D40*
%TO.P,U2,16,PA13_16*%
%TO.N,SWDIO_M1*%
X230190000Y-47190000D03*
D23*
%TO.P,U2,17,PA14-BOOT0_17*%
%TO.N,SWCLK_M1*%
X230310000Y-46690000D03*
%TO.P,U2,18,PB6_18*%
%TO.N,unconnected-(U2-PB6-Pad18)*%
X230310000Y-46190000D03*
%TO.P,U2,19,PB7_19*%
%TO.N,unconnected-(U2-PB7-Pad19)*%
X230310000Y-45690000D03*
D41*
%TO.P,U2,20,PC14-OSCX_IN_20*%
%TO.N,unconnected-(U2-PC14-OSCX_IN-Pad20)*%
X230190000Y-45190000D03*
%TD*%
D12*
%TO.P,R62,1*%
%TO.N,Net-(Q20-G)*%
X238830000Y-61600000D03*
%TO.P,R62,2*%
%TO.N,GLS1*%
X237970000Y-61600000D03*
%TD*%
D11*
%TO.P,C43,1*%
%TO.N,PHASE_A_M3*%
X223500000Y-46650000D03*
%TO.P,C43,2*%
%TO.N,GND*%
X223500000Y-47490000D03*
%TD*%
D12*
%TO.P,R70,1*%
%TO.N,GND*%
X232170000Y-74190000D03*
%TO.P,R70,2*%
%TO.N,PHASE_B_M4*%
X233030000Y-74190000D03*
%TD*%
%TO.P,R28,1*%
%TO.N,Net-(Q10-G)*%
X221180000Y-70900000D03*
%TO.P,R28,2*%
%TO.N,GLS2*%
X222040000Y-70900000D03*
%TD*%
%TO.P,R10,1*%
%TO.N,Net-(Q4-G)*%
X238830000Y-49600000D03*
%TO.P,R10,2*%
%TO.N,GLS2*%
X237970000Y-49600000D03*
%TD*%
D29*
%TO.P,U3,1,CP_1*%
%TO.N,Net-(U3-CP)*%
X230000000Y-52750000D03*
%TO.P,U3,2,DT/MODE_2*%
%TO.N,Net-(U3-DT{slash}MODE)*%
X230000000Y-52250000D03*
%TO.P,U3,3,SCREF_3*%
%TO.N,Net-(U3-SCREF)*%
X230000000Y-51750000D03*
%TO.P,U3,4,VS_4*%
%TO.N,B+*%
X230000000Y-51250000D03*
%TO.P,U3,5,REG12_5*%
%TO.N,Net-(U3-REG12)*%
X230000000Y-50750000D03*
%TO.P,U3,6,nFAULT_6*%
%TO.N,Net-(U3-nFAULT)*%
X230000000Y-50250000D03*
D30*
%TO.P,U3,7,INH1/IN1_7*%
%TO.N,INH1_M1*%
X230750000Y-49500000D03*
%TO.P,U3,8,INH2/IN2_8*%
%TO.N,INH2_M1*%
X231250000Y-49500000D03*
%TO.P,U3,9,INH3/IN3_9*%
%TO.N,INH3_M1*%
X231750000Y-49500000D03*
%TO.P,U3,10,INL1/EN1_10*%
%TO.N,EN1_M1*%
X232250000Y-49500000D03*
%TO.P,U3,11,INL2/EN2_11*%
%TO.N,EN2_M1*%
X232750000Y-49500000D03*
%TO.P,U3,12,INL3/EN3_12*%
%TO.N,EN3_M1*%
X233250000Y-49500000D03*
D29*
%TO.P,U3,13,BOOT3_13*%
%TO.N,Net-(U3-BOOT3)*%
X234000000Y-50250000D03*
%TO.P,U3,14,GHS3_14*%
%TO.N,GHS3*%
X234000000Y-50750000D03*
%TO.P,U3,15,OUT3_15*%
%TO.N,OUT3*%
X234000000Y-51250000D03*
%TO.P,U3,16,GLS3_16*%
%TO.N,GLS3*%
X234000000Y-51750000D03*
%TO.P,U3,17,BOOT2_17*%
%TO.N,Net-(U3-BOOT2)*%
X234000000Y-52250000D03*
%TO.P,U3,18,GHS2_18*%
%TO.N,GHS2*%
X234000000Y-52740000D03*
D30*
%TO.P,U3,19,OUT2_19*%
%TO.N,OUT2*%
X233250000Y-53500000D03*
%TO.P,U3,20,GLS2_20*%
%TO.N,GLS2*%
X232750000Y-53500000D03*
%TO.P,U3,21,BOOT1_21*%
%TO.N,Net-(U3-BOOT1)*%
X232250000Y-53500000D03*
%TO.P,U3,22,GHS1_22*%
%TO.N,GHS1*%
X231750000Y-53500000D03*
%TO.P,U3,23,OUT1_23*%
%TO.N,OUT1*%
X231250000Y-53500000D03*
%TO.P,U3,24,GLS1_24*%
%TO.N,GLS1*%
X230750000Y-53500000D03*
D31*
%TO.P,U3,25,EP_25*%
%TO.N,GND*%
X232000000Y-51490000D03*
%TD*%
D12*
%TO.P,R66,1*%
%TO.N,Net-(Q24-G)*%
X238830000Y-72570000D03*
%TO.P,R66,2*%
%TO.N,GLS3*%
X237970000Y-72570000D03*
%TD*%
%TO.P,R69,1*%
%TO.N,PHASE_B_M4*%
X233030000Y-73200000D03*
%TO.P,R69,2*%
%TO.N,OUT2*%
X232170000Y-73200000D03*
%TD*%
D13*
%TO.P,R3,1*%
%TO.N,Net-(U3-SCREF)*%
X228330000Y-57870000D03*
%TO.P,R3,2*%
%TO.N,GND*%
X228330000Y-58730000D03*
%TD*%
D12*
%TO.P,R30,1*%
%TO.N,Net-(Q12-G)*%
X221180000Y-76350000D03*
%TO.P,R30,2*%
%TO.N,GLS3*%
X222040000Y-76350000D03*
%TD*%
D15*
%TO.P,Q8,1,S_1*%
%TO.N,GND*%
X219900000Y-61600000D03*
%TO.P,Q8,2,S_2*%
X219900000Y-62870000D03*
%TO.P,Q8,3,S_3*%
X219900000Y-64130000D03*
%TO.P,Q8,4,G_4*%
%TO.N,Net-(Q8-G)*%
X219900000Y-65400000D03*
%TO.P,Q8,5,D_5*%
%TO.N,OUT1*%
X214100000Y-65400000D03*
%TO.P,Q8,6,D_6*%
X214100000Y-64140000D03*
%TO.P,Q8,7,D_7*%
X214100000Y-62870000D03*
%TO.P,Q8,8,D_8*%
X214100000Y-61600000D03*
D16*
%TO.P,Q8,9,D_9*%
X216460000Y-63500000D03*
%TD*%
D11*
%TO.P,C19,1*%
%TO.N,B+*%
X233670000Y-62720000D03*
%TO.P,C19,2*%
%TO.N,GND*%
X233670000Y-61880000D03*
%TD*%
D32*
%TO.P,DShot_M1,1,Pin_1_1*%
%TO.N,DShot_M1*%
X238000000Y-40850000D03*
%TD*%
D11*
%TO.P,C23,1*%
%TO.N,OUT2*%
X224730000Y-67310000D03*
%TO.P,C23,2*%
%TO.N,Net-(U6-BOOT2)*%
X224730000Y-68150000D03*
%TD*%
D12*
%TO.P,R12,1*%
%TO.N,Net-(Q6-G)*%
X238830000Y-44080000D03*
%TO.P,R12,2*%
%TO.N,GLS3*%
X237970000Y-44080000D03*
%TD*%
D11*
%TO.P,C60,1*%
%TO.N,PHASE_C_M4*%
X236450000Y-75280000D03*
%TO.P,C60,2*%
%TO.N,GND*%
X236450000Y-76120000D03*
%TD*%
D13*
%TO.P,R68,1*%
%TO.N,GND*%
X235460000Y-72470000D03*
%TO.P,R68,2*%
%TO.N,PHASE_A_M4*%
X235460000Y-73330000D03*
%TD*%
D17*
%TO.P,C7,1*%
%TO.N,OUT1*%
X234610000Y-54860000D03*
%TO.P,C7,2*%
%TO.N,Net-(U3-BOOT1)*%
X233770000Y-54860000D03*
%TD*%
D15*
%TO.P,Q6,1,S_1*%
%TO.N,GND*%
X240100000Y-47900000D03*
%TO.P,Q6,2,S_2*%
X240100000Y-46630000D03*
%TO.P,Q6,3,S_3*%
X240100000Y-45370000D03*
%TO.P,Q6,4,G_4*%
%TO.N,Net-(Q6-G)*%
X240100000Y-44100000D03*
%TO.P,Q6,5,D_5*%
%TO.N,OUT3*%
X245900000Y-44100000D03*
%TO.P,Q6,6,D_6*%
X245900000Y-45360000D03*
%TO.P,Q6,7,D_7*%
X245900000Y-46630000D03*
%TO.P,Q6,8,D_8*%
X245900000Y-47900000D03*
D16*
%TO.P,Q6,9,D_9*%
X243540000Y-46000000D03*
%TD*%
D32*
%TO.P,DShot_M2,1,Pin_1_1*%
%TO.N,DShot_M2*%
X222000000Y-79150000D03*
%TD*%
D17*
%TO.P,C18,1*%
%TO.N,3V3*%
X229370000Y-78250000D03*
%TO.P,C18,2*%
%TO.N,GND*%
X228530000Y-78250000D03*
%TD*%
D13*
%TO.P,R19,1*%
%TO.N,Net-(U7-PF2-NRST)*%
X226580000Y-77300000D03*
%TO.P,R19,2*%
%TO.N,3V3*%
X226580000Y-78160000D03*
%TD*%
D32*
%TO.P,SWCLK_M1,1,Pin_1_1*%
%TO.N,SWCLK_M1*%
X222000000Y-40850000D03*
%TD*%
D13*
%TO.P,R22,1*%
%TO.N,GND*%
X229500000Y-61870000D03*
%TO.P,R22,2*%
%TO.N,Net-(U6-CP)*%
X229500000Y-62730000D03*
%TD*%
D12*
%TO.P,R51,1*%
%TO.N,PHASE_B_M3*%
X226570000Y-47000000D03*
%TO.P,R51,2*%
%TO.N,OUT2*%
X227430000Y-47000000D03*
%TD*%
D11*
%TO.P,C4,1*%
%TO.N,B+*%
X226330000Y-57880000D03*
%TO.P,C4,2*%
%TO.N,GND*%
X226330000Y-58720000D03*
%TD*%
D12*
%TO.P,R46,1*%
%TO.N,Net-(Q16-G)*%
X221180000Y-53400000D03*
%TO.P,R46,2*%
%TO.N,GLS2*%
X222040000Y-53400000D03*
%TD*%
D13*
%TO.P,R2,1*%
%TO.N,3V3*%
X227330000Y-58730000D03*
%TO.P,R2,2*%
%TO.N,Net-(U3-SCREF)*%
X227330000Y-57870000D03*
%TD*%
D42*
%TO.N,B+*%
X237850000Y-47820000D03*
X222130000Y-44710000D03*
X221000000Y-55990000D03*
X222130000Y-50250000D03*
X221600000Y-55990000D03*
X231130000Y-81200000D03*
X237850000Y-52690000D03*
X237850000Y-70870000D03*
X221000000Y-50539998D03*
X221600000Y-72320000D03*
X239000000Y-71200000D03*
X221000000Y-54790000D03*
X238390000Y-75548595D03*
X221000000Y-49940000D03*
X239000000Y-46910000D03*
X233670000Y-57880000D03*
X239000000Y-70600000D03*
X221600000Y-66850000D03*
X237850000Y-53290000D03*
X221600000Y-44410000D03*
X237840000Y-58780000D03*
X238400000Y-57890000D03*
X232930000Y-81200000D03*
X222150000Y-61650000D03*
X222150000Y-55690000D03*
X221600000Y-68051405D03*
X237850000Y-47210000D03*
X221600000Y-45010000D03*
X238400000Y-71180000D03*
X237840000Y-75840000D03*
X238400000Y-69978595D03*
X238400000Y-59090000D03*
X239000000Y-53000000D03*
X239000000Y-59090000D03*
X221600000Y-55390000D03*
X239000000Y-58490000D03*
X238400000Y-65100000D03*
X237840000Y-65390000D03*
X238400000Y-58490000D03*
X221600000Y-62541405D03*
X226330000Y-57880000D03*
X237840000Y-76440000D03*
X221600000Y-43810000D03*
X239000000Y-53600000D03*
X238400000Y-47510000D03*
X232330000Y-81200000D03*
X239000000Y-70000000D03*
X238400000Y-52400000D03*
X239000000Y-47510000D03*
X238400000Y-46910000D03*
X221000000Y-49340000D03*
X239000000Y-52400002D03*
X239000000Y-65100000D03*
X221600000Y-54790000D03*
X221000000Y-44999998D03*
X221000000Y-43800000D03*
X238990000Y-75570000D03*
X222140000Y-55090000D03*
X221000000Y-73500000D03*
X221600000Y-49940000D03*
X233530000Y-81200000D03*
X238400000Y-70570000D03*
X221000000Y-72300000D03*
X221600000Y-49340000D03*
X222150000Y-67760000D03*
X222150000Y-72630000D03*
X238990000Y-76170000D03*
X238400000Y-53000000D03*
X222150000Y-67160000D03*
X222150000Y-62250000D03*
X221600000Y-50540000D03*
X237840000Y-58180000D03*
X238390000Y-76750000D03*
X221000000Y-68030000D03*
X221000000Y-55390000D03*
X222150000Y-73230000D03*
X238990000Y-76770000D03*
X221600000Y-61340000D03*
X222130000Y-49650000D03*
X238390000Y-76140000D03*
X221600000Y-61950000D03*
X238400000Y-48110000D03*
X221600000Y-73521405D03*
X238400000Y-65700000D03*
X230530000Y-81200000D03*
X222130000Y-44110000D03*
X237840000Y-64790000D03*
X221600000Y-72930000D03*
X221000000Y-72900000D03*
X239000000Y-48110000D03*
X231730000Y-81200000D03*
X238400000Y-53600000D03*
X237850000Y-70270000D03*
X221000000Y-62520000D03*
X239000000Y-64500002D03*
X239000000Y-65700000D03*
X239000000Y-57890002D03*
X221000000Y-44400000D03*
X221000000Y-61920000D03*
X221000000Y-61320000D03*
X221600000Y-67460000D03*
X233670000Y-62720000D03*
X226330000Y-62720000D03*
X221000000Y-66830000D03*
X221000000Y-67430000D03*
X238400000Y-64500000D03*
%TO.N,GHS3*%
X215640000Y-78100000D03*
X243820000Y-42440000D03*
%TO.N,OUT3*%
X212710000Y-44480000D03*
X211610000Y-72960000D03*
X248460000Y-74160000D03*
X248400000Y-47500000D03*
X235610000Y-48860000D03*
X247310000Y-74160000D03*
X224740000Y-69350000D03*
X249330000Y-47500000D03*
X247310000Y-75090000D03*
X211600000Y-74780000D03*
X249520000Y-75090000D03*
X210500000Y-44480000D03*
X212710000Y-72960000D03*
X211600000Y-73870000D03*
X210500000Y-46260000D03*
X233910000Y-71815754D03*
X247510000Y-45700000D03*
X234213020Y-48196620D03*
X247510000Y-46630000D03*
X211590000Y-46260000D03*
X210500000Y-73870000D03*
X248400000Y-46630000D03*
X212710000Y-46260000D03*
X225620000Y-48450000D03*
X224500735Y-50769265D03*
X211590000Y-44480000D03*
X235091819Y-69350000D03*
X248460000Y-75090000D03*
X248470000Y-76000000D03*
X249520000Y-74160000D03*
X210500000Y-74780000D03*
X210510000Y-72960000D03*
X211600000Y-45370000D03*
X248400000Y-45700000D03*
X247320000Y-76000000D03*
X249530000Y-76000000D03*
X212720000Y-45370000D03*
X247510000Y-47500000D03*
X212700000Y-73870000D03*
X249330000Y-45700000D03*
X212700000Y-74780000D03*
X225340000Y-71629998D03*
X210510000Y-45370000D03*
X249330000Y-46630000D03*
%TO.N,GLS3*%
X223540000Y-49890000D03*
X222040000Y-47900000D03*
X235880000Y-69540000D03*
X237970000Y-72570000D03*
%TO.N,GHS2*%
X212590000Y-71530000D03*
X247610000Y-48950000D03*
%TO.N,OUT2*%
X223550000Y-52420000D03*
X226060000Y-66420000D03*
X249550000Y-51250000D03*
X249550000Y-53030000D03*
X210550000Y-49990000D03*
X249510000Y-70550000D03*
X247300000Y-52130000D03*
X248390000Y-69640000D03*
X224730000Y-67310000D03*
X211600000Y-50870000D03*
X249510000Y-69640000D03*
X210500000Y-68370000D03*
X210500000Y-67470000D03*
X211600000Y-69270000D03*
X210500000Y-69270000D03*
X249550000Y-52130000D03*
X247300000Y-53030000D03*
X234970000Y-53540000D03*
X212700000Y-67470000D03*
X248400000Y-52130000D03*
X248400000Y-53030000D03*
X212700000Y-69270000D03*
X236420000Y-67310000D03*
X249510000Y-68750000D03*
X211600000Y-67470000D03*
X248390000Y-70550000D03*
X247290000Y-68750000D03*
X247290000Y-69640000D03*
X248400000Y-51250000D03*
X212660000Y-49990000D03*
X248390000Y-68750000D03*
X211600000Y-68370000D03*
X235896985Y-51313015D03*
X247300000Y-51250000D03*
X211600000Y-49990000D03*
X211590000Y-51760000D03*
X210540000Y-51760000D03*
X212660000Y-50870000D03*
X210550000Y-50870000D03*
X212650000Y-51760000D03*
X235900000Y-65840000D03*
X247290000Y-70550000D03*
X212700000Y-68370000D03*
X225400000Y-53850000D03*
%TO.N,GLS2*%
X224089264Y-54177794D03*
X222040000Y-53400000D03*
X234844265Y-66005735D03*
X237970000Y-67100000D03*
%TO.N,GHS1*%
X247610000Y-54450000D03*
X212540000Y-66020000D03*
%TO.N,OUT1*%
X211600000Y-62870000D03*
X247350000Y-58540000D03*
X247350000Y-56740000D03*
X225140000Y-65190000D03*
X223945735Y-64425735D03*
X212690000Y-63790000D03*
X248390000Y-63400000D03*
X210490000Y-63790000D03*
X249480000Y-64220000D03*
X247300000Y-64220000D03*
X247300000Y-63400000D03*
X235330000Y-56070000D03*
X210550000Y-56370000D03*
X211600000Y-61980000D03*
X211600000Y-55490000D03*
X248390000Y-65120000D03*
X212700000Y-62870000D03*
X223740000Y-55690000D03*
X247340000Y-57640000D03*
X210500000Y-62870000D03*
X248410000Y-58530000D03*
X238330000Y-60020000D03*
X248410000Y-56730000D03*
X249480000Y-65120000D03*
X212690000Y-57260000D03*
X210550000Y-57260000D03*
X211600000Y-57260000D03*
X210550000Y-55490000D03*
X212690000Y-56370000D03*
X212700000Y-61980000D03*
X249490000Y-57630000D03*
X248390000Y-64220000D03*
X211600000Y-56370000D03*
X212690000Y-55490000D03*
X249500000Y-56730000D03*
X249500000Y-58530000D03*
X248400000Y-57630000D03*
X234610000Y-54860000D03*
X222218220Y-60388782D03*
X211590000Y-63790000D03*
X249480000Y-63400000D03*
X247300000Y-65120000D03*
X235990000Y-64900000D03*
X210500000Y-61980000D03*
%TO.N,GLS1*%
X236961264Y-60014520D03*
X223244265Y-60214265D03*
X222040000Y-58900000D03*
X237970000Y-61600000D03*
%TO.N,GND*%
X228330000Y-61870000D03*
X239000000Y-69200000D03*
X227900003Y-69600000D03*
X221600000Y-47000000D03*
X221000000Y-56800000D03*
X232470000Y-78120000D03*
X221000000Y-74290000D03*
X233670000Y-58720000D03*
X239000000Y-68600000D03*
X228380000Y-41750000D03*
X221000000Y-45800000D03*
X221600000Y-63300000D03*
X238400000Y-74750000D03*
X221000000Y-57400000D03*
X237820000Y-56160000D03*
X228280000Y-81200000D03*
X238400000Y-63070000D03*
X221600000Y-75490000D03*
X222130000Y-64200000D03*
X239000000Y-50400000D03*
X237870000Y-68300000D03*
X221600000Y-51340000D03*
X221000000Y-64500000D03*
X238400000Y-68600000D03*
X235600000Y-43570000D03*
X221600000Y-63900000D03*
X222130000Y-63590000D03*
X239000000Y-56480000D03*
X238400000Y-55880000D03*
X234613067Y-47191458D03*
X232170000Y-74190000D03*
X239000000Y-46100000D03*
X221000000Y-46400000D03*
X238400000Y-57080000D03*
X229500000Y-61870000D03*
X239000000Y-63690000D03*
X221000000Y-70020000D03*
X232049997Y-50830000D03*
X238400000Y-73550000D03*
X237840000Y-62800000D03*
X232130000Y-69530000D03*
X221000000Y-51339410D03*
X225120000Y-59000000D03*
X236450000Y-76120000D03*
X231540000Y-41630000D03*
X231670000Y-61870000D03*
X239000000Y-45500000D03*
X232660000Y-50840000D03*
X238400000Y-74150000D03*
X226330000Y-61880000D03*
X227340109Y-50727965D03*
X239000000Y-51000000D03*
X224500000Y-47500000D03*
X239000000Y-57080000D03*
X221000000Y-57999998D03*
X228530000Y-78250000D03*
X231520000Y-78220000D03*
X238400000Y-63670000D03*
X221000000Y-51940000D03*
X239000000Y-68000000D03*
X232500000Y-41770000D03*
X228130000Y-74280000D03*
X221600000Y-69420000D03*
X221000000Y-47010000D03*
X232730000Y-69530000D03*
X221600000Y-58000000D03*
X222130000Y-57700000D03*
X221000000Y-63900000D03*
X239000000Y-55880000D03*
X221600000Y-56800000D03*
X227250000Y-69600000D03*
X231670000Y-58730000D03*
X237850000Y-45820000D03*
X230500000Y-58730000D03*
X239000000Y-73550000D03*
X227090000Y-81190000D03*
X222130000Y-74580000D03*
X227340000Y-51350000D03*
X231840000Y-45790000D03*
X233670000Y-61880000D03*
X221600000Y-57400000D03*
X221600000Y-45790000D03*
X227680000Y-81200000D03*
X237870000Y-74460000D03*
X238400000Y-68000000D03*
X228330000Y-58730000D03*
X239000000Y-51600000D03*
X239000000Y-62459243D03*
X221600000Y-51940000D03*
X234880000Y-59000000D03*
X238400000Y-51600000D03*
X221000000Y-63300000D03*
X237850000Y-51320000D03*
X222130000Y-57090000D03*
X234880000Y-61600000D03*
X221000000Y-69420000D03*
X238400000Y-62480000D03*
X229480000Y-81200000D03*
X222130000Y-46690000D03*
X222130000Y-52240000D03*
X224560000Y-44070000D03*
X224640000Y-72370000D03*
X227960000Y-50720000D03*
X232730000Y-68910000D03*
X239000000Y-63080000D03*
X227580000Y-78160000D03*
X222130000Y-46080000D03*
X227250000Y-68970000D03*
X237850000Y-45190000D03*
X221600000Y-74290000D03*
X237870000Y-68910000D03*
X221000000Y-68820000D03*
X238400000Y-50400000D03*
X226330000Y-58720000D03*
X221000000Y-52540000D03*
X221600000Y-68820000D03*
X228880000Y-81200000D03*
X237820000Y-56770000D03*
X221600000Y-70020000D03*
X221000000Y-75490000D03*
X226490000Y-81190000D03*
X239000000Y-44900000D03*
X239000000Y-74750000D03*
X239000000Y-74150000D03*
X238400000Y-69200000D03*
X238400000Y-44900000D03*
X238400000Y-45500000D03*
X224640000Y-75730000D03*
X221600000Y-46390000D03*
X232670000Y-51450000D03*
X238400000Y-51000000D03*
X238400000Y-46100000D03*
X221600000Y-52540000D03*
X222130000Y-51640000D03*
X228130000Y-45990000D03*
X237870000Y-73850000D03*
X237830000Y-63390000D03*
X238400000Y-56480000D03*
X222130000Y-69110000D03*
X221600000Y-64500000D03*
X237850000Y-50710000D03*
X221000000Y-74890000D03*
X225120000Y-61600000D03*
X222130000Y-69720000D03*
X227430000Y-41780000D03*
X235460000Y-72470000D03*
X221600000Y-74890000D03*
X222130000Y-75190000D03*
%TO.N,3V3*%
X230680000Y-78220000D03*
X226440000Y-41780000D03*
X226590000Y-78160000D03*
X227330000Y-61870000D03*
X227330000Y-58730000D03*
X218500000Y-41800000D03*
X229370000Y-78250000D03*
X230010000Y-48690000D03*
X232670000Y-58730000D03*
X233510000Y-41760000D03*
X233460000Y-78130000D03*
X229220000Y-41750000D03*
X230700000Y-41630000D03*
X218500000Y-41300000D03*
X232670000Y-61870000D03*
X218500000Y-40800000D03*
X229970000Y-72110000D03*
%TO.N,PHASE_A_M2*%
X225640000Y-73220000D03*
%TO.N,PHASE_C_M2*%
X225640000Y-74880000D03*
%TO.N,PHASE_C_M4*%
X236450000Y-75280000D03*
%TO.N,PHASE_B_M4*%
X234541155Y-74300000D03*
%TO.N,PHASE_A_M4*%
X234460000Y-73320000D03*
%TO.N,PHASE_A_M1*%
X234624265Y-46354265D03*
%TO.N,PHASE_B_M1*%
X235230000Y-45500000D03*
%TO.N,PHASE_B_M2*%
X225230000Y-74050000D03*
%TO.N,PHASE_C_M1*%
X234600000Y-44420000D03*
%TO.N,PHASE_C_M3*%
X225535735Y-44954265D03*
%TO.N,PHASE_B_M3*%
X225038093Y-45867479D03*
%TO.N,PHASE_A_M3*%
X225500000Y-46640000D03*
%TD*%
%TO.N,B+*%
D43*
X226330000Y-56955686D02*
X226330000Y-57880000D01*
X230000000Y-51250000D02*
X229410000Y-51250000D01*
X230000000Y-69250000D02*
X230513624Y-69250000D01*
X228030000Y-52630000D02*
X228030000Y-52634315D01*
X232150000Y-67613624D02*
X232150000Y-66360000D01*
X233670000Y-64840000D02*
X233670000Y-62720000D01*
X228030000Y-52634315D02*
X227930000Y-52734315D01*
X227930000Y-55355686D02*
X226330000Y-56955686D01*
X232150000Y-66360000D02*
X233670000Y-64840000D01*
X229410000Y-51250000D02*
X228030000Y-52630000D01*
X230513624Y-69250000D02*
X232150000Y-67613624D01*
X227930000Y-52734315D02*
X227930000Y-55355686D01*
%TO.N,GHS3*%
X235010000Y-50170000D02*
X234430000Y-50750000D01*
X243820000Y-42440000D02*
X243390000Y-42870000D01*
X235010000Y-48210736D02*
X235010000Y-50170000D01*
X236540000Y-44357000D02*
X236540000Y-46680736D01*
X215640000Y-78100000D02*
X216040000Y-77700000D01*
X221843000Y-77700000D02*
X223270000Y-76273000D01*
X225220000Y-69750000D02*
X226000000Y-69750000D01*
X223270000Y-76273000D02*
X223270000Y-72211370D01*
X243390000Y-42870000D02*
X238027000Y-42870000D01*
X223949999Y-71531372D02*
X223950000Y-71020000D01*
X238027000Y-42870000D02*
X236540000Y-44357000D01*
X234430000Y-50750000D02*
X234000000Y-50750000D01*
X223950000Y-71020000D02*
X225220000Y-69750000D01*
X223270000Y-72211370D02*
X223949999Y-71531372D01*
X236540000Y-46680736D02*
X235010000Y-48210736D01*
X216040000Y-77700000D02*
X221843000Y-77700000D01*
%TO.N,OUT3*%
X223560000Y-44070000D02*
X223620000Y-44070000D01*
X234495686Y-51250000D02*
X234000000Y-51250000D01*
X235610000Y-50135686D02*
X234495686Y-51250000D01*
X234460000Y-76563000D02*
X234460000Y-76130000D01*
X243540000Y-74900000D02*
X241070000Y-77370000D01*
X218720000Y-43200000D02*
X222900000Y-43200000D01*
X224840000Y-69250000D02*
X224740000Y-69350000D01*
X222900000Y-43200000D02*
X223560000Y-43860000D01*
X243540000Y-74500000D02*
X243540000Y-74900000D01*
X223560000Y-43860000D02*
X223560000Y-44070000D01*
X216460000Y-45460000D02*
X218720000Y-43200000D01*
X235610000Y-48860000D02*
X235610000Y-50135686D01*
X225340000Y-71629998D02*
X225340000Y-71670000D01*
X241070000Y-77370000D02*
X235267000Y-77370000D01*
X235267000Y-77370000D02*
X234460000Y-76563000D01*
X226000000Y-69250000D02*
X224840000Y-69250000D01*
X216460000Y-46000000D02*
X216460000Y-45460000D01*
%TO.N,GLS3*%
X236280000Y-50031372D02*
X236280000Y-48190000D01*
X236280000Y-48190000D02*
X236980000Y-47490000D01*
X226000000Y-68750000D02*
X224150000Y-68750000D01*
X223550000Y-71365686D02*
X222850000Y-72065686D01*
X234561372Y-51750000D02*
X236010000Y-50301371D01*
X222850000Y-72065686D02*
X222850000Y-75540000D01*
X223550000Y-69350000D02*
X223550000Y-71365686D01*
X234000000Y-51750000D02*
X234561372Y-51750000D01*
X236980000Y-44690000D02*
X237570000Y-44100000D01*
X236010000Y-50301371D02*
X236280000Y-50031372D01*
X222850000Y-75540000D02*
X222040000Y-76350000D01*
X224150000Y-68750000D02*
X223550000Y-69350000D01*
X237570000Y-44100000D02*
X237950000Y-44100000D01*
X236980000Y-47490000D02*
X236980000Y-44690000D01*
%TO.N,GHS2*%
X237604314Y-48900000D02*
X247560000Y-48900000D01*
X235540000Y-52740000D02*
X236780000Y-51500000D01*
X226000000Y-67760000D02*
X226000000Y-67350000D01*
X224315686Y-66570000D02*
X223150000Y-67735686D01*
X234000000Y-52740000D02*
X235540000Y-52740000D01*
X223150000Y-71200000D02*
X222720000Y-71630000D01*
X226000000Y-67350000D02*
X225220000Y-66570000D01*
X212690000Y-71630000D02*
X212590000Y-71530000D01*
X247560000Y-48900000D02*
X247610000Y-48950000D01*
X223150000Y-67735686D02*
X223150000Y-71200000D01*
X222720000Y-71630000D02*
X212690000Y-71630000D01*
X236780000Y-51500000D02*
X236780000Y-49724314D01*
X236780000Y-49724314D02*
X237604314Y-48900000D01*
X225220000Y-66570000D02*
X224315686Y-66570000D01*
%TO.N,OUT2*%
X234960000Y-53540000D02*
X234970000Y-53540000D01*
X225410000Y-52574215D02*
X226680000Y-51304214D01*
X225400000Y-53850000D02*
X225410000Y-53840000D01*
X233600000Y-53850000D02*
X234650000Y-53850000D01*
X226680000Y-48350000D02*
X227430000Y-47600000D01*
X226640000Y-66420000D02*
X226060000Y-66420000D01*
X232170000Y-72090000D02*
X232170000Y-73250000D01*
X226750000Y-66530000D02*
X226640000Y-66420000D01*
X234400000Y-67341473D02*
X234400000Y-69860000D01*
X226680000Y-51304214D02*
X226680000Y-48350000D01*
X234650000Y-53850000D02*
X234960000Y-53540000D01*
X226750000Y-67000000D02*
X226750000Y-66530000D01*
X235900000Y-65840000D02*
X235900000Y-65841473D01*
X235900000Y-65841473D02*
X234400000Y-67341473D01*
X233250000Y-53500000D02*
X233600000Y-53850000D01*
X227430000Y-47600000D02*
X227430000Y-46930000D01*
X225410000Y-53840000D02*
X225410000Y-52574215D01*
X234400000Y-69860000D02*
X232170000Y-72090000D01*
%TO.N,GLS2*%
X222750000Y-67570000D02*
X222750000Y-70190000D01*
X232750000Y-53500000D02*
X232750000Y-53960000D01*
X224520000Y-65800000D02*
X222750000Y-67570000D01*
X237180000Y-53050000D02*
X237180000Y-49890000D01*
X227250000Y-66400000D02*
X226650000Y-65800000D01*
X222750000Y-70190000D02*
X222040000Y-70900000D01*
X232750000Y-53960000D02*
X233050000Y-54260000D01*
X226650000Y-65800000D02*
X224520000Y-65800000D01*
X233050000Y-54260000D02*
X235970000Y-54260000D01*
X222040000Y-53400000D02*
X222040000Y-53470000D01*
X237470000Y-49600000D02*
X237970000Y-49600000D01*
X227250000Y-67000000D02*
X227250000Y-66400000D01*
X237180000Y-49890000D02*
X237470000Y-49600000D01*
X235970000Y-54260000D02*
X237180000Y-53050000D01*
%TO.N,GHS1*%
X226804314Y-64590000D02*
X224630000Y-64590000D01*
X247560000Y-54400000D02*
X247610000Y-54450000D01*
X224630000Y-64590000D02*
X223000000Y-66220000D01*
X212740000Y-66220000D02*
X212540000Y-66020000D01*
X228250000Y-67000000D02*
X228250000Y-66035686D01*
X223000000Y-66220000D02*
X212740000Y-66220000D01*
X228250000Y-66035686D02*
X226804314Y-64590000D01*
X237110000Y-54400000D02*
X247560000Y-54400000D01*
X231750000Y-53500000D02*
X231750000Y-54570000D01*
X231750000Y-54570000D02*
X232650000Y-55470000D01*
X232650000Y-55470000D02*
X236040000Y-55470000D01*
X236040000Y-55470000D02*
X237110000Y-54400000D01*
%TO.N,OUT1*%
X231250000Y-54970000D02*
X231250000Y-53500000D01*
X237170000Y-71760000D02*
X237170000Y-66860001D01*
X226230000Y-48220000D02*
X226220000Y-48210000D01*
X241140000Y-66300000D02*
X243540000Y-63900000D01*
X235330000Y-56070000D02*
X232350000Y-56070000D01*
X224322732Y-63965795D02*
X226745795Y-63965795D01*
X237170000Y-66860001D02*
X237730001Y-66300000D01*
X218920000Y-54130000D02*
X223288529Y-54130000D01*
X243540000Y-63900000D02*
X243540000Y-63500000D01*
X226220000Y-48201471D02*
X225518529Y-47500000D01*
X226230000Y-51188529D02*
X226230000Y-48220000D01*
X223945735Y-64342792D02*
X224322732Y-63965795D01*
X228750000Y-65970000D02*
X228750000Y-67000000D01*
X237730001Y-66300000D02*
X241140000Y-66300000D01*
X225518529Y-47500000D02*
X225500000Y-47500000D01*
X226220000Y-48210000D02*
X226220000Y-48201471D01*
X216460000Y-57000000D02*
X216460000Y-56590000D01*
X225140000Y-65190000D02*
X225140000Y-65160000D01*
X223288529Y-54130000D02*
X226230000Y-51188529D01*
X236400000Y-72470000D02*
X236460000Y-72470000D01*
X236460000Y-72470000D02*
X237170000Y-71760000D01*
X216460000Y-56590000D02*
X218920000Y-54130000D01*
X232350000Y-56070000D02*
X231250000Y-54970000D01*
X226745795Y-63965795D02*
X228750000Y-65970000D01*
X223945735Y-64425735D02*
X223945735Y-64342792D01*
%TO.N,GLS1*%
X230750000Y-53500000D02*
X230750000Y-55150000D01*
X237960000Y-55090000D02*
X237970000Y-55100000D01*
X230750000Y-55150000D02*
X232270000Y-56670000D01*
X226930000Y-63560000D02*
X223880000Y-63560000D01*
X222964265Y-60214265D02*
X222040000Y-59290000D01*
X232270000Y-56670000D02*
X235850000Y-56670000D01*
X223880000Y-63560000D02*
X222040000Y-65400000D01*
X237960000Y-61610000D02*
X237970000Y-61600000D01*
X223244265Y-60214265D02*
X222964265Y-60214265D01*
X237430000Y-55090000D02*
X237960000Y-55090000D01*
X229250000Y-67000000D02*
X229250000Y-65880000D01*
X229250000Y-65880000D02*
X226930000Y-63560000D01*
X235850000Y-56670000D02*
X237430000Y-55090000D01*
X236961264Y-60014520D02*
X237970000Y-61023256D01*
X222040000Y-59290000D02*
X222040000Y-58900000D01*
X237970000Y-61023256D02*
X237970000Y-61600000D01*
%TO.N,GND*%
X228240000Y-76780000D02*
X228530000Y-77070000D01*
X227430000Y-45010000D02*
X227420000Y-45000000D01*
X231760000Y-43620000D02*
X231550000Y-43410000D01*
X227430000Y-45990000D02*
X227430000Y-45010000D01*
X223700000Y-59000000D02*
X225120000Y-59000000D01*
X228130000Y-45990000D02*
X227430000Y-45990000D01*
X231760000Y-44740000D02*
X231760000Y-43620000D01*
X231550000Y-42660000D02*
X231550000Y-41640000D01*
X236380000Y-76130000D02*
X235450000Y-76130000D01*
X236300000Y-61600000D02*
X234880000Y-61600000D01*
X229500000Y-58730000D02*
X230500000Y-58730000D01*
X228530000Y-77070000D02*
X228530000Y-77230000D01*
X228240000Y-75750000D02*
X228240000Y-76780000D01*
X225560000Y-44070000D02*
X225570000Y-44080000D01*
X236390000Y-76120000D02*
X236380000Y-76130000D01*
X227420000Y-45000000D02*
X227420000Y-45050000D01*
X230500000Y-61870000D02*
X229500000Y-61870000D01*
X224560000Y-44070000D02*
X225560000Y-44070000D01*
X235450000Y-72480000D02*
X235460000Y-72470000D01*
X231550000Y-41640000D02*
X231540000Y-41630000D01*
X228530000Y-77230000D02*
X228530000Y-78250000D01*
X225570000Y-44080000D02*
X225500000Y-44080000D01*
X236450000Y-76120000D02*
X236390000Y-76120000D01*
X224490000Y-47490000D02*
X223500000Y-47490000D01*
X231550000Y-43410000D02*
X231550000Y-42660000D01*
X232180000Y-75200000D02*
X232180000Y-74200000D01*
X224500000Y-47500000D02*
X224490000Y-47490000D01*
X232180000Y-74200000D02*
X232170000Y-74190000D01*
X234460000Y-72480000D02*
X235450000Y-72480000D01*
%TO.N,3V3*%
X230710000Y-43528615D02*
X230710000Y-42660000D01*
X231271460Y-44740000D02*
X231271460Y-44090075D01*
X228728540Y-76458540D02*
X228728540Y-75750000D01*
X231271460Y-44090075D02*
X230710000Y-43528615D01*
X229370000Y-77230000D02*
X229370000Y-78250000D01*
X229370000Y-77230000D02*
X229370000Y-77100000D01*
X230500000Y-72110000D02*
X229970000Y-72110000D01*
X229000000Y-48690000D02*
X230010000Y-48690000D01*
X229370000Y-77100000D02*
X228728540Y-76458540D01*
%TO.N,PHASE_A_M2*%
X225946943Y-73599587D02*
X226158359Y-73811003D01*
X226158359Y-73811003D02*
X226798997Y-73811003D01*
X225640000Y-73220000D02*
X225946943Y-73526943D01*
X225946943Y-73526943D02*
X225946943Y-73599587D01*
%TO.N,PHASE_C_M2*%
X225640000Y-74810000D02*
X225661155Y-74788845D01*
X225640000Y-74880000D02*
X225640000Y-74810000D01*
X225661155Y-74788845D02*
X226810000Y-74788845D01*
%TO.N,PHASE_C_M4*%
X234460000Y-75270000D02*
X235450000Y-75270000D01*
X236390000Y-75280000D02*
X236380000Y-75270000D01*
X236450000Y-75280000D02*
X236390000Y-75280000D01*
X236380000Y-75270000D02*
X235450000Y-75270000D01*
%TO.N,PHASE_B_M4*%
X233030000Y-73250000D02*
X233030000Y-74190000D01*
X233320000Y-75200000D02*
X233020000Y-75200000D01*
X234541155Y-74300000D02*
X234220000Y-74300000D01*
X233030000Y-75190000D02*
X233030000Y-74190000D01*
X234220000Y-74300000D02*
X233320000Y-75200000D01*
%TO.N,PHASE_A_M4*%
X234460000Y-73320000D02*
X235450000Y-73320000D01*
X235450000Y-73320000D02*
X235460000Y-73330000D01*
X235460000Y-73330000D02*
X236460000Y-73330000D01*
%TO.N,PHASE_A_M1*%
X234624265Y-46354265D02*
X234624265Y-46355735D01*
X234301003Y-46678997D02*
X233201003Y-46678997D01*
X234624265Y-46355735D02*
X234301003Y-46678997D01*
%TO.N,PHASE_B_M1*%
X233940000Y-46190000D02*
X233190000Y-46190000D01*
X235230000Y-45500000D02*
X234630000Y-45500000D01*
X234630000Y-45500000D02*
X233940000Y-46190000D01*
%TO.N,PHASE_B_M2*%
X225823529Y-74275000D02*
X225848529Y-74300000D01*
X225600000Y-74050000D02*
X225823529Y-74273529D01*
X225848529Y-74300000D02*
X226810000Y-74300000D01*
X225823529Y-74273529D02*
X225823529Y-74275000D01*
X225230000Y-74050000D02*
X225600000Y-74050000D01*
%TO.N,PHASE_C_M1*%
X233201155Y-45701155D02*
X233841637Y-45701155D01*
X234590000Y-44430000D02*
X234600000Y-44420000D01*
X233841637Y-45701155D02*
X234590000Y-44952792D01*
X234590000Y-44952792D02*
X234590000Y-44430000D01*
%TO.N,PHASE_C_M3*%
X224584265Y-44954265D02*
X224560000Y-44930000D01*
X225535735Y-44954265D02*
X224584265Y-44954265D01*
X224550000Y-44920000D02*
X224560000Y-44930000D01*
X223560000Y-44930000D02*
X224560000Y-44930000D01*
%TO.N,PHASE_B_M3*%
X226570000Y-45990000D02*
X226570000Y-47000000D01*
X226580000Y-45000000D02*
X226580000Y-45050000D01*
X226570000Y-45990000D02*
X226580000Y-45980000D01*
X225762521Y-45867479D02*
X225038093Y-45867479D01*
X226580000Y-45980000D02*
X226580000Y-45000000D01*
X226580000Y-45050000D02*
X225762521Y-45867479D01*
%TO.N,PHASE_A_M3*%
X223620000Y-46650000D02*
X223500000Y-46650000D01*
X224490000Y-46650000D02*
X224500000Y-46640000D01*
X224500000Y-46640000D02*
X225500000Y-46640000D01*
X223500000Y-46650000D02*
X224490000Y-46650000D01*
%TO.N,Net-(U3-BOOT3)*%
X234260000Y-49000000D02*
X234270000Y-48990000D01*
X234260000Y-49990000D02*
X234260000Y-49000000D01*
X234000000Y-50250000D02*
X234260000Y-49990000D01*
%TO.N,Net-(Q18-G)*%
X221180000Y-47900000D02*
X219900000Y-47900000D01*
%TO.N,Net-(U2-PF2-NRST)*%
X232500000Y-43810000D02*
X232500000Y-42610000D01*
X233500000Y-42610000D02*
X233510000Y-42620000D01*
X232248489Y-44061511D02*
X232248489Y-44740000D01*
X232500000Y-43810000D02*
X232248489Y-44061511D01*
X232500000Y-42610000D02*
X233500000Y-42610000D01*
%TO.N,Net-(U3-BOOT2)*%
X234960000Y-52250000D02*
X235303015Y-51906985D01*
X234000000Y-52250000D02*
X234960000Y-52250000D01*
%TO.N,Net-(Q14-G)*%
X221180000Y-58900000D02*
X219900000Y-58900000D01*
%TO.N,Net-(U6-REG12)*%
X234880000Y-63000000D02*
X236300000Y-63000000D01*
X232950000Y-67379309D02*
X232950000Y-66850000D01*
X232950000Y-66850000D02*
X236300000Y-63500000D01*
X230579309Y-69750000D02*
X232950000Y-67379309D01*
X230000000Y-69750000D02*
X230579309Y-69750000D01*
X236300000Y-63500000D02*
X236300000Y-63000000D01*
%TO.N,Net-(U6-nFAULT)*%
X230500000Y-70370000D02*
X230500000Y-71250000D01*
X230380000Y-70250000D02*
X230500000Y-70370000D01*
X230000000Y-70250000D02*
X230380000Y-70250000D01*
%TO.N,Net-(Q16-G)*%
X221180000Y-53400000D02*
X219900000Y-53400000D01*
%TO.N,Net-(Q12-G)*%
X221180000Y-76350000D02*
X219950000Y-76350000D01*
X219950000Y-76350000D02*
X219900000Y-76400000D01*
%TO.N,Net-(Q24-G)*%
X238830000Y-72570000D02*
X240070000Y-72570000D01*
X240070000Y-72570000D02*
X240100000Y-72600000D01*
%TO.N,Net-(U3-nFAULT)*%
X229000000Y-49860000D02*
X229000000Y-49550000D01*
X230000000Y-50250000D02*
X229390000Y-50250000D01*
X229390000Y-50250000D02*
X229000000Y-49860000D01*
%TO.N,Net-(U3-REG12)*%
X225120000Y-57600000D02*
X227530000Y-55190000D01*
X227530000Y-55190000D02*
X227530000Y-52560000D01*
X227530000Y-52560000D02*
X229340000Y-50750000D01*
X229340000Y-50750000D02*
X230000000Y-50750000D01*
X225120000Y-57600000D02*
X223700000Y-57600000D01*
%TO.N,Net-(U6-SCREF)*%
X231420000Y-64880000D02*
X232670000Y-63630000D01*
X232670000Y-63630000D02*
X232670000Y-62730000D01*
X230447939Y-68750000D02*
X231420000Y-67777939D01*
X231420000Y-67777939D02*
X231420000Y-64880000D01*
X230000000Y-68750000D02*
X230447939Y-68750000D01*
X231670000Y-62730000D02*
X232670000Y-62730000D01*
%TO.N,Net-(Q8-G)*%
X221180000Y-65400000D02*
X219900000Y-65400000D01*
%TO.N,Net-(U7-PF2-NRST)*%
X227560000Y-77320000D02*
X227780000Y-77100000D01*
X227780000Y-75778489D02*
X227751511Y-75750000D01*
X227780000Y-77100000D02*
X227780000Y-75778489D01*
X226610000Y-77320000D02*
X226590000Y-77300000D01*
X227580000Y-77320000D02*
X226610000Y-77320000D01*
%TO.N,DShot_M2*%
X222600000Y-79150000D02*
X222000000Y-79150000D01*
X226450000Y-75300000D02*
X222600000Y-79150000D01*
X226690000Y-75300000D02*
X226450000Y-75300000D01*
%TO.N,EN3_M2*%
X226750000Y-71840000D02*
X226690000Y-71900000D01*
X226690000Y-71900000D02*
X226690000Y-73300000D01*
X226750000Y-71000000D02*
X226750000Y-71840000D01*
%TO.N,EN2_M2*%
X227250000Y-72740000D02*
X227240000Y-72750000D01*
X227250000Y-71000000D02*
X227250000Y-72740000D01*
%TO.N,EN1_M2*%
X227751562Y-71001562D02*
X227751562Y-72850000D01*
X227750000Y-71000000D02*
X227751562Y-71001562D01*
%TO.N,INH3_M2*%
X228250000Y-72840000D02*
X228240000Y-72850000D01*
X228250000Y-71000000D02*
X228250000Y-72840000D01*
%TO.N,INH2_M2*%
X228728616Y-71021384D02*
X228728616Y-72850000D01*
X228750000Y-71000000D02*
X228728616Y-71021384D01*
%TO.N,INH1_M2*%
X229240000Y-72750000D02*
X229240000Y-71010000D01*
X229240000Y-71010000D02*
X229250000Y-71000000D01*
%TO.N,SWDIO_M2*%
X232260000Y-76830000D02*
X234161315Y-76830000D01*
X229810000Y-73300000D02*
X230890000Y-73300000D01*
X231410000Y-73820000D02*
X231410000Y-75980000D01*
X231410000Y-75980000D02*
X232260000Y-76830000D01*
X234161315Y-76830000D02*
X235101314Y-77770000D01*
X238610000Y-77770000D02*
X239990000Y-79150000D01*
X235101314Y-77770000D02*
X238610000Y-77770000D01*
X230890000Y-73300000D02*
X231410000Y-73820000D01*
X239990000Y-79150000D02*
X240000000Y-79150000D01*
%TO.N,SWCLK_M2*%
X237020000Y-78170000D02*
X234935628Y-78170000D01*
X238000000Y-79150000D02*
X237020000Y-78170000D01*
X230651130Y-73811130D02*
X229701130Y-73811130D01*
X230950000Y-76110000D02*
X230950000Y-74110000D01*
X234935628Y-78170000D02*
X234015628Y-77250000D01*
X234015628Y-77250000D02*
X232090000Y-77250000D01*
X230950000Y-74110000D02*
X230651130Y-73811130D01*
X232090000Y-77250000D02*
X230950000Y-76110000D01*
%TO.N,Net-(Q20-G)*%
X238830000Y-61600000D02*
X240100000Y-61600000D01*
%TO.N,Net-(Q22-G)*%
X238830000Y-67100000D02*
X240100000Y-67100000D01*
%TO.N,Net-(U6-DT{slash}MODE)*%
X230382254Y-68250000D02*
X230700000Y-67932254D01*
X230700000Y-65030000D02*
X230500000Y-64830000D01*
X230700000Y-67932254D02*
X230700000Y-65030000D01*
X230500000Y-64830000D02*
X230500000Y-62730000D01*
X230000000Y-68250000D02*
X230382254Y-68250000D01*
%TO.N,Net-(U6-CP)*%
X229500000Y-64400000D02*
X229500000Y-62730000D01*
X230000000Y-67750000D02*
X230000000Y-64900000D01*
X230000000Y-64900000D02*
X229500000Y-64400000D01*
%TO.N,Net-(U6-BOOT3)*%
X225610000Y-70250000D02*
X225340000Y-70520000D01*
X225340000Y-70520000D02*
X225340000Y-70830000D01*
X226000000Y-70250000D02*
X225610000Y-70250000D01*
%TO.N,Net-(U6-BOOT2)*%
X226000000Y-68250000D02*
X224830000Y-68250000D01*
X224830000Y-68250000D02*
X224730000Y-68150000D01*
%TO.N,Net-(U6-BOOT1)*%
X226808628Y-65160000D02*
X225980000Y-65160000D01*
X227750000Y-66101372D02*
X226808628Y-65160000D01*
X227750000Y-67000000D02*
X227750000Y-66101372D01*
%TO.N,SWDIO_M1*%
X229050000Y-46750000D02*
X229050000Y-46725686D01*
X223150000Y-42050000D02*
X220960000Y-42050000D01*
X229490000Y-47190000D02*
X229050000Y-46750000D01*
X220960000Y-42050000D02*
X220000000Y-41090000D01*
X228840000Y-43636414D02*
X228533586Y-43330000D01*
X228840000Y-46515685D02*
X228840000Y-43636414D01*
X230190000Y-47190000D02*
X229490000Y-47190000D01*
X220000000Y-41090000D02*
X220000000Y-40850000D01*
X229050000Y-46725686D02*
X228840000Y-46515685D01*
X224430000Y-43330000D02*
X223150000Y-42050000D01*
X228533586Y-43330000D02*
X224430000Y-43330000D01*
%TO.N,Net-(Q2-G)*%
X238830000Y-55100000D02*
X240100000Y-55100000D01*
%TO.N,Net-(Q4-G)*%
X238830000Y-49600000D02*
X240100000Y-49600000D01*
%TO.N,Net-(U3-DT{slash}MODE)*%
X229210000Y-52590000D02*
X229210000Y-57080000D01*
X230000000Y-52250000D02*
X229550000Y-52250000D01*
X229550000Y-52250000D02*
X229210000Y-52590000D01*
X229210000Y-57080000D02*
X229500000Y-57370000D01*
X229500000Y-57370000D02*
X229500000Y-57870000D01*
%TO.N,Net-(Q10-G)*%
X221180000Y-70900000D02*
X219900000Y-70900000D01*
%TO.N,Net-(U3-CP)*%
X230000000Y-56860000D02*
X230500000Y-57360000D01*
X230500000Y-57360000D02*
X230500000Y-57870000D01*
X230000000Y-52750000D02*
X230000000Y-56860000D01*
%TO.N,DShot_M1*%
X233310000Y-45190000D02*
X233310000Y-44750000D01*
X233310000Y-44750000D02*
X237210000Y-40850000D01*
X237210000Y-40850000D02*
X238000000Y-40850000D01*
%TO.N,EN3_M1*%
X233250000Y-48310420D02*
X233270597Y-48289823D01*
X233250000Y-47250000D02*
X233310000Y-47190000D01*
X233250000Y-49500000D02*
X233250000Y-48310420D01*
X233270597Y-47370306D02*
X233250000Y-47349709D01*
X233250000Y-47349709D02*
X233250000Y-47250000D01*
X233270597Y-48289823D02*
X233270597Y-47370306D01*
%TO.N,EN2_M1*%
X232750000Y-47750000D02*
X232760000Y-47740000D01*
X232750000Y-49500000D02*
X232750000Y-47750000D01*
%TO.N,EN1_M1*%
X232248438Y-49498438D02*
X232248438Y-47640000D01*
X232250000Y-49500000D02*
X232248438Y-49498438D01*
%TO.N,INH3_M1*%
X231750000Y-49500000D02*
X231750000Y-47650000D01*
X231750000Y-47650000D02*
X231760000Y-47640000D01*
%TO.N,INH2_M1*%
X231270000Y-48291313D02*
X231271384Y-48289929D01*
X231271384Y-48289929D02*
X231271384Y-47640000D01*
X231270000Y-48610000D02*
X231270000Y-48291313D01*
X231250000Y-48630000D02*
X231270000Y-48610000D01*
X231250000Y-49500000D02*
X231250000Y-48630000D01*
%TO.N,INH1_M1*%
X230750000Y-47750000D02*
X230760000Y-47740000D01*
X230760000Y-49490000D02*
X230750000Y-49500000D01*
X230750000Y-49500000D02*
X230750000Y-47750000D01*
%TO.N,SWCLK_M1*%
X229240000Y-43470729D02*
X229240000Y-46350000D01*
X222000000Y-40850000D02*
X222800000Y-41650000D01*
X230330000Y-46670000D02*
X230321130Y-46678870D01*
X229240000Y-46350000D02*
X229568870Y-46678870D01*
X229658363Y-46678870D02*
X230310000Y-46678870D01*
X228699272Y-42930000D02*
X229240000Y-43470729D01*
X222800000Y-41650000D02*
X223315686Y-41650000D01*
X229568870Y-46678870D02*
X229658363Y-46678870D01*
X223315686Y-41650000D02*
X224595686Y-42930000D01*
X224595686Y-42930000D02*
X228699272Y-42930000D01*
%TO.N,Net-(U3-SCREF)*%
X229480000Y-51750000D02*
X228330000Y-52900000D01*
X230000000Y-51750000D02*
X229480000Y-51750000D01*
X228330000Y-52900000D02*
X228330000Y-57870000D01*
X228330000Y-57870000D02*
X227330000Y-57870000D01*
%TO.N,Net-(U3-BOOT1)*%
X233000000Y-54860000D02*
X233770000Y-54860000D01*
X232250000Y-53500000D02*
X232250000Y-54110000D01*
X232250000Y-54110000D02*
X233000000Y-54860000D01*
%TO.N,Net-(Q6-G)*%
X238830000Y-44100000D02*
X240100000Y-44100000D01*
%TD*%
%TA.AperFunction,Conductor*%
%TO.N,OUT2*%
G36*
X246393106Y-66705023D02*
G01*
X246408104Y-66709427D01*
X246423094Y-66719057D01*
X246440175Y-66724067D01*
X246466855Y-66747172D01*
X246468042Y-66748541D01*
X246495518Y-66803402D01*
X246497163Y-66810960D01*
X246500000Y-66837331D01*
X246500000Y-68010000D01*
X249362794Y-68127879D01*
X249397488Y-68134334D01*
X249412290Y-68139351D01*
X249469464Y-68179511D01*
X249469482Y-68179533D01*
X249471455Y-68182010D01*
X249496141Y-68235383D01*
X249497178Y-68240666D01*
X249499500Y-68264550D01*
X249499500Y-71016905D01*
X249499499Y-71016911D01*
X249499500Y-71016914D01*
X249494475Y-71051849D01*
X249490070Y-71066847D01*
X249452321Y-71125596D01*
X249450059Y-71127557D01*
X249397351Y-71154540D01*
X249391816Y-71155848D01*
X249367744Y-71159092D01*
X245586263Y-71294751D01*
X245586263Y-71294752D01*
X245586262Y-71294751D01*
X245586262Y-71294752D01*
X245551171Y-71290986D01*
X245536024Y-71287122D01*
X245475960Y-71251513D01*
X245475534Y-71251055D01*
X245445570Y-71195036D01*
X245443325Y-71185538D01*
X245440000Y-71157015D01*
X245440000Y-66841829D01*
X245445023Y-66806893D01*
X245449427Y-66791895D01*
X245487172Y-66733144D01*
X245487200Y-66733119D01*
X245487199Y-66733119D01*
X245488541Y-66731956D01*
X245543420Y-66704477D01*
X245550979Y-66702833D01*
X245577332Y-66700000D01*
X246358170Y-66700000D01*
X246393106Y-66705023D01*
G37*
%TD.AperFunction*%
%TD*%
%TA.AperFunction,Conductor*%
%TO.N,GND*%
G36*
X238434211Y-55852837D02*
G01*
X238439511Y-55854089D01*
X238439517Y-55854091D01*
X238499127Y-55860500D01*
X239160872Y-55860499D01*
X239160873Y-55860498D01*
X239164195Y-55860321D01*
X239164266Y-55861663D01*
X239216697Y-55868668D01*
X239232275Y-55874786D01*
X239257669Y-55893796D01*
X239392517Y-55944091D01*
X239414836Y-55946490D01*
X239430343Y-55952581D01*
X239445313Y-55964195D01*
X239462815Y-55971445D01*
X239477610Y-55989254D01*
X239485546Y-55995411D01*
X239487634Y-56001319D01*
X239494189Y-56009209D01*
X239499999Y-56020000D01*
X239500000Y-56020000D01*
X240576000Y-56020000D01*
X240643039Y-56039685D01*
X240688794Y-56092489D01*
X240700000Y-56144000D01*
X240700000Y-59126000D01*
X240680315Y-59193039D01*
X240627511Y-59238794D01*
X240576000Y-59250000D01*
X239924500Y-59250000D01*
X239857461Y-59230315D01*
X239811706Y-59177511D01*
X239800500Y-59126000D01*
X239800500Y-59011155D01*
X239800499Y-59011153D01*
X239769738Y-58856510D01*
X239769737Y-58856503D01*
X239761845Y-58837452D01*
X239754377Y-58767984D01*
X239761846Y-58742547D01*
X239769737Y-58723497D01*
X239800500Y-58568842D01*
X239800500Y-58411158D01*
X239800500Y-58411155D01*
X239800499Y-58411153D01*
X239769738Y-58256510D01*
X239769737Y-58256503D01*
X239761846Y-58237454D01*
X239754377Y-58167986D01*
X239761847Y-58142546D01*
X239769737Y-58123499D01*
X239800500Y-57968844D01*
X239800500Y-57811160D01*
X239800500Y-57811157D01*
X239800499Y-57811155D01*
X239798443Y-57800821D01*
X239769737Y-57656505D01*
X239729023Y-57558211D01*
X239709397Y-57510829D01*
X239709390Y-57510816D01*
X239621789Y-57379713D01*
X239621786Y-57379709D01*
X239510292Y-57268215D01*
X239510288Y-57268212D01*
X239379185Y-57180611D01*
X239379172Y-57180604D01*
X239233501Y-57120266D01*
X239233489Y-57120263D01*
X239078845Y-57089502D01*
X239078842Y-57089502D01*
X238921158Y-57089502D01*
X238921155Y-57089502D01*
X238766511Y-57120262D01*
X238766506Y-57120264D01*
X238766504Y-57120264D01*
X238766503Y-57120265D01*
X238747451Y-57128156D01*
X238677983Y-57135623D01*
X238652550Y-57128155D01*
X238633498Y-57120263D01*
X238633488Y-57120260D01*
X238478845Y-57089500D01*
X238478842Y-57089500D01*
X238321158Y-57089500D01*
X238321155Y-57089500D01*
X238166510Y-57120261D01*
X238166498Y-57120264D01*
X238020827Y-57180602D01*
X238020814Y-57180609D01*
X237903343Y-57259102D01*
X237885296Y-57264752D01*
X237869387Y-57274977D01*
X237838427Y-57279428D01*
X237836666Y-57279980D01*
X237834452Y-57280000D01*
X237614000Y-57280000D01*
X237546961Y-57260315D01*
X237501206Y-57207511D01*
X237490000Y-57156000D01*
X237490000Y-55982512D01*
X237509685Y-55915473D01*
X237562489Y-55869718D01*
X237627255Y-55859223D01*
X237639127Y-55860500D01*
X238300872Y-55860499D01*
X238360483Y-55854091D01*
X238360485Y-55854090D01*
X238360487Y-55854090D01*
X238368031Y-55852308D01*
X238368588Y-55854666D01*
X238426331Y-55850524D01*
X238434211Y-55852837D01*
G37*
%TD.AperFunction*%
%TD*%
%TA.AperFunction,Conductor*%
%TO.N,GND*%
G36*
X220142539Y-49269685D02*
G01*
X220188294Y-49322489D01*
X220199500Y-49374000D01*
X220199500Y-49418846D01*
X220230260Y-49573488D01*
X220230262Y-49573493D01*
X220230263Y-49573497D01*
X220238155Y-49592550D01*
X220245623Y-49662018D01*
X220238156Y-49687446D01*
X220230263Y-49706503D01*
X220230262Y-49706506D01*
X220230260Y-49706511D01*
X220199500Y-49861153D01*
X220199500Y-50018846D01*
X220230261Y-50173494D01*
X220230262Y-50173497D01*
X220238154Y-50192550D01*
X220245620Y-50262020D01*
X220238154Y-50287448D01*
X220230262Y-50306500D01*
X220230261Y-50306503D01*
X220199500Y-50461151D01*
X220199500Y-50618844D01*
X220230261Y-50773487D01*
X220230264Y-50773499D01*
X220290602Y-50919170D01*
X220290609Y-50919183D01*
X220378210Y-51050286D01*
X220378213Y-51050290D01*
X220489707Y-51161784D01*
X220489711Y-51161787D01*
X220620814Y-51249388D01*
X220620827Y-51249395D01*
X220747457Y-51301846D01*
X220766503Y-51309735D01*
X220921153Y-51340497D01*
X220921156Y-51340498D01*
X220921158Y-51340498D01*
X221078844Y-51340498D01*
X221078845Y-51340497D01*
X221233497Y-51309735D01*
X221252542Y-51301845D01*
X221322011Y-51294376D01*
X221347449Y-51301845D01*
X221366493Y-51309733D01*
X221366503Y-51309737D01*
X221521143Y-51340497D01*
X221521153Y-51340499D01*
X221521156Y-51340500D01*
X221521158Y-51340500D01*
X221678844Y-51340500D01*
X221678845Y-51340499D01*
X221833497Y-51309737D01*
X221979179Y-51249394D01*
X222110289Y-51161789D01*
X222146583Y-51125494D01*
X222173789Y-51110638D01*
X222199961Y-51094015D01*
X222205680Y-51093223D01*
X222207903Y-51092010D01*
X222234908Y-51089179D01*
X222265209Y-51089339D01*
X222332141Y-51109379D01*
X222377615Y-51162426D01*
X222388540Y-51214787D01*
X222373502Y-52500512D01*
X222353034Y-52567317D01*
X222299699Y-52612451D01*
X222230429Y-52621585D01*
X222225319Y-52620679D01*
X222118845Y-52599500D01*
X222118842Y-52599500D01*
X221961158Y-52599500D01*
X221961153Y-52599500D01*
X221822313Y-52627117D01*
X221806542Y-52629214D01*
X221802338Y-52629500D01*
X221709128Y-52629501D01*
X221649517Y-52635909D01*
X221636425Y-52640791D01*
X221618420Y-52642017D01*
X221601197Y-52638208D01*
X221583603Y-52639461D01*
X221575724Y-52637147D01*
X221570482Y-52635908D01*
X221510882Y-52629501D01*
X221510873Y-52629500D01*
X221510863Y-52629500D01*
X220849129Y-52629500D01*
X220849123Y-52629501D01*
X220831461Y-52631400D01*
X220774509Y-52624155D01*
X220758011Y-52617942D01*
X220742331Y-52606204D01*
X220607483Y-52555909D01*
X220587600Y-52553771D01*
X220572840Y-52548213D01*
X220557023Y-52536295D01*
X220538730Y-52528717D01*
X220521715Y-52509689D01*
X220517039Y-52506166D01*
X220515965Y-52503259D01*
X220511929Y-52498745D01*
X220500000Y-52480000D01*
X220499999Y-52480000D01*
X219424000Y-52480000D01*
X219356961Y-52460315D01*
X219311206Y-52407511D01*
X219300000Y-52356000D01*
X219300000Y-49374000D01*
X219319685Y-49306961D01*
X219372489Y-49261206D01*
X219424000Y-49250000D01*
X220075500Y-49250000D01*
X220142539Y-49269685D01*
G37*
%TD.AperFunction*%
%TD*%
%TA.AperFunction,Conductor*%
%TO.N,GND*%
G36*
X220108703Y-66828880D02*
G01*
X220137865Y-66834744D01*
X220141862Y-66838617D01*
X220147202Y-66840185D01*
X220166676Y-66862660D01*
X220188044Y-66883363D01*
X220190863Y-66890572D01*
X220192957Y-66892989D01*
X220198405Y-66909858D01*
X220200898Y-66916233D01*
X220201377Y-66918282D01*
X220230263Y-67063497D01*
X220242023Y-67091889D01*
X220244328Y-67101733D01*
X220240444Y-67171495D01*
X220238161Y-67177433D01*
X220230263Y-67196503D01*
X220230262Y-67196506D01*
X220230260Y-67196511D01*
X220199500Y-67351153D01*
X220199500Y-67508846D01*
X220230260Y-67663488D01*
X220230262Y-67663493D01*
X220230263Y-67663497D01*
X220238155Y-67682550D01*
X220245623Y-67752018D01*
X220238156Y-67777446D01*
X220230263Y-67796503D01*
X220230262Y-67796506D01*
X220230260Y-67796511D01*
X220199500Y-67951153D01*
X220199500Y-68108846D01*
X220230261Y-68263489D01*
X220230264Y-68263501D01*
X220290602Y-68409172D01*
X220290609Y-68409185D01*
X220378210Y-68540288D01*
X220378213Y-68540292D01*
X220489707Y-68651786D01*
X220489711Y-68651789D01*
X220620814Y-68739390D01*
X220620827Y-68739397D01*
X220766498Y-68799735D01*
X220766503Y-68799737D01*
X220874118Y-68821143D01*
X220921153Y-68830499D01*
X220921156Y-68830500D01*
X220921158Y-68830500D01*
X221078844Y-68830500D01*
X221078845Y-68830499D01*
X221233497Y-68799737D01*
X221233504Y-68799733D01*
X221237979Y-68798377D01*
X221307845Y-68797749D01*
X221321429Y-68802472D01*
X221366503Y-68821142D01*
X221487269Y-68845164D01*
X221521153Y-68851904D01*
X221521156Y-68851905D01*
X221521158Y-68851905D01*
X221678844Y-68851905D01*
X221678845Y-68851904D01*
X221833497Y-68821142D01*
X221925839Y-68782893D01*
X221978048Y-68761268D01*
X222047517Y-68753799D01*
X222109996Y-68785074D01*
X222145648Y-68845164D01*
X222149500Y-68875829D01*
X222149500Y-69889901D01*
X222140855Y-69919341D01*
X222134332Y-69949328D01*
X222130577Y-69954343D01*
X222129815Y-69956940D01*
X222113181Y-69977583D01*
X221997581Y-70093182D01*
X221936258Y-70126666D01*
X221909901Y-70129500D01*
X221709130Y-70129500D01*
X221709123Y-70129501D01*
X221649520Y-70135908D01*
X221641974Y-70137692D01*
X221641419Y-70135344D01*
X221583603Y-70139461D01*
X221575724Y-70137147D01*
X221570482Y-70135908D01*
X221510882Y-70129501D01*
X221510873Y-70129500D01*
X221510863Y-70129500D01*
X220849129Y-70129500D01*
X220849123Y-70129501D01*
X220831461Y-70131400D01*
X220774627Y-70124199D01*
X220758062Y-70117980D01*
X220742331Y-70106204D01*
X220607483Y-70055909D01*
X220586796Y-70053684D01*
X220572090Y-70048164D01*
X220556217Y-70036228D01*
X220537865Y-70028627D01*
X220522621Y-70010966D01*
X220516246Y-70006173D01*
X220514562Y-70001630D01*
X220508791Y-69994944D01*
X220500000Y-69980000D01*
X219424000Y-69980000D01*
X219356961Y-69960315D01*
X219311206Y-69907511D01*
X219300000Y-69856000D01*
X219300000Y-66944500D01*
X219319685Y-66877461D01*
X219372489Y-66831706D01*
X219424000Y-66820500D01*
X220080163Y-66820500D01*
X220108703Y-66828880D01*
G37*
%TD.AperFunction*%
%TD*%
%TA.AperFunction,Conductor*%
%TO.N,GND*%
G36*
X238434211Y-44842837D02*
G01*
X238439511Y-44844089D01*
X238439517Y-44844091D01*
X238499127Y-44850500D01*
X239158560Y-44850499D01*
X239225599Y-44870183D01*
X239232871Y-44875233D01*
X239257664Y-44893793D01*
X239257671Y-44893797D01*
X239392517Y-44944091D01*
X239392516Y-44944091D01*
X239399444Y-44944835D01*
X239452127Y-44950500D01*
X240450133Y-44950499D01*
X240450617Y-44950570D01*
X240450858Y-44950501D01*
X240485757Y-44955727D01*
X240611634Y-44993490D01*
X240670187Y-45031606D01*
X240698839Y-45095331D01*
X240700000Y-45112259D01*
X240700000Y-48126000D01*
X240680315Y-48193039D01*
X240627511Y-48238794D01*
X240576000Y-48250000D01*
X239924500Y-48250000D01*
X239857461Y-48230315D01*
X239811706Y-48177511D01*
X239800500Y-48126000D01*
X239800500Y-48031155D01*
X239800499Y-48031153D01*
X239769738Y-47876510D01*
X239769737Y-47876503D01*
X239761845Y-47857452D01*
X239754377Y-47787984D01*
X239761846Y-47762547D01*
X239769737Y-47743497D01*
X239800500Y-47588842D01*
X239800500Y-47431158D01*
X239800500Y-47431155D01*
X239800499Y-47431153D01*
X239769738Y-47276510D01*
X239769737Y-47276503D01*
X239761845Y-47257452D01*
X239754377Y-47187984D01*
X239761846Y-47162547D01*
X239769737Y-47143497D01*
X239800500Y-46988842D01*
X239800500Y-46831158D01*
X239800500Y-46831155D01*
X239800499Y-46831153D01*
X239769738Y-46676510D01*
X239769737Y-46676503D01*
X239769735Y-46676498D01*
X239709397Y-46530827D01*
X239709390Y-46530814D01*
X239621789Y-46399711D01*
X239621786Y-46399707D01*
X239510292Y-46288213D01*
X239510288Y-46288210D01*
X239379185Y-46200609D01*
X239379172Y-46200602D01*
X239233501Y-46140264D01*
X239233489Y-46140261D01*
X239078845Y-46109500D01*
X239078842Y-46109500D01*
X238921158Y-46109500D01*
X238921155Y-46109500D01*
X238766511Y-46140260D01*
X238766506Y-46140262D01*
X238766504Y-46140262D01*
X238766503Y-46140263D01*
X238747449Y-46148155D01*
X238677982Y-46155623D01*
X238652553Y-46148156D01*
X238633497Y-46140263D01*
X238633493Y-46140262D01*
X238633488Y-46140260D01*
X238478845Y-46109500D01*
X238478842Y-46109500D01*
X238321158Y-46109500D01*
X238321155Y-46109500D01*
X238166510Y-46140261D01*
X238166498Y-46140264D01*
X238020827Y-46200602D01*
X238020814Y-46200609D01*
X237889712Y-46288209D01*
X237846977Y-46330945D01*
X237804239Y-46373682D01*
X237777308Y-46388388D01*
X237751495Y-46404977D01*
X237745295Y-46405868D01*
X237742919Y-46407166D01*
X237716560Y-46410000D01*
X237704500Y-46410000D01*
X237637461Y-46390315D01*
X237591706Y-46337511D01*
X237580500Y-46286000D01*
X237580500Y-44990097D01*
X237600185Y-44923058D01*
X237616819Y-44902416D01*
X237632417Y-44886818D01*
X237693740Y-44853333D01*
X237720098Y-44850499D01*
X238300871Y-44850499D01*
X238300872Y-44850499D01*
X238360483Y-44844091D01*
X238360485Y-44844090D01*
X238360487Y-44844090D01*
X238368031Y-44842308D01*
X238368588Y-44844666D01*
X238426331Y-44840524D01*
X238434211Y-44842837D01*
G37*
%TD.AperFunction*%
%TD*%
%TA.AperFunction,Conductor*%
%TO.N,GND*%
G36*
X226674281Y-84064836D02*
G01*
X226682870Y-84068322D01*
X226709119Y-84082898D01*
X226748005Y-84111150D01*
X226818390Y-84162287D01*
X226985475Y-84247421D01*
X226996309Y-84257653D01*
X227014317Y-84267752D01*
X227022089Y-84275092D01*
X227031076Y-84290489D01*
X227036270Y-84295394D01*
X227040912Y-84304130D01*
X227044808Y-84312225D01*
X227045216Y-84314712D01*
X227057312Y-84335432D01*
X227055516Y-84377352D01*
X227056144Y-84381169D01*
X227055266Y-84383198D01*
X227054322Y-84405238D01*
X227032093Y-84436771D01*
X227028406Y-84445297D01*
X227023996Y-84448257D01*
X227014066Y-84462346D01*
X226978806Y-84478604D01*
X226970402Y-84484249D01*
X226966391Y-84484329D01*
X226960729Y-84486941D01*
X226956855Y-84487698D01*
X226933075Y-84490000D01*
X226641830Y-84490000D01*
X226606889Y-84484975D01*
X226591890Y-84480570D01*
X226533144Y-84442827D01*
X226531957Y-84441458D01*
X226504477Y-84386583D01*
X226502832Y-84379021D01*
X226500000Y-84352668D01*
X226500000Y-84192157D01*
X226505023Y-84157222D01*
X226508671Y-84144798D01*
X226546445Y-84086020D01*
X226610001Y-84056995D01*
X226674281Y-84064836D01*
G37*
%TD.AperFunction*%
%TA.AperFunction,Conductor*%
G36*
X229639501Y-80905021D02*
G01*
X229642612Y-80905935D01*
X229649520Y-80907963D01*
X229648953Y-80909892D01*
X229702683Y-80936181D01*
X229733695Y-80987386D01*
X229735558Y-80986654D01*
X229735980Y-80987727D01*
X229736340Y-80991753D01*
X229738878Y-80995944D01*
X229738883Y-80995963D01*
X229740032Y-81000303D01*
X229737172Y-81001060D01*
X229742201Y-81057303D01*
X229729500Y-81121152D01*
X229729500Y-81278844D01*
X229739204Y-81327632D01*
X229738639Y-81378697D01*
X229732938Y-81404372D01*
X229730392Y-81548234D01*
X229730392Y-81548241D01*
X229735855Y-81591679D01*
X229725101Y-81659780D01*
X229500000Y-82139998D01*
X229500000Y-84348170D01*
X229499999Y-84348176D01*
X229500000Y-84348179D01*
X229494975Y-84383114D01*
X229490570Y-84398112D01*
X229452827Y-84456855D01*
X229452792Y-84456885D01*
X229452791Y-84456887D01*
X229452789Y-84456887D01*
X229451458Y-84458042D01*
X229396597Y-84485518D01*
X229389039Y-84487163D01*
X229362668Y-84490000D01*
X228072765Y-84490000D01*
X228058468Y-84485801D01*
X228037821Y-84484974D01*
X228027566Y-84481962D01*
X228012574Y-84472326D01*
X228005726Y-84470315D01*
X227997597Y-84464619D01*
X227990452Y-84459173D01*
X227988965Y-84457150D01*
X227968791Y-84444183D01*
X227951347Y-84405980D01*
X227949067Y-84402878D01*
X227948929Y-84400683D01*
X227939771Y-84380626D01*
X227945268Y-84342409D01*
X227944687Y-84333146D01*
X227947267Y-84328516D01*
X227949720Y-84311468D01*
X227973776Y-84280952D01*
X227978702Y-84272116D01*
X227982231Y-84270228D01*
X227986086Y-84265339D01*
X227989199Y-84262902D01*
X228009316Y-84250075D01*
X228181610Y-84162287D01*
X228257309Y-84107289D01*
X228347213Y-84041971D01*
X228347215Y-84041968D01*
X228347219Y-84041966D01*
X228347221Y-84041963D01*
X228347275Y-84041924D01*
X228348032Y-84041152D01*
X228491966Y-83897219D01*
X228491968Y-83897215D01*
X228491971Y-83897213D01*
X228544730Y-83824593D01*
X228544732Y-83824591D01*
X228568172Y-83792327D01*
X228612287Y-83731610D01*
X228705220Y-83549219D01*
X228768477Y-83354534D01*
X228800500Y-83152352D01*
X228800500Y-82947648D01*
X228768477Y-82745466D01*
X228768476Y-82745462D01*
X228768476Y-82745461D01*
X228707833Y-82558823D01*
X228705220Y-82550781D01*
X228705218Y-82550778D01*
X228705218Y-82550776D01*
X228702977Y-82546378D01*
X228702667Y-82545583D01*
X228701932Y-82544327D01*
X228671503Y-82484607D01*
X228612287Y-82368390D01*
X228604556Y-82357749D01*
X228491971Y-82202786D01*
X228347213Y-82058028D01*
X228347211Y-82058026D01*
X228192209Y-81945413D01*
X228192205Y-81945410D01*
X228181613Y-81937715D01*
X228181612Y-81937714D01*
X228181610Y-81937713D01*
X228153171Y-81923222D01*
X228124654Y-81908691D01*
X228124653Y-81908691D01*
X227999223Y-81844781D01*
X227804534Y-81781522D01*
X227804532Y-81781521D01*
X227804530Y-81781521D01*
X227804529Y-81781520D01*
X227629995Y-81753878D01*
X227613409Y-81751251D01*
X227602354Y-81749500D01*
X227602352Y-81749500D01*
X227397648Y-81749500D01*
X227397647Y-81749500D01*
X227373327Y-81753351D01*
X227373326Y-81753350D01*
X227195468Y-81781521D01*
X227000777Y-81844780D01*
X227000764Y-81844786D01*
X226818387Y-81937713D01*
X226818385Y-81937714D01*
X226652790Y-82058024D01*
X226651881Y-82058933D01*
X226650641Y-82059861D01*
X226649084Y-82061191D01*
X226648998Y-82061090D01*
X226623635Y-82080075D01*
X226611454Y-82086726D01*
X226543180Y-82101577D01*
X226477717Y-82077159D01*
X226477712Y-82077155D01*
X226470601Y-82071831D01*
X226438243Y-82035786D01*
X226325055Y-81844781D01*
X226205825Y-81643580D01*
X226192915Y-81613148D01*
X226184407Y-81582102D01*
X226180000Y-81549336D01*
X226180000Y-81041829D01*
X226185023Y-81006893D01*
X226188233Y-80995963D01*
X226189427Y-80991894D01*
X226227172Y-80933144D01*
X226228541Y-80931957D01*
X226283420Y-80904477D01*
X226290979Y-80902833D01*
X226317332Y-80900000D01*
X229604571Y-80900000D01*
X229639501Y-80905021D01*
G37*
%TD.AperFunction*%
%TD*%
%TA.AperFunction,Conductor*%
%TO.N,OUT1*%
G36*
X214500210Y-54721300D02*
G01*
X214547368Y-54772854D01*
X214560000Y-54827381D01*
X214560000Y-59177164D01*
X214540315Y-59244203D01*
X214487511Y-59289958D01*
X214437170Y-59301158D01*
X213625170Y-59308819D01*
X213557948Y-59289768D01*
X213511697Y-59237398D01*
X213500000Y-59184825D01*
X213500000Y-57989999D01*
X210618308Y-57845915D01*
X210552335Y-57822908D01*
X210509274Y-57767885D01*
X210500500Y-57722070D01*
X210500500Y-54929932D01*
X210520185Y-54862893D01*
X210572989Y-54817138D01*
X210621161Y-54805977D01*
X214432665Y-54703426D01*
X214500210Y-54721300D01*
G37*
%TD.AperFunction*%
%TD*%
%TA.AperFunction,Conductor*%
%TO.N,GND*%
G36*
X220105196Y-72258720D02*
G01*
X220135419Y-72265438D01*
X220138432Y-72268479D01*
X220142539Y-72269685D01*
X220162803Y-72293071D01*
X220184600Y-72315066D01*
X220186619Y-72320556D01*
X220188294Y-72322489D01*
X220189689Y-72328901D01*
X220196784Y-72348191D01*
X220199500Y-72360954D01*
X220199500Y-72378842D01*
X220230263Y-72533497D01*
X220242508Y-72563060D01*
X220244877Y-72574191D01*
X220239577Y-72643859D01*
X220238166Y-72647422D01*
X220230263Y-72666503D01*
X220230262Y-72666506D01*
X220230260Y-72666511D01*
X220199500Y-72821153D01*
X220199500Y-72978846D01*
X220230260Y-73133488D01*
X220230262Y-73133493D01*
X220230263Y-73133497D01*
X220238155Y-73152550D01*
X220245623Y-73222018D01*
X220238156Y-73247446D01*
X220230263Y-73266503D01*
X220230262Y-73266506D01*
X220230260Y-73266511D01*
X220199500Y-73421153D01*
X220199500Y-73578846D01*
X220230261Y-73733489D01*
X220230264Y-73733501D01*
X220290602Y-73879172D01*
X220290609Y-73879185D01*
X220378210Y-74010288D01*
X220378213Y-74010292D01*
X220489707Y-74121786D01*
X220489711Y-74121789D01*
X220620814Y-74209390D01*
X220620827Y-74209397D01*
X220766498Y-74269735D01*
X220766503Y-74269737D01*
X220874118Y-74291143D01*
X220921153Y-74300499D01*
X220921156Y-74300500D01*
X220921158Y-74300500D01*
X221078844Y-74300500D01*
X221078845Y-74300499D01*
X221233497Y-74269737D01*
X221233504Y-74269733D01*
X221237979Y-74268377D01*
X221307845Y-74267749D01*
X221321429Y-74272472D01*
X221366503Y-74291142D01*
X221521153Y-74321904D01*
X221521156Y-74321905D01*
X221521158Y-74321905D01*
X221678844Y-74321905D01*
X221678845Y-74321904D01*
X221833497Y-74291142D01*
X221979179Y-74230799D01*
X222056609Y-74179062D01*
X222123286Y-74158184D01*
X222190666Y-74176668D01*
X222237357Y-74228647D01*
X222249500Y-74282164D01*
X222249500Y-75239902D01*
X222229815Y-75306941D01*
X222213181Y-75327583D01*
X221997582Y-75543181D01*
X221936259Y-75576666D01*
X221909902Y-75579500D01*
X221709130Y-75579500D01*
X221709123Y-75579501D01*
X221649520Y-75585908D01*
X221641974Y-75587692D01*
X221641419Y-75585344D01*
X221583603Y-75589461D01*
X221575724Y-75587147D01*
X221570482Y-75585908D01*
X221510882Y-75579501D01*
X221510873Y-75579500D01*
X221510863Y-75579500D01*
X220849129Y-75579500D01*
X220849123Y-75579501D01*
X220789515Y-75585909D01*
X220782045Y-75588695D01*
X220757961Y-75590416D01*
X220734585Y-75596442D01*
X220718404Y-75593243D01*
X220712353Y-75593676D01*
X220699837Y-75590258D01*
X220697575Y-75589511D01*
X220607483Y-75555909D01*
X220590176Y-75554048D01*
X220577659Y-75549915D01*
X220559319Y-75537246D01*
X220538730Y-75528717D01*
X220525410Y-75513821D01*
X220520172Y-75510203D01*
X220518422Y-75506007D01*
X220511929Y-75498745D01*
X220500000Y-75480000D01*
X220499999Y-75480000D01*
X219424000Y-75480000D01*
X219356961Y-75460315D01*
X219311206Y-75407511D01*
X219300000Y-75356000D01*
X219300000Y-72374000D01*
X219319685Y-72306961D01*
X219372489Y-72261206D01*
X219424000Y-72250000D01*
X220075500Y-72250000D01*
X220105196Y-72258720D01*
G37*
%TD.AperFunction*%
%TD*%
%TA.AperFunction,Conductor*%
%TO.N,GND*%
G36*
X220104661Y-54758562D02*
G01*
X220134395Y-54764879D01*
X220137861Y-54768311D01*
X220142539Y-54769685D01*
X220162438Y-54792650D01*
X220184041Y-54814043D01*
X220186419Y-54820325D01*
X220188294Y-54822489D01*
X220189720Y-54829046D01*
X220196536Y-54847051D01*
X220199500Y-54860363D01*
X220199500Y-54868842D01*
X220230263Y-55023497D01*
X220242283Y-55052518D01*
X220244629Y-55063051D01*
X220239985Y-55132766D01*
X220238163Y-55137428D01*
X220230263Y-55156503D01*
X220230262Y-55156506D01*
X220230260Y-55156511D01*
X220199500Y-55311153D01*
X220199500Y-55468846D01*
X220230260Y-55623488D01*
X220230262Y-55623493D01*
X220230263Y-55623497D01*
X220238155Y-55642550D01*
X220245623Y-55712018D01*
X220238156Y-55737446D01*
X220230263Y-55756503D01*
X220230262Y-55756506D01*
X220230260Y-55756511D01*
X220199500Y-55911153D01*
X220199500Y-56068846D01*
X220230261Y-56223489D01*
X220230264Y-56223501D01*
X220290602Y-56369172D01*
X220290609Y-56369185D01*
X220378210Y-56500288D01*
X220378213Y-56500292D01*
X220489707Y-56611786D01*
X220489711Y-56611789D01*
X220620814Y-56699390D01*
X220620827Y-56699397D01*
X220766498Y-56759735D01*
X220766503Y-56759737D01*
X220921153Y-56790499D01*
X220921156Y-56790500D01*
X220921158Y-56790500D01*
X221078844Y-56790500D01*
X221078845Y-56790499D01*
X221233497Y-56759737D01*
X221252547Y-56751845D01*
X221322016Y-56744377D01*
X221347452Y-56751845D01*
X221366503Y-56759737D01*
X221521153Y-56790499D01*
X221521156Y-56790500D01*
X221521158Y-56790500D01*
X221678844Y-56790500D01*
X221678845Y-56790499D01*
X221833497Y-56759737D01*
X221979179Y-56699394D01*
X222110289Y-56611789D01*
X222178320Y-56543757D01*
X222239641Y-56510274D01*
X222309333Y-56515258D01*
X222365267Y-56557129D01*
X222389684Y-56622593D01*
X222390000Y-56631440D01*
X222390000Y-58002342D01*
X222370315Y-58069381D01*
X222317511Y-58115136D01*
X222248353Y-58125080D01*
X222241809Y-58123959D01*
X222118845Y-58099500D01*
X222118842Y-58099500D01*
X221961158Y-58099500D01*
X221961153Y-58099500D01*
X221822313Y-58127117D01*
X221806542Y-58129214D01*
X221802338Y-58129500D01*
X221709128Y-58129501D01*
X221649517Y-58135909D01*
X221636425Y-58140791D01*
X221618420Y-58142017D01*
X221601197Y-58138208D01*
X221583603Y-58139461D01*
X221575724Y-58137147D01*
X221570482Y-58135908D01*
X221510882Y-58129501D01*
X221510873Y-58129500D01*
X221510863Y-58129500D01*
X220849129Y-58129500D01*
X220849123Y-58129501D01*
X220831461Y-58131400D01*
X220774539Y-58124166D01*
X220758024Y-58117951D01*
X220742331Y-58106204D01*
X220607483Y-58055909D01*
X220587394Y-58053749D01*
X220572647Y-58048200D01*
X220556815Y-58036277D01*
X220538507Y-58028693D01*
X220521938Y-58010011D01*
X220516835Y-58006168D01*
X220515623Y-58002891D01*
X220511165Y-57997864D01*
X220500000Y-57980000D01*
X219424000Y-57980000D01*
X219356961Y-57960315D01*
X219311206Y-57907511D01*
X219300000Y-57856000D01*
X219300000Y-54874000D01*
X219319685Y-54806961D01*
X219372489Y-54761206D01*
X219424000Y-54750000D01*
X220075500Y-54750000D01*
X220104661Y-54758562D01*
G37*
%TD.AperFunction*%
%TD*%
%TA.AperFunction,Conductor*%
%TO.N,GND*%
G36*
X238434211Y-50362837D02*
G01*
X238439511Y-50364089D01*
X238439517Y-50364091D01*
X238499127Y-50370500D01*
X239160872Y-50370499D01*
X239160873Y-50370498D01*
X239160888Y-50370498D01*
X239169790Y-50369541D01*
X239238550Y-50381946D01*
X239257352Y-50393559D01*
X239257667Y-50393795D01*
X239257671Y-50393797D01*
X239392517Y-50444091D01*
X239392516Y-50444091D01*
X239399444Y-50444835D01*
X239452127Y-50450500D01*
X240386090Y-50450499D01*
X240414098Y-50453704D01*
X240604011Y-50497741D01*
X240664870Y-50532060D01*
X240697515Y-50593835D01*
X240700000Y-50618536D01*
X240700000Y-53636000D01*
X240680315Y-53703039D01*
X240627511Y-53748794D01*
X240576000Y-53760000D01*
X239924500Y-53760000D01*
X239857461Y-53740315D01*
X239811706Y-53687511D01*
X239800500Y-53636000D01*
X239800500Y-53521155D01*
X239800499Y-53521153D01*
X239769738Y-53366510D01*
X239769737Y-53366503D01*
X239761845Y-53347452D01*
X239754377Y-53277984D01*
X239761846Y-53252547D01*
X239769737Y-53233497D01*
X239800500Y-53078842D01*
X239800500Y-52921158D01*
X239800500Y-52921155D01*
X239800499Y-52921153D01*
X239769737Y-52766503D01*
X239761846Y-52747454D01*
X239754377Y-52677986D01*
X239761847Y-52652546D01*
X239769737Y-52633499D01*
X239800500Y-52478844D01*
X239800500Y-52321160D01*
X239800500Y-52321157D01*
X239800499Y-52321155D01*
X239769738Y-52166512D01*
X239769737Y-52166505D01*
X239769735Y-52166500D01*
X239709397Y-52020829D01*
X239709390Y-52020816D01*
X239621789Y-51889713D01*
X239621786Y-51889709D01*
X239510292Y-51778215D01*
X239510288Y-51778212D01*
X239379185Y-51690611D01*
X239379172Y-51690604D01*
X239233501Y-51630266D01*
X239233489Y-51630263D01*
X239078845Y-51599502D01*
X239078842Y-51599502D01*
X238921158Y-51599502D01*
X238921155Y-51599502D01*
X238766511Y-51630262D01*
X238766506Y-51630264D01*
X238766504Y-51630264D01*
X238766503Y-51630265D01*
X238747451Y-51638156D01*
X238677983Y-51645623D01*
X238652550Y-51638155D01*
X238633498Y-51630263D01*
X238633488Y-51630260D01*
X238478845Y-51599500D01*
X238478842Y-51599500D01*
X238321158Y-51599500D01*
X238321155Y-51599500D01*
X238166510Y-51630261D01*
X238166498Y-51630264D01*
X238020827Y-51690602D01*
X238020814Y-51690609D01*
X237973391Y-51722297D01*
X237906713Y-51743175D01*
X237839333Y-51724690D01*
X237792643Y-51672711D01*
X237780500Y-51619195D01*
X237780500Y-50494499D01*
X237800185Y-50427460D01*
X237852989Y-50381705D01*
X237904500Y-50370499D01*
X238300871Y-50370499D01*
X238300872Y-50370499D01*
X238360483Y-50364091D01*
X238360485Y-50364090D01*
X238360487Y-50364090D01*
X238368031Y-50362308D01*
X238368588Y-50364666D01*
X238426331Y-50360524D01*
X238434211Y-50362837D01*
G37*
%TD.AperFunction*%
%TD*%
%TA.AperFunction,Conductor*%
%TO.N,OUT1*%
G36*
X246393106Y-61205023D02*
G01*
X246408104Y-61209427D01*
X246423094Y-61219057D01*
X246440175Y-61224067D01*
X246466855Y-61247172D01*
X246468042Y-61248541D01*
X246495518Y-61303402D01*
X246497163Y-61310960D01*
X246500000Y-61337331D01*
X246500000Y-62510000D01*
X249366447Y-62712336D01*
X249400939Y-62719806D01*
X249415590Y-62725255D01*
X249471563Y-62767074D01*
X249471565Y-62767077D01*
X249474043Y-62770381D01*
X249496857Y-62822679D01*
X249497514Y-62826306D01*
X249499500Y-62848408D01*
X249499500Y-65605213D01*
X249499499Y-65605219D01*
X249499500Y-65605222D01*
X249494475Y-65640157D01*
X249490070Y-65655155D01*
X249452317Y-65713907D01*
X249452291Y-65713928D01*
X249452291Y-65713930D01*
X249452289Y-65713930D01*
X249450612Y-65715385D01*
X249396559Y-65742676D01*
X249389759Y-65744203D01*
X249364258Y-65747205D01*
X245583492Y-65798069D01*
X245583491Y-65798068D01*
X245583491Y-65798069D01*
X245548494Y-65793516D01*
X245533438Y-65789314D01*
X245474158Y-65752334D01*
X245474117Y-65752288D01*
X245473208Y-65751266D01*
X245444876Y-65696028D01*
X245443014Y-65687737D01*
X245440000Y-65660566D01*
X245440000Y-61341829D01*
X245445023Y-61306893D01*
X245449427Y-61291895D01*
X245487172Y-61233144D01*
X245487200Y-61233119D01*
X245487199Y-61233119D01*
X245488541Y-61231956D01*
X245543420Y-61204477D01*
X245550979Y-61202833D01*
X245577332Y-61200000D01*
X246358170Y-61200000D01*
X246393106Y-61205023D01*
G37*
%TD.AperFunction*%
%TD*%
%TA.AperFunction,Conductor*%
%TO.N,GND*%
G36*
X220110582Y-43808848D02*
G01*
X220139645Y-43814634D01*
X220143736Y-43818583D01*
X220149191Y-43820185D01*
X220168592Y-43842575D01*
X220189916Y-43863158D01*
X220192815Y-43870529D01*
X220194946Y-43872989D01*
X220200291Y-43889540D01*
X220202833Y-43896003D01*
X220203344Y-43898167D01*
X220230263Y-44033497D01*
X220241978Y-44061780D01*
X220244274Y-44071503D01*
X220240523Y-44141272D01*
X220238161Y-44147433D01*
X220230263Y-44166503D01*
X220230262Y-44166506D01*
X220230260Y-44166511D01*
X220199500Y-44321153D01*
X220199500Y-44478846D01*
X220230261Y-44633494D01*
X220230262Y-44633497D01*
X220238154Y-44652550D01*
X220245620Y-44722020D01*
X220238154Y-44747448D01*
X220230262Y-44766500D01*
X220230261Y-44766503D01*
X220199500Y-44921151D01*
X220199500Y-45078844D01*
X220230261Y-45233487D01*
X220230264Y-45233499D01*
X220290602Y-45379170D01*
X220290609Y-45379183D01*
X220378210Y-45510286D01*
X220378213Y-45510290D01*
X220489707Y-45621784D01*
X220489711Y-45621787D01*
X220620814Y-45709388D01*
X220620827Y-45709395D01*
X220766498Y-45769733D01*
X220766503Y-45769735D01*
X220921153Y-45800497D01*
X220921156Y-45800498D01*
X220921158Y-45800498D01*
X221078844Y-45800498D01*
X221078845Y-45800497D01*
X221233497Y-45769735D01*
X221240469Y-45766846D01*
X221309937Y-45759375D01*
X221335378Y-45766845D01*
X221366498Y-45779735D01*
X221366503Y-45779737D01*
X221521153Y-45810499D01*
X221521156Y-45810500D01*
X221521158Y-45810500D01*
X221678844Y-45810500D01*
X221678845Y-45810499D01*
X221833497Y-45779737D01*
X221979179Y-45719394D01*
X222110289Y-45631789D01*
X222210627Y-45531450D01*
X222227223Y-45522387D01*
X222240835Y-45509255D01*
X222270324Y-45498852D01*
X222271948Y-45497966D01*
X222274001Y-45497538D01*
X222281815Y-45495984D01*
X222351404Y-45502214D01*
X222406580Y-45545078D01*
X222429822Y-45610969D01*
X222430000Y-45617602D01*
X222430000Y-47005500D01*
X222410315Y-47072539D01*
X222357511Y-47118294D01*
X222306000Y-47129500D01*
X222281872Y-47129500D01*
X222257681Y-47127117D01*
X222213158Y-47118260D01*
X222118844Y-47099500D01*
X222118842Y-47099500D01*
X221961158Y-47099500D01*
X221961153Y-47099500D01*
X221822313Y-47127117D01*
X221806542Y-47129214D01*
X221802338Y-47129500D01*
X221709128Y-47129501D01*
X221649517Y-47135909D01*
X221636425Y-47140791D01*
X221618420Y-47142017D01*
X221601197Y-47138208D01*
X221583603Y-47139461D01*
X221575724Y-47137147D01*
X221570482Y-47135908D01*
X221510882Y-47129501D01*
X221510873Y-47129500D01*
X221510863Y-47129500D01*
X220849129Y-47129500D01*
X220849123Y-47129501D01*
X220831461Y-47131400D01*
X220774453Y-47124134D01*
X220757987Y-47117924D01*
X220742331Y-47106204D01*
X220607483Y-47055909D01*
X220587985Y-47053812D01*
X220573201Y-47048237D01*
X220557414Y-47036329D01*
X220539149Y-47028763D01*
X220521319Y-47009103D01*
X220517420Y-47006162D01*
X220516575Y-47003872D01*
X220513285Y-47000244D01*
X220500000Y-46980000D01*
X219424000Y-46980000D01*
X219356961Y-46960315D01*
X219311206Y-46907511D01*
X219300000Y-46856000D01*
X219300000Y-43924500D01*
X219319685Y-43857461D01*
X219372489Y-43811706D01*
X219424000Y-43800500D01*
X220082152Y-43800500D01*
X220110582Y-43808848D01*
G37*
%TD.AperFunction*%
%TD*%
%TA.AperFunction,Conductor*%
%TO.N,B+*%
G36*
X233773039Y-80919685D02*
G01*
X233818794Y-80972489D01*
X233830000Y-81024000D01*
X233830000Y-81513974D01*
X233810697Y-81580416D01*
X233527738Y-82026290D01*
X233475196Y-82072346D01*
X233406096Y-82082685D01*
X233350156Y-82060167D01*
X233181609Y-81937712D01*
X232999223Y-81844781D01*
X232804534Y-81781522D01*
X232629995Y-81753878D01*
X232602352Y-81749500D01*
X232397648Y-81749500D01*
X232373329Y-81753351D01*
X232195465Y-81781522D01*
X232000776Y-81844781D01*
X231818386Y-81937715D01*
X231652786Y-82058028D01*
X231508028Y-82202786D01*
X231387715Y-82368386D01*
X231294781Y-82550776D01*
X231231522Y-82745465D01*
X231199500Y-82947648D01*
X231199500Y-83152351D01*
X231231522Y-83354534D01*
X231294781Y-83549223D01*
X231387715Y-83731613D01*
X231508028Y-83897213D01*
X231652786Y-84041971D01*
X231807749Y-84154556D01*
X231818390Y-84162287D01*
X232000781Y-84255220D01*
X232008013Y-84257569D01*
X232065687Y-84297008D01*
X232092885Y-84361366D01*
X232080970Y-84430213D01*
X232033725Y-84481688D01*
X231969693Y-84499500D01*
X230624000Y-84499500D01*
X230556961Y-84479815D01*
X230511206Y-84427011D01*
X230500000Y-84375500D01*
X230500000Y-82150001D01*
X230500000Y-82150000D01*
X230240659Y-81554478D01*
X230231941Y-81485156D01*
X230239784Y-81457524D01*
X230249737Y-81433497D01*
X230280500Y-81278842D01*
X230280500Y-81121158D01*
X230280500Y-81121155D01*
X230265986Y-81048192D01*
X230272213Y-80978601D01*
X230315075Y-80923423D01*
X230380965Y-80900178D01*
X230387603Y-80900000D01*
X233706000Y-80900000D01*
X233773039Y-80919685D01*
G37*
%TD.AperFunction*%
%TA.AperFunction,Conductor*%
G36*
X233436975Y-84066356D02*
G01*
X233485670Y-84116462D01*
X233500000Y-84174328D01*
X233500000Y-84375500D01*
X233480315Y-84442539D01*
X233427511Y-84488294D01*
X233376000Y-84499500D01*
X233030307Y-84499500D01*
X232963268Y-84479815D01*
X232917513Y-84427011D01*
X232907569Y-84357853D01*
X232936594Y-84294297D01*
X232991986Y-84257569D01*
X232999219Y-84255220D01*
X233181610Y-84162287D01*
X233257269Y-84107318D01*
X233303115Y-84074010D01*
X233368922Y-84050530D01*
X233436975Y-84066356D01*
G37*
%TD.AperFunction*%
%TD*%
%TA.AperFunction,Conductor*%
%TO.N,OUT1*%
G36*
X214442405Y-61215587D02*
G01*
X214457088Y-61218505D01*
X214471444Y-61226011D01*
X214487412Y-61228743D01*
X214501765Y-61241865D01*
X214519003Y-61250878D01*
X214527565Y-61265452D01*
X214538980Y-61275887D01*
X214552782Y-61308370D01*
X214555865Y-61320007D01*
X214560000Y-61351763D01*
X214560000Y-65477670D01*
X214554975Y-65512614D01*
X214550570Y-65527612D01*
X214512827Y-65586355D01*
X214511458Y-65587542D01*
X214456597Y-65615018D01*
X214449039Y-65616663D01*
X214422668Y-65619500D01*
X213641830Y-65619500D01*
X213641825Y-65619499D01*
X213641823Y-65619500D01*
X213606889Y-65614475D01*
X213591890Y-65610070D01*
X213533144Y-65572327D01*
X213533115Y-65572293D01*
X213533114Y-65572293D01*
X213533113Y-65572291D01*
X213531957Y-65570958D01*
X213504477Y-65516083D01*
X213502832Y-65508521D01*
X213500000Y-65482168D01*
X213500000Y-64490000D01*
X213499999Y-64489999D01*
X213142195Y-64447904D01*
X210627716Y-64152082D01*
X210593612Y-64143013D01*
X210579232Y-64136888D01*
X210525270Y-64092509D01*
X210522080Y-64087815D01*
X210502149Y-64037355D01*
X210501999Y-64036399D01*
X210500500Y-64017178D01*
X210500500Y-61695285D01*
X210505523Y-61660349D01*
X210509927Y-61645351D01*
X210547698Y-61586577D01*
X210547699Y-61586575D01*
X210551288Y-61583465D01*
X210600714Y-61557318D01*
X210601837Y-61557020D01*
X210603210Y-61556656D01*
X210623900Y-61553012D01*
X214407170Y-61213706D01*
X214442405Y-61215587D01*
G37*
%TD.AperFunction*%
%TD*%
%TA.AperFunction,Conductor*%
%TO.N,OUT2*%
G36*
X212215183Y-66760520D02*
G01*
X212240167Y-66765170D01*
X212264919Y-66772512D01*
X212306503Y-66789737D01*
X212436992Y-66815693D01*
X212453530Y-66818982D01*
X212456248Y-66819703D01*
X212461155Y-66820500D01*
X212461156Y-66820500D01*
X212461158Y-66820500D01*
X212579276Y-66820500D01*
X212618844Y-66820500D01*
X212624902Y-66819903D01*
X212624938Y-66820276D01*
X212635488Y-66819285D01*
X212639953Y-66819189D01*
X212642657Y-66819919D01*
X212658826Y-66820222D01*
X212660942Y-66820500D01*
X212660943Y-66820501D01*
X212660944Y-66820501D01*
X212819058Y-66820501D01*
X212826654Y-66820501D01*
X212826670Y-66820500D01*
X214418171Y-66820500D01*
X214453106Y-66825523D01*
X214468104Y-66829927D01*
X214526855Y-66867672D01*
X214526879Y-66867700D01*
X214526882Y-66867702D01*
X214526883Y-66867704D01*
X214528042Y-66869041D01*
X214555518Y-66923902D01*
X214557163Y-66931460D01*
X214560000Y-66957831D01*
X214560000Y-70887670D01*
X214559999Y-70887676D01*
X214560000Y-70887679D01*
X214554975Y-70922614D01*
X214550570Y-70937612D01*
X214512827Y-70996355D01*
X214512792Y-70996385D01*
X214512791Y-70996387D01*
X214512789Y-70996387D01*
X214511458Y-70997542D01*
X214456597Y-71025018D01*
X214449039Y-71026663D01*
X214422668Y-71029500D01*
X213641830Y-71029500D01*
X213641825Y-71029499D01*
X213641823Y-71029500D01*
X213606889Y-71024475D01*
X213591890Y-71020070D01*
X213533144Y-70982327D01*
X213533115Y-70982293D01*
X213533114Y-70982293D01*
X213533113Y-70982291D01*
X213531957Y-70980958D01*
X213504477Y-70926083D01*
X213502832Y-70918521D01*
X213500000Y-70892168D01*
X213500000Y-69990000D01*
X213499999Y-69989999D01*
X213499997Y-69989998D01*
X210629864Y-69702139D01*
X210595609Y-69693656D01*
X210581121Y-69687776D01*
X210526409Y-69644328D01*
X210525123Y-69642504D01*
X210523462Y-69640147D01*
X210502487Y-69588971D01*
X210502165Y-69587026D01*
X210500500Y-69566773D01*
X210500500Y-66938930D01*
X210505523Y-66903994D01*
X210508755Y-66892989D01*
X210509927Y-66888995D01*
X210547702Y-66830218D01*
X210547705Y-66830216D01*
X210549689Y-66828497D01*
X210603031Y-66801383D01*
X210609199Y-66799961D01*
X210633996Y-66796829D01*
X212189445Y-66758466D01*
X212215183Y-66760520D01*
G37*
%TD.AperFunction*%
%TD*%
%TA.AperFunction,Conductor*%
%TO.N,OUT1*%
G36*
X246443039Y-55020185D02*
G01*
X246488794Y-55072989D01*
X246500000Y-55124500D01*
X246500000Y-56010000D01*
X249380969Y-56137101D01*
X249447072Y-56159721D01*
X249490455Y-56214490D01*
X249499500Y-56260980D01*
X249499500Y-59034735D01*
X249479815Y-59101774D01*
X249427011Y-59147529D01*
X249379946Y-59158655D01*
X245568446Y-59295392D01*
X245500744Y-59278124D01*
X245453125Y-59226994D01*
X245440000Y-59171472D01*
X245440000Y-55124500D01*
X245459685Y-55057461D01*
X245512489Y-55011706D01*
X245564000Y-55000500D01*
X246376000Y-55000500D01*
X246443039Y-55020185D01*
G37*
%TD.AperFunction*%
%TD*%
%TA.AperFunction,Conductor*%
%TO.N,GND*%
G36*
X238408770Y-62361783D02*
G01*
X238426331Y-62360524D01*
X238434211Y-62362837D01*
X238439511Y-62364089D01*
X238439517Y-62364091D01*
X238499127Y-62370500D01*
X239160872Y-62370499D01*
X239160873Y-62370498D01*
X239160888Y-62370498D01*
X239169790Y-62369541D01*
X239226477Y-62376685D01*
X239243130Y-62382912D01*
X239257669Y-62393796D01*
X239392517Y-62444091D01*
X239412478Y-62446237D01*
X239427114Y-62451710D01*
X239443063Y-62463670D01*
X239461485Y-62471300D01*
X239477867Y-62489770D01*
X239483012Y-62493628D01*
X239484256Y-62496973D01*
X239488832Y-62502132D01*
X239500000Y-62520000D01*
X240576000Y-62520000D01*
X240643039Y-62539685D01*
X240688794Y-62592489D01*
X240700000Y-62644000D01*
X240700000Y-65575500D01*
X240680315Y-65642539D01*
X240627511Y-65688294D01*
X240576000Y-65699500D01*
X239917848Y-65699500D01*
X239889417Y-65691151D01*
X239860355Y-65685366D01*
X239856263Y-65681416D01*
X239850809Y-65679815D01*
X239831407Y-65657424D01*
X239810084Y-65636842D01*
X239807448Y-65629774D01*
X239805054Y-65627011D01*
X239797167Y-65603997D01*
X239796655Y-65601832D01*
X239769737Y-65466503D01*
X239758022Y-65438221D01*
X239755726Y-65428497D01*
X239757086Y-65403187D01*
X239754377Y-65377984D01*
X239759352Y-65361038D01*
X239759477Y-65358728D01*
X239760411Y-65357432D01*
X239761846Y-65352547D01*
X239769737Y-65333497D01*
X239800500Y-65178842D01*
X239800500Y-65021158D01*
X239800500Y-65021155D01*
X239800499Y-65021153D01*
X239769738Y-64866510D01*
X239769737Y-64866503D01*
X239761846Y-64847454D01*
X239754377Y-64777986D01*
X239761847Y-64752546D01*
X239769737Y-64733499D01*
X239800500Y-64578844D01*
X239800500Y-64421160D01*
X239800500Y-64421157D01*
X239800499Y-64421155D01*
X239798443Y-64410821D01*
X239769737Y-64266505D01*
X239729023Y-64168211D01*
X239709397Y-64120829D01*
X239709390Y-64120816D01*
X239621789Y-63989713D01*
X239621786Y-63989709D01*
X239510292Y-63878215D01*
X239510288Y-63878212D01*
X239379185Y-63790611D01*
X239379172Y-63790604D01*
X239233501Y-63730266D01*
X239233489Y-63730263D01*
X239078845Y-63699502D01*
X239078842Y-63699502D01*
X238921158Y-63699502D01*
X238921155Y-63699502D01*
X238766511Y-63730262D01*
X238766506Y-63730264D01*
X238766504Y-63730264D01*
X238766503Y-63730265D01*
X238747451Y-63738156D01*
X238677983Y-63745623D01*
X238652550Y-63738155D01*
X238633498Y-63730263D01*
X238633488Y-63730260D01*
X238478845Y-63699500D01*
X238478842Y-63699500D01*
X238321158Y-63699500D01*
X238321155Y-63699500D01*
X238166510Y-63730261D01*
X238166498Y-63730264D01*
X238020827Y-63790602D01*
X238020814Y-63790609D01*
X237889712Y-63878209D01*
X237867423Y-63900499D01*
X237814239Y-63953682D01*
X237787308Y-63968388D01*
X237761495Y-63984977D01*
X237755295Y-63985868D01*
X237752919Y-63987166D01*
X237726560Y-63990000D01*
X237564691Y-63990000D01*
X237497652Y-63970315D01*
X237451897Y-63917511D01*
X237440693Y-63865311D01*
X237442279Y-63579635D01*
X237448348Y-62487341D01*
X237468404Y-62420416D01*
X237521461Y-62374955D01*
X237585601Y-62364745D01*
X237639127Y-62370500D01*
X237728126Y-62370499D01*
X237752318Y-62372882D01*
X237891156Y-62400500D01*
X237891158Y-62400500D01*
X238048844Y-62400500D01*
X238187685Y-62372882D01*
X238203457Y-62370785D01*
X238207659Y-62370499D01*
X238300872Y-62370499D01*
X238360483Y-62364091D01*
X238373577Y-62359207D01*
X238391579Y-62357982D01*
X238408770Y-62361783D01*
G37*
%TD.AperFunction*%
%TD*%
%TA.AperFunction,Conductor*%
%TO.N,OUT2*%
G36*
X214450165Y-49207731D02*
G01*
X214465272Y-49211765D01*
X214480506Y-49221033D01*
X214497736Y-49225636D01*
X214524954Y-49248074D01*
X214524961Y-49248078D01*
X214525640Y-49248823D01*
X214554780Y-49304448D01*
X214556831Y-49313345D01*
X214560000Y-49341200D01*
X214560000Y-53658170D01*
X214554975Y-53693114D01*
X214550570Y-53708112D01*
X214540939Y-53723101D01*
X214535932Y-53740175D01*
X214512827Y-53766855D01*
X214511458Y-53768042D01*
X214456597Y-53795518D01*
X214449039Y-53797163D01*
X214422668Y-53800000D01*
X213641830Y-53800000D01*
X213606889Y-53794975D01*
X213591890Y-53790570D01*
X213576902Y-53780940D01*
X213559824Y-53775932D01*
X213533144Y-53752827D01*
X213531957Y-53751458D01*
X213504477Y-53696583D01*
X213502832Y-53689021D01*
X213500000Y-53662668D01*
X213500000Y-52490000D01*
X213499998Y-52489999D01*
X213499995Y-52489998D01*
X213499993Y-52489998D01*
X210636847Y-52363682D01*
X210636845Y-52363681D01*
X210636845Y-52363682D01*
X210602166Y-52357124D01*
X210587376Y-52352063D01*
X210530336Y-52311754D01*
X210528309Y-52309196D01*
X210503774Y-52255848D01*
X210502779Y-52250730D01*
X210500500Y-52227066D01*
X210500500Y-49438930D01*
X210501074Y-49434941D01*
X210505523Y-49403994D01*
X210509927Y-49388996D01*
X210547702Y-49330218D01*
X210547705Y-49330216D01*
X210549689Y-49328497D01*
X210603031Y-49301383D01*
X210609199Y-49299961D01*
X210633996Y-49296829D01*
X214415126Y-49203572D01*
X214450165Y-49207731D01*
G37*
%TD.AperFunction*%
%TD*%
%TA.AperFunction,Conductor*%
%TO.N,GND*%
G36*
X238408770Y-73331783D02*
G01*
X238426331Y-73330524D01*
X238434211Y-73332837D01*
X238439511Y-73334089D01*
X238439517Y-73334091D01*
X238499127Y-73340500D01*
X239145201Y-73340499D01*
X239212240Y-73360183D01*
X239219511Y-73365232D01*
X239257665Y-73393793D01*
X239257671Y-73393797D01*
X239392513Y-73444090D01*
X239392514Y-73444090D01*
X239392517Y-73444091D01*
X239396935Y-73444566D01*
X239461485Y-73471300D01*
X239488832Y-73502132D01*
X239500000Y-73520000D01*
X240576000Y-73520000D01*
X240643039Y-73539685D01*
X240688794Y-73592489D01*
X240700000Y-73644000D01*
X240700000Y-76626000D01*
X240680315Y-76693039D01*
X240627511Y-76738794D01*
X240576000Y-76750000D01*
X239903969Y-76750000D01*
X239875793Y-76741726D01*
X239846960Y-76736118D01*
X239842650Y-76731994D01*
X239836930Y-76730315D01*
X239817701Y-76708123D01*
X239796476Y-76687816D01*
X239793702Y-76680427D01*
X239791175Y-76677511D01*
X239783414Y-76655027D01*
X239782833Y-76652615D01*
X239759737Y-76536503D01*
X239748126Y-76508473D01*
X239745852Y-76499027D01*
X239747114Y-76473447D01*
X239744377Y-76447984D01*
X239749179Y-76431629D01*
X239749297Y-76429243D01*
X239750286Y-76427858D01*
X239751846Y-76422547D01*
X239759737Y-76403497D01*
X239790500Y-76248842D01*
X239790500Y-76091158D01*
X239790500Y-76091155D01*
X239790499Y-76091153D01*
X239759738Y-75936510D01*
X239759737Y-75936503D01*
X239751845Y-75917452D01*
X239744377Y-75847984D01*
X239751846Y-75822547D01*
X239759737Y-75803497D01*
X239790500Y-75648842D01*
X239790500Y-75491158D01*
X239790500Y-75491155D01*
X239790499Y-75491153D01*
X239759737Y-75336503D01*
X239743549Y-75297422D01*
X239699397Y-75190827D01*
X239699390Y-75190814D01*
X239611789Y-75059711D01*
X239611786Y-75059707D01*
X239500292Y-74948213D01*
X239500288Y-74948210D01*
X239369185Y-74860609D01*
X239369172Y-74860602D01*
X239223501Y-74800264D01*
X239223489Y-74800261D01*
X239068845Y-74769500D01*
X239068842Y-74769500D01*
X238911158Y-74769500D01*
X238911156Y-74769500D01*
X238756497Y-74800263D01*
X238752003Y-74801627D01*
X238682137Y-74802246D01*
X238668569Y-74797527D01*
X238623497Y-74778858D01*
X238623493Y-74778857D01*
X238623488Y-74778855D01*
X238468845Y-74748095D01*
X238468842Y-74748095D01*
X238311158Y-74748095D01*
X238311155Y-74748095D01*
X238156510Y-74778856D01*
X238156498Y-74778859D01*
X238010827Y-74839197D01*
X238010814Y-74839204D01*
X237879711Y-74926805D01*
X237795069Y-75011447D01*
X237778469Y-75020510D01*
X237764863Y-75033640D01*
X237735363Y-75044047D01*
X237733745Y-75044931D01*
X237731580Y-75045382D01*
X237647354Y-75062136D01*
X237577762Y-75055909D01*
X237522585Y-75013046D01*
X237499340Y-74947157D01*
X237499164Y-74941172D01*
X237498433Y-74802246D01*
X237491385Y-73463312D01*
X237510716Y-73396173D01*
X237563279Y-73350140D01*
X237628641Y-73339373D01*
X237634243Y-73339974D01*
X237639127Y-73340500D01*
X237728126Y-73340499D01*
X237752318Y-73342882D01*
X237891156Y-73370500D01*
X237891158Y-73370500D01*
X238048844Y-73370500D01*
X238187685Y-73342882D01*
X238203457Y-73340785D01*
X238207659Y-73340499D01*
X238300872Y-73340499D01*
X238360483Y-73334091D01*
X238373577Y-73329207D01*
X238391579Y-73327982D01*
X238408770Y-73331783D01*
G37*
%TD.AperFunction*%
%TD*%
%TA.AperFunction,Conductor*%
%TO.N,OUT3*%
G36*
X246443039Y-72219685D02*
G01*
X246488794Y-72272489D01*
X246500000Y-72324000D01*
X246500000Y-73510000D01*
X249380240Y-73620126D01*
X249446476Y-73642357D01*
X249490180Y-73696871D01*
X249499500Y-73744035D01*
X249499500Y-76481721D01*
X249479815Y-76548760D01*
X249427011Y-76594515D01*
X249381609Y-76605570D01*
X245570109Y-76793582D01*
X245502181Y-76777225D01*
X245453880Y-76726739D01*
X245440000Y-76669733D01*
X245440000Y-72324000D01*
X245459685Y-72256961D01*
X245512489Y-72211206D01*
X245564000Y-72200000D01*
X246376000Y-72200000D01*
X246443039Y-72219685D01*
G37*
%TD.AperFunction*%
%TD*%
%TA.AperFunction,Conductor*%
%TO.N,OUT3*%
G36*
X214450969Y-43706979D02*
G01*
X214466046Y-43711114D01*
X214481214Y-43720482D01*
X214498411Y-43725199D01*
X214525486Y-43747825D01*
X214525492Y-43747829D01*
X214525493Y-43747831D01*
X214526306Y-43748736D01*
X214554985Y-43804149D01*
X214556923Y-43812685D01*
X214560000Y-43840139D01*
X214560000Y-48159334D01*
X214554975Y-48194278D01*
X214550570Y-48209276D01*
X214540931Y-48224273D01*
X214535913Y-48241367D01*
X214512802Y-48268041D01*
X214511198Y-48269431D01*
X214456936Y-48296759D01*
X214449906Y-48298324D01*
X214424131Y-48301281D01*
X213642998Y-48308650D01*
X213608018Y-48303958D01*
X213592979Y-48299696D01*
X213577894Y-48290203D01*
X213560760Y-48285352D01*
X213533865Y-48262498D01*
X213532871Y-48261373D01*
X213504754Y-48206193D01*
X213502956Y-48198112D01*
X213500000Y-48171198D01*
X213500000Y-46990000D01*
X210635013Y-46821469D01*
X210600437Y-46814404D01*
X210585725Y-46809128D01*
X210529267Y-46767970D01*
X210526970Y-46764981D01*
X210503413Y-46712219D01*
X210502611Y-46707928D01*
X210500500Y-46685147D01*
X210500500Y-43912440D01*
X210505523Y-43877504D01*
X210509927Y-43862506D01*
X210547681Y-43803747D01*
X210547686Y-43803741D01*
X210549499Y-43802170D01*
X210603264Y-43774945D01*
X210609824Y-43773456D01*
X210635029Y-43770402D01*
X214415953Y-43702583D01*
X214450969Y-43706979D01*
G37*
%TD.AperFunction*%
%TD*%
%TA.AperFunction,Conductor*%
%TO.N,OUT2*%
G36*
X246393106Y-49505523D02*
G01*
X246408104Y-49509927D01*
X246423094Y-49519557D01*
X246440175Y-49524567D01*
X246466855Y-49547672D01*
X246468042Y-49549041D01*
X246495518Y-49603902D01*
X246497163Y-49611460D01*
X246500000Y-49637831D01*
X246500000Y-50510000D01*
X249363159Y-50636315D01*
X249397840Y-50642874D01*
X249412624Y-50647933D01*
X249469678Y-50688261D01*
X249471705Y-50690820D01*
X249496221Y-50744126D01*
X249497217Y-50749244D01*
X249499500Y-50772931D01*
X249499500Y-53499236D01*
X249499499Y-53499242D01*
X249499500Y-53499245D01*
X249494475Y-53534180D01*
X249490070Y-53549178D01*
X249452315Y-53607932D01*
X249449942Y-53609989D01*
X249397511Y-53636903D01*
X249392228Y-53638164D01*
X249368440Y-53641451D01*
X247934230Y-53699335D01*
X247907496Y-53697517D01*
X247881578Y-53692903D01*
X247855861Y-53685384D01*
X247843488Y-53680259D01*
X247843489Y-53680259D01*
X247688849Y-53649500D01*
X247688845Y-53649500D01*
X247688842Y-53649500D01*
X247531158Y-53649500D01*
X247531155Y-53649500D01*
X247531150Y-53649500D01*
X247376517Y-53680258D01*
X247376506Y-53680261D01*
X247376484Y-53680269D01*
X247295789Y-53713694D01*
X247274974Y-53720238D01*
X247253910Y-53724871D01*
X247232273Y-53727665D01*
X245586814Y-53794074D01*
X245551702Y-53790463D01*
X245536538Y-53786667D01*
X245476286Y-53751292D01*
X245476277Y-53751283D01*
X245475951Y-53750936D01*
X245445712Y-53694819D01*
X245443388Y-53685082D01*
X245440000Y-53656295D01*
X245440000Y-49642329D01*
X245445023Y-49607393D01*
X245449427Y-49592395D01*
X245487172Y-49533644D01*
X245487200Y-49533619D01*
X245487199Y-49533619D01*
X245488541Y-49532456D01*
X245543420Y-49504977D01*
X245550979Y-49503333D01*
X245577332Y-49500500D01*
X246358170Y-49500500D01*
X246393106Y-49505523D01*
G37*
%TD.AperFunction*%
%TD*%
%TA.AperFunction,Conductor*%
%TO.N,GND*%
G36*
X238408770Y-67861783D02*
G01*
X238426331Y-67860524D01*
X238434211Y-67862837D01*
X238439511Y-67864089D01*
X238439517Y-67864091D01*
X238499127Y-67870500D01*
X239160872Y-67870499D01*
X239160873Y-67870498D01*
X239160888Y-67870498D01*
X239169790Y-67869541D01*
X239226477Y-67876685D01*
X239243130Y-67882912D01*
X239257669Y-67893796D01*
X239392517Y-67944091D01*
X239412478Y-67946237D01*
X239427114Y-67951710D01*
X239443063Y-67963670D01*
X239461485Y-67971300D01*
X239477867Y-67989770D01*
X239483012Y-67993628D01*
X239484256Y-67996973D01*
X239488832Y-68002132D01*
X239500000Y-68020000D01*
X240576000Y-68020000D01*
X240643039Y-68039685D01*
X240688794Y-68092489D01*
X240700000Y-68144000D01*
X240700000Y-71126000D01*
X240680315Y-71193039D01*
X240627511Y-71238794D01*
X240576000Y-71250000D01*
X239924500Y-71250000D01*
X239857461Y-71230315D01*
X239811706Y-71177511D01*
X239803216Y-71151809D01*
X239800500Y-71139045D01*
X239800500Y-71121158D01*
X239769737Y-70966503D01*
X239757492Y-70936941D01*
X239755123Y-70925809D01*
X239756944Y-70901864D01*
X239754377Y-70877984D01*
X239760294Y-70857831D01*
X239760423Y-70856141D01*
X239761024Y-70855345D01*
X239761846Y-70852547D01*
X239769737Y-70833497D01*
X239800500Y-70678842D01*
X239800500Y-70521158D01*
X239800500Y-70521155D01*
X239800499Y-70521153D01*
X239769738Y-70366510D01*
X239769737Y-70366503D01*
X239761845Y-70347452D01*
X239754377Y-70277984D01*
X239761846Y-70252547D01*
X239769737Y-70233497D01*
X239800500Y-70078842D01*
X239800500Y-69921158D01*
X239800500Y-69921155D01*
X239800499Y-69921153D01*
X239769738Y-69766510D01*
X239769737Y-69766503D01*
X239769735Y-69766498D01*
X239709397Y-69620827D01*
X239709390Y-69620814D01*
X239621789Y-69489711D01*
X239621786Y-69489707D01*
X239510292Y-69378213D01*
X239510288Y-69378210D01*
X239379185Y-69290609D01*
X239379172Y-69290602D01*
X239233501Y-69230264D01*
X239233489Y-69230261D01*
X239078845Y-69199500D01*
X239078842Y-69199500D01*
X238921158Y-69199500D01*
X238921156Y-69199500D01*
X238766497Y-69230263D01*
X238762003Y-69231627D01*
X238692137Y-69232246D01*
X238678569Y-69227527D01*
X238633497Y-69208858D01*
X238633493Y-69208857D01*
X238633488Y-69208855D01*
X238478845Y-69178095D01*
X238478842Y-69178095D01*
X238321158Y-69178095D01*
X238321155Y-69178095D01*
X238166510Y-69208856D01*
X238166498Y-69208859D01*
X238020827Y-69269197D01*
X238020814Y-69269204D01*
X237963391Y-69307574D01*
X237896714Y-69328452D01*
X237829333Y-69309968D01*
X237782643Y-69257989D01*
X237770500Y-69204472D01*
X237770500Y-68024500D01*
X237790185Y-67957461D01*
X237842989Y-67911706D01*
X237894500Y-67900500D01*
X238048844Y-67900500D01*
X238187685Y-67872882D01*
X238203457Y-67870785D01*
X238207659Y-67870499D01*
X238300872Y-67870499D01*
X238360483Y-67864091D01*
X238373577Y-67859207D01*
X238391579Y-67857982D01*
X238408770Y-67861783D01*
G37*
%TD.AperFunction*%
%TD*%
%TA.AperFunction,Conductor*%
%TO.N,OUT3*%
G36*
X246393106Y-43705023D02*
G01*
X246408104Y-43709427D01*
X246423094Y-43719057D01*
X246440175Y-43724067D01*
X246466855Y-43747172D01*
X246468042Y-43748541D01*
X246495518Y-43803402D01*
X246497163Y-43810960D01*
X246500000Y-43837331D01*
X246500000Y-45010000D01*
X249362794Y-45127879D01*
X249397488Y-45134334D01*
X249412290Y-45139351D01*
X249469464Y-45179511D01*
X249469482Y-45179533D01*
X249471455Y-45182010D01*
X249496141Y-45235383D01*
X249497178Y-45240666D01*
X249499500Y-45264550D01*
X249499500Y-47999236D01*
X249499499Y-47999242D01*
X249499500Y-47999245D01*
X249494475Y-48034180D01*
X249490070Y-48049178D01*
X249452315Y-48107932D01*
X249449942Y-48109989D01*
X249397511Y-48136903D01*
X249392228Y-48138164D01*
X249368440Y-48141451D01*
X247934230Y-48199335D01*
X247907496Y-48197517D01*
X247881578Y-48192903D01*
X247855861Y-48185384D01*
X247843488Y-48180259D01*
X247843489Y-48180259D01*
X247688849Y-48149500D01*
X247688845Y-48149500D01*
X247688842Y-48149500D01*
X247531158Y-48149500D01*
X247531155Y-48149500D01*
X247531150Y-48149500D01*
X247376517Y-48180258D01*
X247376506Y-48180261D01*
X247376484Y-48180269D01*
X247295789Y-48213694D01*
X247274974Y-48220238D01*
X247253910Y-48224871D01*
X247232273Y-48227665D01*
X245586814Y-48294074D01*
X245551702Y-48290463D01*
X245536538Y-48286667D01*
X245476286Y-48251292D01*
X245476277Y-48251283D01*
X245475951Y-48250936D01*
X245445712Y-48194819D01*
X245443388Y-48185082D01*
X245440000Y-48156295D01*
X245440000Y-43841829D01*
X245445023Y-43806893D01*
X245449427Y-43791895D01*
X245487172Y-43733144D01*
X245487200Y-43733119D01*
X245487199Y-43733119D01*
X245488541Y-43731956D01*
X245543420Y-43704477D01*
X245550979Y-43702833D01*
X245577332Y-43700000D01*
X246358170Y-43700000D01*
X246393106Y-43705023D01*
G37*
%TD.AperFunction*%
%TD*%
%TA.AperFunction,Conductor*%
%TO.N,GND*%
G36*
X220142539Y-61269685D02*
G01*
X220188294Y-61322489D01*
X220199500Y-61374000D01*
X220199500Y-61398846D01*
X220230260Y-61553488D01*
X220230262Y-61553493D01*
X220230263Y-61553497D01*
X220238155Y-61572550D01*
X220245623Y-61642018D01*
X220238156Y-61667446D01*
X220230263Y-61686503D01*
X220230262Y-61686506D01*
X220230260Y-61686511D01*
X220199500Y-61841153D01*
X220199500Y-61998846D01*
X220230260Y-62153488D01*
X220230262Y-62153493D01*
X220230263Y-62153497D01*
X220238155Y-62172550D01*
X220245623Y-62242018D01*
X220238156Y-62267446D01*
X220230263Y-62286503D01*
X220230262Y-62286506D01*
X220230260Y-62286511D01*
X220199500Y-62441153D01*
X220199500Y-62598846D01*
X220230261Y-62753489D01*
X220230264Y-62753501D01*
X220290602Y-62899172D01*
X220290609Y-62899185D01*
X220378210Y-63030288D01*
X220378213Y-63030292D01*
X220489707Y-63141786D01*
X220489711Y-63141789D01*
X220620814Y-63229390D01*
X220620827Y-63229397D01*
X220766498Y-63289735D01*
X220766503Y-63289737D01*
X220874118Y-63311143D01*
X220921153Y-63320499D01*
X220921156Y-63320500D01*
X220921158Y-63320500D01*
X221078844Y-63320500D01*
X221078845Y-63320499D01*
X221233497Y-63289737D01*
X221233504Y-63289733D01*
X221237979Y-63288377D01*
X221307845Y-63287749D01*
X221321429Y-63292472D01*
X221366503Y-63311142D01*
X221521153Y-63341904D01*
X221521156Y-63341905D01*
X221521158Y-63341905D01*
X221678844Y-63341905D01*
X221678845Y-63341904D01*
X221833497Y-63311142D01*
X221979179Y-63250799D01*
X222110289Y-63163194D01*
X222194931Y-63078551D01*
X222211527Y-63069489D01*
X222225136Y-63056358D01*
X222254628Y-63045954D01*
X222256252Y-63045068D01*
X222258420Y-63044617D01*
X222341809Y-63028030D01*
X222411401Y-63034257D01*
X222466578Y-63077120D01*
X222489822Y-63143010D01*
X222490000Y-63149647D01*
X222490000Y-64049402D01*
X222470315Y-64116441D01*
X222453681Y-64137083D01*
X221997582Y-64593181D01*
X221936259Y-64626666D01*
X221909902Y-64629500D01*
X221709130Y-64629500D01*
X221709123Y-64629501D01*
X221649520Y-64635908D01*
X221641974Y-64637692D01*
X221641419Y-64635344D01*
X221583603Y-64639461D01*
X221575724Y-64637147D01*
X221570482Y-64635908D01*
X221510882Y-64629501D01*
X221510873Y-64629500D01*
X221510863Y-64629500D01*
X220849129Y-64629500D01*
X220849123Y-64629501D01*
X220831461Y-64631400D01*
X220774212Y-64624043D01*
X220757883Y-64617846D01*
X220742331Y-64606204D01*
X220607483Y-64555909D01*
X220589608Y-64553987D01*
X220574712Y-64548334D01*
X220559048Y-64536468D01*
X220540898Y-64528949D01*
X220519649Y-64506621D01*
X220519019Y-64506144D01*
X220518908Y-64505843D01*
X220518425Y-64505335D01*
X220500000Y-64480000D01*
X220499999Y-64480000D01*
X219424000Y-64480000D01*
X219356961Y-64460315D01*
X219311206Y-64407511D01*
X219300000Y-64356000D01*
X219300000Y-61374000D01*
X219319685Y-61306961D01*
X219372489Y-61261206D01*
X219424000Y-61250000D01*
X220075500Y-61250000D01*
X220142539Y-61269685D01*
G37*
%TD.AperFunction*%
%TD*%
%TA.AperFunction,Conductor*%
%TO.N,OUT3*%
G36*
X214503039Y-72250185D02*
G01*
X214548794Y-72302989D01*
X214560000Y-72354500D01*
X214560000Y-76675762D01*
X214540315Y-76742801D01*
X214487511Y-76788556D01*
X214435763Y-76799762D01*
X213621499Y-76798206D01*
X213554497Y-76778393D01*
X213508843Y-76725502D01*
X213497736Y-76673973D01*
X213500000Y-75490000D01*
X213499998Y-75489999D01*
X213499999Y-75489999D01*
X210612162Y-75201216D01*
X210547413Y-75174958D01*
X210507140Y-75117863D01*
X210500500Y-75077831D01*
X210500500Y-72714166D01*
X210520185Y-72647127D01*
X210572989Y-72601372D01*
X210607865Y-72591288D01*
X212527157Y-72331620D01*
X212543782Y-72330500D01*
X212668844Y-72330500D01*
X212668845Y-72330499D01*
X212823497Y-72299737D01*
X212838061Y-72293704D01*
X212868882Y-72285386D01*
X213266287Y-72231620D01*
X213282912Y-72230500D01*
X214436000Y-72230500D01*
X214503039Y-72250185D01*
G37*
%TD.AperFunction*%
%TD*%
M02*
