%TF.GenerationSoftware,KiCad,Pcbnew,10.0.4-10.0.4~ubuntu26.04.1*%
%TF.CreationDate,2026-06-21T15:03:48+02:00*%
%TF.ProjectId,esc,6573632e-6b69-4636-9164-5f7063625858,rev?*%
%TF.SameCoordinates,Original*%
%TF.FileFunction,Copper,L1,Top*%
%TF.FilePolarity,Positive*%
%FSLAX46Y46*%
G04 Gerber Fmt 4.6, Leading zero omitted, Abs format (unit mm)*
G04 Created by KiCad (PCBNEW 10.0.4-10.0.4~ubuntu26.04.1) date 2026-06-21 15:03:48*
%MOMM*%
%LPD*%
G01*
G04 APERTURE LIST*
G04 Aperture macros list*
%AMRoundRect*
0 Rectangle with rounded corners*
0 $1 Rounding radius*
0 $2 $3 $4 $5 $6 $7 $8 $9 X,Y pos of 4 corners*
0 Add a 4 corners polygon primitive as box body*
4,1,4,$2,$3,$4,$5,$6,$7,$8,$9,$2,$3,0*
0 Add four circle primitives for the rounded corners*
1,1,$1+$1,$2,$3*
1,1,$1+$1,$4,$5*
1,1,$1+$1,$6,$7*
1,1,$1+$1,$8,$9*
0 Add four rect primitives between the rounded corners*
20,1,$1+$1,$2,$3,$4,$5,0*
20,1,$1+$1,$4,$5,$6,$7,0*
20,1,$1+$1,$6,$7,$8,$9,0*
20,1,$1+$1,$8,$9,$2,$3,0*%
%AMFreePoly0*
4,1,16,0.255954,0.186053,0.256762,0.185227,0.435502,-0.001971,0.449330,-0.035550,0.451489,-0.149113,0.437519,-0.184740,0.402448,-0.200054,0.401585,-0.200063,-0.401258,-0.201460,-0.436639,-0.186877,-0.451345,-0.151547,-0.451244,0.150715,-0.436588,0.186065,-0.401244,0.200698,0.220599,0.200698,0.255954,0.186053,0.255954,0.186053,$1*%
%AMFreePoly1*
4,1,16,0.401585,0.200114,0.436915,0.185408,0.451498,0.150027,0.451489,0.149164,0.449330,0.035601,0.435502,0.002022,0.256762,-0.185176,0.221754,-0.200634,0.220599,-0.200647,-0.401244,-0.200647,-0.436599,-0.186002,-0.451244,-0.150664,-0.451345,0.151494,-0.436712,0.186855,-0.401362,0.201511,0.401585,0.200114,0.401585,0.200114,$1*%
%AMFreePoly2*
4,1,16,0.184435,0.455807,0.199749,0.420736,0.199758,0.419873,0.201155,-0.382970,0.186572,-0.418351,0.151242,-0.433057,-0.151020,-0.432956,-0.186370,-0.418300,-0.201003,-0.382956,-0.201003,0.238887,-0.186358,0.274242,-0.185532,0.275050,0.001666,0.453790,0.035245,0.467618,0.148808,0.469777,0.184435,0.455807,0.184435,0.455807,$1*%
%AMFreePoly3*
4,1,16,-0.148656,0.469777,-0.035093,0.467618,-0.001514,0.453790,0.185684,0.275050,0.201142,0.240042,0.201155,0.238887,0.201155,-0.382956,0.186510,-0.418311,0.151172,-0.432956,-0.150986,-0.433057,-0.186347,-0.418424,-0.201003,-0.383074,-0.199606,0.419873,-0.184900,0.455203,-0.149519,0.469786,-0.148656,0.469777,-0.148656,0.469777,$1*%
%AMFreePoly4*
4,1,16,0.436639,0.186979,0.451345,0.151649,0.451244,-0.150614,0.436588,-0.185964,0.401244,-0.200597,-0.220599,-0.200597,-0.255954,-0.185952,-0.256762,-0.185126,-0.435502,0.002072,-0.449330,0.035651,-0.451489,0.149215,-0.437519,0.184842,-0.402448,0.200156,-0.401585,0.200165,0.401258,0.201562,0.436639,0.186979,0.436639,0.186979,$1*%
%AMFreePoly5*
4,1,16,0.436599,0.186129,0.451244,0.150791,0.451345,-0.151367,0.436712,-0.186728,0.401362,-0.201384,-0.401585,-0.199987,-0.436915,-0.185281,-0.451498,-0.149900,-0.451489,-0.149037,-0.449330,-0.035474,-0.435502,-0.001895,-0.256762,0.185303,-0.221754,0.200761,-0.220599,0.200774,0.401244,0.200774,0.436599,0.186129,0.436599,0.186129,$1*%
%AMFreePoly6*
4,1,16,0.151045,0.432956,0.186395,0.418300,0.201028,0.382956,0.201028,-0.238887,0.186383,-0.274242,0.185557,-0.275050,-0.001641,-0.453790,-0.035220,-0.467618,-0.148783,-0.469777,-0.184410,-0.455807,-0.199724,-0.420736,-0.199733,-0.419873,-0.201130,0.382970,-0.186547,0.418351,-0.151217,0.433057,0.151045,0.432956,0.151045,0.432956,$1*%
%AMFreePoly7*
4,1,16,0.186499,0.418424,0.201155,0.383074,0.199758,-0.419873,0.185052,-0.455203,0.149671,-0.469786,0.148808,-0.469777,0.035245,-0.467618,0.001666,-0.453790,-0.185532,-0.275050,-0.200990,-0.240042,-0.201003,-0.238887,-0.201003,0.382956,-0.186358,0.418311,-0.151020,0.432956,0.151138,0.433057,0.186499,0.418424,0.186499,0.418424,$1*%
G04 Aperture macros list end*
%TA.AperFunction,SMDPad,CuDef*%
%ADD10RoundRect,0.150000X-0.350000X-0.600000X0.350000X-0.600000X0.350000X0.600000X-0.350000X0.600000X0*%
%TD*%
%TA.AperFunction,SMDPad,CuDef*%
%ADD11O,0.800000X0.280000*%
%TD*%
%TA.AperFunction,SMDPad,CuDef*%
%ADD12O,0.280000X0.800000*%
%TD*%
%TA.AperFunction,SMDPad,CuDef*%
%ADD13R,2.700000X2.700000*%
%TD*%
%TA.AperFunction,SMDPad,CuDef*%
%ADD14RoundRect,0.450000X-1.050000X-1.050000X1.050000X-1.050000X1.050000X1.050000X-1.050000X1.050000X0*%
%TD*%
%TA.AperFunction,SMDPad,CuDef*%
%ADD15R,0.540000X0.566000*%
%TD*%
%TA.AperFunction,SMDPad,CuDef*%
%ADD16R,0.540000X0.500000*%
%TD*%
%TA.AperFunction,SMDPad,CuDef*%
%ADD17R,0.566000X0.540000*%
%TD*%
%TA.AperFunction,SMDPad,CuDef*%
%ADD18R,1.200000X0.700000*%
%TD*%
%TA.AperFunction,SMDPad,CuDef*%
%ADD19R,3.800000X4.600000*%
%TD*%
%TA.AperFunction,SMDPad,CuDef*%
%ADD20R,0.500000X0.540000*%
%TD*%
%TA.AperFunction,SMDPad,CuDef*%
%ADD21R,0.900000X0.800000*%
%TD*%
%TA.AperFunction,SMDPad,CuDef*%
%ADD22FreePoly0,90.000000*%
%TD*%
%TA.AperFunction,SMDPad,CuDef*%
%ADD23R,0.300000X1.000000*%
%TD*%
%TA.AperFunction,SMDPad,CuDef*%
%ADD24FreePoly1,90.000000*%
%TD*%
%TA.AperFunction,SMDPad,CuDef*%
%ADD25FreePoly2,90.000000*%
%TD*%
%TA.AperFunction,SMDPad,CuDef*%
%ADD26R,1.000000X0.300000*%
%TD*%
%TA.AperFunction,SMDPad,CuDef*%
%ADD27FreePoly3,90.000000*%
%TD*%
%TA.AperFunction,SMDPad,CuDef*%
%ADD28FreePoly4,90.000000*%
%TD*%
%TA.AperFunction,SMDPad,CuDef*%
%ADD29FreePoly5,90.000000*%
%TD*%
%TA.AperFunction,SMDPad,CuDef*%
%ADD30FreePoly6,90.000000*%
%TD*%
%TA.AperFunction,SMDPad,CuDef*%
%ADD31FreePoly7,90.000000*%
%TD*%
%TA.AperFunction,SMDPad,CuDef*%
%ADD32RoundRect,0.450000X1.050000X1.050000X-1.050000X1.050000X-1.050000X-1.050000X1.050000X-1.050000X0*%
%TD*%
%TA.AperFunction,ComponentPad*%
%ADD33C,1.600000*%
%TD*%
%TA.AperFunction,SMDPad,CuDef*%
%ADD34FreePoly0,270.000000*%
%TD*%
%TA.AperFunction,SMDPad,CuDef*%
%ADD35FreePoly1,270.000000*%
%TD*%
%TA.AperFunction,SMDPad,CuDef*%
%ADD36FreePoly2,270.000000*%
%TD*%
%TA.AperFunction,SMDPad,CuDef*%
%ADD37FreePoly3,270.000000*%
%TD*%
%TA.AperFunction,SMDPad,CuDef*%
%ADD38FreePoly4,270.000000*%
%TD*%
%TA.AperFunction,SMDPad,CuDef*%
%ADD39FreePoly5,270.000000*%
%TD*%
%TA.AperFunction,SMDPad,CuDef*%
%ADD40FreePoly6,270.000000*%
%TD*%
%TA.AperFunction,SMDPad,CuDef*%
%ADD41FreePoly7,270.000000*%
%TD*%
%TA.AperFunction,ViaPad*%
%ADD42C,0.600000*%
%TD*%
%TA.AperFunction,Conductor*%
%ADD43C,0.200000*%
%TD*%
%TA.AperFunction,Conductor*%
%ADD44C,0.800000*%
%TD*%
G04 APERTURE END LIST*
D10*
%TO.P,DShot_M4,1,Pin_1_1*%
%TO.N,DShot_M4*%
X238000000Y-79150000D03*
%TD*%
D11*
%TO.P,U4,1,CP_1*%
%TO.N,Net-(U4-CP)*%
X230000000Y-67750000D03*
%TO.P,U4,2,DT/MODE_2*%
%TO.N,Net-(U4-DT{slash}MODE)*%
X230000000Y-68250000D03*
%TO.P,U4,3,SCREF_3*%
%TO.N,Net-(U4-SCREF)*%
X230000000Y-68750000D03*
%TO.P,U4,4,VS_4*%
%TO.N,B+*%
X230000000Y-69250000D03*
%TO.P,U4,5,REG12_5*%
%TO.N,Net-(U4-REG12)*%
X230000000Y-69750000D03*
%TO.P,U4,6,nFAULT_6*%
%TO.N,Net-(U4-nFAULT)*%
X230000000Y-70250000D03*
D12*
%TO.P,U4,7,INH1/IN1_7*%
%TO.N,INH1_M4*%
X230750000Y-71000000D03*
%TO.P,U4,8,INH2/IN2_8*%
%TO.N,INH2_M4*%
X231250000Y-71000000D03*
%TO.P,U4,9,INH3/IN3_9*%
%TO.N,INH3_M4*%
X231750000Y-71000000D03*
%TO.P,U4,10,INL1/EN1_10*%
%TO.N,EN1_M4*%
X232250000Y-71000000D03*
%TO.P,U4,11,INL2/EN2_11*%
%TO.N,EN2_M4*%
X232750000Y-71000000D03*
%TO.P,U4,12,INL3/EN3_12*%
%TO.N,EN3_M4*%
X233250000Y-71000000D03*
D11*
%TO.P,U4,13,BOOT3_13*%
%TO.N,Net-(U4-BOOT3)*%
X234000000Y-70250000D03*
%TO.P,U4,14,GHS3_14*%
%TO.N,GHS3*%
X234000000Y-69750000D03*
%TO.P,U4,15,OUT3_15*%
%TO.N,OUT3*%
X234000000Y-69250000D03*
%TO.P,U4,16,GLS3_16*%
%TO.N,GLS3*%
X234000000Y-68750000D03*
%TO.P,U4,17,BOOT2_17*%
%TO.N,Net-(U4-BOOT2)*%
X234000000Y-68250000D03*
%TO.P,U4,18,GHS2_18*%
%TO.N,GHS2*%
X234000000Y-67760000D03*
D12*
%TO.P,U4,19,OUT2_19*%
%TO.N,OUT2*%
X233250000Y-67000000D03*
%TO.P,U4,20,GLS2_20*%
%TO.N,GLS2*%
X232750000Y-67000000D03*
%TO.P,U4,21,BOOT1_21*%
%TO.N,Net-(U4-BOOT1)*%
X232250000Y-67000000D03*
%TO.P,U4,22,GHS1_22*%
%TO.N,GHS1*%
X231750000Y-67000000D03*
%TO.P,U4,23,OUT1_23*%
%TO.N,OUT1*%
X231250000Y-67000000D03*
%TO.P,U4,24,GLS1_24*%
%TO.N,GLS1*%
X230750000Y-67000000D03*
D13*
%TO.P,U4,25,EP_25*%
%TO.N,GND*%
X232000000Y-69010000D03*
%TD*%
D14*
%TO.P,J5,1,Pin_1_1*%
%TO.N,OUT2*%
X211600000Y-68370000D03*
%TD*%
%TO.P,J6,1,Pin_1_1*%
%TO.N,OUT3*%
X211600000Y-73870000D03*
%TD*%
D15*
%TO.P,R56,1*%
%TO.N,3V3*%
X227330000Y-61870000D03*
%TO.P,R56,2*%
%TO.N,Net-(U4-SCREF)*%
X227330000Y-62730000D03*
%TD*%
D16*
%TO.P,C28,1*%
%TO.N,PHASE_A_M2*%
X225640000Y-73220000D03*
%TO.P,C28,2*%
%TO.N,GND*%
X225640000Y-72380000D03*
%TD*%
D17*
%TO.P,R29,1*%
%TO.N,Net-(Q11-G)*%
X214780000Y-78100000D03*
%TO.P,R29,2*%
%TO.N,GHS3*%
X215640000Y-78100000D03*
%TD*%
D18*
%TO.P,Q13,1,S_1*%
%TO.N,OUT1*%
X214100000Y-55100000D03*
%TO.P,Q13,2,S_2*%
X214100000Y-56370000D03*
%TO.P,Q13,3,S_3*%
X214100000Y-57630000D03*
%TO.P,Q13,4,G_4*%
%TO.N,Net-(Q13-G)*%
X214100000Y-58900000D03*
%TO.P,Q13,5,D_5*%
%TO.N,B+*%
X219900000Y-58900000D03*
%TO.P,Q13,6,D_6*%
X219900000Y-57640000D03*
%TO.P,Q13,7,D_7*%
X219900000Y-56370000D03*
%TO.P,Q13,8,D_8*%
X219900000Y-55100000D03*
D19*
%TO.P,Q13,9,D_9*%
X217540000Y-57000000D03*
%TD*%
D20*
%TO.P,C37,1*%
%TO.N,OUT1*%
X223740000Y-55690000D03*
%TO.P,C37,2*%
%TO.N,Net-(U8-BOOT1)*%
X224580000Y-55690000D03*
%TD*%
D15*
%TO.P,R35,1*%
%TO.N,PHASE_C_M2*%
X223650000Y-74870000D03*
%TO.P,R35,2*%
%TO.N,OUT3*%
X223650000Y-75730000D03*
%TD*%
D21*
%TO.P,C35,1*%
%TO.N,Net-(U8-REG12)*%
X234880000Y-57600000D03*
%TO.P,C35,2*%
%TO.N,GND*%
X234880000Y-59000000D03*
%TD*%
%TO.P,C56,1*%
%TO.N,B+*%
X238400000Y-70330000D03*
%TO.P,C56,2*%
%TO.N,GND*%
X238400000Y-68930000D03*
%TD*%
D15*
%TO.P,R9,1*%
%TO.N,Net-(Q3-G)*%
X247610000Y-49810000D03*
%TO.P,R9,2*%
%TO.N,GHS2*%
X247610000Y-48950000D03*
%TD*%
D14*
%TO.P,J3,1,Pin_1_1*%
%TO.N,OUT3*%
X248400000Y-46630000D03*
%TD*%
D15*
%TO.P,R65,1*%
%TO.N,Net-(Q23-G)*%
X247470000Y-72800000D03*
%TO.P,R65,2*%
%TO.N,GHS3*%
X247470000Y-71940000D03*
%TD*%
D21*
%TO.P,C25,1*%
%TO.N,B+*%
X221600000Y-62170000D03*
%TO.P,C25,2*%
%TO.N,GND*%
X221600000Y-63570000D03*
%TD*%
D10*
%TO.P,SWCLK_M4,1,Pin_1_1*%
%TO.N,SWCLK_M4*%
X222000000Y-79150000D03*
%TD*%
D15*
%TO.P,R36,1*%
%TO.N,GND*%
X224640000Y-75730000D03*
%TO.P,R36,2*%
%TO.N,PHASE_C_M2*%
X224640000Y-74870000D03*
%TD*%
D21*
%TO.P,C50,1*%
%TO.N,Net-(U4-REG12)*%
X225120000Y-63000000D03*
%TO.P,C50,2*%
%TO.N,GND*%
X225120000Y-61600000D03*
%TD*%
D18*
%TO.P,Q3,1,S_1*%
%TO.N,OUT2*%
X245900000Y-53400000D03*
%TO.P,Q3,2,S_2*%
X245900000Y-52130000D03*
%TO.P,Q3,3,S_3*%
X245900000Y-50870000D03*
%TO.P,Q3,4,G_4*%
%TO.N,Net-(Q3-G)*%
X245900000Y-49600000D03*
%TO.P,Q3,5,D_5*%
%TO.N,B+*%
X240100000Y-49600000D03*
%TO.P,Q3,6,D_6*%
X240100000Y-50860000D03*
%TO.P,Q3,7,D_7*%
X240100000Y-52130000D03*
%TO.P,Q3,8,D_8*%
X240100000Y-53400000D03*
D19*
%TO.P,Q3,9,D_9*%
X242460000Y-51500000D03*
%TD*%
D22*
%TO.P,U5,1,PC15-OSCX_OUT_1*%
%TO.N,unconnected-(U5-PC15-OSCX_OUT-Pad1)*%
X230760000Y-75850000D03*
D23*
%TO.P,U5,2,VDD/VDDA_2*%
%TO.N,3V3*%
X231260000Y-75750000D03*
%TO.P,U5,3,VSS/VSSA_3*%
%TO.N,GND*%
X231760000Y-75750000D03*
%TO.P,U5,4,PF2-NRST_4*%
%TO.N,Net-(U5-PF2-NRST)*%
X232260000Y-75750000D03*
D24*
%TO.P,U5,5,PA0_5*%
%TO.N,unconnected-(U5-PA0-Pad5)*%
X232760000Y-75850000D03*
D25*
%TO.P,U5,6,PA1_6*%
%TO.N,DShot_M4*%
X233310000Y-75300000D03*
D26*
%TO.P,U5,7,PA2_7*%
%TO.N,PHASE_C_M4*%
X233190000Y-74800000D03*
%TO.P,U5,8,PA3_8*%
%TO.N,PHASE_B_M4*%
X233190000Y-74300000D03*
%TO.P,U5,9,PA4_9*%
%TO.N,PHASE_A_M4*%
X233190000Y-73800000D03*
D27*
%TO.P,U5,10,PA5_10*%
%TO.N,EN3_M4*%
X233310000Y-73300000D03*
D28*
%TO.P,U5,11,PA6_11*%
%TO.N,EN2_M4*%
X232760000Y-72750000D03*
D23*
%TO.P,U5,12,PA7_12*%
%TO.N,EN1_M4*%
X232260000Y-72850000D03*
%TO.P,U5,13,PA8_13*%
%TO.N,INH3_M4*%
X231760000Y-72850000D03*
%TO.P,U5,14,PA11[PA9]_14*%
%TO.N,INH2_M4*%
X231260000Y-72850000D03*
D29*
%TO.P,U5,15,PA12[PA10]_15*%
%TO.N,INH1_M4*%
X230760000Y-72750000D03*
D30*
%TO.P,U5,16,PA13_16*%
%TO.N,SWDIO_M4*%
X230190000Y-73300000D03*
D26*
%TO.P,U5,17,PA14-BOOT0_17*%
%TO.N,SWCLK_M4*%
X230310000Y-73800000D03*
%TO.P,U5,18,PB6_18*%
%TO.N,unconnected-(U5-PB6-Pad18)*%
X230310000Y-74300000D03*
%TO.P,U5,19,PB7_19*%
%TO.N,unconnected-(U5-PB7-Pad19)*%
X230310000Y-74800000D03*
D31*
%TO.P,U5,20,PC14-OSCX_IN_20*%
%TO.N,unconnected-(U5-PC14-OSCX_IN-Pad20)*%
X230190000Y-75300000D03*
%TD*%
D32*
%TO.P,J9,1,Pin_1_1*%
%TO.N,OUT3*%
X211600000Y-45370000D03*
%TD*%
D18*
%TO.P,Q15,1,S_1*%
%TO.N,OUT2*%
X214100000Y-49600000D03*
%TO.P,Q15,2,S_2*%
X214100000Y-50870000D03*
%TO.P,Q15,3,S_3*%
X214100000Y-52130000D03*
%TO.P,Q15,4,G_4*%
%TO.N,Net-(Q15-G)*%
X214100000Y-53400000D03*
%TO.P,Q15,5,D_5*%
%TO.N,B+*%
X219900000Y-53400000D03*
%TO.P,Q15,6,D_6*%
X219900000Y-52140000D03*
%TO.P,Q15,7,D_7*%
X219900000Y-50870000D03*
%TO.P,Q15,8,D_8*%
X219900000Y-49600000D03*
D19*
%TO.P,Q15,9,D_9*%
X217540000Y-51500000D03*
%TD*%
D21*
%TO.P,C10,1*%
%TO.N,B+*%
X238400000Y-47330000D03*
%TO.P,C10,2*%
%TO.N,GND*%
X238400000Y-45930000D03*
%TD*%
D15*
%TO.P,R13,1*%
%TO.N,PHASE_A_M1*%
X236600000Y-46320000D03*
%TO.P,R13,2*%
%TO.N,OUT1*%
X236600000Y-47180000D03*
%TD*%
D18*
%TO.P,Q21,1,S_1*%
%TO.N,OUT2*%
X245900000Y-70900000D03*
%TO.P,Q21,2,S_2*%
X245900000Y-69630000D03*
%TO.P,Q21,3,S_3*%
X245900000Y-68370000D03*
%TO.P,Q21,4,G_4*%
%TO.N,Net-(Q21-G)*%
X245900000Y-67100000D03*
%TO.P,Q21,5,D_5*%
%TO.N,B+*%
X240100000Y-67100000D03*
%TO.P,Q21,6,D_6*%
X240100000Y-68360000D03*
%TO.P,Q21,7,D_7*%
X240100000Y-69630000D03*
%TO.P,Q21,8,D_8*%
X240100000Y-70900000D03*
D19*
%TO.P,Q21,9,D_9*%
X242460000Y-69000000D03*
%TD*%
D16*
%TO.P,C39,1*%
%TO.N,OUT3*%
X225620000Y-48450000D03*
%TO.P,C39,2*%
%TO.N,Net-(U8-BOOT3)*%
X225620000Y-49290000D03*
%TD*%
D15*
%TO.P,R47,1*%
%TO.N,Net-(Q17-G)*%
X212580000Y-47670000D03*
%TO.P,R47,2*%
%TO.N,GHS3*%
X212580000Y-48530000D03*
%TD*%
D21*
%TO.P,C42,1*%
%TO.N,B+*%
X221600000Y-44670000D03*
%TO.P,C42,2*%
%TO.N,GND*%
X221600000Y-46070000D03*
%TD*%
%TO.P,C27,1*%
%TO.N,B+*%
X221600000Y-73170000D03*
%TO.P,C27,2*%
%TO.N,GND*%
X221600000Y-74570000D03*
%TD*%
D18*
%TO.P,Q11,1,S_1*%
%TO.N,OUT3*%
X214100000Y-72600000D03*
%TO.P,Q11,2,S_2*%
X214100000Y-73870000D03*
%TO.P,Q11,3,S_3*%
X214100000Y-75130000D03*
%TO.P,Q11,4,G_4*%
%TO.N,Net-(Q11-G)*%
X214100000Y-76400000D03*
%TO.P,Q11,5,D_5*%
%TO.N,B+*%
X219900000Y-76400000D03*
%TO.P,Q11,6,D_6*%
X219900000Y-75140000D03*
%TO.P,Q11,7,D_7*%
X219900000Y-73870000D03*
%TO.P,Q11,8,D_8*%
X219900000Y-72600000D03*
D19*
%TO.P,Q11,9,D_9*%
X217540000Y-74500000D03*
%TD*%
D21*
%TO.P,C40,1*%
%TO.N,B+*%
X221600000Y-55670000D03*
%TO.P,C40,2*%
%TO.N,GND*%
X221600000Y-57070000D03*
%TD*%
%TO.P,C57,1*%
%TO.N,B+*%
X238400000Y-64830000D03*
%TO.P,C57,2*%
%TO.N,GND*%
X238400000Y-63430000D03*
%TD*%
D15*
%TO.P,R14,1*%
%TO.N,GND*%
X235600000Y-47180000D03*
%TO.P,R14,2*%
%TO.N,PHASE_A_M1*%
X235600000Y-46320000D03*
%TD*%
D32*
%TO.P,J8,1,Pin_1_1*%
%TO.N,OUT2*%
X211600000Y-50870000D03*
%TD*%
D15*
%TO.P,R59,1*%
%TO.N,Net-(U4-DT{slash}MODE)*%
X229500000Y-62730000D03*
%TO.P,R59,2*%
%TO.N,GND*%
X229500000Y-61870000D03*
%TD*%
%TO.P,R40,1*%
%TO.N,GND*%
X229500000Y-58730000D03*
%TO.P,R40,2*%
%TO.N,Net-(U8-CP)*%
X229500000Y-57870000D03*
%TD*%
%TO.P,R25,1*%
%TO.N,Net-(Q7-G)*%
X212540000Y-65160000D03*
%TO.P,R25,2*%
%TO.N,GHS1*%
X212540000Y-66020000D03*
%TD*%
%TO.P,R39,1*%
%TO.N,Net-(U8-SCREF)*%
X231670000Y-57870000D03*
%TO.P,R39,2*%
%TO.N,GND*%
X231670000Y-58730000D03*
%TD*%
D18*
%TO.P,Q17,1,S_1*%
%TO.N,OUT3*%
X214100000Y-44100000D03*
%TO.P,Q17,2,S_2*%
X214100000Y-45370000D03*
%TO.P,Q17,3,S_3*%
X214100000Y-46630000D03*
%TO.P,Q17,4,G_4*%
%TO.N,Net-(Q17-G)*%
X214100000Y-47900000D03*
%TO.P,Q17,5,D_5*%
%TO.N,B+*%
X219900000Y-47900000D03*
%TO.P,Q17,6,D_6*%
X219900000Y-46640000D03*
%TO.P,Q17,7,D_7*%
X219900000Y-45370000D03*
%TO.P,Q17,8,D_8*%
X219900000Y-44100000D03*
D19*
%TO.P,Q17,9,D_9*%
X217540000Y-46000000D03*
%TD*%
D15*
%TO.P,R37,1*%
%TO.N,Net-(U9-PF2-NRST)*%
X226440000Y-42640000D03*
%TO.P,R37,2*%
%TO.N,3V3*%
X226440000Y-41780000D03*
%TD*%
D20*
%TO.P,C14,1*%
%TO.N,PHASE_B_M1*%
X233420000Y-44800000D03*
%TO.P,C14,2*%
%TO.N,GND*%
X232580000Y-44800000D03*
%TD*%
D10*
%TO.P,3V3,1,Pin_1_1*%
%TO.N,3V3*%
X220000000Y-40850000D03*
%TD*%
%TO.P,SWDIO_M3,1,Pin_1_1*%
%TO.N,SWDIO_M3*%
X240000000Y-40850000D03*
%TD*%
D17*
%TO.P,R34,1*%
%TO.N,GND*%
X228130000Y-74280000D03*
%TO.P,R34,2*%
%TO.N,PHASE_B_M2*%
X227270000Y-74280000D03*
%TD*%
D15*
%TO.P,R41,1*%
%TO.N,Net-(U8-DT{slash}MODE)*%
X230500000Y-57870000D03*
%TO.P,R41,2*%
%TO.N,GND*%
X230500000Y-58730000D03*
%TD*%
D16*
%TO.P,C34,1*%
%TO.N,B+*%
X233670000Y-57880000D03*
%TO.P,C34,2*%
%TO.N,GND*%
X233670000Y-58720000D03*
%TD*%
D15*
%TO.P,R60,1*%
%TO.N,Net-(U4-nFAULT)*%
X229450000Y-71250000D03*
%TO.P,R60,2*%
%TO.N,3V3*%
X229450000Y-72110000D03*
%TD*%
D14*
%TO.P,J10,1,Pin_1_1*%
%TO.N,OUT1*%
X248400000Y-64220000D03*
%TD*%
D21*
%TO.P,C55,1*%
%TO.N,B+*%
X238400000Y-75830000D03*
%TO.P,C55,2*%
%TO.N,GND*%
X238400000Y-74430000D03*
%TD*%
%TO.P,C12,1*%
%TO.N,B+*%
X238400000Y-58330000D03*
%TO.P,C12,2*%
%TO.N,GND*%
X238400000Y-56930000D03*
%TD*%
%TO.P,C26,1*%
%TO.N,B+*%
X221600000Y-67670000D03*
%TO.P,C26,2*%
%TO.N,GND*%
X221600000Y-69070000D03*
%TD*%
D18*
%TO.P,Q9,1,S_1*%
%TO.N,OUT2*%
X214100000Y-67100000D03*
%TO.P,Q9,2,S_2*%
X214100000Y-68370000D03*
%TO.P,Q9,3,S_3*%
X214100000Y-69630000D03*
%TO.P,Q9,4,G_4*%
%TO.N,Net-(Q9-G)*%
X214100000Y-70900000D03*
%TO.P,Q9,5,D_5*%
%TO.N,B+*%
X219900000Y-70900000D03*
%TO.P,Q9,6,D_6*%
X219900000Y-69640000D03*
%TO.P,Q9,7,D_7*%
X219900000Y-68370000D03*
%TO.P,Q9,8,D_8*%
X219900000Y-67100000D03*
D19*
%TO.P,Q9,9,D_9*%
X217540000Y-69000000D03*
%TD*%
D10*
%TO.P,SWCLK_M3,1,Pin_1_1*%
%TO.N,SWCLK_M3*%
X238000000Y-40850000D03*
%TD*%
D20*
%TO.P,C29,1*%
%TO.N,PHASE_B_M2*%
X227280000Y-75280000D03*
%TO.P,C29,2*%
%TO.N,GND*%
X228120000Y-75280000D03*
%TD*%
D18*
%TO.P,Q19,1,S_1*%
%TO.N,OUT1*%
X245900000Y-65400000D03*
%TO.P,Q19,2,S_2*%
X245900000Y-64130000D03*
%TO.P,Q19,3,S_3*%
X245900000Y-62870000D03*
%TO.P,Q19,4,G_4*%
%TO.N,Net-(Q19-G)*%
X245900000Y-61600000D03*
%TO.P,Q19,5,D_5*%
%TO.N,B+*%
X240100000Y-61600000D03*
%TO.P,Q19,6,D_6*%
X240100000Y-62860000D03*
%TO.P,Q19,7,D_7*%
X240100000Y-64130000D03*
%TO.P,Q19,8,D_8*%
X240100000Y-65400000D03*
D19*
%TO.P,Q19,9,D_9*%
X242460000Y-63500000D03*
%TD*%
D15*
%TO.P,R31,1*%
%TO.N,PHASE_A_M2*%
X223650000Y-73230000D03*
%TO.P,R31,2*%
%TO.N,OUT1*%
X223650000Y-72370000D03*
%TD*%
D21*
%TO.P,C36,1*%
%TO.N,Net-(U8-REG12)*%
X236300000Y-57600000D03*
%TO.P,C36,2*%
%TO.N,GND*%
X236300000Y-59000000D03*
%TD*%
D16*
%TO.P,C49,1*%
%TO.N,B+*%
X226330000Y-62720000D03*
%TO.P,C49,2*%
%TO.N,GND*%
X226330000Y-61880000D03*
%TD*%
D17*
%TO.P,R15,1*%
%TO.N,PHASE_B_M1*%
X233430000Y-46800000D03*
%TO.P,R15,2*%
%TO.N,OUT2*%
X232570000Y-46800000D03*
%TD*%
D16*
%TO.P,C31,1*%
%TO.N,Net-(U9-PF2-NRST)*%
X227430000Y-42620000D03*
%TO.P,C31,2*%
%TO.N,GND*%
X227430000Y-41780000D03*
%TD*%
%TO.P,C15,1*%
%TO.N,PHASE_C_M1*%
X234600000Y-44420000D03*
%TO.P,C15,2*%
%TO.N,GND*%
X234600000Y-43580000D03*
%TD*%
D14*
%TO.P,J4,1,Pin_1_1*%
%TO.N,OUT1*%
X211600000Y-62870000D03*
%TD*%
D15*
%TO.P,R58,1*%
%TO.N,GND*%
X230500000Y-61870000D03*
%TO.P,R58,2*%
%TO.N,Net-(U4-CP)*%
X230500000Y-62730000D03*
%TD*%
D20*
%TO.P,C32,1*%
%TO.N,3V3*%
X229220000Y-42740000D03*
%TO.P,C32,2*%
%TO.N,GND*%
X228380000Y-42740000D03*
%TD*%
D18*
%TO.P,Q1,1,S_1*%
%TO.N,OUT1*%
X245900000Y-58900000D03*
%TO.P,Q1,2,S_2*%
X245900000Y-57630000D03*
%TO.P,Q1,3,S_3*%
X245900000Y-56370000D03*
%TO.P,Q1,4,G_4*%
%TO.N,Net-(Q1-G)*%
X245900000Y-55100000D03*
%TO.P,Q1,5,D_5*%
%TO.N,B+*%
X240100000Y-55100000D03*
%TO.P,Q1,6,D_6*%
X240100000Y-56360000D03*
%TO.P,Q1,7,D_7*%
X240100000Y-57630000D03*
%TO.P,Q1,8,D_8*%
X240100000Y-58900000D03*
D19*
%TO.P,Q1,9,D_9*%
X242460000Y-57000000D03*
%TD*%
D20*
%TO.P,C33,1*%
%TO.N,3V3*%
X229220000Y-41750000D03*
%TO.P,C33,2*%
%TO.N,GND*%
X228380000Y-41750000D03*
%TD*%
D16*
%TO.P,C53,1*%
%TO.N,OUT2*%
X236420000Y-67310000D03*
%TO.P,C53,2*%
%TO.N,Net-(U4-BOOT2)*%
X236420000Y-68150000D03*
%TD*%
D15*
%TO.P,R17,1*%
%TO.N,PHASE_C_M1*%
X236600000Y-44430000D03*
%TO.P,R17,2*%
%TO.N,OUT3*%
X236600000Y-43570000D03*
%TD*%
D18*
%TO.P,Q23,1,S_1*%
%TO.N,OUT3*%
X245900000Y-76400000D03*
%TO.P,Q23,2,S_2*%
X245900000Y-75130000D03*
%TO.P,Q23,3,S_3*%
X245900000Y-73870000D03*
%TO.P,Q23,4,G_4*%
%TO.N,Net-(Q23-G)*%
X245900000Y-72600000D03*
%TO.P,Q23,5,D_5*%
%TO.N,B+*%
X240100000Y-72600000D03*
%TO.P,Q23,6,D_6*%
X240100000Y-73860000D03*
%TO.P,Q23,7,D_7*%
X240100000Y-75130000D03*
%TO.P,Q23,8,D_8*%
X240100000Y-76400000D03*
D19*
%TO.P,Q23,9,D_9*%
X242460000Y-74500000D03*
%TD*%
D14*
%TO.P,J11,1,Pin_1_1*%
%TO.N,OUT2*%
X248400000Y-69640000D03*
%TD*%
D17*
%TO.P,R33,1*%
%TO.N,PHASE_B_M2*%
X227270000Y-73300000D03*
%TO.P,R33,2*%
%TO.N,OUT2*%
X228130000Y-73300000D03*
%TD*%
%TO.P,R16,1*%
%TO.N,GND*%
X232570000Y-45790000D03*
%TO.P,R16,2*%
%TO.N,PHASE_B_M1*%
X233430000Y-45790000D03*
%TD*%
D15*
%TO.P,R38,1*%
%TO.N,3V3*%
X232670000Y-58730000D03*
%TO.P,R38,2*%
%TO.N,Net-(U8-SCREF)*%
X232670000Y-57870000D03*
%TD*%
D14*
%TO.P,J2,1,Pin_1_1*%
%TO.N,OUT2*%
X248400000Y-52130000D03*
%TD*%
D15*
%TO.P,R55,1*%
%TO.N,Net-(U5-PF2-NRST)*%
X233460000Y-77270000D03*
%TO.P,R55,2*%
%TO.N,3V3*%
X233460000Y-78130000D03*
%TD*%
D21*
%TO.P,C11,1*%
%TO.N,B+*%
X238400000Y-52830000D03*
%TO.P,C11,2*%
%TO.N,GND*%
X238400000Y-51430000D03*
%TD*%
D16*
%TO.P,C54,1*%
%TO.N,OUT3*%
X234670000Y-71920000D03*
%TO.P,C54,2*%
%TO.N,Net-(U4-BOOT3)*%
X234670000Y-71080000D03*
%TD*%
D10*
%TO.P,SWDIO_M4,1,Pin_1_1*%
%TO.N,SWDIO_M4*%
X220000000Y-79150000D03*
%TD*%
D20*
%TO.P,C48,1*%
%TO.N,3V3*%
X230680000Y-77220000D03*
%TO.P,C48,2*%
%TO.N,GND*%
X231520000Y-77220000D03*
%TD*%
D18*
%TO.P,Q5,1,S_1*%
%TO.N,OUT3*%
X245900000Y-47900000D03*
%TO.P,Q5,2,S_2*%
X245900000Y-46630000D03*
%TO.P,Q5,3,S_3*%
X245900000Y-45370000D03*
%TO.P,Q5,4,G_4*%
%TO.N,Net-(Q5-G)*%
X245900000Y-44100000D03*
%TO.P,Q5,5,D_5*%
%TO.N,B+*%
X240100000Y-44100000D03*
%TO.P,Q5,6,D_6*%
X240100000Y-45360000D03*
%TO.P,Q5,7,D_7*%
X240100000Y-46630000D03*
%TO.P,Q5,8,D_8*%
X240100000Y-47900000D03*
D19*
%TO.P,Q5,9,D_9*%
X242460000Y-46000000D03*
%TD*%
D15*
%TO.P,R61,1*%
%TO.N,Net-(Q19-G)*%
X247540000Y-61960000D03*
%TO.P,R61,2*%
%TO.N,GHS1*%
X247540000Y-61100000D03*
%TD*%
D10*
%TO.P,DShot_M3,1,Pin_1_1*%
%TO.N,DShot_M3*%
X222000000Y-40850000D03*
%TD*%
D32*
%TO.P,POWER_IN1,1,Pin_1_1*%
%TO.N,B+*%
X232000000Y-83000000D03*
%TO.P,POWER_IN1,2,Pin_2_2*%
%TO.N,GND*%
X228000000Y-83000000D03*
%TD*%
D21*
%TO.P,C41,1*%
%TO.N,B+*%
X221600000Y-50170000D03*
%TO.P,C41,2*%
%TO.N,GND*%
X221600000Y-51570000D03*
%TD*%
D15*
%TO.P,R57,1*%
%TO.N,Net-(U4-SCREF)*%
X228330000Y-62730000D03*
%TO.P,R57,2*%
%TO.N,GND*%
X228330000Y-61870000D03*
%TD*%
%TO.P,R45,1*%
%TO.N,Net-(Q15-G)*%
X212580000Y-53160000D03*
%TO.P,R45,2*%
%TO.N,GHS2*%
X212580000Y-54020000D03*
%TD*%
D33*
%TO.P,C0,1,1_1*%
%TO.N,GND*%
X232500000Y-83050000D03*
%TO.P,C0,2,2_2*%
%TO.N,B+*%
X227500000Y-83050000D03*
%TD*%
D20*
%TO.P,C47,1*%
%TO.N,3V3*%
X230680000Y-78220000D03*
%TO.P,C47,2*%
%TO.N,GND*%
X231520000Y-78220000D03*
%TD*%
D15*
%TO.P,R43,1*%
%TO.N,Net-(Q13-G)*%
X212580000Y-58930000D03*
%TO.P,R43,2*%
%TO.N,GHS1*%
X212580000Y-59790000D03*
%TD*%
D14*
%TO.P,J1,1,Pin_1_1*%
%TO.N,OUT1*%
X248400000Y-57630000D03*
%TD*%
%TO.P,J12,1,Pin_1_1*%
%TO.N,OUT3*%
X248400000Y-75090000D03*
%TD*%
D15*
%TO.P,R7,1*%
%TO.N,Net-(Q1-G)*%
X247610000Y-55310000D03*
%TO.P,R7,2*%
%TO.N,GHS1*%
X247610000Y-54450000D03*
%TD*%
D11*
%TO.P,U8,1,CP_1*%
%TO.N,Net-(U8-CP)*%
X230000000Y-52750000D03*
%TO.P,U8,2,DT/MODE_2*%
%TO.N,Net-(U8-DT{slash}MODE)*%
X230000000Y-52250000D03*
%TO.P,U8,3,SCREF_3*%
%TO.N,Net-(U8-SCREF)*%
X230000000Y-51750000D03*
%TO.P,U8,4,VS_4*%
%TO.N,B+*%
X230000000Y-51250000D03*
%TO.P,U8,5,REG12_5*%
%TO.N,Net-(U8-REG12)*%
X230000000Y-50750000D03*
%TO.P,U8,6,nFAULT_6*%
%TO.N,Net-(U8-nFAULT)*%
X230000000Y-50250000D03*
D12*
%TO.P,U8,7,INH1/IN1_7*%
%TO.N,INH1_M3*%
X229250000Y-49500000D03*
%TO.P,U8,8,INH2/IN2_8*%
%TO.N,INH2_M3*%
X228750000Y-49500000D03*
%TO.P,U8,9,INH3/IN3_9*%
%TO.N,INH3_M3*%
X228250000Y-49500000D03*
%TO.P,U8,10,INL1/EN1_10*%
%TO.N,EN1_M3*%
X227750000Y-49500000D03*
%TO.P,U8,11,INL2/EN2_11*%
%TO.N,EN2_M3*%
X227250000Y-49500000D03*
%TO.P,U8,12,INL3/EN3_12*%
%TO.N,EN3_M3*%
X226750000Y-49500000D03*
D11*
%TO.P,U8,13,BOOT3_13*%
%TO.N,Net-(U8-BOOT3)*%
X226000000Y-50250000D03*
%TO.P,U8,14,GHS3_14*%
%TO.N,GHS3*%
X226000000Y-50750000D03*
%TO.P,U8,15,OUT3_15*%
%TO.N,OUT3*%
X226000000Y-51250000D03*
%TO.P,U8,16,GLS3_16*%
%TO.N,GLS3*%
X226000000Y-51750000D03*
%TO.P,U8,17,BOOT2_17*%
%TO.N,Net-(U8-BOOT2)*%
X226000000Y-52250000D03*
%TO.P,U8,18,GHS2_18*%
%TO.N,GHS2*%
X226000000Y-52740000D03*
D12*
%TO.P,U8,19,OUT2_19*%
%TO.N,OUT2*%
X226750000Y-53500000D03*
%TO.P,U8,20,GLS2_20*%
%TO.N,GLS2*%
X227250000Y-53500000D03*
%TO.P,U8,21,BOOT1_21*%
%TO.N,Net-(U8-BOOT1)*%
X227750000Y-53500000D03*
%TO.P,U8,22,GHS1_22*%
%TO.N,GHS1*%
X228250000Y-53500000D03*
%TO.P,U8,23,OUT1_23*%
%TO.N,OUT1*%
X228750000Y-53500000D03*
%TO.P,U8,24,GLS1_24*%
%TO.N,GLS1*%
X229250000Y-53500000D03*
D13*
%TO.P,U8,25,EP_25*%
%TO.N,GND*%
X228000000Y-51490000D03*
%TD*%
D15*
%TO.P,R27,1*%
%TO.N,Net-(Q9-G)*%
X212590000Y-70670000D03*
%TO.P,R27,2*%
%TO.N,GHS2*%
X212590000Y-71530000D03*
%TD*%
%TO.P,R42,1*%
%TO.N,Net-(U8-nFAULT)*%
X231110000Y-49550000D03*
%TO.P,R42,2*%
%TO.N,3V3*%
X231110000Y-48690000D03*
%TD*%
D20*
%TO.P,C38,1*%
%TO.N,OUT2*%
X223550000Y-52420000D03*
%TO.P,C38,2*%
%TO.N,Net-(U8-BOOT2)*%
X224390000Y-52420000D03*
%TD*%
D32*
%TO.P,J7,1,Pin_1_1*%
%TO.N,OUT1*%
X211600000Y-56370000D03*
%TD*%
D16*
%TO.P,C30,1*%
%TO.N,PHASE_C_M2*%
X225640000Y-74880000D03*
%TO.P,C30,2*%
%TO.N,GND*%
X225640000Y-75720000D03*
%TD*%
D20*
%TO.P,C52,1*%
%TO.N,OUT1*%
X235990000Y-64900000D03*
%TO.P,C52,2*%
%TO.N,Net-(U4-BOOT1)*%
X235150000Y-64900000D03*
%TD*%
D15*
%TO.P,R32,1*%
%TO.N,GND*%
X224640000Y-72370000D03*
%TO.P,R32,2*%
%TO.N,PHASE_A_M2*%
X224640000Y-73230000D03*
%TD*%
D16*
%TO.P,C46,1*%
%TO.N,Net-(U5-PF2-NRST)*%
X232470000Y-77280000D03*
%TO.P,C46,2*%
%TO.N,GND*%
X232470000Y-78120000D03*
%TD*%
D21*
%TO.P,C51,1*%
%TO.N,Net-(U4-REG12)*%
X223700000Y-63000000D03*
%TO.P,C51,2*%
%TO.N,GND*%
X223700000Y-61600000D03*
%TD*%
D16*
%TO.P,C13,1*%
%TO.N,PHASE_A_M1*%
X234600000Y-46330000D03*
%TO.P,C13,2*%
%TO.N,GND*%
X234600000Y-47170000D03*
%TD*%
D17*
%TO.P,R11,1*%
%TO.N,Net-(Q5-G)*%
X244680000Y-42440000D03*
%TO.P,R11,2*%
%TO.N,GHS3*%
X243820000Y-42440000D03*
%TD*%
D18*
%TO.P,Q7,1,S_1*%
%TO.N,OUT1*%
X214100000Y-61600000D03*
%TO.P,Q7,2,S_2*%
X214100000Y-62870000D03*
%TO.P,Q7,3,S_3*%
X214100000Y-64130000D03*
%TO.P,Q7,4,G_4*%
%TO.N,Net-(Q7-G)*%
X214100000Y-65400000D03*
%TO.P,Q7,5,D_5*%
%TO.N,B+*%
X219900000Y-65400000D03*
%TO.P,Q7,6,D_6*%
X219900000Y-64140000D03*
%TO.P,Q7,7,D_7*%
X219900000Y-62870000D03*
%TO.P,Q7,8,D_8*%
X219900000Y-61600000D03*
D19*
%TO.P,Q7,9,D_9*%
X217540000Y-63500000D03*
%TD*%
D34*
%TO.P,U9,1,PC15-OSCX_OUT_1*%
%TO.N,unconnected-(U9-PC15-OSCX_OUT-Pad1)*%
X229240000Y-44710000D03*
D23*
%TO.P,U9,2,VDD/VDDA_2*%
%TO.N,3V3*%
X228740000Y-44810000D03*
%TO.P,U9,3,VSS/VSSA_3*%
%TO.N,GND*%
X228240000Y-44810000D03*
%TO.P,U9,4,PF2-NRST_4*%
%TO.N,Net-(U9-PF2-NRST)*%
X227740000Y-44810000D03*
D35*
%TO.P,U9,5,PA0_5*%
%TO.N,unconnected-(U9-PA0-Pad5)*%
X227240000Y-44710000D03*
D36*
%TO.P,U9,6,PA1_6*%
%TO.N,DShot_M3*%
X226690000Y-45260000D03*
D26*
%TO.P,U9,7,PA2_7*%
%TO.N,PHASE_C_M3*%
X226810000Y-45760000D03*
%TO.P,U9,8,PA3_8*%
%TO.N,PHASE_B_M3*%
X226810000Y-46260000D03*
%TO.P,U9,9,PA4_9*%
%TO.N,PHASE_A_M3*%
X226810000Y-46760000D03*
D37*
%TO.P,U9,10,PA5_10*%
%TO.N,EN3_M3*%
X226690000Y-47260000D03*
D38*
%TO.P,U9,11,PA6_11*%
%TO.N,EN2_M3*%
X227240000Y-47810000D03*
D23*
%TO.P,U9,12,PA7_12*%
%TO.N,EN1_M3*%
X227740000Y-47710000D03*
%TO.P,U9,13,PA8_13*%
%TO.N,INH3_M3*%
X228240000Y-47710000D03*
%TO.P,U9,14,PA11[PA9]_14*%
%TO.N,INH2_M3*%
X228740000Y-47710000D03*
D39*
%TO.P,U9,15,PA12[PA10]_15*%
%TO.N,INH1_M3*%
X229240000Y-47810000D03*
D40*
%TO.P,U9,16,PA13_16*%
%TO.N,SWDIO_M3*%
X229810000Y-47260000D03*
D26*
%TO.P,U9,17,PA14-BOOT0_17*%
%TO.N,SWCLK_M3*%
X229690000Y-46760000D03*
%TO.P,U9,18,PB6_18*%
%TO.N,unconnected-(U9-PB6-Pad18)*%
X229690000Y-46260000D03*
%TO.P,U9,19,PB7_19*%
%TO.N,unconnected-(U9-PB7-Pad19)*%
X229690000Y-45760000D03*
D41*
%TO.P,U9,20,PC14-OSCX_IN_20*%
%TO.N,unconnected-(U9-PC14-OSCX_IN-Pad20)*%
X229810000Y-45260000D03*
%TD*%
D15*
%TO.P,R63,1*%
%TO.N,Net-(Q21-G)*%
X247510000Y-67380000D03*
%TO.P,R63,2*%
%TO.N,GHS2*%
X247510000Y-66520000D03*
%TD*%
%TO.P,R18,1*%
%TO.N,GND*%
X235600000Y-43570000D03*
%TO.P,R18,2*%
%TO.N,PHASE_C_M1*%
X235600000Y-44430000D03*
%TD*%
D42*
%TO.N,B+*%
X237850000Y-47820000D03*
X222130000Y-44710000D03*
X221000000Y-55990000D03*
X222130000Y-50250000D03*
X221600000Y-55990000D03*
X231130000Y-81200000D03*
X237850000Y-52690000D03*
X237850000Y-70870000D03*
X221000000Y-50539998D03*
X221600000Y-72320000D03*
X239000000Y-71200000D03*
X221000000Y-54790000D03*
X238390000Y-75548595D03*
X221000000Y-49940000D03*
X239000000Y-46910000D03*
X233670000Y-57880000D03*
X239000000Y-70600000D03*
X221600000Y-66850000D03*
X237850000Y-53290000D03*
X221600000Y-44410000D03*
X237840000Y-58780000D03*
X238400000Y-57890000D03*
X232930000Y-81200000D03*
X222150000Y-61650000D03*
X222150000Y-55690000D03*
X221600000Y-68051405D03*
X237850000Y-47210000D03*
X221600000Y-45010000D03*
X238400000Y-71180000D03*
X237840000Y-75840000D03*
X238400000Y-69978595D03*
X238400000Y-59090000D03*
X239000000Y-53000000D03*
X239000000Y-59090000D03*
X221600000Y-55390000D03*
X239000000Y-58490000D03*
X238400000Y-65100000D03*
X237840000Y-65390000D03*
X238400000Y-58490000D03*
X221600000Y-62541405D03*
X226330000Y-57880000D03*
X237840000Y-76440000D03*
X221600000Y-43810000D03*
X239000000Y-53600000D03*
X238400000Y-47510000D03*
X232330000Y-81200000D03*
X239000000Y-70000000D03*
X238400000Y-52400000D03*
X239000000Y-47510000D03*
X238400000Y-46910000D03*
X221000000Y-49340000D03*
X239000000Y-52400002D03*
X239000000Y-65100000D03*
X221600000Y-54790000D03*
X221000000Y-44999998D03*
X221000000Y-43800000D03*
X238990000Y-75570000D03*
X222140000Y-55090000D03*
X221000000Y-73500000D03*
X221600000Y-49940000D03*
X233530000Y-81200000D03*
X238400000Y-70570000D03*
X221000000Y-72300000D03*
X221600000Y-49340000D03*
X222150000Y-67760000D03*
X222150000Y-72630000D03*
X238990000Y-76170000D03*
X238400000Y-53000000D03*
X222150000Y-67160000D03*
X222150000Y-62250000D03*
X221600000Y-50540000D03*
X237840000Y-58180000D03*
X238390000Y-76750000D03*
X221000000Y-68030000D03*
X221000000Y-55390000D03*
X222150000Y-73230000D03*
X238990000Y-76770000D03*
X221600000Y-61340000D03*
X222130000Y-49650000D03*
X238390000Y-76140000D03*
X221600000Y-61950000D03*
X238400000Y-48110000D03*
X221600000Y-73521405D03*
X238400000Y-65700000D03*
X230530000Y-81200000D03*
X222130000Y-44110000D03*
X237840000Y-64790000D03*
X221600000Y-72930000D03*
X221000000Y-72900000D03*
X239000000Y-48110000D03*
X231730000Y-81200000D03*
X238400000Y-53600000D03*
X237850000Y-70270000D03*
X221000000Y-62520000D03*
X239000000Y-64500002D03*
X239000000Y-65700000D03*
X239000000Y-57890002D03*
X221000000Y-44400000D03*
X221000000Y-61920000D03*
X221000000Y-61320000D03*
X221600000Y-67460000D03*
X233670000Y-62720000D03*
X226330000Y-62720000D03*
X221000000Y-66830000D03*
X221000000Y-67430000D03*
X238400000Y-64500000D03*
%TO.N,GHS3*%
X215640000Y-78100000D03*
X243820000Y-42440000D03*
%TO.N,OUT3*%
X212710000Y-44480000D03*
X211610000Y-72960000D03*
X248460000Y-74160000D03*
X248400000Y-47500000D03*
X235610000Y-48860000D03*
X247310000Y-74160000D03*
X224740000Y-69350000D03*
X249330000Y-47500000D03*
X247310000Y-75090000D03*
X211600000Y-74780000D03*
X249520000Y-75090000D03*
X210500000Y-44480000D03*
X212710000Y-72960000D03*
X211600000Y-73870000D03*
X210500000Y-46260000D03*
X233910000Y-71815754D03*
X247510000Y-45700000D03*
X234213020Y-48196620D03*
X247510000Y-46630000D03*
X211590000Y-46260000D03*
X210500000Y-73870000D03*
X248400000Y-46630000D03*
X212710000Y-46260000D03*
X225620000Y-48450000D03*
X224500735Y-50769265D03*
X211590000Y-44480000D03*
X235091819Y-69350000D03*
X248460000Y-75090000D03*
X248470000Y-76000000D03*
X249520000Y-74160000D03*
X210500000Y-74780000D03*
X210510000Y-72960000D03*
X211600000Y-45370000D03*
X248400000Y-45700000D03*
X247320000Y-76000000D03*
X249530000Y-76000000D03*
X212720000Y-45370000D03*
X247510000Y-47500000D03*
X212700000Y-73870000D03*
X249330000Y-45700000D03*
X212700000Y-74780000D03*
X225340000Y-71629998D03*
X210510000Y-45370000D03*
X249330000Y-46630000D03*
%TO.N,GLS3*%
X223540000Y-49890000D03*
X222040000Y-47900000D03*
X235880000Y-69540000D03*
X237970000Y-72570000D03*
%TO.N,GHS2*%
X212590000Y-71530000D03*
X247610000Y-48950000D03*
%TO.N,OUT2*%
X223550000Y-52420000D03*
X226060000Y-66420000D03*
X249550000Y-51250000D03*
X249550000Y-53030000D03*
X210550000Y-49990000D03*
X249510000Y-70550000D03*
X247300000Y-52130000D03*
X248390000Y-69640000D03*
X224730000Y-67310000D03*
X211600000Y-50870000D03*
X249510000Y-69640000D03*
X210500000Y-68370000D03*
X210500000Y-67470000D03*
X211600000Y-69270000D03*
X210500000Y-69270000D03*
X249550000Y-52130000D03*
X247300000Y-53030000D03*
X234970000Y-53540000D03*
X212700000Y-67470000D03*
X248400000Y-52130000D03*
X248400000Y-53030000D03*
X212700000Y-69270000D03*
X236420000Y-67310000D03*
X249510000Y-68750000D03*
X211600000Y-67470000D03*
X248390000Y-70550000D03*
X247290000Y-68750000D03*
X247290000Y-69640000D03*
X248400000Y-51250000D03*
X212660000Y-49990000D03*
X248390000Y-68750000D03*
X211600000Y-68370000D03*
X235896985Y-51313015D03*
X247300000Y-51250000D03*
X211600000Y-49990000D03*
X211590000Y-51760000D03*
X210540000Y-51760000D03*
X212660000Y-50870000D03*
X210550000Y-50870000D03*
X212650000Y-51760000D03*
X235900000Y-65840000D03*
X247290000Y-70550000D03*
X212700000Y-68370000D03*
X225400000Y-53850000D03*
%TO.N,GLS2*%
X224089264Y-54177794D03*
X222040000Y-53400000D03*
X234844265Y-66005735D03*
X237970000Y-67100000D03*
%TO.N,GHS1*%
X247610000Y-54450000D03*
X212540000Y-66020000D03*
%TO.N,OUT1*%
X211600000Y-62870000D03*
X247350000Y-58540000D03*
X247350000Y-56740000D03*
X225140000Y-65190000D03*
X223945735Y-64425735D03*
X212690000Y-63790000D03*
X248390000Y-63400000D03*
X210490000Y-63790000D03*
X249480000Y-64220000D03*
X247300000Y-64220000D03*
X247300000Y-63400000D03*
X235330000Y-56070000D03*
X210550000Y-56370000D03*
X211600000Y-61980000D03*
X211600000Y-55490000D03*
X248390000Y-65120000D03*
X212700000Y-62870000D03*
X223740000Y-55690000D03*
X247340000Y-57640000D03*
X210500000Y-62870000D03*
X248410000Y-58530000D03*
X238330000Y-60020000D03*
X248410000Y-56730000D03*
X249480000Y-65120000D03*
X212690000Y-57260000D03*
X210550000Y-57260000D03*
X211600000Y-57260000D03*
X210550000Y-55490000D03*
X212690000Y-56370000D03*
X212700000Y-61980000D03*
X249490000Y-57630000D03*
X248390000Y-64220000D03*
X211600000Y-56370000D03*
X212690000Y-55490000D03*
X249500000Y-56730000D03*
X249500000Y-58530000D03*
X248400000Y-57630000D03*
X234610000Y-54860000D03*
X222218220Y-60388782D03*
X211590000Y-63790000D03*
X249480000Y-63400000D03*
X247300000Y-65120000D03*
X235990000Y-64900000D03*
X210500000Y-61980000D03*
%TO.N,GLS1*%
X236961264Y-60014520D03*
X223244265Y-60214265D03*
X222040000Y-58900000D03*
X237970000Y-61600000D03*
%TO.N,GND*%
X228330000Y-61870000D03*
X239000000Y-69200000D03*
X227900003Y-69600000D03*
X221600000Y-47000000D03*
X221000000Y-56800000D03*
X232470000Y-78120000D03*
X221000000Y-74290000D03*
X233670000Y-58720000D03*
X239000000Y-68600000D03*
X228380000Y-41750000D03*
X221000000Y-45800000D03*
X221600000Y-63300000D03*
X238400000Y-74750000D03*
X221000000Y-57400000D03*
X237820000Y-56160000D03*
X228280000Y-81200000D03*
X238400000Y-63070000D03*
X221600000Y-75490000D03*
X222130000Y-64200000D03*
X239000000Y-50400000D03*
X237870000Y-68300000D03*
X221600000Y-51340000D03*
X221000000Y-64500000D03*
X238400000Y-68600000D03*
X235600000Y-43570000D03*
X221600000Y-63900000D03*
X222130000Y-63590000D03*
X239000000Y-56480000D03*
X238400000Y-55880000D03*
X234613067Y-47191458D03*
X232170000Y-74190000D03*
X239000000Y-46100000D03*
X221000000Y-46400000D03*
X238400000Y-57080000D03*
X229500000Y-61870000D03*
X239000000Y-63690000D03*
X221000000Y-70020000D03*
X232049997Y-50830000D03*
X238400000Y-73550000D03*
X237840000Y-62800000D03*
X232130000Y-69530000D03*
X221000000Y-51339410D03*
X225120000Y-59000000D03*
X236450000Y-76120000D03*
X231540000Y-41630000D03*
X231670000Y-61870000D03*
X239000000Y-45500000D03*
X232660000Y-50840000D03*
X238400000Y-74150000D03*
X226330000Y-61880000D03*
X227340109Y-50727965D03*
X239000000Y-51000000D03*
X224500000Y-47500000D03*
X239000000Y-57080000D03*
X221000000Y-57999998D03*
X228530000Y-78250000D03*
X231520000Y-78220000D03*
X238400000Y-63670000D03*
X221000000Y-51940000D03*
X239000000Y-68000000D03*
X232500000Y-41770000D03*
X228130000Y-74280000D03*
X221600000Y-69420000D03*
X221000000Y-47010000D03*
X232730000Y-69530000D03*
X221600000Y-58000000D03*
X222130000Y-57700000D03*
X221000000Y-63900000D03*
X239000000Y-55880000D03*
X221600000Y-56800000D03*
X227250000Y-69600000D03*
X231670000Y-58730000D03*
X237850000Y-45820000D03*
X230500000Y-58730000D03*
X239000000Y-73550000D03*
X227090000Y-81190000D03*
X222130000Y-74580000D03*
X227340000Y-51350000D03*
X231840000Y-45790000D03*
X233670000Y-61880000D03*
X221600000Y-57400000D03*
X221600000Y-45790000D03*
X227680000Y-81200000D03*
X237870000Y-74460000D03*
X238400000Y-68000000D03*
X228330000Y-58730000D03*
X239000000Y-51600000D03*
X239000000Y-62459243D03*
X221600000Y-51940000D03*
X234880000Y-59000000D03*
X238400000Y-51600000D03*
X221000000Y-63300000D03*
X237850000Y-51320000D03*
X222130000Y-57090000D03*
X234880000Y-61600000D03*
X221000000Y-69420000D03*
X238400000Y-62480000D03*
X229480000Y-81200000D03*
X222130000Y-46690000D03*
X222130000Y-52240000D03*
X224560000Y-44070000D03*
X224640000Y-72370000D03*
X227960000Y-50720000D03*
X232730000Y-68910000D03*
X239000000Y-63080000D03*
X227580000Y-78160000D03*
X222130000Y-46080000D03*
X227250000Y-68970000D03*
X237850000Y-45190000D03*
X221600000Y-74290000D03*
X237870000Y-68910000D03*
X221000000Y-68820000D03*
X238400000Y-50400000D03*
X226330000Y-58720000D03*
X221000000Y-52540000D03*
X221600000Y-68820000D03*
X228880000Y-81200000D03*
X237820000Y-56770000D03*
X221600000Y-70020000D03*
X221000000Y-75490000D03*
X226490000Y-81190000D03*
X239000000Y-44900000D03*
X239000000Y-74750000D03*
X239000000Y-74150000D03*
X238400000Y-69200000D03*
X238400000Y-44900000D03*
X238400000Y-45500000D03*
X224640000Y-75730000D03*
X221600000Y-46390000D03*
X232670000Y-51450000D03*
X238400000Y-51000000D03*
X238400000Y-46100000D03*
X221600000Y-52540000D03*
X222130000Y-51640000D03*
X228130000Y-45990000D03*
X237870000Y-73850000D03*
X237830000Y-63390000D03*
X238400000Y-56480000D03*
X222130000Y-69110000D03*
X221600000Y-64500000D03*
X237850000Y-50710000D03*
X221000000Y-74890000D03*
X225120000Y-61600000D03*
X222130000Y-69720000D03*
X227430000Y-41780000D03*
X235460000Y-72470000D03*
X221600000Y-74890000D03*
X222130000Y-75190000D03*
%TO.N,3V3*%
X230680000Y-78220000D03*
X226440000Y-41780000D03*
X226590000Y-78160000D03*
X227330000Y-61870000D03*
X227330000Y-58730000D03*
X218500000Y-41800000D03*
X229370000Y-78250000D03*
X230010000Y-48690000D03*
X232670000Y-58730000D03*
X233510000Y-41760000D03*
X233460000Y-78130000D03*
X229220000Y-41750000D03*
X230700000Y-41630000D03*
X218500000Y-41300000D03*
X232670000Y-61870000D03*
X218500000Y-40800000D03*
X229970000Y-72110000D03*
%TO.N,PHASE_A_M2*%
X225640000Y-73220000D03*
%TO.N,PHASE_C_M2*%
X225640000Y-74880000D03*
%TO.N,PHASE_C_M4*%
X236450000Y-75280000D03*
%TO.N,PHASE_B_M4*%
X234541155Y-74300000D03*
%TO.N,PHASE_A_M4*%
X234460000Y-73320000D03*
%TO.N,PHASE_A_M1*%
X234624265Y-46354265D03*
%TO.N,PHASE_B_M1*%
X235230000Y-45500000D03*
%TO.N,PHASE_B_M2*%
X225230000Y-74050000D03*
%TO.N,PHASE_C_M1*%
X234600000Y-44420000D03*
%TO.N,PHASE_C_M3*%
X225535735Y-44954265D03*
%TO.N,PHASE_B_M3*%
X225038093Y-45867479D03*
%TO.N,PHASE_A_M3*%
X225500000Y-46640000D03*
%TD*%
%TO.N,DShot_M4*%
D43*
X233310000Y-75300000D02*
X233830000Y-75300000D01*
X237680000Y-79150000D02*
X238000000Y-79150000D01*
X233830000Y-75300000D02*
X237680000Y-79150000D01*
%TO.N,Net-(U4-CP)*%
X230000000Y-67750000D02*
X229800000Y-67750000D01*
X229800000Y-67750000D02*
X228900000Y-66850000D01*
X228900000Y-64870000D02*
X230500000Y-63270000D01*
X228900000Y-66850000D02*
X228900000Y-64870000D01*
X230500000Y-63270000D02*
X230500000Y-62730000D01*
%TO.N,Net-(U4-DT{slash}MODE)*%
X230000000Y-68250000D02*
X229617746Y-68250000D01*
X229500000Y-63530000D02*
X229500000Y-62730000D01*
X229617746Y-68250000D02*
X228500000Y-67132254D01*
X228500000Y-64530000D02*
X229500000Y-63530000D01*
X228500000Y-67132254D02*
X228500000Y-64530000D01*
%TO.N,Net-(U4-SCREF)*%
X229552061Y-68750000D02*
X228100000Y-67297939D01*
X227330000Y-62730000D02*
X228330000Y-62730000D01*
X228100000Y-67297939D02*
X228100000Y-64510000D01*
X230000000Y-68750000D02*
X229552061Y-68750000D01*
X227330000Y-63740000D02*
X227330000Y-62730000D01*
X228100000Y-64510000D02*
X227330000Y-63740000D01*
%TO.N,B+*%
X230000000Y-69250000D02*
X229486376Y-69250000D01*
X233670000Y-57100000D02*
X231500000Y-54930000D01*
X231500000Y-54930000D02*
X231500000Y-52236376D01*
X233670000Y-57880000D02*
X233670000Y-57100000D01*
X231500000Y-52236376D02*
X230513624Y-51250000D01*
D44*
X232000000Y-83000000D02*
X232020000Y-83000000D01*
D43*
X230513624Y-51250000D02*
X230000000Y-51250000D01*
X227670000Y-67433624D02*
X227670000Y-64980000D01*
X229486376Y-69250000D02*
X227670000Y-67433624D01*
X226330000Y-63640000D02*
X226330000Y-62720000D01*
X227670000Y-64980000D02*
X226330000Y-63640000D01*
%TO.N,Net-(U4-REG12)*%
X230000000Y-69750000D02*
X229300000Y-69750000D01*
X225120000Y-63000000D02*
X223700000Y-63000000D01*
X227240000Y-67690000D02*
X227240000Y-65150000D01*
X227240000Y-65150000D02*
X225120000Y-63030000D01*
X225120000Y-63030000D02*
X225120000Y-63000000D01*
X229300000Y-69750000D02*
X227240000Y-67690000D01*
%TO.N,Net-(U4-nFAULT)*%
X229450000Y-70450000D02*
X229450000Y-71250000D01*
X229650000Y-70250000D02*
X229450000Y-70450000D01*
X230000000Y-70250000D02*
X229650000Y-70250000D01*
%TO.N,INH1_M4*%
X230750000Y-72740000D02*
X230760000Y-72750000D01*
X230750000Y-71000000D02*
X230750000Y-72740000D01*
%TO.N,INH2_M4*%
X231250000Y-71000000D02*
X231271384Y-71021384D01*
X231271384Y-71021384D02*
X231271384Y-72850000D01*
%TO.N,INH3_M4*%
X231750000Y-71000000D02*
X231750000Y-72840000D01*
X231750000Y-72840000D02*
X231760000Y-72850000D01*
%TO.N,EN1_M4*%
X232250000Y-71000000D02*
X232248438Y-71001562D01*
X232248438Y-71001562D02*
X232248438Y-72850000D01*
%TO.N,EN2_M4*%
X232750000Y-71000000D02*
X232750000Y-72740000D01*
X232750000Y-72740000D02*
X232760000Y-72750000D01*
%TO.N,EN3_M4*%
X233310000Y-71810000D02*
X233310000Y-73300000D01*
X233250000Y-71000000D02*
X233250000Y-71750000D01*
X233250000Y-71750000D02*
X233310000Y-71810000D01*
%TO.N,Net-(U4-BOOT3)*%
X234000000Y-70250000D02*
X234320000Y-70250000D01*
X234320000Y-70250000D02*
X234670000Y-70600000D01*
X234670000Y-70600000D02*
X234670000Y-71080000D01*
%TO.N,GHS3*%
X225330000Y-50750000D02*
X223180000Y-48600000D01*
X234000000Y-69750000D02*
X234643290Y-69750000D01*
X236693290Y-71800000D02*
X247330000Y-71800000D01*
X247330000Y-71800000D02*
X247470000Y-71940000D01*
X223180000Y-48600000D02*
X212650000Y-48600000D01*
X226000000Y-50750000D02*
X225330000Y-50750000D01*
X234643290Y-69750000D02*
X236693290Y-71800000D01*
X212650000Y-48600000D02*
X212580000Y-48530000D01*
%TO.N,OUT3*%
X215520000Y-77240000D02*
X222190000Y-77240000D01*
X234991819Y-69250000D02*
X235091819Y-69350000D01*
X224981470Y-51250000D02*
X226000000Y-51250000D01*
X223650000Y-75780000D02*
X223650000Y-75730000D01*
X214100000Y-75130000D02*
X214350000Y-75130000D01*
X234565754Y-71815754D02*
X234670000Y-71920000D01*
X237050000Y-43070000D02*
X236600000Y-43520000D01*
X244850000Y-43590000D02*
X244330000Y-43070000D01*
X215170000Y-76890000D02*
X215520000Y-77240000D01*
X224500735Y-50769265D02*
X224981470Y-51250000D01*
X234000000Y-69250000D02*
X234991819Y-69250000D01*
X236600000Y-43520000D02*
X236600000Y-43570000D01*
X244330000Y-43070000D02*
X237050000Y-43070000D01*
X215170000Y-75950000D02*
X215170000Y-76890000D01*
X245900000Y-46630000D02*
X244850000Y-45580000D01*
X244850000Y-45580000D02*
X244850000Y-43590000D01*
X222190000Y-77240000D02*
X223650000Y-75780000D01*
X233910000Y-71815754D02*
X234565754Y-71815754D01*
X214350000Y-75130000D02*
X215170000Y-75950000D01*
%TO.N,GLS3*%
X223540000Y-49890000D02*
X223526471Y-49903529D01*
X223526471Y-49903529D02*
X223526471Y-50656471D01*
X235880000Y-69540000D02*
X235880000Y-69210000D01*
X235420000Y-68750000D02*
X234000000Y-68750000D01*
X223526471Y-50656471D02*
X224620000Y-51750000D01*
X224620000Y-51750000D02*
X226000000Y-51750000D01*
X235880000Y-69210000D02*
X235420000Y-68750000D01*
%TO.N,Net-(U4-BOOT2)*%
X234000000Y-68250000D02*
X236320000Y-68250000D01*
X236320000Y-68250000D02*
X236420000Y-68150000D01*
%TO.N,GHS2*%
X222350000Y-54100000D02*
X212660000Y-54100000D01*
X226000000Y-52740000D02*
X225550000Y-52740000D01*
X234830000Y-67760000D02*
X236190000Y-66400000D01*
X225550000Y-52740000D02*
X224970000Y-53320000D01*
X247390000Y-66400000D02*
X247510000Y-66520000D01*
X223130000Y-53320000D02*
X222350000Y-54100000D01*
X212660000Y-54100000D02*
X212580000Y-54020000D01*
X247350000Y-66360000D02*
X247510000Y-66520000D01*
X234000000Y-67760000D02*
X234830000Y-67760000D01*
X236190000Y-66400000D02*
X247390000Y-66400000D01*
X224970000Y-53320000D02*
X223130000Y-53320000D01*
%TO.N,OUT2*%
X235900000Y-65841473D02*
X234741473Y-67000000D01*
X226060000Y-70810000D02*
X226060000Y-66420000D01*
X233260000Y-67000000D02*
X233250000Y-66990000D01*
X228130000Y-73300000D02*
X228130000Y-72880000D01*
X226640000Y-53850000D02*
X226750000Y-53740000D01*
X226750000Y-53740000D02*
X226750000Y-53500000D01*
X233810000Y-50040000D02*
X233810000Y-52380000D01*
X232570000Y-48800000D02*
X232570000Y-46750000D01*
X235900000Y-65840000D02*
X235900000Y-65841473D01*
X225400000Y-53850000D02*
X226640000Y-53850000D01*
X233250000Y-66990000D02*
X233250000Y-67000000D01*
X232570000Y-46750000D02*
X232550000Y-46730000D01*
X233810000Y-52380000D02*
X234970000Y-53540000D01*
X233810000Y-50040000D02*
X232570000Y-48800000D01*
X234741473Y-67000000D02*
X233260000Y-67000000D01*
X228130000Y-72880000D02*
X226060000Y-70810000D01*
%TO.N,GLS2*%
X224089264Y-54177794D02*
X224381470Y-54470000D01*
X227250000Y-53882254D02*
X227250000Y-53500000D01*
X226662254Y-54470000D02*
X227250000Y-53882254D01*
X232750000Y-66617746D02*
X232750000Y-67000000D01*
X234844265Y-66005735D02*
X233362011Y-66005735D01*
X233362011Y-66005735D02*
X232750000Y-66617746D01*
X224381470Y-54470000D02*
X226662254Y-54470000D01*
%TO.N,Net-(U4-BOOT1)*%
X233750000Y-64900000D02*
X235150000Y-64900000D01*
X232250000Y-67000000D02*
X232250000Y-66400000D01*
X232250000Y-66400000D02*
X233750000Y-64900000D01*
%TO.N,GHS1*%
X237120000Y-61270000D02*
X237770000Y-60620000D01*
X237770000Y-60620000D02*
X247210000Y-60620000D01*
X223544314Y-56380000D02*
X222900000Y-57024314D01*
X237120000Y-63245686D02*
X237120000Y-61270000D01*
X247540000Y-60950000D02*
X247540000Y-61100000D01*
X247210000Y-60620000D02*
X247540000Y-60950000D01*
X233854314Y-64230000D02*
X236135686Y-64230000D01*
X221968473Y-59790000D02*
X212580000Y-59790000D01*
X228250000Y-53500000D02*
X228250000Y-54084215D01*
X231750000Y-67000000D02*
X231750000Y-66334314D01*
X221969691Y-59788782D02*
X221968473Y-59790000D01*
X236135686Y-64230000D02*
X237120000Y-63245686D01*
X222900000Y-57024314D02*
X222900000Y-59070000D01*
X222900000Y-59070000D02*
X222181218Y-59788782D01*
X222181218Y-59788782D02*
X221969691Y-59788782D01*
X225954215Y-56380000D02*
X223544314Y-56380000D01*
X231750000Y-66334314D02*
X233854314Y-64230000D01*
X228250000Y-54084215D02*
X225954215Y-56380000D01*
%TO.N,OUT1*%
X222221218Y-60388782D02*
X223300000Y-59310000D01*
X223650000Y-72320000D02*
X223650000Y-67240000D01*
X245350000Y-56370000D02*
X245900000Y-56370000D01*
X244840000Y-55860000D02*
X245350000Y-56370000D01*
X244840000Y-54690000D02*
X244840000Y-55860000D01*
X238330000Y-60030000D02*
X237794314Y-60030000D01*
X237100000Y-53990000D02*
X237330000Y-54220000D01*
X215360000Y-66140000D02*
X215150000Y-65930000D01*
X236720000Y-61104314D02*
X236720000Y-63080000D01*
X222550000Y-66140000D02*
X215360000Y-66140000D01*
X238330000Y-60020000D02*
X238330000Y-60030000D01*
X236600000Y-47180000D02*
X236550000Y-47230000D01*
X236720000Y-63080000D02*
X235970000Y-63830000D01*
X223650000Y-67240000D02*
X222550000Y-66140000D01*
X222218220Y-60388782D02*
X222221218Y-60388782D01*
X215150000Y-64900000D02*
X214380000Y-64130000D01*
X226119901Y-56780000D02*
X228750000Y-54149901D01*
X228750000Y-54149901D02*
X228750000Y-53500000D01*
X215150000Y-65930000D02*
X215150000Y-64900000D01*
X214380000Y-64130000D02*
X214100000Y-64130000D01*
X231250000Y-66224314D02*
X231250000Y-67000000D01*
X236550000Y-53440000D02*
X237100000Y-53990000D01*
X233644314Y-63830000D02*
X231250000Y-66224314D01*
X235970000Y-63830000D02*
X233644314Y-63830000D01*
X223700000Y-72370000D02*
X223650000Y-72320000D01*
X237330000Y-54220000D02*
X244370000Y-54220000D01*
X223710000Y-56780000D02*
X226119901Y-56780000D01*
X223300000Y-59310000D02*
X223300000Y-57190000D01*
X236550000Y-47230000D02*
X236550000Y-53440000D01*
X237794314Y-60030000D02*
X236720000Y-61104314D01*
X223300000Y-57190000D02*
X223710000Y-56780000D01*
X244370000Y-54220000D02*
X244840000Y-54690000D01*
%TO.N,GLS1*%
X236320000Y-62900000D02*
X235790000Y-63430000D01*
X229249999Y-54215587D02*
X229250000Y-54215587D01*
X236320000Y-60650000D02*
X236320000Y-62900000D01*
X230750000Y-66158628D02*
X230750000Y-67000000D01*
X236961264Y-60014520D02*
X236955480Y-60014520D01*
X236955480Y-60014520D02*
X236320000Y-60650000D01*
X223244265Y-60214265D02*
X223445413Y-60214265D01*
X223700000Y-59959678D02*
X223700000Y-57370000D01*
X223890000Y-57180000D02*
X226285587Y-57180000D01*
X223445413Y-60214265D02*
X223700000Y-59959678D01*
X233478628Y-63430000D02*
X230750000Y-66158628D01*
X229250000Y-54215587D02*
X229250000Y-53500000D01*
X223700000Y-57370000D02*
X223890000Y-57180000D01*
X226285587Y-57180000D02*
X229249999Y-54215587D01*
X235790000Y-63430000D02*
X233478628Y-63430000D01*
%TO.N,GND*%
X232580000Y-44860000D02*
X232570000Y-44850000D01*
X225640000Y-75720000D02*
X225580000Y-75720000D01*
X231760000Y-76830000D02*
X231610000Y-76980000D01*
X230500000Y-61870000D02*
X229500000Y-61870000D01*
X235590000Y-43580000D02*
X235600000Y-43570000D01*
X224650000Y-72380000D02*
X225580000Y-72380000D01*
X231610000Y-77130000D02*
X231520000Y-77220000D01*
X228240000Y-43810000D02*
X228240000Y-44810000D01*
X224640000Y-75730000D02*
X225630000Y-75730000D01*
X228120000Y-75220000D02*
X228120000Y-74290000D01*
X228380000Y-42740000D02*
X228380000Y-43670000D01*
X234613067Y-47191458D02*
X234600000Y-47178391D01*
X224640000Y-72370000D02*
X224650000Y-72380000D01*
X231520000Y-77220000D02*
X231520000Y-78220000D01*
X231760000Y-75750000D02*
X231760000Y-76830000D01*
X232580000Y-45790000D02*
X232580000Y-44860000D01*
X231840000Y-45790000D02*
X232580000Y-45790000D01*
X234650000Y-43580000D02*
X235590000Y-43580000D01*
X234600000Y-47178391D02*
X234600000Y-47170000D01*
X225630000Y-75730000D02*
X225640000Y-75720000D01*
X228380000Y-42690000D02*
X228380000Y-41750000D01*
X231610000Y-76980000D02*
X231610000Y-77130000D01*
X234600000Y-47170000D02*
X234610000Y-47180000D01*
X228380000Y-43670000D02*
X228240000Y-43810000D01*
X228120000Y-74290000D02*
X228130000Y-74280000D01*
X229500000Y-58730000D02*
X230500000Y-58730000D01*
X236300000Y-59000000D02*
X234880000Y-59000000D01*
X223700000Y-61600000D02*
X225120000Y-61600000D01*
X234610000Y-47180000D02*
X235600000Y-47180000D01*
%TO.N,3V3*%
X230680000Y-77070000D02*
X231271460Y-76478540D01*
X231271460Y-76478540D02*
X231271460Y-75750000D01*
X229220000Y-43670000D02*
X228941345Y-43948655D01*
X230680000Y-78220000D02*
X230680000Y-77220000D01*
X229220000Y-41750000D02*
X229300000Y-41830000D01*
X229220000Y-41750000D02*
X229220000Y-42690000D01*
X228939956Y-43948655D02*
X228728540Y-44160071D01*
X229220000Y-42740000D02*
X229220000Y-43670000D01*
X231110000Y-48690000D02*
X230010000Y-48690000D01*
X230680000Y-77220000D02*
X230680000Y-77070000D01*
X229450000Y-72110000D02*
X229970000Y-72110000D01*
X228728540Y-44160071D02*
X228728540Y-44810000D01*
X228941345Y-43948655D02*
X228939956Y-43948655D01*
%TO.N,PHASE_A_M2*%
X225570000Y-73230000D02*
X224640000Y-73230000D01*
X225580000Y-73160000D02*
X225580000Y-73070000D01*
X224640000Y-73230000D02*
X223650000Y-73230000D01*
X225640000Y-73220000D02*
X225580000Y-73220000D01*
X225580000Y-73220000D02*
X225570000Y-73230000D01*
X225640000Y-73220000D02*
X225580000Y-73160000D01*
%TO.N,Net-(Q11-G)*%
X214780000Y-78100000D02*
X214780000Y-77420000D01*
X214780000Y-77420000D02*
X214100000Y-76740000D01*
X214100000Y-76740000D02*
X214100000Y-76400000D01*
%TO.N,Net-(Q13-G)*%
X214070000Y-58930000D02*
X214100000Y-58900000D01*
X212580000Y-58930000D02*
X214070000Y-58930000D01*
%TO.N,Net-(U8-BOOT1)*%
X227750000Y-54018529D02*
X226078529Y-55690000D01*
X226078529Y-55690000D02*
X224580000Y-55690000D01*
X227750000Y-53500000D02*
X227750000Y-54018529D01*
%TO.N,PHASE_C_M2*%
X225570000Y-74870000D02*
X224640000Y-74870000D01*
X225640000Y-74880000D02*
X225580000Y-74880000D01*
X223650000Y-74870000D02*
X224640000Y-74870000D01*
X225580000Y-74880000D02*
X225570000Y-74870000D01*
%TO.N,Net-(U8-REG12)*%
X230000000Y-50750000D02*
X230600000Y-50750000D01*
X231900000Y-54570000D02*
X234880000Y-57550000D01*
X231830000Y-52000690D02*
X231900000Y-52070691D01*
X234880000Y-57600000D02*
X236300000Y-57600000D01*
X231830000Y-51980000D02*
X231830000Y-52000690D01*
X234880000Y-57550000D02*
X234880000Y-57600000D01*
X230600000Y-50750000D02*
X231830000Y-51980000D01*
X231900000Y-52070691D02*
X231900000Y-54570000D01*
%TO.N,Net-(Q3-G)*%
X247610000Y-49810000D02*
X246110000Y-49810000D01*
X246110000Y-49810000D02*
X245900000Y-49600000D01*
%TO.N,Net-(Q23-G)*%
X246020000Y-72720000D02*
X245900000Y-72600000D01*
X247470000Y-72800000D02*
X247390000Y-72720000D01*
X247390000Y-72720000D02*
X246020000Y-72720000D01*
%TO.N,SWCLK_M4*%
X230441130Y-73811130D02*
X230480000Y-73850000D01*
X222000000Y-78900000D02*
X223850000Y-77050000D01*
X228045686Y-77050000D02*
X229420000Y-75675686D01*
X229678870Y-73811130D02*
X230441130Y-73811130D01*
X223850000Y-77050000D02*
X228045686Y-77050000D01*
X222000000Y-79150000D02*
X222000000Y-78900000D01*
X229420000Y-74070000D02*
X229678870Y-73811130D01*
X229420000Y-75675686D02*
X229420000Y-74070000D01*
%TO.N,Net-(U5-PF2-NRST)*%
X232470000Y-77280000D02*
X232470000Y-77200000D01*
X233360000Y-77280000D02*
X232470000Y-77280000D01*
X233380000Y-77260000D02*
X233360000Y-77280000D01*
X232470000Y-77200000D02*
X232248489Y-76978489D01*
X232248489Y-76978489D02*
X232248489Y-75750000D01*
%TO.N,PHASE_C_M4*%
X236450000Y-75280000D02*
X234672626Y-75280000D01*
X234672626Y-75280000D02*
X234181471Y-74788845D01*
X234181471Y-74788845D02*
X233201155Y-74788845D01*
%TO.N,PHASE_B_M4*%
X234541155Y-74300000D02*
X233190000Y-74300000D01*
%TO.N,PHASE_A_M4*%
X234460000Y-73320000D02*
X233968997Y-73811003D01*
X233968997Y-73811003D02*
X233190000Y-73811003D01*
%TO.N,SWDIO_M4*%
X229460000Y-73300000D02*
X229020000Y-73740000D01*
X223684314Y-76650000D02*
X222294314Y-78040000D01*
X220790000Y-78040000D02*
X220000000Y-78830000D01*
X222294314Y-78040000D02*
X220790000Y-78040000D01*
X227880000Y-76650000D02*
X223684314Y-76650000D01*
X229020000Y-75510000D02*
X227880000Y-76650000D01*
X220000000Y-78830000D02*
X220000000Y-79150000D01*
X230190000Y-73300000D02*
X229460000Y-73300000D01*
X220000000Y-78910000D02*
X220000000Y-79150000D01*
X229020000Y-73740000D02*
X229020000Y-75510000D01*
%TO.N,Net-(Q15-G)*%
X213940000Y-53240000D02*
X214100000Y-53400000D01*
X212660000Y-53240000D02*
X213940000Y-53240000D01*
X212580000Y-53160000D02*
X212660000Y-53240000D01*
%TO.N,PHASE_A_M1*%
X235590000Y-46330000D02*
X235600000Y-46320000D01*
X236550000Y-46320000D02*
X235600000Y-46320000D01*
X234648530Y-46330000D02*
X235590000Y-46330000D01*
X234624265Y-46354265D02*
X234648530Y-46330000D01*
%TO.N,Net-(Q21-G)*%
X247510000Y-67380000D02*
X247410000Y-67280000D01*
X246080000Y-67280000D02*
X245900000Y-67100000D01*
X247410000Y-67280000D02*
X246080000Y-67280000D01*
%TO.N,Net-(U8-BOOT3)*%
X226000000Y-50250000D02*
X225620000Y-49870000D01*
X225620000Y-49870000D02*
X225620000Y-49290000D01*
%TO.N,Net-(Q17-G)*%
X212580000Y-47670000D02*
X212650000Y-47740000D01*
X213940000Y-47740000D02*
X214100000Y-47900000D01*
X212650000Y-47740000D02*
X213940000Y-47740000D01*
%TO.N,Net-(U8-CP)*%
X230300000Y-53050000D02*
X230300000Y-56730000D01*
X230300000Y-56730000D02*
X229500000Y-57530000D01*
X229500000Y-57530000D02*
X229500000Y-57870000D01*
X230000000Y-52750000D02*
X230300000Y-53050000D01*
%TO.N,Net-(Q7-G)*%
X212540000Y-65160000D02*
X212590000Y-65210000D01*
X212590000Y-65210000D02*
X213910000Y-65210000D01*
X213910000Y-65210000D02*
X214100000Y-65400000D01*
%TO.N,Net-(U8-SCREF)*%
X230447939Y-51750000D02*
X231100000Y-52402061D01*
X230000000Y-51750000D02*
X230447939Y-51750000D01*
X232670000Y-56700000D02*
X232670000Y-57870000D01*
X231670000Y-57870000D02*
X232670000Y-57870000D01*
X231100000Y-55130000D02*
X232670000Y-56700000D01*
X231100000Y-52402061D02*
X231100000Y-55130000D01*
%TO.N,Net-(U9-PF2-NRST)*%
X227430000Y-42620000D02*
X227520000Y-42710000D01*
X227430000Y-43670000D02*
X227430000Y-42620000D01*
X226440000Y-42640000D02*
X227410000Y-42640000D01*
X227751511Y-43991511D02*
X227430000Y-43670000D01*
X227410000Y-42640000D02*
X227430000Y-42620000D01*
X227751511Y-44810000D02*
X227751511Y-43991511D01*
%TO.N,PHASE_B_M1*%
X233410000Y-46780000D02*
X233410000Y-44850000D01*
X234640000Y-45500000D02*
X235230000Y-45500000D01*
X233470000Y-44800000D02*
X233940000Y-44800000D01*
X233420000Y-44850000D02*
X233470000Y-44800000D01*
X233940000Y-44800000D02*
X234640000Y-45500000D01*
X233430000Y-46800000D02*
X233410000Y-46780000D01*
%TO.N,SWDIO_M3*%
X235940000Y-42820000D02*
X236860000Y-41900000D01*
X233410000Y-42820000D02*
X235940000Y-42820000D01*
X229820000Y-47250000D02*
X230540000Y-47250000D01*
X240000000Y-41110000D02*
X240000000Y-40850000D01*
X231040000Y-46750000D02*
X231040000Y-45190000D01*
X229810000Y-47260000D02*
X229820000Y-47250000D01*
X230540000Y-47250000D02*
X231040000Y-46750000D01*
X231040000Y-45190000D02*
X233410000Y-42820000D01*
X238950000Y-41900000D02*
X240000000Y-40850000D01*
X236860000Y-41900000D02*
X238950000Y-41900000D01*
%TO.N,PHASE_B_M2*%
X226060000Y-74050000D02*
X225230000Y-74050000D01*
X227280000Y-75270000D02*
X226060000Y-74050000D01*
X227270000Y-74280000D02*
X227270000Y-75210000D01*
X227270000Y-73300000D02*
X227270000Y-74280000D01*
X227280000Y-75220000D02*
X227280000Y-75270000D01*
X227270000Y-75210000D02*
X227280000Y-75220000D01*
%TO.N,Net-(U8-DT{slash}MODE)*%
X230000000Y-52250000D02*
X230382253Y-52250000D01*
X230382253Y-52250000D02*
X230700000Y-52567746D01*
X230700000Y-52567746D02*
X230700000Y-57350000D01*
X230500000Y-57550000D02*
X230500000Y-57870000D01*
X230700000Y-57350000D02*
X230500000Y-57550000D01*
%TO.N,Net-(Q9-G)*%
X213960000Y-70760000D02*
X214100000Y-70900000D01*
X212590000Y-70670000D02*
X212680000Y-70760000D01*
X212680000Y-70760000D02*
X213960000Y-70760000D01*
%TO.N,SWCLK_M3*%
X237260000Y-40850000D02*
X235690000Y-42420000D01*
X230341130Y-46748870D02*
X229690000Y-46748870D01*
X235690000Y-42420000D02*
X233244315Y-42420000D01*
X230640000Y-46450000D02*
X230341130Y-46748870D01*
X238000000Y-40850000D02*
X237260000Y-40850000D01*
X233244315Y-42420000D02*
X230640000Y-45024315D01*
X230640000Y-45024315D02*
X230640000Y-46450000D01*
%TO.N,Net-(Q19-G)*%
X247540000Y-61960000D02*
X247440000Y-61960000D01*
X246120000Y-61820000D02*
X245900000Y-61600000D01*
X247440000Y-61960000D02*
X247300000Y-61820000D01*
X247300000Y-61820000D02*
X246120000Y-61820000D01*
%TO.N,PHASE_C_M1*%
X234600000Y-44420000D02*
X235590000Y-44420000D01*
X235590000Y-44420000D02*
X235600000Y-44430000D01*
X235600000Y-44430000D02*
X236600000Y-44430000D01*
%TO.N,Net-(Q1-G)*%
X247610000Y-55310000D02*
X246110000Y-55310000D01*
X246110000Y-55310000D02*
X245900000Y-55100000D01*
%TO.N,Net-(Q5-G)*%
X245900000Y-43290000D02*
X245900000Y-44100000D01*
X244680000Y-42440000D02*
X245050000Y-42440000D01*
X245050000Y-42440000D02*
X245900000Y-43290000D01*
%TO.N,DShot_M3*%
X222280000Y-40850000D02*
X222000000Y-40850000D01*
X226690000Y-45260000D02*
X222280000Y-40850000D01*
%TO.N,Net-(U8-nFAULT)*%
X230740000Y-50250000D02*
X230000000Y-50250000D01*
X231110000Y-49880000D02*
X230740000Y-50250000D01*
X231110000Y-49550000D02*
X231110000Y-49880000D01*
%TO.N,INH1_M3*%
X229250000Y-47820000D02*
X229240000Y-47810000D01*
X229250000Y-49500000D02*
X229250000Y-47820000D01*
%TO.N,INH2_M3*%
X228750000Y-48660000D02*
X228730000Y-48640000D01*
X228728616Y-48359925D02*
X228728616Y-47710000D01*
X228750000Y-49500000D02*
X228750000Y-48660000D01*
X228730000Y-48361309D02*
X228728616Y-48359925D01*
X228730000Y-48640000D02*
X228730000Y-48361309D01*
%TO.N,INH3_M3*%
X228250000Y-47720000D02*
X228240000Y-47710000D01*
X228250000Y-49500000D02*
X228250000Y-47720000D01*
%TO.N,EN1_M3*%
X227750000Y-49500000D02*
X227751562Y-49498438D01*
X227751562Y-49498438D02*
X227751562Y-47710000D01*
%TO.N,EN2_M3*%
X227250000Y-49500000D02*
X227250000Y-47820000D01*
X227250000Y-47820000D02*
X227240000Y-47810000D01*
%TO.N,EN3_M3*%
X226729403Y-48359825D02*
X226729403Y-47440283D01*
X226750000Y-47419686D02*
X226750000Y-47320000D01*
X226750000Y-48380422D02*
X226729403Y-48359825D01*
X226750000Y-47320000D02*
X226690000Y-47260000D01*
X226750000Y-49500000D02*
X226750000Y-48380422D01*
X226729403Y-47440283D02*
X226750000Y-47419686D01*
%TO.N,Net-(U8-BOOT2)*%
X226000000Y-52250000D02*
X224560000Y-52250000D01*
X224560000Y-52250000D02*
X224390000Y-52420000D01*
%TO.N,PHASE_C_M3*%
X225535735Y-45215735D02*
X226091155Y-45771155D01*
X225535735Y-44954265D02*
X225535735Y-45215735D01*
X226091155Y-45771155D02*
X226810000Y-45771155D01*
%TO.N,PHASE_B_M3*%
X225038093Y-45867479D02*
X225576008Y-45867479D01*
X225968529Y-46260000D02*
X226810000Y-46260000D01*
X225576008Y-45867479D02*
X225968529Y-46260000D01*
%TO.N,PHASE_A_M3*%
X225608997Y-46748997D02*
X226798997Y-46748997D01*
X225500000Y-46640000D02*
X225608997Y-46748997D01*
%TD*%
%TA.AperFunction,Conductor*%
%TO.N,B+*%
G36*
X240503039Y-61240185D02*
G01*
X240548794Y-61292989D01*
X240560000Y-61344500D01*
X240560000Y-65675500D01*
X240540315Y-65742539D01*
X240487511Y-65788294D01*
X240436000Y-65799500D01*
X237556082Y-65799500D01*
X237489043Y-65779815D01*
X237443288Y-65727011D01*
X237432085Y-65674705D01*
X237439217Y-64562011D01*
X237459330Y-64495102D01*
X237512427Y-64449687D01*
X237562007Y-64438815D01*
X238125806Y-64433341D01*
X238163007Y-64438676D01*
X238166499Y-64439735D01*
X238166503Y-64439737D01*
X238166507Y-64439737D01*
X238166511Y-64439739D01*
X238321153Y-64470499D01*
X238321156Y-64470500D01*
X238321158Y-64470500D01*
X238478844Y-64470500D01*
X238478845Y-64470499D01*
X238633497Y-64439737D01*
X238633506Y-64439733D01*
X238639327Y-64437968D01*
X238640128Y-64440609D01*
X238697750Y-64434355D01*
X238723309Y-64441845D01*
X238766503Y-64459737D01*
X238921153Y-64490499D01*
X238921156Y-64490500D01*
X238921158Y-64490500D01*
X239078844Y-64490500D01*
X239078845Y-64490499D01*
X239233497Y-64459737D01*
X239303130Y-64430894D01*
X239349370Y-64421462D01*
X239500000Y-64420000D01*
X239500000Y-64373440D01*
X239519685Y-64306401D01*
X239536314Y-64285763D01*
X239621789Y-64200289D01*
X239709394Y-64069179D01*
X239769737Y-63923497D01*
X239800500Y-63768842D01*
X239800500Y-63611158D01*
X239800500Y-63611155D01*
X239800499Y-63611153D01*
X239769738Y-63456510D01*
X239769737Y-63456503D01*
X239759774Y-63432451D01*
X239752305Y-63362987D01*
X239759771Y-63337554D01*
X239769737Y-63313497D01*
X239800500Y-63158842D01*
X239800500Y-63001158D01*
X239800500Y-63001155D01*
X239800499Y-63001153D01*
X239769738Y-62846510D01*
X239769737Y-62846503D01*
X239757547Y-62817074D01*
X239750078Y-62747604D01*
X239757548Y-62722166D01*
X239769735Y-62692744D01*
X239769737Y-62692740D01*
X239800500Y-62538085D01*
X239800500Y-62380401D01*
X239800500Y-62380398D01*
X239800499Y-62380396D01*
X239769738Y-62225753D01*
X239769737Y-62225746D01*
X239769735Y-62225741D01*
X239709397Y-62080070D01*
X239709390Y-62080057D01*
X239621789Y-61948954D01*
X239621786Y-61948950D01*
X239536319Y-61863483D01*
X239502834Y-61802160D01*
X239500000Y-61775802D01*
X239500000Y-61344500D01*
X239519685Y-61277461D01*
X239572489Y-61231706D01*
X239624000Y-61220500D01*
X240436000Y-61220500D01*
X240503039Y-61240185D01*
G37*
%TD.AperFunction*%
%TD*%
%TA.AperFunction,Conductor*%
%TO.N,B+*%
G36*
X240453106Y-54825523D02*
G01*
X240468104Y-54829927D01*
X240483094Y-54839557D01*
X240500175Y-54844567D01*
X240526855Y-54867672D01*
X240528042Y-54869041D01*
X240555518Y-54923902D01*
X240557163Y-54931460D01*
X240560000Y-54957831D01*
X240560000Y-59158170D01*
X240554975Y-59193114D01*
X240550570Y-59208112D01*
X240540939Y-59223101D01*
X240535932Y-59240175D01*
X240512827Y-59266855D01*
X240511458Y-59268042D01*
X240456597Y-59295518D01*
X240449039Y-59297163D01*
X240422668Y-59300000D01*
X239499999Y-59300000D01*
X239330342Y-59388867D01*
X239302436Y-59399432D01*
X239274088Y-59406408D01*
X239244458Y-59410000D01*
X238913378Y-59410000D01*
X238878443Y-59404977D01*
X238846634Y-59395637D01*
X238812680Y-59379763D01*
X238709185Y-59310609D01*
X238709172Y-59310602D01*
X238709165Y-59310598D01*
X238563502Y-59250264D01*
X238563471Y-59250257D01*
X238408847Y-59219500D01*
X238408845Y-59219500D01*
X238408842Y-59219500D01*
X238251158Y-59219500D01*
X238251155Y-59219500D01*
X238251153Y-59219500D01*
X238096527Y-59250257D01*
X238096496Y-59250264D01*
X237950833Y-59310598D01*
X237950824Y-59310603D01*
X237950812Y-59310610D01*
X237848166Y-59379196D01*
X237826392Y-59390793D01*
X237821426Y-59392832D01*
X237815296Y-59394752D01*
X237812713Y-59396411D01*
X237802274Y-59400700D01*
X237778396Y-59403196D01*
X237755158Y-59410000D01*
X237631830Y-59410000D01*
X237596889Y-59404975D01*
X237581890Y-59400570D01*
X237523144Y-59362827D01*
X237521957Y-59361458D01*
X237494477Y-59306583D01*
X237492832Y-59299021D01*
X237490000Y-59272668D01*
X237490000Y-57959500D01*
X237509685Y-57892461D01*
X237562489Y-57846706D01*
X237614000Y-57835500D01*
X237776561Y-57835500D01*
X237790069Y-57834775D01*
X237830599Y-57832603D01*
X237856957Y-57829769D01*
X237856981Y-57829765D01*
X237858578Y-57829550D01*
X237858583Y-57829594D01*
X237858612Y-57829591D01*
X237858629Y-57829752D01*
X237876888Y-57828370D01*
X237882893Y-57828431D01*
X237902127Y-57830500D01*
X238083782Y-57830499D01*
X238084457Y-57830506D01*
X238085032Y-57830681D01*
X238107365Y-57832880D01*
X238130869Y-57837555D01*
X238154124Y-57844609D01*
X238166498Y-57849735D01*
X238166503Y-57849737D01*
X238313513Y-57878979D01*
X238316247Y-57879703D01*
X238321155Y-57880500D01*
X238478844Y-57880500D01*
X238482507Y-57880500D01*
X238488766Y-57878543D01*
X238489748Y-57878330D01*
X238633497Y-57849737D01*
X238646375Y-57844401D01*
X238657278Y-57842040D01*
X238660993Y-57842309D01*
X238670273Y-57839940D01*
X238693809Y-57837409D01*
X238696425Y-57837128D01*
X238757134Y-57845856D01*
X238766503Y-57849737D01*
X238913513Y-57878979D01*
X238916247Y-57879703D01*
X238921155Y-57880500D01*
X239078844Y-57880500D01*
X239082964Y-57880500D01*
X239090814Y-57878118D01*
X239233497Y-57849737D01*
X239346166Y-57803067D01*
X239372634Y-57792104D01*
X239375425Y-57791131D01*
X239376868Y-57790464D01*
X239381528Y-57788421D01*
X239390787Y-57784585D01*
X239399671Y-57775701D01*
X239510289Y-57701789D01*
X239621789Y-57590289D01*
X239709394Y-57459179D01*
X239769737Y-57313497D01*
X239800500Y-57158842D01*
X239800500Y-57001158D01*
X239800500Y-57001155D01*
X239800500Y-57000973D01*
X239800065Y-56998972D01*
X239770394Y-56849809D01*
X239769982Y-56847399D01*
X239769738Y-56846506D01*
X239768670Y-56843928D01*
X239759940Y-56809727D01*
X239757128Y-56783575D01*
X239765857Y-56722862D01*
X239769737Y-56713497D01*
X239800500Y-56558842D01*
X239800500Y-56401158D01*
X239800500Y-56401155D01*
X239800500Y-56400973D01*
X239800065Y-56398972D01*
X239770394Y-56249809D01*
X239769982Y-56247399D01*
X239769738Y-56246506D01*
X239768670Y-56243928D01*
X239759940Y-56209727D01*
X239757128Y-56183575D01*
X239765857Y-56122862D01*
X239769737Y-56113497D01*
X239800500Y-55958842D01*
X239800500Y-55801158D01*
X239800500Y-55801155D01*
X239800500Y-55800973D01*
X239800065Y-55798972D01*
X239770397Y-55649824D01*
X239769994Y-55647467D01*
X239769738Y-55646508D01*
X239769737Y-55646506D01*
X239769737Y-55646503D01*
X239769735Y-55646498D01*
X239709397Y-55500827D01*
X239709390Y-55500814D01*
X239621789Y-55369711D01*
X239621786Y-55369707D01*
X239548922Y-55296843D01*
X239527772Y-55268588D01*
X239515166Y-55245500D01*
X239500000Y-55186077D01*
X239500000Y-54962329D01*
X239505023Y-54927393D01*
X239509427Y-54912395D01*
X239547172Y-54853644D01*
X239548541Y-54852457D01*
X239603420Y-54824977D01*
X239610979Y-54823333D01*
X239637332Y-54820500D01*
X240418170Y-54820500D01*
X240453106Y-54825523D01*
G37*
%TD.AperFunction*%
%TD*%
%TA.AperFunction,Conductor*%
%TO.N,B+*%
G36*
X222263347Y-54700501D02*
G01*
X222270943Y-54700501D01*
X222398172Y-54700501D01*
X222433107Y-54705524D01*
X222448105Y-54709928D01*
X222506856Y-54747673D01*
X222506880Y-54747701D01*
X222506883Y-54747703D01*
X222506884Y-54747705D01*
X222508043Y-54749042D01*
X222535520Y-54803906D01*
X222537166Y-54811473D01*
X222540000Y-54837829D01*
X222540000Y-56078521D01*
X222520315Y-56145560D01*
X222467511Y-56191315D01*
X222398353Y-56201259D01*
X222381065Y-56197498D01*
X222338422Y-56184976D01*
X222231604Y-56169619D01*
X222196000Y-56164500D01*
X222195998Y-56164500D01*
X222127385Y-56164500D01*
X222060346Y-56144815D01*
X222058494Y-56143602D01*
X221979191Y-56090613D01*
X221979190Y-56090612D01*
X221979185Y-56090609D01*
X221979172Y-56090602D01*
X221979165Y-56090598D01*
X221833502Y-56030264D01*
X221833471Y-56030257D01*
X221678847Y-55999500D01*
X221678845Y-55999500D01*
X221678842Y-55999500D01*
X221521158Y-55999500D01*
X221521155Y-55999500D01*
X221521150Y-55999500D01*
X221382464Y-56027086D01*
X221382452Y-56027089D01*
X221366511Y-56030260D01*
X221366506Y-56030262D01*
X221366504Y-56030262D01*
X221366503Y-56030263D01*
X221358992Y-56033373D01*
X221351138Y-56035478D01*
X221347979Y-56035402D01*
X221329721Y-56040060D01*
X221303569Y-56042871D01*
X221242869Y-56034144D01*
X221233501Y-56030264D01*
X221233485Y-56030258D01*
X221078849Y-55999500D01*
X221078845Y-55999500D01*
X221078842Y-55999500D01*
X220921158Y-55999500D01*
X220921155Y-55999500D01*
X220921153Y-55999500D01*
X220766527Y-56030257D01*
X220766496Y-56030264D01*
X220620833Y-56090598D01*
X220620824Y-56090603D01*
X220620807Y-56090613D01*
X220489708Y-56178211D01*
X220489707Y-56178212D01*
X220489701Y-56178217D01*
X220378217Y-56289701D01*
X220378212Y-56289707D01*
X220378211Y-56289708D01*
X220290613Y-56420807D01*
X220290603Y-56420824D01*
X220290598Y-56420833D01*
X220230264Y-56566496D01*
X220230257Y-56566527D01*
X220199500Y-56721150D01*
X220199500Y-56878850D01*
X220230259Y-57033489D01*
X220231332Y-57036078D01*
X220240059Y-57070272D01*
X220242871Y-57096426D01*
X220240780Y-57111075D01*
X220242899Y-57122679D01*
X220234290Y-57156555D01*
X220234242Y-57156895D01*
X220230263Y-57166503D01*
X220230262Y-57166506D01*
X220230260Y-57166511D01*
X220230239Y-57166611D01*
X220230237Y-57166619D01*
X220199500Y-57321148D01*
X220199500Y-57478850D01*
X220230257Y-57633482D01*
X220230259Y-57633489D01*
X220230267Y-57633512D01*
X220231333Y-57636085D01*
X220239737Y-57669017D01*
X220240059Y-57670278D01*
X220242870Y-57696430D01*
X220234142Y-57757132D01*
X220230263Y-57766496D01*
X220230260Y-57766504D01*
X220230257Y-57766514D01*
X220199500Y-57921146D01*
X220199500Y-57921151D01*
X220199500Y-58078844D01*
X220199500Y-58078846D01*
X220199499Y-58078846D01*
X220230257Y-58233469D01*
X220230264Y-58233500D01*
X220290598Y-58379163D01*
X220290603Y-58379172D01*
X220290613Y-58379189D01*
X220378208Y-58510284D01*
X220451074Y-58583150D01*
X220472224Y-58611402D01*
X220484831Y-58634489D01*
X220500000Y-58693918D01*
X220500000Y-59047670D01*
X220494975Y-59082614D01*
X220490570Y-59097612D01*
X220480939Y-59112601D01*
X220475932Y-59129675D01*
X220452827Y-59156355D01*
X220451458Y-59157542D01*
X220396597Y-59185018D01*
X220389039Y-59186663D01*
X220362668Y-59189500D01*
X219581830Y-59189500D01*
X219546889Y-59184475D01*
X219531890Y-59180070D01*
X219516902Y-59170440D01*
X219499824Y-59165432D01*
X219473144Y-59142327D01*
X219471957Y-59140958D01*
X219444477Y-59086083D01*
X219442832Y-59078521D01*
X219440000Y-59052168D01*
X219440000Y-54842329D01*
X219445023Y-54807393D01*
X219446047Y-54803908D01*
X219449427Y-54792394D01*
X219459057Y-54777404D01*
X219464067Y-54760324D01*
X219487172Y-54733644D01*
X219488541Y-54732457D01*
X219543420Y-54704977D01*
X219550979Y-54703333D01*
X219577332Y-54700500D01*
X222263331Y-54700500D01*
X222263347Y-54700501D01*
G37*
%TD.AperFunction*%
%TD*%
%TA.AperFunction,Conductor*%
%TO.N,GND*%
G36*
X229639499Y-80905021D02*
G01*
X229652818Y-80908932D01*
X229667816Y-80918571D01*
X229684922Y-80923594D01*
X229696596Y-80937066D01*
X229711596Y-80946706D01*
X229719002Y-80962923D01*
X229730678Y-80976397D01*
X229740622Y-81010262D01*
X229742189Y-81021160D01*
X229741068Y-81063001D01*
X229729500Y-81121153D01*
X229729500Y-81278846D01*
X229739809Y-81330680D01*
X229739809Y-81379056D01*
X229734212Y-81407197D01*
X229724500Y-81505813D01*
X229724500Y-81523142D01*
X229729646Y-81595102D01*
X229729741Y-81595983D01*
X229729718Y-81596108D01*
X229729803Y-81597291D01*
X229729500Y-81597312D01*
X229717326Y-81664741D01*
X229715309Y-81668598D01*
X229523785Y-82019726D01*
X229523784Y-82019727D01*
X229523784Y-82019728D01*
X229502645Y-82047991D01*
X229489917Y-82060730D01*
X229432902Y-82093226D01*
X229428156Y-82094438D01*
X229421499Y-82096139D01*
X229390800Y-82100000D01*
X228458377Y-82100000D01*
X228423441Y-82094977D01*
X228398199Y-82087565D01*
X228351868Y-82060075D01*
X228350916Y-82061191D01*
X228347211Y-82058026D01*
X228192209Y-81945413D01*
X228192205Y-81945410D01*
X228181613Y-81937715D01*
X228181612Y-81937714D01*
X228181610Y-81937713D01*
X228153171Y-81923222D01*
X228124654Y-81908691D01*
X228124653Y-81908691D01*
X227999223Y-81844781D01*
X227804534Y-81781522D01*
X227804532Y-81781521D01*
X227804530Y-81781521D01*
X227804529Y-81781520D01*
X227629995Y-81753878D01*
X227613409Y-81751251D01*
X227602354Y-81749500D01*
X227602352Y-81749500D01*
X227397648Y-81749500D01*
X227397647Y-81749500D01*
X227373327Y-81753351D01*
X227373326Y-81753350D01*
X227195468Y-81781521D01*
X227000777Y-81844780D01*
X227000764Y-81844786D01*
X226818397Y-81937708D01*
X226818385Y-81937715D01*
X226648844Y-82060892D01*
X226648664Y-82060645D01*
X226633593Y-82071072D01*
X226633160Y-82071311D01*
X226620206Y-82078384D01*
X226619445Y-82078872D01*
X226616808Y-82080327D01*
X226584523Y-82087489D01*
X226552456Y-82095659D01*
X226549705Y-82095212D01*
X226548597Y-82095459D01*
X226546531Y-82094698D01*
X226522021Y-82090723D01*
X226519247Y-82089909D01*
X226498160Y-82076882D01*
X226483033Y-82071311D01*
X226477693Y-82064239D01*
X226463385Y-82055400D01*
X226455369Y-82046786D01*
X226437286Y-82021690D01*
X226389779Y-81934595D01*
X226202588Y-81591412D01*
X226191295Y-81562678D01*
X226183844Y-81533453D01*
X226180000Y-81502819D01*
X226180000Y-81041829D01*
X226185023Y-81006893D01*
X226189427Y-80991895D01*
X226227172Y-80933144D01*
X226228541Y-80931957D01*
X226283420Y-80904477D01*
X226290979Y-80902833D01*
X226317332Y-80900000D01*
X229604567Y-80900000D01*
X229639499Y-80905021D01*
G37*
%TD.AperFunction*%
%TD*%
%TA.AperFunction,Conductor*%
%TO.N,OUT3*%
G36*
X249442085Y-45021675D02*
G01*
X249488069Y-45074280D01*
X249499500Y-45126281D01*
X249499500Y-48015963D01*
X249479815Y-48083002D01*
X249427011Y-48128757D01*
X249380238Y-48139872D01*
X248061455Y-48190296D01*
X248013386Y-48182570D01*
X247987480Y-48172908D01*
X247987482Y-48172908D01*
X247927883Y-48166501D01*
X247927881Y-48166500D01*
X247927873Y-48166500D01*
X247927865Y-48166500D01*
X247786518Y-48166500D01*
X247762327Y-48164117D01*
X247729263Y-48157540D01*
X247688843Y-48149500D01*
X247688842Y-48149500D01*
X247531158Y-48149500D01*
X247457663Y-48164118D01*
X247433475Y-48166500D01*
X247292130Y-48166500D01*
X247292123Y-48166501D01*
X247232515Y-48172909D01*
X247104560Y-48220632D01*
X247065966Y-48228359D01*
X246502380Y-48249909D01*
X246497642Y-48250000D01*
X245424000Y-48250000D01*
X245356961Y-48230315D01*
X245311206Y-48177511D01*
X245300000Y-48126000D01*
X245300000Y-45143462D01*
X245319685Y-45076423D01*
X245372489Y-45030668D01*
X245423460Y-45019463D01*
X249374963Y-45002282D01*
X249442085Y-45021675D01*
G37*
%TD.AperFunction*%
%TD*%
%TA.AperFunction,Conductor*%
%TO.N,OUT1*%
G36*
X214643039Y-61259685D02*
G01*
X214688794Y-61312489D01*
X214700000Y-61364000D01*
X214700000Y-64356000D01*
X214680315Y-64423039D01*
X214627511Y-64468794D01*
X214576000Y-64480000D01*
X213501472Y-64480000D01*
X213498555Y-64479966D01*
X213141989Y-64471575D01*
X213075431Y-64450318D01*
X213070596Y-64446877D01*
X213052330Y-64433203D01*
X213052328Y-64433202D01*
X212917486Y-64382910D01*
X212917485Y-64382909D01*
X212917483Y-64382909D01*
X212857873Y-64376500D01*
X212857863Y-64376500D01*
X212222129Y-64376500D01*
X212222123Y-64376501D01*
X212162516Y-64382908D01*
X212019396Y-64436289D01*
X211973146Y-64444073D01*
X210621583Y-64412272D01*
X210555025Y-64391016D01*
X210510525Y-64337150D01*
X210500500Y-64288306D01*
X210500500Y-61474035D01*
X210520185Y-61406996D01*
X210572989Y-61361241D01*
X210619758Y-61350126D01*
X213497620Y-61240091D01*
X213502358Y-61240000D01*
X214576000Y-61240000D01*
X214643039Y-61259685D01*
G37*
%TD.AperFunction*%
%TD*%
%TA.AperFunction,Conductor*%
%TO.N,GND*%
G36*
X222383684Y-45557092D02*
G01*
X222417167Y-45618416D01*
X222420000Y-45644771D01*
X222420000Y-47008309D01*
X222400315Y-47075348D01*
X222347511Y-47121103D01*
X222278353Y-47131047D01*
X222271809Y-47129926D01*
X222118846Y-47099500D01*
X222118842Y-47099500D01*
X221961158Y-47099500D01*
X221961155Y-47099500D01*
X221806510Y-47130261D01*
X221806498Y-47130264D01*
X221660827Y-47190602D01*
X221660814Y-47190609D01*
X221528377Y-47279102D01*
X221461700Y-47299980D01*
X221459486Y-47300000D01*
X221097150Y-47300000D01*
X221030111Y-47280315D01*
X220984356Y-47227511D01*
X220974412Y-47158353D01*
X220980966Y-47132671D01*
X220994091Y-47097483D01*
X221000500Y-47037873D01*
X221000499Y-46242128D01*
X220994091Y-46182517D01*
X220944042Y-46048330D01*
X220942157Y-46021975D01*
X220936541Y-45996155D01*
X220939378Y-45983110D01*
X220939059Y-45978642D01*
X220944040Y-45961675D01*
X220974272Y-45880618D01*
X221016142Y-45824687D01*
X221073048Y-45802593D01*
X221072868Y-45801687D01*
X221078024Y-45800661D01*
X221078311Y-45800550D01*
X221078831Y-45800498D01*
X221078842Y-45800498D01*
X221233497Y-45769735D01*
X221240469Y-45766846D01*
X221309937Y-45759375D01*
X221335378Y-45766845D01*
X221366498Y-45779735D01*
X221366503Y-45779737D01*
X221521153Y-45810499D01*
X221521156Y-45810500D01*
X221521158Y-45810500D01*
X221678844Y-45810500D01*
X221678845Y-45810499D01*
X221833497Y-45779737D01*
X221979179Y-45719394D01*
X222110289Y-45631789D01*
X222171112Y-45570964D01*
X222180164Y-45565147D01*
X222184483Y-45559379D01*
X222215454Y-45542468D01*
X222252671Y-45528587D01*
X222322362Y-45523606D01*
X222383684Y-45557092D01*
G37*
%TD.AperFunction*%
%TD*%
%TA.AperFunction,Conductor*%
%TO.N,OUT2*%
G36*
X246501628Y-68020043D02*
G01*
X246515266Y-68020402D01*
X246856226Y-68029401D01*
X246922721Y-68050847D01*
X246927264Y-68054091D01*
X246939400Y-68063176D01*
X246997666Y-68106794D01*
X246997668Y-68106795D01*
X246997671Y-68106797D01*
X247026167Y-68117425D01*
X247132517Y-68157091D01*
X247192127Y-68163500D01*
X247827872Y-68163499D01*
X247887483Y-68157091D01*
X248022331Y-68106796D01*
X248047981Y-68087594D01*
X248113443Y-68063176D01*
X248125554Y-68062903D01*
X249378776Y-68095979D01*
X249445268Y-68117425D01*
X249489614Y-68171417D01*
X249499500Y-68219935D01*
X249499500Y-71039839D01*
X249479815Y-71106878D01*
X249427011Y-71152633D01*
X249378781Y-71163796D01*
X247975242Y-71200949D01*
X247928628Y-71193174D01*
X247847486Y-71162910D01*
X247847485Y-71162909D01*
X247847483Y-71162909D01*
X247787873Y-71156500D01*
X247787863Y-71156500D01*
X247152129Y-71156500D01*
X247152123Y-71156501D01*
X247092516Y-71162908D01*
X247015372Y-71191682D01*
X246972039Y-71199500D01*
X245414511Y-71199500D01*
X245347472Y-71179815D01*
X245301717Y-71127011D01*
X245290512Y-71075115D01*
X245299616Y-68143615D01*
X245319508Y-68076637D01*
X245372454Y-68031046D01*
X245423615Y-68020000D01*
X246498357Y-68020000D01*
X246501628Y-68020043D01*
G37*
%TD.AperFunction*%
%TD*%
%TA.AperFunction,Conductor*%
%TO.N,GND*%
G36*
X222312175Y-51189685D02*
G01*
X222357930Y-51242489D01*
X222369133Y-51294861D01*
X222360877Y-52483683D01*
X222357933Y-52493455D01*
X222359128Y-52503590D01*
X222348027Y-52526343D01*
X222340727Y-52550584D01*
X222332969Y-52557212D01*
X222328494Y-52566386D01*
X222306852Y-52579527D01*
X222287607Y-52595971D01*
X222275906Y-52598318D01*
X222268773Y-52602650D01*
X222233721Y-52606782D01*
X222154569Y-52604765D01*
X222133542Y-52602423D01*
X222118847Y-52599500D01*
X222118842Y-52599500D01*
X221961158Y-52599500D01*
X221955089Y-52599500D01*
X221955089Y-52599417D01*
X221950779Y-52599573D01*
X221121341Y-52578441D01*
X221054824Y-52557055D01*
X221010429Y-52503103D01*
X221000499Y-52454485D01*
X221000499Y-51742128D01*
X220994091Y-51682517D01*
X220944042Y-51548330D01*
X220942157Y-51521975D01*
X220936541Y-51496153D01*
X220939378Y-51483110D01*
X220939059Y-51478642D01*
X220944044Y-51461665D01*
X220959151Y-51421163D01*
X221001023Y-51365230D01*
X221066487Y-51340814D01*
X221075332Y-51340498D01*
X221078844Y-51340498D01*
X221078845Y-51340497D01*
X221233497Y-51309735D01*
X221252542Y-51301845D01*
X221322011Y-51294376D01*
X221347449Y-51301845D01*
X221366117Y-51309577D01*
X221366503Y-51309737D01*
X221455718Y-51327483D01*
X221521153Y-51340499D01*
X221521156Y-51340500D01*
X221521158Y-51340500D01*
X221678844Y-51340500D01*
X221678845Y-51340499D01*
X221833497Y-51309737D01*
X221979179Y-51249394D01*
X222066724Y-51190897D01*
X222133401Y-51170020D01*
X222135615Y-51170000D01*
X222245136Y-51170000D01*
X222312175Y-51189685D01*
G37*
%TD.AperFunction*%
%TD*%
%TA.AperFunction,Conductor*%
%TO.N,GND*%
G36*
X222263039Y-56689685D02*
G01*
X222308794Y-56742489D01*
X222320000Y-56794000D01*
X222320000Y-56852421D01*
X222315775Y-56884514D01*
X222299499Y-56945257D01*
X222299499Y-57113360D01*
X222299500Y-57113373D01*
X222299500Y-57984340D01*
X222279815Y-58051379D01*
X222227011Y-58097134D01*
X222157853Y-58107078D01*
X222151310Y-58105958D01*
X222118842Y-58099500D01*
X221961158Y-58099500D01*
X221961155Y-58099500D01*
X221806511Y-58130260D01*
X221806501Y-58130263D01*
X221709214Y-58170561D01*
X221661762Y-58180000D01*
X221123265Y-58180000D01*
X221056226Y-58160315D01*
X221010471Y-58107511D01*
X220999976Y-58042742D01*
X221000500Y-58037873D01*
X221000499Y-57242128D01*
X220994091Y-57182517D01*
X220944042Y-57048330D01*
X220942157Y-57021975D01*
X220936541Y-56996155D01*
X220939378Y-56983110D01*
X220939059Y-56978642D01*
X220944040Y-56961675D01*
X220978143Y-56870239D01*
X221020013Y-56814308D01*
X221073255Y-56793637D01*
X221072868Y-56791689D01*
X221159334Y-56774488D01*
X221233497Y-56759737D01*
X221252547Y-56751845D01*
X221322016Y-56744377D01*
X221347452Y-56751845D01*
X221366503Y-56759737D01*
X221521153Y-56790499D01*
X221521156Y-56790500D01*
X221521158Y-56790500D01*
X221678844Y-56790500D01*
X221678845Y-56790499D01*
X221833497Y-56759737D01*
X221979179Y-56699394D01*
X221979185Y-56699390D01*
X221991895Y-56690898D01*
X222009941Y-56685247D01*
X222025851Y-56675023D01*
X222056810Y-56670571D01*
X222058572Y-56670020D01*
X222060786Y-56670000D01*
X222196000Y-56670000D01*
X222263039Y-56689685D01*
G37*
%TD.AperFunction*%
%TD*%
%TA.AperFunction,Conductor*%
%TO.N,B+*%
G36*
X240453106Y-49205023D02*
G01*
X240468104Y-49209427D01*
X240483094Y-49219057D01*
X240500175Y-49224067D01*
X240526855Y-49247172D01*
X240528042Y-49248541D01*
X240555518Y-49303402D01*
X240557163Y-49310960D01*
X240560000Y-49337331D01*
X240560000Y-53477670D01*
X240554975Y-53512614D01*
X240550570Y-53527612D01*
X240540939Y-53542601D01*
X240535932Y-53559675D01*
X240512827Y-53586355D01*
X240511458Y-53587542D01*
X240456597Y-53615018D01*
X240449039Y-53616663D01*
X240422668Y-53619500D01*
X237647927Y-53619500D01*
X237612989Y-53614476D01*
X237600653Y-53610853D01*
X237599621Y-53610590D01*
X237599488Y-53610511D01*
X237598530Y-53610230D01*
X237598601Y-53609985D01*
X237571393Y-53593841D01*
X237542607Y-53578121D01*
X237540774Y-53575672D01*
X237539533Y-53574936D01*
X237521457Y-53549866D01*
X237515166Y-53538344D01*
X237500000Y-53478921D01*
X237500000Y-52459158D01*
X237519685Y-52392119D01*
X237572489Y-52346364D01*
X237628768Y-52336216D01*
X237628768Y-52335500D01*
X237632739Y-52335500D01*
X237632872Y-52335476D01*
X237633187Y-52335498D01*
X237633197Y-52335500D01*
X237633207Y-52335500D01*
X237786559Y-52335500D01*
X237786561Y-52335500D01*
X237793051Y-52335151D01*
X237840599Y-52332603D01*
X237866957Y-52329769D01*
X237866965Y-52329767D01*
X237867883Y-52329669D01*
X237882385Y-52328964D01*
X237888406Y-52329024D01*
X237902127Y-52330500D01*
X238035548Y-52330499D01*
X238036139Y-52330505D01*
X238036704Y-52330677D01*
X238059079Y-52332879D01*
X238082588Y-52337555D01*
X238105839Y-52344608D01*
X238166503Y-52369737D01*
X238321153Y-52400499D01*
X238321156Y-52400500D01*
X238321158Y-52400500D01*
X238478844Y-52400500D01*
X238478845Y-52400499D01*
X238633497Y-52369737D01*
X238636063Y-52368674D01*
X238636071Y-52368671D01*
X238636072Y-52368669D01*
X238636079Y-52368667D01*
X238670274Y-52359940D01*
X238696427Y-52357128D01*
X238757140Y-52365858D01*
X238766503Y-52369737D01*
X238766509Y-52369738D01*
X238766512Y-52369739D01*
X238865865Y-52389501D01*
X238913513Y-52398979D01*
X238916247Y-52399703D01*
X238921155Y-52400500D01*
X239078844Y-52400500D01*
X239082964Y-52400500D01*
X239090814Y-52398118D01*
X239233497Y-52369737D01*
X239379179Y-52309394D01*
X239510289Y-52221789D01*
X239621789Y-52110289D01*
X239709394Y-51979179D01*
X239769737Y-51833497D01*
X239800500Y-51678842D01*
X239800500Y-51521158D01*
X239800500Y-51521155D01*
X239800500Y-51520973D01*
X239800065Y-51518972D01*
X239770394Y-51369809D01*
X239769982Y-51367399D01*
X239769738Y-51366506D01*
X239768670Y-51363928D01*
X239759940Y-51329727D01*
X239757128Y-51303575D01*
X239765857Y-51242862D01*
X239769737Y-51233497D01*
X239800500Y-51078842D01*
X239800500Y-50921158D01*
X239800500Y-50921155D01*
X239800500Y-50920973D01*
X239800065Y-50918972D01*
X239770394Y-50769809D01*
X239769982Y-50767399D01*
X239769738Y-50766506D01*
X239768670Y-50763928D01*
X239759940Y-50729727D01*
X239757128Y-50703575D01*
X239765857Y-50642862D01*
X239769737Y-50633497D01*
X239800500Y-50478842D01*
X239800500Y-50321158D01*
X239800500Y-50321155D01*
X239800500Y-50320972D01*
X239800067Y-50318983D01*
X239799477Y-50316013D01*
X239798448Y-50310844D01*
X239769739Y-50166510D01*
X239769736Y-50166501D01*
X239737308Y-50088211D01*
X239709397Y-50020827D01*
X239709390Y-50020814D01*
X239621789Y-49889711D01*
X239621786Y-49889707D01*
X239548922Y-49816843D01*
X239527772Y-49788588D01*
X239515166Y-49765500D01*
X239500000Y-49706077D01*
X239500000Y-49341829D01*
X239505023Y-49306893D01*
X239509427Y-49291895D01*
X239547172Y-49233144D01*
X239548541Y-49231957D01*
X239603420Y-49204477D01*
X239610979Y-49202833D01*
X239637332Y-49200000D01*
X240418170Y-49200000D01*
X240453106Y-49205023D01*
G37*
%TD.AperFunction*%
%TD*%
%TA.AperFunction,Conductor*%
%TO.N,GND*%
G36*
X222383144Y-68680020D02*
G01*
X222429210Y-68732553D01*
X222440721Y-68784009D01*
X222448240Y-70076173D01*
X222428946Y-70143326D01*
X222376409Y-70189388D01*
X222324963Y-70200893D01*
X221120986Y-70207898D01*
X221053834Y-70188604D01*
X221007772Y-70136067D01*
X220996976Y-70070645D01*
X221000500Y-70037873D01*
X221000499Y-69242128D01*
X220994091Y-69182517D01*
X220944042Y-69048330D01*
X220942157Y-69021975D01*
X220936541Y-68996153D01*
X220939378Y-68983110D01*
X220939059Y-68978642D01*
X220944044Y-68961665D01*
X220962880Y-68911165D01*
X221004751Y-68855232D01*
X221070216Y-68830816D01*
X221078721Y-68830512D01*
X221078836Y-68830500D01*
X221078842Y-68830500D01*
X221233497Y-68799737D01*
X221233504Y-68799733D01*
X221237979Y-68798377D01*
X221307845Y-68797749D01*
X221321429Y-68802472D01*
X221366503Y-68821142D01*
X221521153Y-68851904D01*
X221521156Y-68851905D01*
X221521158Y-68851905D01*
X221678844Y-68851905D01*
X221678845Y-68851904D01*
X221833497Y-68821142D01*
X221979179Y-68760799D01*
X222096323Y-68682525D01*
X222114026Y-68676982D01*
X222129574Y-68666860D01*
X222161751Y-68662038D01*
X222162999Y-68661648D01*
X222164430Y-68661630D01*
X222315991Y-68660733D01*
X222383144Y-68680020D01*
G37*
%TD.AperFunction*%
%TD*%
%TA.AperFunction,Conductor*%
%TO.N,B+*%
G36*
X221671597Y-61005021D02*
G01*
X221703411Y-61014363D01*
X221737359Y-61030234D01*
X221839034Y-61098172D01*
X221839047Y-61098179D01*
X221984718Y-61158517D01*
X221984723Y-61158519D01*
X222131733Y-61187761D01*
X222134467Y-61188485D01*
X222139375Y-61189282D01*
X222139376Y-61189282D01*
X222139378Y-61189282D01*
X222297062Y-61189282D01*
X222297063Y-61189282D01*
X222335960Y-61181544D01*
X222371192Y-61179655D01*
X222385025Y-61180893D01*
X222450041Y-61206473D01*
X222490908Y-61263145D01*
X222490912Y-61263155D01*
X222494658Y-61273776D01*
X222501716Y-61314342D01*
X222508415Y-62540166D01*
X222489097Y-62607312D01*
X222436544Y-62653355D01*
X222379600Y-62663792D01*
X222379600Y-62664500D01*
X222375742Y-62664500D01*
X222375584Y-62664529D01*
X222375178Y-62664500D01*
X222375171Y-62664500D01*
X222137718Y-62664500D01*
X222133152Y-62664521D01*
X222133094Y-62664521D01*
X222132989Y-62664522D01*
X222130875Y-62664541D01*
X222129116Y-62664564D01*
X222061825Y-62645757D01*
X222058606Y-62643677D01*
X222053064Y-62639974D01*
X221979185Y-62590609D01*
X221979172Y-62590602D01*
X221979165Y-62590598D01*
X221833502Y-62530264D01*
X221833471Y-62530257D01*
X221678847Y-62499500D01*
X221678845Y-62499500D01*
X221678842Y-62499500D01*
X221521158Y-62499500D01*
X221521155Y-62499500D01*
X221521150Y-62499500D01*
X221382464Y-62527086D01*
X221382452Y-62527089D01*
X221366511Y-62530260D01*
X221366506Y-62530262D01*
X221366504Y-62530262D01*
X221366503Y-62530263D01*
X221358992Y-62533373D01*
X221351138Y-62535478D01*
X221347979Y-62535402D01*
X221329721Y-62540060D01*
X221303569Y-62542871D01*
X221242869Y-62534144D01*
X221233501Y-62530264D01*
X221233485Y-62530258D01*
X221078849Y-62499500D01*
X221078845Y-62499500D01*
X221078842Y-62499500D01*
X220921158Y-62499500D01*
X220921155Y-62499500D01*
X220921153Y-62499500D01*
X220766527Y-62530257D01*
X220766496Y-62530264D01*
X220620833Y-62590598D01*
X220620824Y-62590603D01*
X220620807Y-62590613D01*
X220489708Y-62678211D01*
X220489707Y-62678212D01*
X220489701Y-62678217D01*
X220378217Y-62789701D01*
X220378212Y-62789707D01*
X220378211Y-62789708D01*
X220290613Y-62920807D01*
X220290603Y-62920824D01*
X220290598Y-62920833D01*
X220230264Y-63066496D01*
X220230257Y-63066527D01*
X220199500Y-63221150D01*
X220199500Y-63378850D01*
X220230259Y-63533489D01*
X220231332Y-63536078D01*
X220240059Y-63570272D01*
X220242871Y-63596426D01*
X220240780Y-63611075D01*
X220242899Y-63622679D01*
X220234290Y-63656555D01*
X220234242Y-63656895D01*
X220230263Y-63666503D01*
X220230262Y-63666506D01*
X220230260Y-63666511D01*
X220230239Y-63666611D01*
X220230237Y-63666619D01*
X220199500Y-63821148D01*
X220199500Y-63978850D01*
X220230259Y-64133489D01*
X220231332Y-64136078D01*
X220240059Y-64170272D01*
X220242871Y-64196426D01*
X220240780Y-64211075D01*
X220242899Y-64222679D01*
X220234290Y-64256555D01*
X220234242Y-64256895D01*
X220230263Y-64266503D01*
X220230262Y-64266506D01*
X220230260Y-64266511D01*
X220230239Y-64266611D01*
X220230237Y-64266619D01*
X220199500Y-64421148D01*
X220199500Y-64421153D01*
X220199500Y-64578846D01*
X220199500Y-64578848D01*
X220199499Y-64578848D01*
X220230257Y-64733471D01*
X220230264Y-64733502D01*
X220290598Y-64879165D01*
X220290603Y-64879174D01*
X220290613Y-64879191D01*
X220378208Y-65010286D01*
X220451074Y-65083152D01*
X220472224Y-65111403D01*
X220478388Y-65122691D01*
X220480312Y-65125685D01*
X220500000Y-65192722D01*
X220500000Y-65397670D01*
X220499999Y-65397676D01*
X220500000Y-65397679D01*
X220494975Y-65432614D01*
X220490570Y-65447612D01*
X220452827Y-65506355D01*
X220452792Y-65506385D01*
X220452791Y-65506387D01*
X220452789Y-65506387D01*
X220451458Y-65507542D01*
X220396597Y-65535018D01*
X220389039Y-65536663D01*
X220362668Y-65539500D01*
X219581830Y-65539500D01*
X219581825Y-65539499D01*
X219581823Y-65539500D01*
X219546889Y-65534475D01*
X219531890Y-65530070D01*
X219473144Y-65492327D01*
X219473115Y-65492293D01*
X219473114Y-65492293D01*
X219473113Y-65492291D01*
X219471957Y-65490958D01*
X219444477Y-65436083D01*
X219442832Y-65428521D01*
X219440000Y-65402168D01*
X219440000Y-61324927D01*
X219445023Y-61289991D01*
X219449427Y-61274993D01*
X219450472Y-61273367D01*
X219487195Y-61216221D01*
X219492033Y-61212028D01*
X219555196Y-61183058D01*
X220786567Y-61001975D01*
X220795558Y-61000988D01*
X220804564Y-61000330D01*
X220813600Y-61000000D01*
X221636665Y-61000000D01*
X221671597Y-61005021D01*
G37*
%TD.AperFunction*%
%TD*%
%TA.AperFunction,Conductor*%
%TO.N,GND*%
G36*
X238918789Y-62206687D02*
G01*
X238932125Y-62210540D01*
X238947164Y-62220113D01*
X238964294Y-62225063D01*
X238976027Y-62238486D01*
X238991066Y-62248059D01*
X238998541Y-62264242D01*
X239010277Y-62277668D01*
X239020366Y-62311490D01*
X239021227Y-62317300D01*
X239014748Y-62378812D01*
X239008218Y-62396319D01*
X239006706Y-62399793D01*
X239005908Y-62402514D01*
X239003120Y-62428448D01*
X238999501Y-62462116D01*
X238999500Y-62462135D01*
X238999500Y-63257870D01*
X238999501Y-63257876D01*
X239005909Y-63317484D01*
X239051548Y-63439854D01*
X239052958Y-63444892D01*
X239052898Y-63449553D01*
X239057226Y-63469449D01*
X239057838Y-63478017D01*
X239058471Y-63482416D01*
X239057321Y-63482581D01*
X239052708Y-63547037D01*
X239031960Y-63602668D01*
X239025499Y-63614501D01*
X239015044Y-63633648D01*
X239005134Y-63646886D01*
X238950758Y-63688164D01*
X238932085Y-63695416D01*
X238911386Y-63701444D01*
X238778480Y-63727881D01*
X238770315Y-63728685D01*
X238763923Y-63731333D01*
X238729724Y-63740061D01*
X238703571Y-63742872D01*
X238642868Y-63734144D01*
X238633506Y-63730266D01*
X238633498Y-63730263D01*
X238633481Y-63730258D01*
X238478849Y-63699500D01*
X238478845Y-63699500D01*
X238478842Y-63699500D01*
X238321158Y-63699500D01*
X238321155Y-63699500D01*
X238321153Y-63699500D01*
X238166527Y-63730257D01*
X238166496Y-63730264D01*
X238020831Y-63790599D01*
X238020825Y-63790602D01*
X238020820Y-63790604D01*
X238020817Y-63790606D01*
X238007959Y-63799198D01*
X237985175Y-63811204D01*
X237980696Y-63812997D01*
X237972800Y-63815470D01*
X237969116Y-63817635D01*
X237960439Y-63821111D01*
X237939703Y-63823094D01*
X237914336Y-63830000D01*
X237702115Y-63830000D01*
X237667180Y-63824977D01*
X237656326Y-63821790D01*
X237597548Y-63784016D01*
X237568523Y-63720460D01*
X237578465Y-63651306D01*
X237581825Y-63643949D01*
X237596241Y-63619978D01*
X237600513Y-63614408D01*
X237600516Y-63614406D01*
X237600520Y-63614402D01*
X237650639Y-63527590D01*
X237679577Y-63477471D01*
X237720500Y-63324744D01*
X237720500Y-63166629D01*
X237720500Y-62535477D01*
X237725522Y-62500544D01*
X237729433Y-62487225D01*
X237767206Y-62428448D01*
X237830758Y-62399423D01*
X237841658Y-62397856D01*
X237883506Y-62398977D01*
X237887604Y-62399793D01*
X237891157Y-62400500D01*
X238048844Y-62400500D01*
X238052964Y-62400500D01*
X238060814Y-62398118D01*
X238203497Y-62369737D01*
X238349179Y-62309394D01*
X238461869Y-62234095D01*
X238493702Y-62218866D01*
X238525577Y-62208885D01*
X238562081Y-62203222D01*
X238883838Y-62201816D01*
X238918789Y-62206687D01*
G37*
%TD.AperFunction*%
%TD*%
%TA.AperFunction,Conductor*%
%TO.N,GND*%
G36*
X238949149Y-67789685D02*
G01*
X238994904Y-67842489D01*
X239005399Y-67907252D01*
X238999500Y-67962127D01*
X238999500Y-67962128D01*
X238999500Y-67962132D01*
X238999500Y-68757870D01*
X238999501Y-68757876D01*
X239005909Y-68817484D01*
X239055955Y-68951668D01*
X239057839Y-68978023D01*
X239063457Y-69003845D01*
X239060619Y-69016890D01*
X239060939Y-69021360D01*
X239055955Y-69038333D01*
X239025728Y-69119376D01*
X238983857Y-69175310D01*
X238926953Y-69197408D01*
X238927133Y-69198311D01*
X238921999Y-69199332D01*
X238921709Y-69199445D01*
X238921160Y-69199499D01*
X238766497Y-69230263D01*
X238762003Y-69231627D01*
X238692137Y-69232246D01*
X238678569Y-69227527D01*
X238633497Y-69208858D01*
X238633493Y-69208857D01*
X238633488Y-69208855D01*
X238478845Y-69178095D01*
X238478842Y-69178095D01*
X238321158Y-69178095D01*
X238321155Y-69178095D01*
X238166510Y-69208856D01*
X238166498Y-69208859D01*
X238020827Y-69269197D01*
X238020815Y-69269204D01*
X237946139Y-69319102D01*
X237879462Y-69339980D01*
X237877248Y-69340000D01*
X237624000Y-69340000D01*
X237556961Y-69320315D01*
X237511206Y-69267511D01*
X237500000Y-69216000D01*
X237500000Y-67957353D01*
X237519685Y-67890314D01*
X237572489Y-67844559D01*
X237641647Y-67834615D01*
X237671448Y-67842790D01*
X237736503Y-67869737D01*
X237891153Y-67900499D01*
X237891156Y-67900500D01*
X237891158Y-67900500D01*
X238048844Y-67900500D01*
X238048845Y-67900499D01*
X238203497Y-67869737D01*
X238349179Y-67809394D01*
X238349185Y-67809390D01*
X238376861Y-67790898D01*
X238443538Y-67770020D01*
X238445752Y-67770000D01*
X238882110Y-67770000D01*
X238949149Y-67789685D01*
G37*
%TD.AperFunction*%
%TD*%
%TA.AperFunction,Conductor*%
%TO.N,B+*%
G36*
X240453106Y-72405523D02*
G01*
X240468104Y-72409927D01*
X240483094Y-72419557D01*
X240500175Y-72424567D01*
X240526855Y-72447672D01*
X240528042Y-72449041D01*
X240555518Y-72503902D01*
X240557163Y-72511460D01*
X240560000Y-72537831D01*
X240560000Y-76659334D01*
X240554975Y-76694278D01*
X240550570Y-76709276D01*
X240540931Y-76724273D01*
X240535913Y-76741367D01*
X240512802Y-76768041D01*
X240511198Y-76769431D01*
X240456936Y-76796759D01*
X240449906Y-76798324D01*
X240424131Y-76801281D01*
X239500003Y-76809998D01*
X239500001Y-76809998D01*
X239499999Y-76810000D01*
X239337586Y-77034284D01*
X239337586Y-77034286D01*
X239313028Y-77059635D01*
X239295451Y-77073233D01*
X239242577Y-77097004D01*
X239239182Y-77097644D01*
X239238104Y-77097848D01*
X239230761Y-77098535D01*
X239230381Y-77098684D01*
X239229996Y-77098606D01*
X239215105Y-77100000D01*
X237631086Y-77100000D01*
X237596145Y-77094975D01*
X237581146Y-77090570D01*
X237566148Y-77080930D01*
X237549044Y-77075908D01*
X237522371Y-77052795D01*
X237521054Y-77051275D01*
X237493687Y-76996814D01*
X237493583Y-76996343D01*
X237492092Y-76989587D01*
X237489178Y-76963611D01*
X237485959Y-76429273D01*
X237480854Y-75581953D01*
X237485667Y-75546990D01*
X237489980Y-75531968D01*
X237527397Y-75472967D01*
X237528732Y-75471796D01*
X237583466Y-75443999D01*
X237586366Y-75443351D01*
X237591080Y-75442298D01*
X237617488Y-75439318D01*
X237932258Y-75437760D01*
X237964980Y-75442299D01*
X237967210Y-75442608D01*
X238003571Y-75453089D01*
X238016685Y-75457681D01*
X238017252Y-75457916D01*
X238021241Y-75459718D01*
X238024880Y-75461076D01*
X238050761Y-75471796D01*
X238111545Y-75496973D01*
X238166503Y-75519737D01*
X238166505Y-75519737D01*
X238166510Y-75519739D01*
X238250279Y-75536401D01*
X238321153Y-75550499D01*
X238321156Y-75550500D01*
X238321158Y-75550500D01*
X238478844Y-75550500D01*
X238478845Y-75550499D01*
X238633497Y-75519737D01*
X238636063Y-75518674D01*
X238636071Y-75518671D01*
X238636072Y-75518669D01*
X238636079Y-75518667D01*
X238670274Y-75509940D01*
X238696427Y-75507128D01*
X238757140Y-75515858D01*
X238766503Y-75519737D01*
X238766509Y-75519738D01*
X238766512Y-75519739D01*
X238827992Y-75531968D01*
X238913513Y-75548979D01*
X238916247Y-75549703D01*
X238921155Y-75550500D01*
X239078844Y-75550500D01*
X239082964Y-75550500D01*
X239090814Y-75548118D01*
X239233497Y-75519737D01*
X239379179Y-75459394D01*
X239422596Y-75430383D01*
X239500000Y-75430000D01*
X239500000Y-75378663D01*
X239510289Y-75371789D01*
X239621789Y-75260289D01*
X239709394Y-75129179D01*
X239769737Y-74983497D01*
X239800500Y-74828842D01*
X239800500Y-74671158D01*
X239800500Y-74671155D01*
X239800500Y-74670971D01*
X239800064Y-74668966D01*
X239780499Y-74570606D01*
X239769737Y-74516503D01*
X239768670Y-74513927D01*
X239759940Y-74479727D01*
X239757128Y-74453575D01*
X239765857Y-74392862D01*
X239769737Y-74383497D01*
X239800500Y-74228842D01*
X239800500Y-74071158D01*
X239800500Y-74071155D01*
X239800500Y-74070973D01*
X239800065Y-74068972D01*
X239770394Y-73919809D01*
X239769982Y-73917399D01*
X239769738Y-73916506D01*
X239768670Y-73913928D01*
X239759940Y-73879727D01*
X239757128Y-73853575D01*
X239765857Y-73792862D01*
X239769737Y-73783497D01*
X239800500Y-73628842D01*
X239800500Y-73471158D01*
X239800500Y-73471155D01*
X239800500Y-73470973D01*
X239800065Y-73468972D01*
X239770398Y-73319830D01*
X239769983Y-73317403D01*
X239769737Y-73316504D01*
X239733166Y-73228211D01*
X239709397Y-73170827D01*
X239709390Y-73170814D01*
X239621789Y-73039711D01*
X239621786Y-73039707D01*
X239548922Y-72966843D01*
X239527772Y-72938588D01*
X239515166Y-72915500D01*
X239500000Y-72856077D01*
X239500000Y-72542329D01*
X239505023Y-72507393D01*
X239509427Y-72492395D01*
X239547172Y-72433644D01*
X239548541Y-72432457D01*
X239603420Y-72404977D01*
X239610979Y-72403333D01*
X239637332Y-72400500D01*
X240418170Y-72400500D01*
X240453106Y-72405523D01*
G37*
%TD.AperFunction*%
%TD*%
%TA.AperFunction,Conductor*%
%TO.N,GND*%
G36*
X237663356Y-73309439D02*
G01*
X237709391Y-73328507D01*
X237736503Y-73339737D01*
X237891153Y-73370499D01*
X237891156Y-73370500D01*
X237891158Y-73370500D01*
X238048844Y-73370500D01*
X238048845Y-73370499D01*
X238203497Y-73339737D01*
X238251907Y-73319685D01*
X238276644Y-73309439D01*
X238324096Y-73300000D01*
X238878885Y-73300000D01*
X238945924Y-73319685D01*
X238991679Y-73372489D01*
X239002174Y-73437255D01*
X238999501Y-73462116D01*
X238999500Y-73462135D01*
X238999500Y-74257870D01*
X238999501Y-74257876D01*
X239005909Y-74317484D01*
X239055955Y-74451668D01*
X239057799Y-74477462D01*
X239063535Y-74502682D01*
X239060592Y-74516519D01*
X239060939Y-74521360D01*
X239056357Y-74537238D01*
X239056093Y-74537963D01*
X239005909Y-74672517D01*
X239005302Y-74678156D01*
X239000768Y-74690673D01*
X238984171Y-74713283D01*
X238970284Y-74737670D01*
X238963771Y-74741076D01*
X238959425Y-74746998D01*
X238933241Y-74757045D01*
X238908376Y-74770052D01*
X238756497Y-74800263D01*
X238752003Y-74801627D01*
X238682137Y-74802246D01*
X238668569Y-74797527D01*
X238623497Y-74778858D01*
X238623493Y-74778857D01*
X238623488Y-74778855D01*
X238468845Y-74748095D01*
X238468842Y-74748095D01*
X238311158Y-74748095D01*
X238311155Y-74748095D01*
X238156510Y-74778856D01*
X238156498Y-74778859D01*
X238079964Y-74810561D01*
X238032512Y-74820000D01*
X237604000Y-74820000D01*
X237536961Y-74800315D01*
X237491206Y-74747511D01*
X237480000Y-74696000D01*
X237480000Y-73424000D01*
X237482550Y-73415314D01*
X237481262Y-73406353D01*
X237492240Y-73382312D01*
X237499685Y-73356961D01*
X237506525Y-73351033D01*
X237510287Y-73342797D01*
X237532521Y-73328507D01*
X237552489Y-73311206D01*
X237563003Y-73308918D01*
X237569065Y-73305023D01*
X237604000Y-73300000D01*
X237615904Y-73300000D01*
X237663356Y-73309439D01*
G37*
%TD.AperFunction*%
%TD*%
%TA.AperFunction,Conductor*%
%TO.N,B+*%
G36*
X240453106Y-67005523D02*
G01*
X240468104Y-67009927D01*
X240483094Y-67019557D01*
X240500175Y-67024567D01*
X240526855Y-67047672D01*
X240528042Y-67049041D01*
X240555518Y-67103902D01*
X240557163Y-67111460D01*
X240560000Y-67137831D01*
X240560000Y-71057670D01*
X240554975Y-71092614D01*
X240550570Y-71107612D01*
X240540939Y-71122601D01*
X240535932Y-71139675D01*
X240512827Y-71166355D01*
X240511458Y-71167542D01*
X240456597Y-71195018D01*
X240449039Y-71196663D01*
X240422668Y-71199500D01*
X237649111Y-71199500D01*
X237614170Y-71194475D01*
X237599171Y-71190070D01*
X237584182Y-71180441D01*
X237567116Y-71175438D01*
X237540433Y-71152337D01*
X237539107Y-71150808D01*
X237511706Y-71096314D01*
X237510114Y-71089107D01*
X237507199Y-71063170D01*
X237500914Y-70082622D01*
X237505710Y-70047665D01*
X237510020Y-70032630D01*
X237519563Y-70017568D01*
X237524479Y-70000426D01*
X237547412Y-69973617D01*
X237547413Y-69973614D01*
X237548627Y-69972549D01*
X237603683Y-69944663D01*
X237611597Y-69942915D01*
X237638329Y-69940000D01*
X238057833Y-69940000D01*
X238082021Y-69942382D01*
X238093485Y-69944662D01*
X238105518Y-69947055D01*
X238128778Y-69954110D01*
X238166503Y-69969737D01*
X238306735Y-69997631D01*
X238313523Y-69998981D01*
X238313524Y-69998982D01*
X238316248Y-69999703D01*
X238321155Y-70000500D01*
X238478844Y-70000500D01*
X238482507Y-70000500D01*
X238488766Y-69998543D01*
X238489748Y-69998330D01*
X238633497Y-69969737D01*
X238646375Y-69964401D01*
X238657278Y-69962040D01*
X238660994Y-69962309D01*
X238670274Y-69959940D01*
X238696427Y-69957128D01*
X238757140Y-69965858D01*
X238766503Y-69969737D01*
X238906735Y-69997631D01*
X238913523Y-69998981D01*
X238913524Y-69998982D01*
X238916248Y-69999703D01*
X238921155Y-70000500D01*
X239078844Y-70000500D01*
X239081700Y-70000500D01*
X239084862Y-69999455D01*
X239087812Y-69998715D01*
X239233497Y-69969737D01*
X239279656Y-69950616D01*
X239288514Y-69948396D01*
X239289882Y-69948450D01*
X239294483Y-69947055D01*
X239317980Y-69942382D01*
X239342167Y-69940000D01*
X239500000Y-69940000D01*
X239500000Y-69901269D01*
X239505022Y-69866336D01*
X239512434Y-69841091D01*
X239543728Y-69788348D01*
X239621789Y-69710289D01*
X239709394Y-69579179D01*
X239769737Y-69433497D01*
X239800500Y-69278842D01*
X239800500Y-69121158D01*
X239800500Y-69121155D01*
X239800500Y-69121056D01*
X239800468Y-69120915D01*
X239800257Y-69119938D01*
X239769737Y-68966503D01*
X239764379Y-68953570D01*
X239762016Y-68942610D01*
X239762286Y-68938919D01*
X239759940Y-68929727D01*
X239757128Y-68903575D01*
X239765857Y-68842862D01*
X239769737Y-68833497D01*
X239800500Y-68678842D01*
X239800500Y-68521158D01*
X239800500Y-68521155D01*
X239800500Y-68520973D01*
X239800065Y-68518972D01*
X239770394Y-68369809D01*
X239769982Y-68367399D01*
X239769738Y-68366506D01*
X239768670Y-68363928D01*
X239759940Y-68329727D01*
X239757128Y-68303575D01*
X239765857Y-68242862D01*
X239769737Y-68233497D01*
X239800500Y-68078842D01*
X239800500Y-67921158D01*
X239800500Y-67921155D01*
X239800500Y-67920971D01*
X239800064Y-67918966D01*
X239786769Y-67852127D01*
X239769738Y-67766510D01*
X239769737Y-67766503D01*
X239728722Y-67667483D01*
X239709397Y-67620827D01*
X239709390Y-67620814D01*
X239621789Y-67489711D01*
X239621786Y-67489707D01*
X239548921Y-67416842D01*
X239529143Y-67391034D01*
X239528461Y-67389850D01*
X239521615Y-67377312D01*
X239518042Y-67371753D01*
X239516537Y-67369138D01*
X239509025Y-67338009D01*
X239500000Y-67307269D01*
X239500000Y-67142329D01*
X239505023Y-67107393D01*
X239509427Y-67092395D01*
X239547172Y-67033644D01*
X239548541Y-67032457D01*
X239603420Y-67004977D01*
X239610979Y-67003333D01*
X239637332Y-67000500D01*
X240418170Y-67000500D01*
X240453106Y-67005523D01*
G37*
%TD.AperFunction*%
%TD*%
%TA.AperFunction,Conductor*%
%TO.N,OUT3*%
G36*
X246501657Y-73520044D02*
G01*
X246952459Y-73532012D01*
X246992493Y-73539784D01*
X247092517Y-73577091D01*
X247152127Y-73583500D01*
X247787872Y-73583499D01*
X247847483Y-73577091D01*
X247847832Y-73576961D01*
X247878282Y-73565604D01*
X247924905Y-73557829D01*
X249378794Y-73596428D01*
X249445284Y-73617883D01*
X249489622Y-73671883D01*
X249499500Y-73720383D01*
X249499500Y-76482070D01*
X249479815Y-76549109D01*
X249427011Y-76594864D01*
X249381692Y-76605915D01*
X246503100Y-76749845D01*
X246496908Y-76750000D01*
X245424000Y-76750000D01*
X245356961Y-76730315D01*
X245311206Y-76677511D01*
X245300000Y-76626000D01*
X245300000Y-73644000D01*
X245319685Y-73576961D01*
X245372489Y-73531206D01*
X245424000Y-73520000D01*
X246498366Y-73520000D01*
X246501657Y-73520044D01*
G37*
%TD.AperFunction*%
%TD*%
%TA.AperFunction,Conductor*%
%TO.N,B+*%
G36*
X222267005Y-66745521D02*
G01*
X222292249Y-66752934D01*
X222344995Y-66784230D01*
X222401074Y-66840309D01*
X222422223Y-66868560D01*
X222434831Y-66891649D01*
X222450000Y-66951078D01*
X222450000Y-68031862D01*
X222430315Y-68098901D01*
X222377511Y-68144656D01*
X222317546Y-68153489D01*
X222317412Y-68155532D01*
X222313001Y-68155242D01*
X222312999Y-68155242D01*
X222312996Y-68155242D01*
X222161483Y-68156138D01*
X222158039Y-68156170D01*
X222156625Y-68156188D01*
X222154262Y-68156224D01*
X222143894Y-68157898D01*
X222126527Y-68159460D01*
X222093302Y-68160102D01*
X222067033Y-68152937D01*
X222040061Y-68149221D01*
X222027105Y-68142046D01*
X222025894Y-68141716D01*
X222025281Y-68141036D01*
X222022016Y-68139228D01*
X222008023Y-68129878D01*
X221979185Y-68110609D01*
X221979172Y-68110602D01*
X221979165Y-68110598D01*
X221833502Y-68050264D01*
X221833471Y-68050257D01*
X221678847Y-68019500D01*
X221678845Y-68019500D01*
X221678842Y-68019500D01*
X221521158Y-68019500D01*
X221521155Y-68019500D01*
X221521150Y-68019500D01*
X221382464Y-68047086D01*
X221382452Y-68047089D01*
X221366511Y-68050260D01*
X221366506Y-68050262D01*
X221366504Y-68050262D01*
X221366503Y-68050263D01*
X221358992Y-68053373D01*
X221351138Y-68055478D01*
X221347979Y-68055402D01*
X221329721Y-68060060D01*
X221303569Y-68062871D01*
X221242869Y-68054144D01*
X221233501Y-68050264D01*
X221233485Y-68050258D01*
X221078849Y-68019500D01*
X221078845Y-68019500D01*
X221078842Y-68019500D01*
X220921158Y-68019500D01*
X220921155Y-68019500D01*
X220921153Y-68019500D01*
X220766527Y-68050257D01*
X220766496Y-68050264D01*
X220620833Y-68110598D01*
X220620824Y-68110603D01*
X220620807Y-68110613D01*
X220489708Y-68198211D01*
X220489707Y-68198212D01*
X220489701Y-68198217D01*
X220378217Y-68309701D01*
X220378212Y-68309707D01*
X220378211Y-68309708D01*
X220290613Y-68440807D01*
X220290603Y-68440824D01*
X220290598Y-68440833D01*
X220230264Y-68586496D01*
X220230257Y-68586527D01*
X220199500Y-68741150D01*
X220199500Y-68898850D01*
X220230259Y-69053489D01*
X220231332Y-69056078D01*
X220240059Y-69090272D01*
X220242871Y-69116426D01*
X220240780Y-69131075D01*
X220242899Y-69142679D01*
X220234290Y-69176555D01*
X220234242Y-69176895D01*
X220230263Y-69186503D01*
X220230262Y-69186506D01*
X220230260Y-69186511D01*
X220230239Y-69186611D01*
X220230237Y-69186619D01*
X220199500Y-69341148D01*
X220199500Y-69498850D01*
X220230259Y-69653489D01*
X220231332Y-69656078D01*
X220240059Y-69690272D01*
X220242871Y-69716426D01*
X220240780Y-69731075D01*
X220242899Y-69742679D01*
X220234290Y-69776555D01*
X220234242Y-69776895D01*
X220230263Y-69786503D01*
X220230262Y-69786506D01*
X220230260Y-69786511D01*
X220230239Y-69786611D01*
X220230237Y-69786619D01*
X220199500Y-69941148D01*
X220199500Y-69941153D01*
X220199500Y-70098846D01*
X220199500Y-70098848D01*
X220199499Y-70098848D01*
X220230257Y-70253471D01*
X220230264Y-70253502D01*
X220290598Y-70399165D01*
X220290603Y-70399174D01*
X220290613Y-70399191D01*
X220378208Y-70530286D01*
X220451074Y-70603152D01*
X220472224Y-70631404D01*
X220484831Y-70654491D01*
X220500000Y-70713920D01*
X220500000Y-71158170D01*
X220494975Y-71193114D01*
X220490570Y-71208112D01*
X220480939Y-71223101D01*
X220475932Y-71240175D01*
X220452827Y-71266855D01*
X220451458Y-71268042D01*
X220396597Y-71295518D01*
X220389039Y-71297163D01*
X220362668Y-71300000D01*
X219581830Y-71300000D01*
X219546889Y-71294975D01*
X219531890Y-71290570D01*
X219516902Y-71280940D01*
X219499824Y-71275932D01*
X219473144Y-71252827D01*
X219471957Y-71251458D01*
X219444477Y-71196583D01*
X219442832Y-71189021D01*
X219440000Y-71162668D01*
X219440000Y-66882329D01*
X219445023Y-66847393D01*
X219449427Y-66832395D01*
X219459057Y-66817404D01*
X219464067Y-66800324D01*
X219487172Y-66773644D01*
X219488541Y-66772457D01*
X219543420Y-66744977D01*
X219550979Y-66743333D01*
X219577332Y-66740500D01*
X222232073Y-66740500D01*
X222267005Y-66745521D01*
G37*
%TD.AperFunction*%
%TD*%
%TA.AperFunction,Conductor*%
%TO.N,B+*%
G36*
X233773039Y-80919685D02*
G01*
X233818794Y-80972489D01*
X233830000Y-81024000D01*
X233830000Y-81513890D01*
X233810614Y-81580463D01*
X233527085Y-82026008D01*
X233474486Y-82071998D01*
X233405373Y-82082250D01*
X233349586Y-82059753D01*
X233181613Y-81937715D01*
X233181612Y-81937714D01*
X233181610Y-81937713D01*
X233124653Y-81908691D01*
X232999223Y-81844781D01*
X232804534Y-81781522D01*
X232629995Y-81753878D01*
X232602352Y-81749500D01*
X232397648Y-81749500D01*
X232373329Y-81753351D01*
X232195465Y-81781522D01*
X232000776Y-81844781D01*
X231818386Y-81937715D01*
X231652786Y-82058028D01*
X231652782Y-82058032D01*
X231647134Y-82063681D01*
X231585811Y-82097166D01*
X231559453Y-82100000D01*
X230559845Y-82100000D01*
X230492806Y-82080315D01*
X230447051Y-82027511D01*
X230446960Y-82027312D01*
X230241115Y-81574453D01*
X230238861Y-81564048D01*
X230235023Y-81558076D01*
X230230000Y-81523141D01*
X230230000Y-81505811D01*
X230239439Y-81458358D01*
X230249737Y-81433497D01*
X230280500Y-81278842D01*
X230280500Y-81121158D01*
X230280500Y-81121155D01*
X230265986Y-81048192D01*
X230272213Y-80978601D01*
X230315075Y-80923423D01*
X230380965Y-80900178D01*
X230387603Y-80900000D01*
X233706000Y-80900000D01*
X233773039Y-80919685D01*
G37*
%TD.AperFunction*%
%TD*%
%TA.AperFunction,Conductor*%
%TO.N,GND*%
G36*
X238947707Y-50286210D02*
G01*
X238994312Y-50338265D01*
X239005657Y-50404852D01*
X238999500Y-50462127D01*
X238999500Y-50462128D01*
X238999500Y-50462132D01*
X238999500Y-51257870D01*
X238999501Y-51257876D01*
X239005908Y-51317483D01*
X239048684Y-51432169D01*
X239053668Y-51501861D01*
X239020183Y-51563184D01*
X238958860Y-51596668D01*
X238957619Y-51596931D01*
X238945190Y-51599502D01*
X238921158Y-51599502D01*
X238766503Y-51630265D01*
X238736613Y-51642645D01*
X238725119Y-51645023D01*
X238701523Y-51643092D01*
X238677983Y-51645623D01*
X238656945Y-51639445D01*
X238655482Y-51639326D01*
X238654823Y-51638822D01*
X238652550Y-51638155D01*
X238633498Y-51630263D01*
X238633488Y-51630260D01*
X238478845Y-51599500D01*
X238478842Y-51599500D01*
X238321158Y-51599500D01*
X238321155Y-51599500D01*
X238166510Y-51630261D01*
X238166498Y-51630264D01*
X238020827Y-51690602D01*
X238020814Y-51690609D01*
X237889711Y-51778210D01*
X237889707Y-51778213D01*
X237874240Y-51793681D01*
X237847312Y-51808384D01*
X237821494Y-51824977D01*
X237815293Y-51825868D01*
X237812917Y-51827166D01*
X237786559Y-51830000D01*
X237633197Y-51830000D01*
X237566158Y-51810315D01*
X237520403Y-51757511D01*
X237509200Y-51706805D01*
X237506285Y-51257870D01*
X237500797Y-50412795D01*
X237520045Y-50345631D01*
X237572551Y-50299535D01*
X237622778Y-50288008D01*
X238880359Y-50267615D01*
X238947707Y-50286210D01*
G37*
%TD.AperFunction*%
%TD*%
%TA.AperFunction,Conductor*%
%TO.N,GND*%
G36*
X222442210Y-63189685D02*
G01*
X222487965Y-63242489D01*
X222499167Y-63294826D01*
X222497913Y-63483108D01*
X222490807Y-64548932D01*
X222470676Y-64615838D01*
X222417568Y-64661240D01*
X222368947Y-64672087D01*
X221123943Y-64693551D01*
X221056575Y-64675025D01*
X221009916Y-64623017D01*
X220998517Y-64556313D01*
X221000500Y-64537873D01*
X221000499Y-63742128D01*
X220994091Y-63682517D01*
X220944042Y-63548331D01*
X220942157Y-63521973D01*
X220936541Y-63496153D01*
X220939378Y-63483108D01*
X220939059Y-63478641D01*
X220944037Y-63461682D01*
X220966610Y-63401163D01*
X221008480Y-63345233D01*
X221072796Y-63321244D01*
X221072782Y-63321097D01*
X221073337Y-63321042D01*
X221073944Y-63320816D01*
X221076598Y-63320721D01*
X221078836Y-63320500D01*
X221078842Y-63320500D01*
X221233497Y-63289737D01*
X221233504Y-63289733D01*
X221237979Y-63288377D01*
X221307845Y-63287749D01*
X221321429Y-63292472D01*
X221366503Y-63311142D01*
X221521153Y-63341904D01*
X221521156Y-63341905D01*
X221521158Y-63341905D01*
X221678844Y-63341905D01*
X221678845Y-63341904D01*
X221833497Y-63311142D01*
X221979179Y-63250799D01*
X222068827Y-63190897D01*
X222086873Y-63185247D01*
X222102783Y-63175023D01*
X222133742Y-63170571D01*
X222135504Y-63170020D01*
X222137718Y-63170000D01*
X222375171Y-63170000D01*
X222442210Y-63189685D01*
G37*
%TD.AperFunction*%
%TD*%
%TA.AperFunction,Conductor*%
%TO.N,OUT2*%
G36*
X214643039Y-49269685D02*
G01*
X214688794Y-49322489D01*
X214700000Y-49374000D01*
X214700000Y-52356000D01*
X214680315Y-52423039D01*
X214627511Y-52468794D01*
X214576000Y-52480000D01*
X213501810Y-52480000D01*
X213498164Y-52479946D01*
X213179965Y-52470587D01*
X213113534Y-52448940D01*
X213109313Y-52445916D01*
X213092331Y-52433204D01*
X213092330Y-52433203D01*
X213092329Y-52433202D01*
X212957486Y-52382910D01*
X212957485Y-52382909D01*
X212957483Y-52382909D01*
X212897873Y-52376500D01*
X212897863Y-52376500D01*
X212262129Y-52376500D01*
X212262123Y-52376501D01*
X212202516Y-52382908D01*
X212078795Y-52429054D01*
X212031816Y-52436818D01*
X210620854Y-52395318D01*
X210554423Y-52373671D01*
X210510240Y-52319545D01*
X210500500Y-52271372D01*
X210500500Y-49475564D01*
X210520185Y-49408525D01*
X210572989Y-49362770D01*
X210620117Y-49351642D01*
X212150223Y-49297639D01*
X212197929Y-49305380D01*
X212199276Y-49305882D01*
X212202517Y-49307091D01*
X212262127Y-49313500D01*
X212897872Y-49313499D01*
X212957483Y-49307091D01*
X212957489Y-49307089D01*
X212982825Y-49297639D01*
X213050997Y-49272212D01*
X213089949Y-49264472D01*
X213497818Y-49250076D01*
X213502191Y-49250000D01*
X214576000Y-49250000D01*
X214643039Y-49269685D01*
G37*
%TD.AperFunction*%
%TD*%
%TA.AperFunction,Conductor*%
%TO.N,B+*%
G36*
X222293106Y-49205523D02*
G01*
X222308104Y-49209927D01*
X222323094Y-49219557D01*
X222340175Y-49224567D01*
X222366855Y-49247672D01*
X222368042Y-49249041D01*
X222395518Y-49303902D01*
X222397163Y-49311460D01*
X222400000Y-49337831D01*
X222400000Y-50543662D01*
X222380315Y-50610701D01*
X222327511Y-50656456D01*
X222258357Y-50666400D01*
X222245144Y-50664500D01*
X222245136Y-50664500D01*
X222135615Y-50664500D01*
X222131049Y-50664521D01*
X222131001Y-50664521D01*
X222130876Y-50664522D01*
X222128851Y-50664540D01*
X222124385Y-50664599D01*
X222107914Y-50667268D01*
X222103998Y-50667903D01*
X222084164Y-50669500D01*
X222080811Y-50669500D01*
X222032730Y-50659798D01*
X222017054Y-50653204D01*
X221996244Y-50642007D01*
X221979188Y-50630610D01*
X221979185Y-50630608D01*
X221979182Y-50630607D01*
X221979168Y-50630600D01*
X221833502Y-50570264D01*
X221833471Y-50570257D01*
X221678847Y-50539500D01*
X221678845Y-50539500D01*
X221678842Y-50539500D01*
X221521158Y-50539500D01*
X221521155Y-50539500D01*
X221521150Y-50539500D01*
X221382873Y-50567004D01*
X221382853Y-50567009D01*
X221366511Y-50570260D01*
X221366506Y-50570262D01*
X221366504Y-50570262D01*
X221366503Y-50570263D01*
X221357526Y-50573980D01*
X221350086Y-50576029D01*
X221345384Y-50575948D01*
X221330433Y-50579765D01*
X221304280Y-50582576D01*
X221243582Y-50573850D01*
X221239115Y-50572000D01*
X221234696Y-50569910D01*
X221230015Y-50568979D01*
X221230013Y-50568978D01*
X221078849Y-50538910D01*
X221078845Y-50538910D01*
X221078842Y-50538910D01*
X220921158Y-50538910D01*
X220921155Y-50538910D01*
X220921153Y-50538910D01*
X220766527Y-50569667D01*
X220766496Y-50569674D01*
X220620833Y-50630008D01*
X220620824Y-50630013D01*
X220620807Y-50630023D01*
X220489708Y-50717621D01*
X220489707Y-50717622D01*
X220489701Y-50717627D01*
X220378217Y-50829111D01*
X220378212Y-50829117D01*
X220378211Y-50829118D01*
X220290613Y-50960217D01*
X220290603Y-50960234D01*
X220290598Y-50960243D01*
X220230264Y-51105906D01*
X220230257Y-51105937D01*
X220199500Y-51260560D01*
X220199500Y-51418260D01*
X220230256Y-51572885D01*
X220230258Y-51572893D01*
X220230265Y-51572913D01*
X220230266Y-51572914D01*
X220231454Y-51575784D01*
X220231455Y-51575785D01*
X220240182Y-51609983D01*
X220242993Y-51636139D01*
X220234267Y-51696835D01*
X220230264Y-51706499D01*
X220230262Y-51706504D01*
X220230258Y-51706515D01*
X220230256Y-51706523D01*
X220199500Y-51861148D01*
X220199500Y-52018850D01*
X220230259Y-52173489D01*
X220231332Y-52176078D01*
X220240059Y-52210272D01*
X220242871Y-52236426D01*
X220240780Y-52251075D01*
X220242899Y-52262679D01*
X220234290Y-52296555D01*
X220234242Y-52296895D01*
X220230263Y-52306503D01*
X220230262Y-52306506D01*
X220230260Y-52306511D01*
X220230239Y-52306611D01*
X220230237Y-52306619D01*
X220199500Y-52461148D01*
X220199500Y-52461153D01*
X220199500Y-52618846D01*
X220199500Y-52618848D01*
X220199499Y-52618848D01*
X220230257Y-52773471D01*
X220230264Y-52773502D01*
X220290598Y-52919165D01*
X220290603Y-52919174D01*
X220290613Y-52919191D01*
X220378208Y-53050286D01*
X220451074Y-53123152D01*
X220472224Y-53151403D01*
X220478388Y-53162691D01*
X220480312Y-53165685D01*
X220500000Y-53232722D01*
X220500000Y-53357670D01*
X220499999Y-53357676D01*
X220500000Y-53357679D01*
X220494975Y-53392614D01*
X220490570Y-53407612D01*
X220452827Y-53466355D01*
X220452792Y-53466385D01*
X220452791Y-53466387D01*
X220452789Y-53466387D01*
X220451458Y-53467542D01*
X220396597Y-53495018D01*
X220389039Y-53496663D01*
X220362668Y-53499500D01*
X219581830Y-53499500D01*
X219581825Y-53499499D01*
X219581823Y-53499500D01*
X219546889Y-53494475D01*
X219531890Y-53490070D01*
X219473144Y-53452327D01*
X219473115Y-53452293D01*
X219473114Y-53452293D01*
X219473113Y-53452291D01*
X219471957Y-53450958D01*
X219444477Y-53396083D01*
X219442832Y-53388521D01*
X219440000Y-53362168D01*
X219440000Y-49342329D01*
X219445023Y-49307393D01*
X219449427Y-49292395D01*
X219487172Y-49233644D01*
X219487200Y-49233619D01*
X219487199Y-49233619D01*
X219488541Y-49232456D01*
X219543420Y-49204977D01*
X219550979Y-49203333D01*
X219577332Y-49200500D01*
X222258170Y-49200500D01*
X222293106Y-49205523D01*
G37*
%TD.AperFunction*%
%TD*%
%TA.AperFunction,Conductor*%
%TO.N,GND*%
G36*
X238915505Y-55667919D02*
G01*
X238982433Y-55687976D01*
X239027894Y-55741033D01*
X239037453Y-55810246D01*
X239030997Y-55835249D01*
X239005909Y-55902514D01*
X239005908Y-55902516D01*
X238999501Y-55962116D01*
X238999500Y-55962135D01*
X238999500Y-56757870D01*
X238999501Y-56757876D01*
X239005908Y-56817483D01*
X239044954Y-56922169D01*
X239049938Y-56991861D01*
X239016453Y-57053184D01*
X238955129Y-57086668D01*
X238954282Y-57086850D01*
X238941667Y-57089502D01*
X238921158Y-57089502D01*
X238766503Y-57120265D01*
X238736795Y-57132569D01*
X238725512Y-57134942D01*
X238701712Y-57133072D01*
X238677983Y-57135623D01*
X238657456Y-57129595D01*
X238655857Y-57129470D01*
X238655118Y-57128909D01*
X238652550Y-57128155D01*
X238633498Y-57120263D01*
X238633488Y-57120260D01*
X238478845Y-57089500D01*
X238478842Y-57089500D01*
X238321158Y-57089500D01*
X238321155Y-57089500D01*
X238166510Y-57120261D01*
X238166498Y-57120264D01*
X238020827Y-57180602D01*
X238020814Y-57180609D01*
X237889711Y-57268210D01*
X237889707Y-57268213D01*
X237864240Y-57293681D01*
X237837312Y-57308384D01*
X237811494Y-57324977D01*
X237805293Y-57325868D01*
X237802917Y-57327166D01*
X237776559Y-57330000D01*
X237614000Y-57330000D01*
X237546961Y-57310315D01*
X237501206Y-57257511D01*
X237490000Y-57206000D01*
X237490000Y-55784690D01*
X237509685Y-55717651D01*
X237562489Y-55671896D01*
X237614685Y-55660692D01*
X238915505Y-55667919D01*
G37*
%TD.AperFunction*%
%TD*%
%TA.AperFunction,Conductor*%
%TO.N,OUT1*%
G36*
X214643039Y-54769685D02*
G01*
X214688794Y-54822489D01*
X214700000Y-54874000D01*
X214700000Y-57856000D01*
X214680315Y-57923039D01*
X214627511Y-57968794D01*
X214576000Y-57980000D01*
X213502192Y-57980000D01*
X213497818Y-57979923D01*
X210620126Y-57878357D01*
X210553823Y-57856320D01*
X210509959Y-57801935D01*
X210500500Y-57754434D01*
X210500500Y-54975564D01*
X210520185Y-54908525D01*
X210572989Y-54862770D01*
X210620117Y-54851642D01*
X212184607Y-54796425D01*
X212202219Y-54797059D01*
X212202517Y-54797091D01*
X212262127Y-54803500D01*
X212897872Y-54803499D01*
X212957483Y-54797091D01*
X213021385Y-54773256D01*
X213060337Y-54765517D01*
X213497818Y-54750076D01*
X213502192Y-54750000D01*
X214576000Y-54750000D01*
X214643039Y-54769685D01*
G37*
%TD.AperFunction*%
%TD*%
%TA.AperFunction,Conductor*%
%TO.N,GND*%
G36*
X222343214Y-74190027D02*
G01*
X222389285Y-74242555D01*
X222400800Y-74293943D01*
X222409085Y-75576475D01*
X222389834Y-75643640D01*
X222337327Y-75689735D01*
X222285889Y-75701273D01*
X221120969Y-75708798D01*
X221053804Y-75689547D01*
X221007709Y-75637040D01*
X220996879Y-75571546D01*
X221000500Y-75537873D01*
X221000499Y-74742128D01*
X220994091Y-74682517D01*
X220944042Y-74548330D01*
X220942157Y-74521975D01*
X220936541Y-74496155D01*
X220939378Y-74483110D01*
X220939059Y-74478642D01*
X220944043Y-74461668D01*
X220974271Y-74380622D01*
X221016141Y-74324690D01*
X221073048Y-74302595D01*
X221072868Y-74301689D01*
X221078024Y-74300663D01*
X221078311Y-74300552D01*
X221078831Y-74300500D01*
X221078842Y-74300500D01*
X221233497Y-74269737D01*
X221233504Y-74269733D01*
X221237979Y-74268377D01*
X221307845Y-74267749D01*
X221321429Y-74272472D01*
X221366503Y-74291142D01*
X221521153Y-74321904D01*
X221521156Y-74321905D01*
X221521158Y-74321905D01*
X221678844Y-74321905D01*
X221678845Y-74321904D01*
X221833497Y-74291142D01*
X221979179Y-74230799D01*
X222036235Y-74192674D01*
X222053930Y-74187133D01*
X222069474Y-74177012D01*
X222101669Y-74172185D01*
X222102909Y-74171797D01*
X222104171Y-74171781D01*
X222276058Y-74170746D01*
X222343214Y-74190027D01*
G37*
%TD.AperFunction*%
%TD*%
%TA.AperFunction,Conductor*%
%TO.N,OUT1*%
G36*
X246502379Y-56020091D02*
G01*
X246523400Y-56020894D01*
X247095844Y-56042782D01*
X247134430Y-56050507D01*
X247232517Y-56087091D01*
X247292127Y-56093500D01*
X247927872Y-56093499D01*
X247987483Y-56087091D01*
X247989065Y-56086500D01*
X247991920Y-56086041D01*
X247995025Y-56085308D01*
X247995078Y-56085534D01*
X248037133Y-56078772D01*
X249380240Y-56130126D01*
X249446476Y-56152357D01*
X249490180Y-56206871D01*
X249499500Y-56254035D01*
X249499500Y-59015964D01*
X249479815Y-59083003D01*
X249427011Y-59128758D01*
X249380238Y-59139873D01*
X246502380Y-59249909D01*
X246497642Y-59250000D01*
X245424000Y-59250000D01*
X245356961Y-59230315D01*
X245311206Y-59177511D01*
X245300000Y-59126000D01*
X245300000Y-56144000D01*
X245319685Y-56076961D01*
X245372489Y-56031206D01*
X245424000Y-56020000D01*
X246497642Y-56020000D01*
X246502379Y-56020091D01*
G37*
%TD.AperFunction*%
%TD*%
%TA.AperFunction,Conductor*%
%TO.N,GND*%
G36*
X238949178Y-44596498D02*
G01*
X238964196Y-44600847D01*
X238979233Y-44610432D01*
X238996363Y-44615395D01*
X239023104Y-44638397D01*
X239023111Y-44638402D01*
X239025791Y-44641471D01*
X239055046Y-44704921D01*
X239056057Y-44714165D01*
X239057367Y-44732478D01*
X239049865Y-44784658D01*
X239008221Y-44896313D01*
X239006705Y-44899796D01*
X239005908Y-44902514D01*
X239005908Y-44902516D01*
X238999501Y-44962116D01*
X238999500Y-44962135D01*
X238999500Y-45757870D01*
X238999501Y-45757876D01*
X239005908Y-45817483D01*
X239048098Y-45930599D01*
X239049557Y-45935900D01*
X239049476Y-45940608D01*
X239053684Y-45959950D01*
X239054674Y-45973791D01*
X239048417Y-46002551D01*
X239048363Y-46005760D01*
X239047408Y-46007190D01*
X239039823Y-46042064D01*
X238990429Y-46091464D01*
X238985189Y-46094326D01*
X238925750Y-46109500D01*
X238921156Y-46109500D01*
X238766505Y-46140262D01*
X238766499Y-46140264D01*
X238757544Y-46143973D01*
X238749986Y-46145510D01*
X238746066Y-46148078D01*
X238728036Y-46149974D01*
X238711176Y-46153404D01*
X238705365Y-46153454D01*
X238701335Y-46153112D01*
X238697514Y-46153522D01*
X238691395Y-46153576D01*
X238673930Y-46148612D01*
X238642869Y-46144144D01*
X238633492Y-46140260D01*
X238633490Y-46140259D01*
X238478849Y-46109500D01*
X238478845Y-46109500D01*
X238478842Y-46109500D01*
X238321158Y-46109500D01*
X238321155Y-46109500D01*
X238321153Y-46109500D01*
X238166527Y-46140257D01*
X238166496Y-46140264D01*
X238020836Y-46200597D01*
X238020820Y-46200606D01*
X237958955Y-46241943D01*
X237892277Y-46262820D01*
X237828998Y-46246760D01*
X237791321Y-46225440D01*
X237791311Y-46225435D01*
X237733317Y-46201782D01*
X237608917Y-46168742D01*
X237608915Y-46168742D01*
X237606124Y-46168772D01*
X237544253Y-46169444D01*
X237477004Y-46150488D01*
X237430678Y-46098184D01*
X237418908Y-46045915D01*
X237414039Y-44739023D01*
X237418931Y-44704076D01*
X237423279Y-44689060D01*
X237460829Y-44630143D01*
X237462229Y-44628921D01*
X237516937Y-44601291D01*
X237520136Y-44600582D01*
X237524487Y-44599618D01*
X237550835Y-44596686D01*
X238914229Y-44591606D01*
X238949178Y-44596498D01*
G37*
%TD.AperFunction*%
%TD*%
%TA.AperFunction,Conductor*%
%TO.N,OUT3*%
G36*
X214643039Y-72269685D02*
G01*
X214688794Y-72322489D01*
X214700000Y-72374000D01*
X214700000Y-75356000D01*
X214680315Y-75423039D01*
X214627511Y-75468794D01*
X214576000Y-75480000D01*
X213501472Y-75480000D01*
X213498555Y-75479966D01*
X210621583Y-75412272D01*
X210555025Y-75391016D01*
X210510525Y-75337150D01*
X210500500Y-75288306D01*
X210500500Y-72467095D01*
X210520185Y-72400056D01*
X210572989Y-72354301D01*
X210620486Y-72343160D01*
X212149997Y-72293676D01*
X212197339Y-72301430D01*
X212212517Y-72307091D01*
X212272127Y-72313500D01*
X212413478Y-72313499D01*
X212437672Y-72315882D01*
X212511157Y-72330500D01*
X212511158Y-72330500D01*
X212668843Y-72330500D01*
X212742330Y-72315882D01*
X212766522Y-72313499D01*
X212907871Y-72313499D01*
X212907872Y-72313499D01*
X212967483Y-72307091D01*
X213065490Y-72270536D01*
X213104804Y-72262785D01*
X213476928Y-72250746D01*
X213497992Y-72250065D01*
X213502001Y-72250000D01*
X214576000Y-72250000D01*
X214643039Y-72269685D01*
G37*
%TD.AperFunction*%
%TD*%
%TA.AperFunction,Conductor*%
%TO.N,OUT2*%
G36*
X246502181Y-50520076D02*
G01*
X247090293Y-50540833D01*
X247129245Y-50548573D01*
X247232517Y-50587091D01*
X247292127Y-50593500D01*
X247927872Y-50593499D01*
X247987483Y-50587091D01*
X248000139Y-50582370D01*
X248047841Y-50574629D01*
X249379879Y-50621642D01*
X249446177Y-50643678D01*
X249490041Y-50698063D01*
X249499500Y-50745564D01*
X249499500Y-53515963D01*
X249479815Y-53583002D01*
X249427011Y-53628757D01*
X249380238Y-53639872D01*
X248061455Y-53690296D01*
X248013386Y-53682570D01*
X247987480Y-53672908D01*
X247987482Y-53672908D01*
X247927883Y-53666501D01*
X247927881Y-53666500D01*
X247927873Y-53666500D01*
X247927865Y-53666500D01*
X247786518Y-53666500D01*
X247762327Y-53664117D01*
X247729263Y-53657540D01*
X247688843Y-53649500D01*
X247688842Y-53649500D01*
X247531158Y-53649500D01*
X247457663Y-53664118D01*
X247433475Y-53666500D01*
X247292130Y-53666500D01*
X247292123Y-53666501D01*
X247232515Y-53672909D01*
X247104560Y-53720632D01*
X247065966Y-53728359D01*
X246502380Y-53749909D01*
X246497642Y-53750000D01*
X245424000Y-53750000D01*
X245356961Y-53730315D01*
X245311206Y-53677511D01*
X245300000Y-53626000D01*
X245300000Y-50644000D01*
X245319685Y-50576961D01*
X245372489Y-50531206D01*
X245424000Y-50520000D01*
X246497808Y-50520000D01*
X246502181Y-50520076D01*
G37*
%TD.AperFunction*%
%TD*%
%TA.AperFunction,Conductor*%
%TO.N,OUT1*%
G36*
X246504183Y-62520283D02*
G01*
X246814155Y-62541251D01*
X246879712Y-62565415D01*
X246905048Y-62590653D01*
X246912454Y-62600546D01*
X246912455Y-62600546D01*
X246912456Y-62600548D01*
X247027664Y-62686793D01*
X247027671Y-62686797D01*
X247072618Y-62703561D01*
X247162517Y-62737091D01*
X247222127Y-62743500D01*
X247857872Y-62743499D01*
X247917483Y-62737091D01*
X248052331Y-62686796D01*
X248091217Y-62657685D01*
X248156680Y-62633267D01*
X248173894Y-62633234D01*
X249383873Y-62715085D01*
X249449427Y-62739248D01*
X249491514Y-62795020D01*
X249499500Y-62838801D01*
X249499500Y-65600697D01*
X249479815Y-65667736D01*
X249427011Y-65713491D01*
X249376591Y-65724692D01*
X247850698Y-65738116D01*
X247836359Y-65737411D01*
X247827880Y-65736500D01*
X247192129Y-65736500D01*
X247192125Y-65736501D01*
X247157588Y-65740213D01*
X247132517Y-65742909D01*
X247132516Y-65742909D01*
X247124808Y-65743738D01*
X247124736Y-65743069D01*
X247111910Y-65744616D01*
X246500568Y-65749995D01*
X246499477Y-65750000D01*
X245424000Y-65750000D01*
X245356961Y-65730315D01*
X245311206Y-65677511D01*
X245300000Y-65626000D01*
X245300000Y-62644000D01*
X245319685Y-62576961D01*
X245372489Y-62531206D01*
X245424000Y-62520000D01*
X246495814Y-62520000D01*
X246504183Y-62520283D01*
G37*
%TD.AperFunction*%
%TD*%
%TA.AperFunction,Conductor*%
%TO.N,OUT2*%
G36*
X214643039Y-66769685D02*
G01*
X214688794Y-66822489D01*
X214700000Y-66874000D01*
X214700000Y-69856000D01*
X214680315Y-69923039D01*
X214627511Y-69968794D01*
X214576000Y-69980000D01*
X213501810Y-69980000D01*
X213498164Y-69979946D01*
X213176470Y-69970484D01*
X213110039Y-69948837D01*
X213105803Y-69945803D01*
X213102332Y-69943204D01*
X213102328Y-69943202D01*
X212967486Y-69892910D01*
X212967485Y-69892909D01*
X212967483Y-69892909D01*
X212907873Y-69886500D01*
X212907863Y-69886500D01*
X212272129Y-69886500D01*
X212272123Y-69886501D01*
X212212518Y-69892908D01*
X212112914Y-69930057D01*
X212065938Y-69937820D01*
X210620855Y-69895318D01*
X210554423Y-69873671D01*
X210510240Y-69819545D01*
X210500500Y-69771372D01*
X210500500Y-66992507D01*
X210520185Y-66925468D01*
X210572989Y-66879713D01*
X210619392Y-66868613D01*
X212207016Y-66803240D01*
X212212390Y-66803136D01*
X212218886Y-66803151D01*
X212222127Y-66803500D01*
X212363776Y-66803499D01*
X212363924Y-66803542D01*
X212387672Y-66805882D01*
X212461157Y-66820500D01*
X212461158Y-66820500D01*
X212618843Y-66820500D01*
X212692330Y-66805882D01*
X212716522Y-66803499D01*
X212857871Y-66803499D01*
X212857872Y-66803499D01*
X212917483Y-66797091D01*
X212968624Y-66778016D01*
X213006840Y-66770306D01*
X213497450Y-66750105D01*
X213502551Y-66750000D01*
X214576000Y-66750000D01*
X214643039Y-66769685D01*
G37*
%TD.AperFunction*%
%TD*%
%TA.AperFunction,Conductor*%
%TO.N,OUT3*%
G36*
X214643039Y-43769685D02*
G01*
X214688794Y-43822489D01*
X214700000Y-43874000D01*
X214700000Y-46856000D01*
X214680315Y-46923039D01*
X214627511Y-46968794D01*
X214576000Y-46980000D01*
X213502001Y-46980000D01*
X213497991Y-46979935D01*
X213164325Y-46969139D01*
X213097957Y-46947297D01*
X213094029Y-46944474D01*
X213092336Y-46943207D01*
X213092335Y-46943206D01*
X213092332Y-46943205D01*
X213092331Y-46943204D01*
X213037698Y-46922827D01*
X212957485Y-46892909D01*
X212947548Y-46891840D01*
X212897873Y-46886500D01*
X212897863Y-46886500D01*
X212262129Y-46886500D01*
X212262123Y-46886501D01*
X212202516Y-46892908D01*
X212114121Y-46925877D01*
X212066779Y-46933630D01*
X210620490Y-46886839D01*
X210554122Y-46864997D01*
X210510099Y-46810741D01*
X210500500Y-46762904D01*
X210500500Y-43984035D01*
X210520185Y-43916996D01*
X210572989Y-43871241D01*
X210619758Y-43860126D01*
X213497620Y-43750091D01*
X213502358Y-43750000D01*
X214576000Y-43750000D01*
X214643039Y-43769685D01*
G37*
%TD.AperFunction*%
%TD*%
%TA.AperFunction,Conductor*%
%TO.N,B+*%
G36*
X222283793Y-43505023D02*
G01*
X222298791Y-43509427D01*
X222313784Y-43519061D01*
X222330877Y-43524077D01*
X222357554Y-43547186D01*
X222358862Y-43548695D01*
X222386253Y-43603208D01*
X222387851Y-43610459D01*
X222390758Y-43636466D01*
X222397750Y-44895285D01*
X222378438Y-44962433D01*
X222325889Y-45008481D01*
X222282593Y-45019658D01*
X222216645Y-45024371D01*
X222216607Y-45024375D01*
X222216605Y-45024375D01*
X222076024Y-45054956D01*
X222076023Y-45054956D01*
X222058745Y-45061400D01*
X222038802Y-45068839D01*
X222038794Y-45068842D01*
X222038195Y-45069066D01*
X221968503Y-45074050D01*
X221947409Y-45067445D01*
X221833502Y-45020264D01*
X221833471Y-45020257D01*
X221678847Y-44989500D01*
X221678845Y-44989500D01*
X221678842Y-44989500D01*
X221521158Y-44989500D01*
X221521155Y-44989500D01*
X221482757Y-44997137D01*
X221366507Y-45020260D01*
X221364997Y-45020777D01*
X221362432Y-45021948D01*
X221356579Y-45024373D01*
X221351854Y-45026330D01*
X221317649Y-45035059D01*
X221292448Y-45037767D01*
X221270364Y-45033788D01*
X221270352Y-45033793D01*
X221248035Y-45031494D01*
X221247543Y-45033578D01*
X221235197Y-45030662D01*
X221235197Y-45030663D01*
X221231436Y-45029776D01*
X221231435Y-45029775D01*
X221231410Y-45029770D01*
X221224750Y-45028197D01*
X221221523Y-45027880D01*
X221078848Y-44999500D01*
X221078845Y-44999500D01*
X221078842Y-44999500D01*
X220921158Y-44999500D01*
X220921155Y-44999500D01*
X220921153Y-44999500D01*
X220766527Y-45030257D01*
X220766496Y-45030264D01*
X220620833Y-45090598D01*
X220620824Y-45090603D01*
X220620807Y-45090613D01*
X220489708Y-45178211D01*
X220489707Y-45178212D01*
X220489701Y-45178217D01*
X220378217Y-45289701D01*
X220378212Y-45289707D01*
X220378211Y-45289708D01*
X220290613Y-45420807D01*
X220290603Y-45420824D01*
X220290598Y-45420833D01*
X220230264Y-45566496D01*
X220230257Y-45566527D01*
X220199500Y-45721150D01*
X220199500Y-45878850D01*
X220230259Y-46033489D01*
X220231332Y-46036078D01*
X220240059Y-46070272D01*
X220242871Y-46096426D01*
X220240780Y-46111075D01*
X220242899Y-46122679D01*
X220234290Y-46156555D01*
X220234242Y-46156895D01*
X220230263Y-46166503D01*
X220230262Y-46166506D01*
X220230260Y-46166511D01*
X220230239Y-46166611D01*
X220230237Y-46166619D01*
X220199500Y-46321148D01*
X220199500Y-46478850D01*
X220230259Y-46633488D01*
X220233403Y-46641078D01*
X220242130Y-46675272D01*
X220244942Y-46701426D01*
X220242842Y-46716106D01*
X220244962Y-46727754D01*
X220236319Y-46761721D01*
X220236285Y-46761963D01*
X220230263Y-46776503D01*
X220230262Y-46776506D01*
X220230260Y-46776511D01*
X220230237Y-46776621D01*
X220230235Y-46776629D01*
X220199500Y-46931148D01*
X220199500Y-46931153D01*
X220199500Y-47088846D01*
X220199500Y-47088848D01*
X220199499Y-47088848D01*
X220230257Y-47243471D01*
X220230264Y-47243502D01*
X220290598Y-47389165D01*
X220290603Y-47389174D01*
X220290613Y-47389191D01*
X220378208Y-47520286D01*
X220451074Y-47593152D01*
X220472224Y-47621403D01*
X220478388Y-47632691D01*
X220480312Y-47635685D01*
X220500000Y-47702722D01*
X220500000Y-47857670D01*
X220499999Y-47857676D01*
X220500000Y-47857679D01*
X220494975Y-47892614D01*
X220490570Y-47907612D01*
X220452827Y-47966355D01*
X220452792Y-47966385D01*
X220452791Y-47966387D01*
X220452789Y-47966387D01*
X220451458Y-47967542D01*
X220396597Y-47995018D01*
X220389039Y-47996663D01*
X220362668Y-47999500D01*
X219581830Y-47999500D01*
X219581825Y-47999499D01*
X219581823Y-47999500D01*
X219546889Y-47994475D01*
X219531890Y-47990070D01*
X219473144Y-47952327D01*
X219473115Y-47952293D01*
X219473114Y-47952293D01*
X219473113Y-47952291D01*
X219471957Y-47950958D01*
X219444477Y-47896083D01*
X219442832Y-47888521D01*
X219440000Y-47862168D01*
X219440000Y-43823699D01*
X219445023Y-43788763D01*
X219449427Y-43773765D01*
X219487193Y-43714995D01*
X219492182Y-43710671D01*
X219553950Y-43681912D01*
X220685545Y-43502294D01*
X220695201Y-43501149D01*
X220704924Y-43500382D01*
X220714661Y-43500000D01*
X222248857Y-43500000D01*
X222283793Y-43505023D01*
G37*
%TD.AperFunction*%
%TD*%
%TA.AperFunction,Conductor*%
%TO.N,B+*%
G36*
X240503039Y-43719685D02*
G01*
X240548794Y-43772489D01*
X240560000Y-43824000D01*
X240560000Y-48176000D01*
X240540315Y-48243039D01*
X240487511Y-48288794D01*
X240436000Y-48300000D01*
X239500000Y-48300000D01*
X239342806Y-48415827D01*
X239277158Y-48439747D01*
X239269249Y-48440000D01*
X237542660Y-48440000D01*
X237475621Y-48420315D01*
X237429866Y-48367511D01*
X237418667Y-48317348D01*
X237416191Y-48089575D01*
X237402109Y-46794115D01*
X237421064Y-46726869D01*
X237473368Y-46680543D01*
X237542414Y-46669849D01*
X237600413Y-46693504D01*
X237707669Y-46773796D01*
X237707671Y-46773797D01*
X237749819Y-46789517D01*
X237842517Y-46824091D01*
X237902127Y-46830500D01*
X238047109Y-46830499D01*
X238094562Y-46839937D01*
X238166503Y-46869737D01*
X238321153Y-46900499D01*
X238321156Y-46900500D01*
X238321158Y-46900500D01*
X238478844Y-46900500D01*
X238478845Y-46900499D01*
X238633497Y-46869737D01*
X238652547Y-46861845D01*
X238722016Y-46854377D01*
X238747452Y-46861845D01*
X238766503Y-46869737D01*
X238921153Y-46900499D01*
X238921156Y-46900500D01*
X238921158Y-46900500D01*
X239078844Y-46900500D01*
X239078845Y-46900499D01*
X239233497Y-46869737D01*
X239379179Y-46809394D01*
X239510289Y-46721789D01*
X239621789Y-46610289D01*
X239709394Y-46479179D01*
X239769737Y-46333497D01*
X239800500Y-46178842D01*
X239800500Y-46021158D01*
X239800500Y-46021155D01*
X239800499Y-46021153D01*
X239769738Y-45866510D01*
X239769737Y-45866503D01*
X239761845Y-45847452D01*
X239754377Y-45777984D01*
X239761846Y-45752547D01*
X239769737Y-45733497D01*
X239800500Y-45578842D01*
X239800500Y-45421158D01*
X239800500Y-45421155D01*
X239800499Y-45421153D01*
X239769738Y-45266510D01*
X239769737Y-45266503D01*
X239761845Y-45247452D01*
X239754377Y-45177984D01*
X239761846Y-45152547D01*
X239769737Y-45133497D01*
X239800500Y-44978842D01*
X239800500Y-44821158D01*
X239800500Y-44821155D01*
X239800499Y-44821153D01*
X239769738Y-44666510D01*
X239769737Y-44666503D01*
X239720502Y-44547638D01*
X239709397Y-44520827D01*
X239709390Y-44520814D01*
X239621789Y-44389711D01*
X239621786Y-44389707D01*
X239536319Y-44304240D01*
X239502834Y-44242917D01*
X239500000Y-44216559D01*
X239500000Y-43824000D01*
X239519685Y-43756961D01*
X239572489Y-43711206D01*
X239624000Y-43700000D01*
X240436000Y-43700000D01*
X240503039Y-43719685D01*
G37*
%TD.AperFunction*%
%TD*%
%TA.AperFunction,Conductor*%
%TO.N,3V3*%
G36*
X220283039Y-40520185D02*
G01*
X220328794Y-40572989D01*
X220340000Y-40624500D01*
X220340000Y-41510441D01*
X220320315Y-41577480D01*
X220267511Y-41623235D01*
X220254983Y-41628154D01*
X218818984Y-42103713D01*
X218780001Y-42110000D01*
X218314000Y-42110000D01*
X218246961Y-42090315D01*
X218201206Y-42037511D01*
X218190000Y-41986000D01*
X218190000Y-40624500D01*
X218209685Y-40557461D01*
X218262489Y-40511706D01*
X218314000Y-40500500D01*
X220216000Y-40500500D01*
X220283039Y-40520185D01*
G37*
%TD.AperFunction*%
%TD*%
%TA.AperFunction,Conductor*%
%TO.N,B+*%
G36*
X222303106Y-72005023D02*
G01*
X222318104Y-72009427D01*
X222333094Y-72019057D01*
X222350175Y-72024067D01*
X222376855Y-72047172D01*
X222378042Y-72048541D01*
X222405518Y-72103402D01*
X222407163Y-72110960D01*
X222410000Y-72137331D01*
X222410000Y-73541873D01*
X222390315Y-73608912D01*
X222337511Y-73654667D01*
X222277577Y-73663477D01*
X222277442Y-73665545D01*
X222273016Y-73665255D01*
X222273014Y-73665255D01*
X222270059Y-73665272D01*
X222145379Y-73666023D01*
X222078222Y-73646742D01*
X222075742Y-73645127D01*
X221979191Y-73580613D01*
X221979190Y-73580612D01*
X221979185Y-73580609D01*
X221979172Y-73580602D01*
X221979165Y-73580598D01*
X221833502Y-73520264D01*
X221833471Y-73520257D01*
X221678847Y-73489500D01*
X221678845Y-73489500D01*
X221678842Y-73489500D01*
X221521158Y-73489500D01*
X221521155Y-73489500D01*
X221521150Y-73489500D01*
X221382464Y-73517086D01*
X221382452Y-73517089D01*
X221366511Y-73520260D01*
X221366506Y-73520262D01*
X221366504Y-73520262D01*
X221366503Y-73520263D01*
X221358992Y-73523373D01*
X221351138Y-73525478D01*
X221347979Y-73525402D01*
X221329721Y-73530060D01*
X221303569Y-73532871D01*
X221242869Y-73524144D01*
X221233501Y-73520264D01*
X221233485Y-73520258D01*
X221078849Y-73489500D01*
X221078845Y-73489500D01*
X221078842Y-73489500D01*
X220921158Y-73489500D01*
X220921155Y-73489500D01*
X220921153Y-73489500D01*
X220766527Y-73520257D01*
X220766496Y-73520264D01*
X220620833Y-73580598D01*
X220620824Y-73580603D01*
X220620807Y-73580613D01*
X220489708Y-73668211D01*
X220489707Y-73668212D01*
X220489701Y-73668217D01*
X220378217Y-73779701D01*
X220378212Y-73779707D01*
X220378211Y-73779708D01*
X220290613Y-73910807D01*
X220290603Y-73910824D01*
X220290598Y-73910833D01*
X220230264Y-74056496D01*
X220230257Y-74056527D01*
X220199500Y-74211150D01*
X220199500Y-74368850D01*
X220230259Y-74523489D01*
X220231332Y-74526078D01*
X220240059Y-74560272D01*
X220242871Y-74586426D01*
X220240780Y-74601075D01*
X220242899Y-74612679D01*
X220234290Y-74646555D01*
X220234242Y-74646895D01*
X220230263Y-74656503D01*
X220230262Y-74656506D01*
X220230260Y-74656511D01*
X220230239Y-74656611D01*
X220230237Y-74656619D01*
X220199500Y-74811148D01*
X220199500Y-74968850D01*
X220230259Y-75123489D01*
X220231332Y-75126078D01*
X220240059Y-75160272D01*
X220242871Y-75186426D01*
X220240780Y-75201075D01*
X220242899Y-75212679D01*
X220234290Y-75246555D01*
X220234242Y-75246895D01*
X220230263Y-75256503D01*
X220230262Y-75256506D01*
X220230260Y-75256511D01*
X220230239Y-75256611D01*
X220230237Y-75256619D01*
X220199500Y-75411148D01*
X220199500Y-75411153D01*
X220199500Y-75568846D01*
X220199500Y-75568848D01*
X220199499Y-75568848D01*
X220230257Y-75723471D01*
X220230264Y-75723502D01*
X220290598Y-75869165D01*
X220290603Y-75869174D01*
X220290613Y-75869191D01*
X220378208Y-76000286D01*
X220451074Y-76073152D01*
X220472224Y-76101404D01*
X220484831Y-76124491D01*
X220500000Y-76183920D01*
X220500000Y-76497670D01*
X220494975Y-76532614D01*
X220490570Y-76547612D01*
X220480939Y-76562601D01*
X220475932Y-76579675D01*
X220452827Y-76606355D01*
X220451458Y-76607542D01*
X220396597Y-76635018D01*
X220389039Y-76636663D01*
X220362668Y-76639500D01*
X219581830Y-76639500D01*
X219546889Y-76634475D01*
X219531890Y-76630070D01*
X219516902Y-76620440D01*
X219499824Y-76615432D01*
X219473144Y-76592327D01*
X219471957Y-76590958D01*
X219444477Y-76536083D01*
X219442832Y-76528521D01*
X219440000Y-76502168D01*
X219440000Y-72341829D01*
X219445023Y-72306893D01*
X219449427Y-72291895D01*
X219459057Y-72276904D01*
X219464067Y-72259824D01*
X219487172Y-72233144D01*
X219488541Y-72231957D01*
X219543420Y-72204477D01*
X219550979Y-72202833D01*
X219577332Y-72200000D01*
X220500000Y-72200000D01*
X220860908Y-72019544D01*
X220887865Y-72009774D01*
X220915227Y-72003315D01*
X220943707Y-72000000D01*
X222268170Y-72000000D01*
X222303106Y-72005023D01*
G37*
%TD.AperFunction*%
%TD*%
M02*
