M48
; DRILL file {KiCad 9.0.7} date 2026-05-26T21:36:09+0200
; FORMAT={-:-/ absolute / metric / decimal}
; #@! TF.CreationDate,2026-05-26T21:36:09+02:00
; #@! TF.GenerationSoftware,Kicad,Pcbnew,9.0.7
; #@! TF.FileFunction,Plated,1,6,PTH
FMAT,2
METRIC
; #@! TA.AperFunction,Plated,PTH,ViaDrill
T1C0.300
; #@! TA.AperFunction,Plated,PTH,ComponentDrill
T2C0.750
; #@! TA.AperFunction,Plated,PTH,ComponentDrill
T3C0.800
; #@! TA.AperFunction,Plated,PTH,ComponentDrill
T4C1.000
%
G90
G05
T1
X211.5Y-45.55
X211.5Y-46.63
X211.5Y-47.6
X211.5Y-51.2
X211.5Y-52.13
X211.5Y-53.1
X211.5Y-56.6
X211.5Y-57.63
X211.5Y-63.1
X211.5Y-64.13
X211.5Y-65.1
X211.5Y-68.6
X211.5Y-69.63
X211.5Y-70.6
X211.5Y-74.1
X211.5Y-75.05
X211.5Y-76.0
X211.56Y-58.6
X211.94Y-71.83
X212.3Y-48.75
X212.3Y-54.25
X212.3Y-60.68
X212.3Y-66.25
X212.5Y-45.55
X212.5Y-46.63
X212.5Y-47.6
X212.5Y-51.2
X212.5Y-52.13
X212.5Y-53.1
X212.5Y-56.6
X212.5Y-57.63
X212.5Y-63.1
X212.5Y-64.13
X212.5Y-65.1
X212.5Y-68.6
X212.5Y-69.63
X212.5Y-70.6
X212.5Y-74.1
X212.5Y-75.05
X212.5Y-76.0
X212.56Y-58.6
X212.7Y-44.1
X213.8Y-45.37
X213.8Y-46.63
X213.8Y-47.9
X213.8Y-50.86
X213.8Y-52.13
X213.8Y-53.4
X213.8Y-56.36
X213.8Y-57.63
X213.8Y-58.9
X213.8Y-62.86
X213.8Y-64.13
X213.8Y-65.4
X213.8Y-68.36
X213.8Y-69.63
X213.8Y-70.9
X213.8Y-73.86
X213.8Y-75.13
X213.8Y-76.4
X214.5Y-42.5
X214.5Y-59.8
X214.5Y-60.5
X214.5Y-77.5
X215.3Y-41.0
X215.3Y-79.0
X215.5Y-42.5
X215.5Y-59.8
X215.5Y-60.5
X215.5Y-77.5
X216.5Y-42.5
X216.5Y-59.8
X216.5Y-60.5
X216.5Y-77.5
X217.5Y-42.5
X217.5Y-59.8
X217.5Y-60.5
X217.5Y-77.5
X218.5Y-42.5
X218.5Y-59.8
X218.5Y-60.5
X218.5Y-77.5
X220.0Y-41.0
X220.53Y-49.6
X220.599Y-47.43
X220.599Y-48.08
X220.62Y-46.81
X220.64Y-46.18
X220.69Y-76.27
X220.71Y-75.66
X220.713Y-53.076
X220.714Y-64.81
X220.72Y-52.44
X220.72Y-64.16
X220.723Y-57.124
X220.724Y-65.43
X220.725Y-74.997
X220.73Y-51.82
X220.73Y-57.79
X220.734Y-58.415
X220.74Y-69.36
X220.76Y-70.0
X220.77Y-70.64
X221.144Y-47.773
X221.15Y-47.14
X221.262Y-51.501
X221.27Y-52.17
X221.274Y-64.5
X221.28Y-63.85
X221.28Y-76.03
X221.281Y-75.369
X221.284Y-65.12
X221.294Y-57.455
X221.294Y-58.085
X221.294Y-58.725
X221.305Y-69.005
X221.31Y-52.82
X221.313Y-74.72
X221.32Y-70.32
X221.321Y-69.655
X221.45Y-60.6
X221.893Y-50.017
X221.914Y-46.591
X221.92Y-71.61
X221.95Y-41.8
X221.952Y-47.39
X222.008Y-70.728
X222.119Y-45.814
X222.211Y-73.0
X222.32Y-78.4
X222.37Y-76.49
X222.71Y-55.33
X222.736Y-69.514
X222.79Y-63.36
X222.813Y-44.287
X222.919Y-65.564
X223.13Y-60.35
X223.272Y-61.251
X223.285Y-58.24
X223.285Y-57.24
X223.5Y-68.58
X224.5Y-42.5
X224.54Y-40.776
X224.63Y-76.08
X224.64Y-67.35
X225.02Y-51.74
X225.07Y-50.81
X225.11Y-52.75
X225.315Y-56.74
X225.315Y-61.74
X225.315Y-63.24
X225.315Y-58.74
X225.315Y-60.74
X225.59Y-67.35
X225.81Y-42.48
X225.91Y-76.08
X226.021Y-57.733
X226.237Y-64.691
X226.259Y-67.789
X226.27Y-43.17
X226.408Y-50.84
X226.49Y-81.19
X226.68Y-78.4
X226.75Y-76.13
X226.75Y-66.705
X226.753Y-42.492
X226.77Y-36.08
X227.0Y-51.7
X227.07Y-59.66
X227.09Y-81.19
X227.099Y-67.616
X227.25Y-64.675
X227.658Y-68.189
X227.68Y-81.2
X227.987Y-51.678
X228.13Y-39.76
X228.25Y-64.675
X228.28Y-81.2
X228.449Y-43.099
X228.536Y-43.916
X228.75Y-55.325
X228.75Y-66.705
X228.88Y-81.2
X228.89Y-59.57
X229.08Y-52.597
X229.25Y-39.91
X229.27Y-44.71
X229.304Y-74.184
X229.433Y-71.64
X229.439Y-46.65
X229.46Y-64.508
X229.47Y-72.841
X229.48Y-81.2
X229.485Y-47.86
X229.75Y-66.705
X229.798Y-48.596
X229.97Y-73.74
X229.995Y-70.553
X230.0Y-45.563
X230.199Y-71.872
X230.204Y-46.882
X230.261Y-72.669
X230.265Y-47.679
X230.35Y-53.198
X230.45Y-78.53
X230.529Y-64.479
X230.53Y-81.2
X230.555Y-71.137
X230.559Y-46.148
X230.567Y-44.947
X230.749Y-39.95
X230.75Y-55.325
X230.75Y-66.705
X230.874Y-68.274
X230.91Y-58.95
X230.91Y-61.1
X231.13Y-81.2
X231.25Y-53.295
X231.45Y-44.52
X231.556Y-67.598
X231.68Y-57.94
X231.7Y-63.18
X231.73Y-81.2
X231.75Y-55.325
X231.75Y-39.78
X232.11Y-68.911
X232.22Y-67.03
X232.25Y-52.08
X232.3Y-76.51
X232.33Y-81.2
X232.34Y-42.9
X232.407Y-50.904
X232.683Y-68.339
X232.75Y-55.325
X232.93Y-51.51
X232.93Y-81.2
X232.96Y-75.91
X233.009Y-66.9
X233.23Y-36.03
X233.25Y-53.295
X233.27Y-64.41
X233.32Y-78.4
X233.384Y-43.268
X233.53Y-81.2
X233.658Y-76.07
X233.786Y-55.278
X233.839Y-51.144
X234.03Y-42.54
X234.44Y-75.9
X234.461Y-59.358
X234.6Y-63.23
X234.685Y-61.24
X234.685Y-62.24
X234.88Y-43.15
X235.46Y-40.733
X236.43Y-65.08
X236.5Y-50.5
X236.5Y-51.5
X236.57Y-54.86
X236.582Y-76.386
X236.6Y-67.36
X236.61Y-75.05
X236.715Y-62.74
X236.715Y-59.24
X236.715Y-61.74
X236.78Y-52.47
X237.31Y-58.4
X237.39Y-41.12
X237.5Y-44.5
X237.5Y-49.5
X237.68Y-78.4
X237.709Y-73.908
X237.751Y-47.386
X237.84Y-76.12
X237.85Y-71.71
X237.86Y-70.22
X237.9Y-59.65
X238.032Y-73.176
X238.48Y-72.351
X238.5Y-43.55
X238.5Y-44.5
X238.5Y-49.5
X238.646Y-71.568
X238.69Y-69.77
X238.69Y-70.42
X238.701Y-63.815
X238.71Y-58.27
X238.71Y-69.13
X238.72Y-64.48
X238.721Y-65.165
X238.73Y-57.61
X238.73Y-58.94
X238.73Y-75.56
X238.73Y-76.19
X238.74Y-74.95
X238.75Y-51.99
X238.75Y-52.61
X238.76Y-46.95
X238.76Y-47.57
X238.76Y-53.23
X239.15Y-60.84
X239.271Y-43.141
X239.28Y-69.41
X239.28Y-70.04
X239.28Y-76.49
X239.29Y-64.17
X239.29Y-64.82
X239.29Y-65.51
X239.29Y-75.25
X239.3Y-46.62
X239.3Y-47.92
X239.3Y-52.28
X239.3Y-53.54
X239.3Y-57.32
X239.3Y-58.65
X239.3Y-67.15
X239.3Y-70.67
X239.3Y-75.88
X239.3Y-57.991
X239.315Y-52.89
X239.358Y-45.978
X239.388Y-47.267
X240.0Y-41.0
X240.5Y-42.5
X240.5Y-59.8
X240.5Y-60.5
X240.5Y-77.5
X241.5Y-42.5
X241.5Y-59.8
X241.5Y-60.5
X241.5Y-77.5
X242.5Y-42.5
X242.5Y-59.8
X242.5Y-60.5
X242.5Y-77.5
X243.5Y-42.5
X243.5Y-59.8
X243.5Y-60.5
X243.5Y-77.5
X244.44Y-60.5
X244.5Y-42.5
X244.5Y-59.8
X244.5Y-77.5
X244.7Y-41.0
X244.7Y-79.0
X245.629Y-43.141
X246.2Y-45.37
X246.2Y-46.63
X246.2Y-47.9
X246.2Y-50.87
X246.2Y-52.13
X246.2Y-53.4
X246.2Y-56.37
X246.2Y-57.63
X246.2Y-58.9
X246.2Y-62.87
X246.2Y-64.13
X246.2Y-65.4
X246.2Y-68.37
X246.2Y-69.63
X246.2Y-70.9
X246.2Y-73.87
X246.2Y-75.13
X246.2Y-76.4
X247.237Y-60.717
X247.3Y-48.75
X247.3Y-54.25
X247.3Y-66.25
X247.3Y-71.75
X247.5Y-45.6
X247.5Y-46.6
X247.5Y-47.6
X247.5Y-51.2
X247.5Y-52.2
X247.5Y-53.2
X247.5Y-56.7
X247.5Y-57.7
X247.5Y-58.7
X247.5Y-63.2
X247.5Y-64.13
X247.5Y-65.0
X247.5Y-68.6
X247.5Y-69.63
X247.5Y-70.6
X247.5Y-74.2
X247.5Y-75.13
X247.5Y-76.0
X248.5Y-45.6
X248.5Y-46.6
X248.5Y-47.6
X248.5Y-51.2
X248.5Y-52.2
X248.5Y-53.2
X248.5Y-56.7
X248.5Y-57.7
X248.5Y-58.7
X248.5Y-63.2
X248.5Y-64.13
X248.5Y-65.0
X248.5Y-68.6
X248.5Y-69.63
X248.5Y-70.6
X248.5Y-74.2
X248.5Y-75.13
X248.5Y-76.0
T2
X227.1Y-39.95
X232.9Y-39.95
T4
X227.49Y-83.05
X232.49Y-83.05
T3
G00X225.67Y-36.57
M15
G01X225.67Y-35.97
M16
G05
G00X225.67Y-40.85
M15
G01X225.67Y-40.05
M16
G05
G00X234.33Y-36.57
M15
G01X234.33Y-35.97
M16
G05
G00X234.33Y-40.85
M15
G01X234.33Y-40.05
M16
G05
M30
