M48
; DRILL file KiCad 10.0.4-10.0.4~ubuntu26.04.1 date 2026-06-21T15:03:44
; FORMAT={-:-/ absolute / metric / decimal}
; #@! TF.CreationDate,2026-06-21T15:03:44+02:00
; #@! TF.GenerationSoftware,Kicad,Pcbnew,10.0.4-10.0.4~ubuntu26.04.1
; #@! TF.FileFunction,Plated,1,6,PTH
FMAT,2
METRIC
; #@! TA.AperFunction,Plated,PTH,ViaDrill
T1C0.300
; #@! TA.AperFunction,Plated,PTH,ComponentDrill
T2C1.000
%
G90
G05
T1
X210.49Y-63.79
X210.5Y-44.48
X210.5Y-46.26
X210.5Y-61.98
X210.5Y-62.87
X210.5Y-67.47
X210.5Y-68.37
X210.5Y-69.27
X210.5Y-73.87
X210.5Y-74.78
X210.51Y-45.37
X210.51Y-72.96
X210.54Y-51.76
X210.55Y-49.99
X210.55Y-50.87
X210.55Y-55.49
X210.55Y-56.37
X210.55Y-57.26
X211.59Y-44.48
X211.59Y-46.26
X211.59Y-51.76
X211.59Y-63.79
X211.6Y-45.37
X211.6Y-49.99
X211.6Y-50.87
X211.6Y-55.49
X211.6Y-56.37
X211.6Y-57.26
X211.6Y-61.98
X211.6Y-62.87
X211.6Y-67.47
X211.6Y-68.37
X211.6Y-69.27
X211.6Y-73.87
X211.6Y-74.78
X211.61Y-72.96
X212.54Y-66.02
X212.59Y-71.53
X212.65Y-51.76
X212.66Y-49.99
X212.66Y-50.87
X212.69Y-55.49
X212.69Y-56.37
X212.69Y-57.26
X212.69Y-63.79
X212.7Y-61.98
X212.7Y-62.87
X212.7Y-67.47
X212.7Y-68.37
X212.7Y-69.27
X212.7Y-73.87
X212.7Y-74.78
X212.71Y-44.48
X212.71Y-46.26
X212.71Y-72.96
X212.72Y-45.37
X215.64Y-78.1
X218.5Y-40.8
X218.5Y-41.3
X218.5Y-41.8
X221.0Y-43.8
X221.0Y-44.4
X221.0Y-45.0
X221.0Y-45.8
X221.0Y-46.4
X221.0Y-47.01
X221.0Y-49.34
X221.0Y-49.94
X221.0Y-50.54
X221.0Y-51.339
X221.0Y-51.94
X221.0Y-52.54
X221.0Y-54.79
X221.0Y-55.39
X221.0Y-55.99
X221.0Y-56.8
X221.0Y-57.4
X221.0Y-58.0
X221.0Y-61.32
X221.0Y-61.92
X221.0Y-62.52
X221.0Y-63.3
X221.0Y-63.9
X221.0Y-64.5
X221.0Y-66.83
X221.0Y-67.43
X221.0Y-68.03
X221.0Y-68.82
X221.0Y-69.42
X221.0Y-70.02
X221.0Y-72.3
X221.0Y-72.9
X221.0Y-73.5
X221.0Y-74.29
X221.0Y-74.89
X221.0Y-75.49
X221.6Y-43.81
X221.6Y-44.41
X221.6Y-45.01
X221.6Y-45.79
X221.6Y-46.39
X221.6Y-47.0
X221.6Y-49.34
X221.6Y-49.94
X221.6Y-50.54
X221.6Y-51.34
X221.6Y-51.94
X221.6Y-52.54
X221.6Y-54.79
X221.6Y-55.39
X221.6Y-55.99
X221.6Y-56.8
X221.6Y-57.4
X221.6Y-58.0
X221.6Y-61.34
X221.6Y-61.95
X221.6Y-62.541
X221.6Y-63.3
X221.6Y-63.9
X221.6Y-64.5
X221.6Y-66.85
X221.6Y-67.46
X221.6Y-68.051
X221.6Y-68.82
X221.6Y-69.42
X221.6Y-70.02
X221.6Y-72.32
X221.6Y-72.93
X221.6Y-73.521
X221.6Y-74.29
X221.6Y-74.89
X221.6Y-75.49
X222.04Y-47.9
X222.04Y-53.4
X222.04Y-58.9
X222.13Y-44.11
X222.13Y-44.71
X222.13Y-46.08
X222.13Y-46.69
X222.13Y-49.65
X222.13Y-50.25
X222.13Y-51.64
X222.13Y-52.24
X222.13Y-57.09
X222.13Y-57.7
X222.13Y-63.59
X222.13Y-64.2
X222.13Y-69.11
X222.13Y-69.72
X222.13Y-74.58
X222.13Y-75.19
X222.14Y-55.09
X222.15Y-55.69
X222.15Y-61.65
X222.15Y-62.25
X222.15Y-67.16
X222.15Y-67.76
X222.15Y-72.63
X222.15Y-73.23
X222.218Y-60.389
X223.244Y-60.214
X223.54Y-49.89
X223.55Y-52.42
X223.74Y-55.69
X223.946Y-64.426
X224.089Y-54.178
X224.5Y-47.5
X224.501Y-50.769
X224.56Y-44.07
X224.64Y-72.37
X224.64Y-75.73
X224.73Y-67.31
X224.74Y-69.35
X225.038Y-45.867
X225.12Y-59.0
X225.12Y-61.6
X225.14Y-65.19
X225.23Y-74.05
X225.34Y-71.63
X225.4Y-53.85
X225.5Y-46.64
X225.536Y-44.954
X225.62Y-48.45
X225.64Y-73.22
X225.64Y-74.88
X226.06Y-66.42
X226.33Y-57.88
X226.33Y-58.72
X226.33Y-61.88
X226.33Y-62.72
X226.44Y-41.78
X226.49Y-81.19
X226.59Y-78.16
X227.09Y-81.19
X227.25Y-68.97
X227.25Y-69.6
X227.33Y-58.73
X227.33Y-61.87
X227.34Y-51.35
X227.34Y-50.728
X227.43Y-41.78
X227.58Y-78.16
X227.68Y-81.2
X227.9Y-69.6
X227.96Y-50.72
X228.13Y-45.99
X228.13Y-74.28
X228.28Y-81.2
X228.33Y-58.73
X228.33Y-61.87
X228.38Y-41.75
X228.53Y-78.25
X228.88Y-81.2
X229.22Y-41.75
X229.37Y-78.25
X229.48Y-81.2
X229.5Y-61.87
X229.97Y-72.11
X230.01Y-48.69
X230.5Y-58.73
X230.53Y-81.2
X230.68Y-78.22
X230.7Y-41.63
X231.13Y-81.2
X231.52Y-78.22
X231.54Y-41.63
X231.67Y-58.73
X231.67Y-61.87
X231.73Y-81.2
X231.84Y-45.79
X232.05Y-50.83
X232.13Y-69.53
X232.17Y-74.19
X232.33Y-81.2
X232.47Y-78.12
X232.5Y-41.77
X232.66Y-50.84
X232.67Y-51.45
X232.67Y-58.73
X232.67Y-61.87
X232.73Y-68.91
X232.73Y-69.53
X232.93Y-81.2
X233.46Y-78.13
X233.51Y-41.76
X233.53Y-81.2
X233.67Y-57.88
X233.67Y-58.72
X233.67Y-61.88
X233.67Y-62.72
X233.91Y-71.816
X234.213Y-48.197
X234.46Y-73.32
X234.541Y-74.3
X234.6Y-44.42
X234.61Y-54.86
X234.613Y-47.191
X234.624Y-46.354
X234.844Y-66.006
X234.88Y-59.0
X234.88Y-61.6
X234.97Y-53.54
X235.092Y-69.35
X235.23Y-45.5
X235.33Y-56.07
X235.46Y-72.47
X235.6Y-43.57
X235.61Y-48.86
X235.88Y-69.54
X235.897Y-51.313
X235.9Y-65.84
X235.99Y-64.9
X236.42Y-67.31
X236.45Y-75.28
X236.45Y-76.12
X236.961Y-60.015
X237.82Y-56.16
X237.82Y-56.77
X237.83Y-63.39
X237.84Y-58.18
X237.84Y-58.78
X237.84Y-62.8
X237.84Y-64.79
X237.84Y-65.39
X237.84Y-75.84
X237.84Y-76.44
X237.85Y-45.19
X237.85Y-45.82
X237.85Y-47.21
X237.85Y-47.82
X237.85Y-50.71
X237.85Y-51.32
X237.85Y-52.69
X237.85Y-53.29
X237.85Y-70.27
X237.85Y-70.87
X237.87Y-68.3
X237.87Y-68.91
X237.87Y-73.85
X237.87Y-74.46
X237.97Y-61.6
X237.97Y-67.1
X237.97Y-72.57
X238.33Y-60.02
X238.39Y-75.549
X238.39Y-76.14
X238.39Y-76.75
X238.4Y-44.9
X238.4Y-45.5
X238.4Y-46.1
X238.4Y-46.91
X238.4Y-47.51
X238.4Y-48.11
X238.4Y-50.4
X238.4Y-51.0
X238.4Y-51.6
X238.4Y-52.4
X238.4Y-53.0
X238.4Y-53.6
X238.4Y-55.88
X238.4Y-56.48
X238.4Y-57.08
X238.4Y-57.89
X238.4Y-58.49
X238.4Y-59.09
X238.4Y-62.48
X238.4Y-63.07
X238.4Y-63.67
X238.4Y-64.5
X238.4Y-65.1
X238.4Y-65.7
X238.4Y-68.0
X238.4Y-68.6
X238.4Y-69.2
X238.4Y-69.979
X238.4Y-70.57
X238.4Y-71.18
X238.4Y-73.55
X238.4Y-74.15
X238.4Y-74.75
X238.99Y-75.57
X238.99Y-76.17
X238.99Y-76.77
X239.0Y-44.9
X239.0Y-45.5
X239.0Y-46.1
X239.0Y-46.91
X239.0Y-47.51
X239.0Y-48.11
X239.0Y-50.4
X239.0Y-51.0
X239.0Y-51.6
X239.0Y-52.4
X239.0Y-53.0
X239.0Y-53.6
X239.0Y-55.88
X239.0Y-56.48
X239.0Y-57.08
X239.0Y-57.89
X239.0Y-58.49
X239.0Y-59.09
X239.0Y-62.459
X239.0Y-63.08
X239.0Y-63.69
X239.0Y-64.5
X239.0Y-65.1
X239.0Y-65.7
X239.0Y-68.0
X239.0Y-68.6
X239.0Y-69.2
X239.0Y-70.0
X239.0Y-70.6
X239.0Y-71.2
X239.0Y-73.55
X239.0Y-74.15
X239.0Y-74.75
X243.82Y-42.44
X247.29Y-68.75
X247.29Y-69.64
X247.29Y-70.55
X247.3Y-51.25
X247.3Y-52.13
X247.3Y-53.03
X247.3Y-63.4
X247.3Y-64.22
X247.3Y-65.12
X247.31Y-74.16
X247.31Y-75.09
X247.32Y-76.0
X247.34Y-57.64
X247.35Y-56.74
X247.35Y-58.54
X247.51Y-45.7
X247.51Y-46.63
X247.51Y-47.5
X247.61Y-48.95
X247.61Y-54.45
X248.39Y-63.4
X248.39Y-64.22
X248.39Y-65.12
X248.39Y-68.75
X248.39Y-69.64
X248.39Y-70.55
X248.4Y-45.7
X248.4Y-46.63
X248.4Y-47.5
X248.4Y-51.25
X248.4Y-52.13
X248.4Y-53.03
X248.4Y-57.63
X248.41Y-56.73
X248.41Y-58.53
X248.46Y-74.16
X248.46Y-75.09
X248.47Y-76.0
X249.33Y-45.7
X249.33Y-46.63
X249.33Y-47.5
X249.48Y-63.4
X249.48Y-64.22
X249.48Y-65.12
X249.49Y-57.63
X249.5Y-56.73
X249.5Y-58.53
X249.51Y-68.75
X249.51Y-69.64
X249.51Y-70.55
X249.52Y-74.16
X249.52Y-75.09
X249.53Y-76.0
X249.55Y-51.25
X249.55Y-52.13
X249.55Y-53.03
T2
X227.5Y-83.05
X232.5Y-83.05
M30
