%TF.GenerationSoftware,KiCad,Pcbnew,10.0.4-10.0.4~ubuntu26.04.1*%
%TF.CreationDate,2026-07-04T16:40:04+02:00*%
%TF.ProjectId,esc,6573632e-6b69-4636-9164-5f7063625858,rev?*%
%TF.SameCoordinates,Original*%
%TF.FileFunction,Soldermask,Bot*%
%TF.FilePolarity,Negative*%
%FSLAX46Y46*%
G04 Gerber Fmt 4.6, Leading zero omitted, Abs format (unit mm)*
G04 Created by KiCad (PCBNEW 10.0.4-10.0.4~ubuntu26.04.1) date 2026-07-04 16:40:04*
%MOMM*%
%LPD*%
G01*
G04 APERTURE LIST*
G04 Aperture macros list*
%AMRoundRect*
0 Rectangle with rounded corners*
0 $1 Rounding radius*
0 $2 $3 $4 $5 $6 $7 $8 $9 X,Y pos of 4 corners*
0 Add a 4 corners polygon primitive as box body*
4,1,4,$2,$3,$4,$5,$6,$7,$8,$9,$2,$3,0*
0 Add four circle primitives for the rounded corners*
1,1,$1+$1,$2,$3*
1,1,$1+$1,$4,$5*
1,1,$1+$1,$6,$7*
1,1,$1+$1,$8,$9*
0 Add four rect primitives between the rounded corners*
20,1,$1+$1,$2,$3,$4,$5,0*
20,1,$1+$1,$4,$5,$6,$7,0*
20,1,$1+$1,$6,$7,$8,$9,0*
20,1,$1+$1,$8,$9,$2,$3,0*%
%AMFreePoly0*
4,1,16,0.401585,0.200063,0.436915,0.185357,0.451498,0.149976,0.451489,0.149113,0.449330,0.035550,0.435502,0.001971,0.256762,-0.185227,0.221754,-0.200685,0.220599,-0.200698,-0.401244,-0.200698,-0.436599,-0.186053,-0.451244,-0.150715,-0.451345,0.151443,-0.436712,0.186804,-0.401362,0.201460,0.401585,0.200063,0.401585,0.200063,$1*%
%AMFreePoly1*
4,1,16,0.255954,0.186002,0.256762,0.185176,0.435502,-0.002022,0.449330,-0.035601,0.451489,-0.149164,0.437519,-0.184791,0.402448,-0.200105,0.401585,-0.200114,-0.401258,-0.201511,-0.436639,-0.186928,-0.451345,-0.151598,-0.451244,0.150664,-0.436588,0.186014,-0.401244,0.200647,0.220599,0.200647,0.255954,0.186002,0.255954,0.186002,$1*%
%AMFreePoly2*
4,1,16,0.186499,0.418424,0.201155,0.383074,0.199758,-0.419873,0.185052,-0.455203,0.149671,-0.469786,0.148808,-0.469777,0.035245,-0.467618,0.001666,-0.453790,-0.185532,-0.275050,-0.200990,-0.240042,-0.201003,-0.238887,-0.201003,0.382956,-0.186358,0.418311,-0.151020,0.432956,0.151138,0.433057,0.186499,0.418424,0.186499,0.418424,$1*%
%AMFreePoly3*
4,1,16,0.151172,0.432956,0.186522,0.418300,0.201155,0.382956,0.201155,-0.238887,0.186510,-0.274242,0.185684,-0.275050,-0.001514,-0.453790,-0.035093,-0.467618,-0.148656,-0.469777,-0.184283,-0.455807,-0.199597,-0.420736,-0.199606,-0.419873,-0.201003,0.382970,-0.186420,0.418351,-0.151090,0.433057,0.151172,0.432956,0.151172,0.432956,$1*%
%AMFreePoly4*
4,1,16,0.436599,0.185952,0.451244,0.150614,0.451345,-0.151545,0.436712,-0.186906,0.401362,-0.201562,-0.401585,-0.200165,-0.436915,-0.185459,-0.451498,-0.150078,-0.451489,-0.149215,-0.449330,-0.035651,-0.435502,-0.002072,-0.256762,0.185126,-0.221754,0.200584,-0.220599,0.200597,0.401244,0.200597,0.436599,0.185952,0.436599,0.185952,$1*%
%AMFreePoly5*
4,1,16,0.436639,0.186801,0.451345,0.151471,0.451244,-0.150791,0.436588,-0.186141,0.401244,-0.200774,-0.220599,-0.200774,-0.255954,-0.186129,-0.256762,-0.185303,-0.435502,0.001895,-0.449330,0.035474,-0.451489,0.149037,-0.437519,0.184664,-0.402448,0.199978,-0.401585,0.199987,0.401258,0.201384,0.436639,0.186801,0.436639,0.186801,$1*%
%AMFreePoly6*
4,1,16,-0.148783,0.469777,-0.035220,0.467618,-0.001641,0.453790,0.185557,0.275050,0.201015,0.240042,0.201028,0.238887,0.201028,-0.382956,0.186383,-0.418311,0.151045,-0.432956,-0.151113,-0.433057,-0.186474,-0.418424,-0.201130,-0.383074,-0.199733,0.419873,-0.185027,0.455203,-0.149646,0.469786,-0.148783,0.469777,-0.148783,0.469777,$1*%
%AMFreePoly7*
4,1,16,0.184435,0.455807,0.199749,0.420736,0.199758,0.419873,0.201155,-0.382970,0.186572,-0.418351,0.151242,-0.433057,-0.151020,-0.432956,-0.186370,-0.418300,-0.201003,-0.382956,-0.201003,0.238887,-0.186358,0.274242,-0.185532,0.275050,0.001666,0.453790,0.035245,0.467618,0.148808,0.469777,0.184435,0.455807,0.184435,0.455807,$1*%
G04 Aperture macros list end*
%ADD10C,2.100000*%
%ADD11C,1.600000*%
%ADD12RoundRect,0.150000X0.350000X0.600000X-0.350000X0.600000X-0.350000X-0.600000X0.350000X-0.600000X0*%
%ADD13R,0.540000X0.500000*%
%ADD14R,0.566000X0.540000*%
%ADD15O,0.280000X0.800000*%
%ADD16O,0.800000X0.280000*%
%ADD17R,2.700000X2.700000*%
%ADD18R,0.540000X0.566000*%
%ADD19RoundRect,0.450000X1.050000X1.050000X-1.050000X1.050000X-1.050000X-1.050000X1.050000X-1.050000X0*%
%ADD20R,0.500000X0.540000*%
%ADD21FreePoly0,0.000000*%
%ADD22R,1.000000X0.300000*%
%ADD23FreePoly1,0.000000*%
%ADD24FreePoly2,0.000000*%
%ADD25R,0.300000X1.000000*%
%ADD26FreePoly3,0.000000*%
%ADD27FreePoly4,0.000000*%
%ADD28FreePoly5,0.000000*%
%ADD29FreePoly6,0.000000*%
%ADD30FreePoly7,0.000000*%
%ADD31R,0.900000X0.800000*%
%ADD32RoundRect,0.450000X-1.050000X-1.050000X1.050000X-1.050000X1.050000X1.050000X-1.050000X1.050000X0*%
%ADD33FreePoly0,180.000000*%
%ADD34FreePoly1,180.000000*%
%ADD35FreePoly2,180.000000*%
%ADD36FreePoly3,180.000000*%
%ADD37FreePoly4,180.000000*%
%ADD38FreePoly5,180.000000*%
%ADD39FreePoly6,180.000000*%
%ADD40FreePoly7,180.000000*%
G04 APERTURE END LIST*
D10*
%TO.C,REF\u002A\u002A*%
X246000000Y-82000000D03*
%TD*%
%TO.C,REF\u002A\u002A*%
X246000000Y-38000000D03*
%TD*%
%TO.C,REF\u002A\u002A*%
X214000000Y-82000000D03*
%TD*%
%TO.C,REF\u002A\u002A*%
X214000000Y-38000000D03*
%TD*%
%TO.C,REF\u002A\u002A*%
X252000000Y-76000000D03*
%TD*%
%TO.C,REF\u002A\u002A*%
X208000000Y-76000000D03*
%TD*%
D11*
%TO.C,C0*%
X227500000Y-83050000D03*
X232500000Y-83050000D03*
%TD*%
D10*
%TO.C,REF\u002A\u002A*%
X208000000Y-44000000D03*
%TD*%
%TO.C,REF\u002A\u002A*%
X252000000Y-44000000D03*
%TD*%
D12*
%TO.C,DShot_M4*%
X222000000Y-76500000D03*
%TD*%
D13*
%TO.C,C9*%
X236650000Y-48890000D03*
X236650000Y-49730000D03*
%TD*%
D14*
%TO.C,R48*%
X211070000Y-57900000D03*
X211930000Y-57900000D03*
%TD*%
D15*
%TO.C,GD4*%
X239450000Y-75000000D03*
X238950000Y-75000000D03*
X238450000Y-75000000D03*
X237950000Y-75000000D03*
X237450000Y-75000000D03*
X236950000Y-75000000D03*
D16*
X236200000Y-74250000D03*
X236200000Y-73750000D03*
X236200000Y-73250000D03*
X236200000Y-72750000D03*
X236200000Y-72250000D03*
X236200000Y-71750000D03*
D15*
X236950000Y-71000000D03*
X237450000Y-71000000D03*
X237950000Y-71000000D03*
X238450000Y-71000000D03*
X238950000Y-71000000D03*
X239440000Y-71000000D03*
D16*
X240200000Y-71750000D03*
X240200000Y-72250000D03*
X240200000Y-72750000D03*
X240200000Y-73250000D03*
X240200000Y-73750000D03*
X240200000Y-74250000D03*
D17*
X238190000Y-73000000D03*
%TD*%
D18*
%TO.C,R53*%
X215200000Y-59030000D03*
X215200000Y-58170000D03*
%TD*%
D14*
%TO.C,R1*%
X230230000Y-51400000D03*
X229370000Y-51400000D03*
%TD*%
D19*
%TO.C,J5*%
X214600000Y-70000000D03*
%TD*%
%TO.C,J6*%
X214600000Y-76000000D03*
%TD*%
D18*
%TO.C,R56*%
X239000000Y-78930000D03*
X239000000Y-78070000D03*
%TD*%
D20*
%TO.C,C8*%
X243400000Y-47010000D03*
X242560000Y-47010000D03*
%TD*%
D13*
%TO.C,C28*%
X213200000Y-67020000D03*
X213200000Y-66180000D03*
%TD*%
D18*
%TO.C,R29*%
X218350000Y-77900000D03*
X218350000Y-77040000D03*
%TD*%
D20*
%TO.C,C37*%
X216270000Y-47030000D03*
X217110000Y-47030000D03*
%TD*%
D13*
%TO.C,C17*%
X231000000Y-65580000D03*
X231000000Y-66420000D03*
%TD*%
D21*
%TO.C,M1*%
X231550000Y-53990000D03*
D22*
X231650000Y-53490000D03*
X231650000Y-52990000D03*
X231650000Y-52490000D03*
D23*
X231550000Y-51990000D03*
D24*
X232100000Y-51440000D03*
D25*
X232600000Y-51560000D03*
X233100000Y-51560000D03*
X233600000Y-51560000D03*
D26*
X234100000Y-51440000D03*
D27*
X234650000Y-51990000D03*
D22*
X234550000Y-52490000D03*
X234550000Y-52990000D03*
X234550000Y-53490000D03*
D28*
X234650000Y-53990000D03*
D29*
X234100000Y-54560000D03*
D25*
X233600000Y-54440000D03*
X233100000Y-54440000D03*
X232600000Y-54440000D03*
D30*
X232100000Y-54560000D03*
%TD*%
D18*
%TO.C,R35*%
X215200000Y-79030000D03*
X215200000Y-78170000D03*
%TD*%
D31*
%TO.C,C35*%
X224900000Y-42650000D03*
X224900000Y-41250000D03*
%TD*%
%TO.C,C21*%
X225030000Y-61700000D03*
X225030000Y-60300000D03*
%TD*%
D18*
%TO.C,R9*%
X241650000Y-48110000D03*
X241650000Y-48970000D03*
%TD*%
D19*
%TO.C,J3*%
X245400000Y-44000000D03*
%TD*%
D13*
%TO.C,C3*%
X229200000Y-54270000D03*
X229200000Y-53430000D03*
%TD*%
D18*
%TO.C,R65*%
X241650000Y-62120000D03*
X241650000Y-62980000D03*
%TD*%
D13*
%TO.C,C2*%
X230200000Y-54270000D03*
X230200000Y-53430000D03*
%TD*%
D14*
%TO.C,R24*%
X224370000Y-63900000D03*
X225230000Y-63900000D03*
%TD*%
D18*
%TO.C,R36*%
X214200000Y-78170000D03*
X214200000Y-79030000D03*
%TD*%
D31*
%TO.C,C50*%
X235690000Y-77800000D03*
X235690000Y-79200000D03*
%TD*%
D14*
%TO.C,R78*%
X227700000Y-73900000D03*
X226840000Y-73900000D03*
%TD*%
D21*
%TO.C,M4*%
X231550000Y-73990000D03*
D22*
X231650000Y-73490000D03*
X231650000Y-72990000D03*
X231650000Y-72490000D03*
D23*
X231550000Y-71990000D03*
D24*
X232100000Y-71440000D03*
D25*
X232600000Y-71560000D03*
X233100000Y-71560000D03*
X233600000Y-71560000D03*
D26*
X234100000Y-71440000D03*
D27*
X234650000Y-71990000D03*
D22*
X234550000Y-72490000D03*
X234550000Y-72990000D03*
X234550000Y-73490000D03*
D28*
X234650000Y-73990000D03*
D29*
X234100000Y-74560000D03*
D25*
X233600000Y-74440000D03*
X233100000Y-74440000D03*
X232600000Y-74440000D03*
D30*
X232100000Y-74560000D03*
%TD*%
D32*
%TO.C,J9*%
X214600000Y-56000000D03*
%TD*%
D18*
%TO.C,R50*%
X214200000Y-46170000D03*
X214200000Y-47030000D03*
%TD*%
%TO.C,R13*%
X244600000Y-52970000D03*
X244600000Y-53830000D03*
%TD*%
D14*
%TO.C,R6*%
X235730000Y-56000000D03*
X234870000Y-56000000D03*
%TD*%
D13*
%TO.C,C58*%
X246600000Y-72980000D03*
X246600000Y-73820000D03*
%TD*%
D18*
%TO.C,R49*%
X215200000Y-47030000D03*
X215200000Y-46170000D03*
%TD*%
D13*
%TO.C,C39*%
X223330000Y-51250000D03*
X223330000Y-50410000D03*
%TD*%
D18*
%TO.C,R47*%
X218350000Y-57900000D03*
X218350000Y-57040000D03*
%TD*%
D31*
%TO.C,C5*%
X236390000Y-58500000D03*
X236390000Y-59900000D03*
%TD*%
D18*
%TO.C,R20*%
X221400000Y-60570000D03*
X221400000Y-61430000D03*
%TD*%
D12*
%TO.C,SWCLK_M1*%
X238000000Y-40850000D03*
%TD*%
D14*
%TO.C,R26*%
X211070000Y-65900000D03*
X211930000Y-65900000D03*
%TD*%
D33*
%TO.C,M2*%
X228450000Y-66010000D03*
D22*
X228350000Y-66510000D03*
X228350000Y-67010000D03*
X228350000Y-67510000D03*
D34*
X228450000Y-68010000D03*
D35*
X227900000Y-68560000D03*
D25*
X227400000Y-68440000D03*
X226900000Y-68440000D03*
X226400000Y-68440000D03*
D36*
X225900000Y-68560000D03*
D37*
X225350000Y-68010000D03*
D22*
X225450000Y-67510000D03*
X225450000Y-67010000D03*
X225450000Y-66510000D03*
D38*
X225350000Y-66010000D03*
D39*
X225900000Y-65440000D03*
D25*
X226400000Y-65560000D03*
X226900000Y-65560000D03*
X227400000Y-65560000D03*
D40*
X227900000Y-65440000D03*
%TD*%
D14*
%TO.C,R73*%
X234140000Y-48000000D03*
X235000000Y-48000000D03*
%TD*%
D18*
%TO.C,R14*%
X245600000Y-53830000D03*
X245600000Y-52970000D03*
%TD*%
%TO.C,R54*%
X214200000Y-58170000D03*
X214200000Y-59030000D03*
%TD*%
%TO.C,R23*%
X219400000Y-61430000D03*
X219400000Y-60570000D03*
%TD*%
D32*
%TO.C,J8*%
X214600000Y-50000000D03*
%TD*%
D15*
%TO.C,GD2*%
X220550000Y-65000000D03*
X221050000Y-65000000D03*
X221550000Y-65000000D03*
X222050000Y-65000000D03*
X222550000Y-65000000D03*
X223050000Y-65000000D03*
D16*
X223800000Y-65750000D03*
X223800000Y-66250000D03*
X223800000Y-66750000D03*
X223800000Y-67250000D03*
X223800000Y-67750000D03*
X223800000Y-68250000D03*
D15*
X223050000Y-69000000D03*
X222550000Y-69000000D03*
X222050000Y-69000000D03*
X221550000Y-69000000D03*
X221050000Y-69000000D03*
X220560000Y-69000000D03*
D16*
X219800000Y-68250000D03*
X219800000Y-67750000D03*
X219800000Y-67250000D03*
X219800000Y-66750000D03*
X219800000Y-66250000D03*
X219800000Y-65750000D03*
D17*
X221810000Y-67000000D03*
%TD*%
D18*
%TO.C,R21*%
X220400000Y-61430000D03*
X220400000Y-60570000D03*
%TD*%
%TO.C,R59*%
X241000000Y-78070000D03*
X241000000Y-78930000D03*
%TD*%
%TO.C,R40*%
X218400000Y-41070000D03*
X218400000Y-41930000D03*
%TD*%
D14*
%TO.C,R25*%
X218330000Y-65900000D03*
X217470000Y-65900000D03*
%TD*%
D18*
%TO.C,R39*%
X220400000Y-41930000D03*
X220400000Y-41070000D03*
%TD*%
D31*
%TO.C,C6*%
X234970000Y-58500000D03*
X234970000Y-59900000D03*
%TD*%
D19*
%TO.C,POWER_OUT1*%
X232000000Y-83000000D03*
X228000000Y-83000000D03*
%TD*%
D20*
%TO.C,C1*%
X230220000Y-52400000D03*
X229380000Y-52400000D03*
%TD*%
D14*
%TO.C,R8*%
X248930000Y-54100000D03*
X248070000Y-54100000D03*
%TD*%
D20*
%TO.C,C62*%
X226850000Y-72900000D03*
X227690000Y-72900000D03*
%TD*%
D14*
%TO.C,R77*%
X225880000Y-72400000D03*
X225020000Y-72400000D03*
%TD*%
D31*
%TO.C,C20*%
X223610000Y-61700000D03*
X223610000Y-60300000D03*
%TD*%
D18*
%TO.C,R87*%
X237030000Y-66050000D03*
X237030000Y-66910000D03*
%TD*%
%TO.C,R71*%
X244600000Y-60970000D03*
X244600000Y-61830000D03*
%TD*%
%TO.C,R52*%
X214200000Y-52170000D03*
X214200000Y-53030000D03*
%TD*%
%TO.C,R5*%
X240600000Y-58770000D03*
X240600000Y-59630000D03*
%TD*%
%TO.C,R72*%
X245600000Y-61830000D03*
X245600000Y-60970000D03*
%TD*%
%TO.C,R4*%
X241600000Y-59630000D03*
X241600000Y-58770000D03*
%TD*%
D14*
%TO.C,R37*%
X229870000Y-48490000D03*
X230730000Y-48490000D03*
%TD*%
D13*
%TO.C,C14*%
X246600000Y-46980000D03*
X246600000Y-47820000D03*
%TD*%
D12*
%TO.C,3V3*%
X230000000Y-40850000D03*
%TD*%
D13*
%TO.C,C24*%
X223120000Y-70910000D03*
X223120000Y-70070000D03*
%TD*%
D18*
%TO.C,R34*%
X214200000Y-72170000D03*
X214200000Y-73030000D03*
%TD*%
D12*
%TO.C,SWCLK_M4*%
X224000000Y-76500000D03*
%TD*%
D18*
%TO.C,R41*%
X219400000Y-41930000D03*
X219400000Y-41070000D03*
%TD*%
D20*
%TO.C,C34*%
X223470000Y-41060000D03*
X222630000Y-41060000D03*
%TD*%
D13*
%TO.C,C59*%
X246600000Y-66780000D03*
X246600000Y-67620000D03*
%TD*%
D14*
%TO.C,R60*%
X235700000Y-75850000D03*
X234840000Y-75850000D03*
%TD*%
D12*
%TO.C,SWDIO_M1*%
X240000000Y-40840000D03*
%TD*%
%TO.C,SWDIO_M2*%
X220000000Y-78950000D03*
%TD*%
D20*
%TO.C,C16*%
X229880000Y-67370000D03*
X230720000Y-67370000D03*
%TD*%
D19*
%TO.C,J10*%
X245500000Y-76000000D03*
%TD*%
D13*
%TO.C,C44*%
X213200000Y-53020000D03*
X213200000Y-52180000D03*
%TD*%
D14*
%TO.C,R74*%
X234140000Y-47000000D03*
X235000000Y-47000000D03*
%TD*%
D12*
%TO.C,SWDIO_M3*%
X236000000Y-40840000D03*
%TD*%
D14*
%TO.C,R64*%
X248930000Y-68100000D03*
X248070000Y-68100000D03*
%TD*%
D18*
%TO.C,R88*%
X236030000Y-66050000D03*
X236030000Y-66910000D03*
%TD*%
D14*
%TO.C,R80*%
X225880000Y-74400000D03*
X225020000Y-74400000D03*
%TD*%
D13*
%TO.C,C29*%
X213200000Y-73020000D03*
X213200000Y-72180000D03*
%TD*%
D14*
%TO.C,R76*%
X232270000Y-45000000D03*
X233130000Y-45000000D03*
%TD*%
D18*
%TO.C,R31*%
X215200000Y-67030000D03*
X215200000Y-66170000D03*
%TD*%
D13*
%TO.C,C45*%
X213200000Y-59020000D03*
X213200000Y-58180000D03*
%TD*%
D14*
%TO.C,R84*%
X225730000Y-54000000D03*
X224870000Y-54000000D03*
%TD*%
D31*
%TO.C,C36*%
X226320000Y-42650000D03*
X226320000Y-41250000D03*
%TD*%
D20*
%TO.C,C49*%
X237080000Y-78940000D03*
X237920000Y-78940000D03*
%TD*%
D18*
%TO.C,R15*%
X244600000Y-46970000D03*
X244600000Y-47830000D03*
%TD*%
D20*
%TO.C,C31*%
X229880000Y-47500000D03*
X230720000Y-47500000D03*
%TD*%
D14*
%TO.C,R44*%
X211070000Y-45900000D03*
X211930000Y-45900000D03*
%TD*%
D13*
%TO.C,C15*%
X246600000Y-40980000D03*
X246600000Y-41820000D03*
%TD*%
D20*
%TO.C,C22*%
X216280000Y-67000000D03*
X217120000Y-67000000D03*
%TD*%
D19*
%TO.C,J4*%
X214600000Y-64000000D03*
%TD*%
D18*
%TO.C,R82*%
X225750000Y-55970000D03*
X225750000Y-55110000D03*
%TD*%
%TO.C,R58*%
X242000000Y-78930000D03*
X242000000Y-78070000D03*
%TD*%
%TO.C,R67*%
X244600000Y-72970000D03*
X244600000Y-73830000D03*
%TD*%
D13*
%TO.C,C32*%
X231000000Y-45710000D03*
X231000000Y-46550000D03*
%TD*%
%TO.C,C63*%
X226830000Y-55170000D03*
X226830000Y-56010000D03*
%TD*%
D14*
%TO.C,R62*%
X248930000Y-74100000D03*
X248070000Y-74100000D03*
%TD*%
D13*
%TO.C,C43*%
X213200000Y-47020000D03*
X213200000Y-46180000D03*
%TD*%
D18*
%TO.C,R70*%
X245600000Y-67630000D03*
X245600000Y-66770000D03*
%TD*%
D14*
%TO.C,R79*%
X225880000Y-73400000D03*
X225020000Y-73400000D03*
%TD*%
D13*
%TO.C,C33*%
X230000000Y-45710000D03*
X230000000Y-46550000D03*
%TD*%
D20*
%TO.C,C53*%
X243410000Y-67000000D03*
X242570000Y-67000000D03*
%TD*%
D18*
%TO.C,R17*%
X244600000Y-40970000D03*
X244600000Y-41830000D03*
%TD*%
D14*
%TO.C,R28*%
X211070000Y-71900000D03*
X211930000Y-71900000D03*
%TD*%
%TO.C,R10*%
X248930000Y-48100000D03*
X248070000Y-48100000D03*
%TD*%
D15*
%TO.C,GD1*%
X239450000Y-55000000D03*
X238950001Y-55000000D03*
X238450000Y-55000000D03*
X237950000Y-55000000D03*
X237449999Y-55000000D03*
X236950000Y-55000000D03*
D16*
X236200000Y-54250000D03*
X236200000Y-53750001D03*
X236200000Y-53250000D03*
X236200000Y-52750000D03*
X236200000Y-52249999D03*
X236200000Y-51750000D03*
D15*
X236950000Y-51000000D03*
X237449999Y-51000000D03*
X237950000Y-51000000D03*
X238450000Y-51000000D03*
X238950001Y-51000000D03*
X239440000Y-51000000D03*
D16*
X240200000Y-51750000D03*
X240200000Y-52249999D03*
X240200000Y-52750000D03*
X240200000Y-53250000D03*
X240200000Y-53750001D03*
X240200000Y-54250000D03*
D17*
X238190000Y-53000000D03*
%TD*%
D19*
%TO.C,J11*%
X245400000Y-70000000D03*
%TD*%
D14*
%TO.C,R66*%
X248930000Y-62100000D03*
X248070000Y-62100000D03*
%TD*%
D18*
%TO.C,R33*%
X215200000Y-73030000D03*
X215200000Y-72170000D03*
%TD*%
%TO.C,R16*%
X245600000Y-47830000D03*
X245600000Y-46970000D03*
%TD*%
%TO.C,R38*%
X221400000Y-41070000D03*
X221400000Y-41930000D03*
%TD*%
%TO.C,R69*%
X244600000Y-66770000D03*
X244600000Y-67630000D03*
%TD*%
D19*
%TO.C,J2*%
X245400000Y-50000000D03*
%TD*%
D14*
%TO.C,R55*%
X230230000Y-71570000D03*
X229370000Y-71570000D03*
%TD*%
%TO.C,R75*%
X234140000Y-46000000D03*
X235000000Y-46000000D03*
%TD*%
D18*
%TO.C,R3*%
X239600000Y-58770000D03*
X239600000Y-59630000D03*
%TD*%
D13*
%TO.C,C54*%
X236790000Y-68960000D03*
X236790000Y-69800000D03*
%TD*%
%TO.C,C48*%
X229200000Y-74360000D03*
X229200000Y-73520000D03*
%TD*%
D14*
%TO.C,R30*%
X211070000Y-77900000D03*
X211930000Y-77900000D03*
%TD*%
D20*
%TO.C,C61*%
X233120000Y-46000000D03*
X232280000Y-46000000D03*
%TD*%
D14*
%TO.C,R61*%
X241690000Y-74080000D03*
X242550000Y-74080000D03*
%TD*%
D13*
%TO.C,C19*%
X222400000Y-61020000D03*
X222400000Y-60180000D03*
%TD*%
D12*
%TO.C,DShot_M1*%
X240000000Y-43200000D03*
%TD*%
%TO.C,DShot_M3*%
X238000000Y-43200000D03*
%TD*%
%TO.C,SWDIO_M4*%
X224000000Y-78950000D03*
%TD*%
D13*
%TO.C,C64*%
X236520000Y-65020000D03*
X236520000Y-64180000D03*
%TD*%
D20*
%TO.C,C23*%
X216480000Y-73000000D03*
X217320000Y-73000000D03*
%TD*%
D18*
%TO.C,R85*%
X238030000Y-66050000D03*
X238030000Y-66910000D03*
%TD*%
%TO.C,R57*%
X240000000Y-78070000D03*
X240000000Y-78930000D03*
%TD*%
D14*
%TO.C,R12*%
X248930000Y-42100000D03*
X248070000Y-42100000D03*
%TD*%
D13*
%TO.C,C60*%
X246600000Y-60980000D03*
X246600000Y-61820000D03*
%TD*%
D18*
%TO.C,R68*%
X245600000Y-73830000D03*
X245600000Y-72970000D03*
%TD*%
%TO.C,R45*%
X218350000Y-51890000D03*
X218350000Y-51030000D03*
%TD*%
%TO.C,R86*%
X237520000Y-64170000D03*
X237520000Y-65030000D03*
%TD*%
D20*
%TO.C,C7*%
X243520000Y-52930000D03*
X242680000Y-52930000D03*
%TD*%
D13*
%TO.C,C47*%
X230200000Y-74360000D03*
X230200000Y-73520000D03*
%TD*%
D12*
%TO.C,DShot_M2*%
X220000000Y-76500000D03*
%TD*%
D14*
%TO.C,R43*%
X218470000Y-45910000D03*
X217610000Y-45910000D03*
%TD*%
D19*
%TO.C,J1*%
X245400000Y-56000000D03*
%TD*%
D12*
%TO.C,SWCLK_M3*%
X236000000Y-43200000D03*
%TD*%
D13*
%TO.C,C18*%
X230000000Y-65580000D03*
X230000000Y-66420000D03*
%TD*%
D19*
%TO.C,J12*%
X245400000Y-64000000D03*
%TD*%
D14*
%TO.C,R7*%
X241690000Y-54100000D03*
X242550000Y-54100000D03*
%TD*%
%TO.C,R19*%
X229870000Y-68370000D03*
X230730000Y-68370000D03*
%TD*%
D15*
%TO.C,GD3*%
X220550000Y-45000000D03*
X221050000Y-45000000D03*
X221550000Y-45000000D03*
X222050000Y-45000000D03*
X222550000Y-45000000D03*
X223050000Y-45000000D03*
D16*
X223800000Y-45750000D03*
X223800000Y-46250000D03*
X223800000Y-46750000D03*
X223800000Y-47250000D03*
X223800000Y-47750000D03*
X223800000Y-48250000D03*
D15*
X223050000Y-49000000D03*
X222550000Y-49000000D03*
X222050000Y-49000000D03*
X221550000Y-49000000D03*
X221050000Y-49000000D03*
X220560000Y-49000000D03*
D16*
X219800000Y-48250000D03*
X219800000Y-47750000D03*
X219800000Y-47250000D03*
X219800000Y-46750000D03*
X219800000Y-46250000D03*
X219800000Y-45750000D03*
D17*
X221810000Y-47000000D03*
%TD*%
D18*
%TO.C,R22*%
X218400000Y-60570000D03*
X218400000Y-61430000D03*
%TD*%
%TO.C,R51*%
X215200000Y-53030000D03*
X215200000Y-52170000D03*
%TD*%
%TO.C,R27*%
X218350000Y-71890000D03*
X218350000Y-71030000D03*
%TD*%
D14*
%TO.C,R81*%
X225730000Y-52000000D03*
X224870000Y-52000000D03*
%TD*%
%TO.C,R42*%
X224300000Y-44110000D03*
X225160000Y-44110000D03*
%TD*%
D13*
%TO.C,C4*%
X237600000Y-58780000D03*
X237600000Y-59620000D03*
%TD*%
D20*
%TO.C,C38*%
X216680000Y-53000000D03*
X217520000Y-53000000D03*
%TD*%
D32*
%TO.C,J7*%
X214600000Y-44000000D03*
%TD*%
D13*
%TO.C,C30*%
X213200000Y-79020000D03*
X213200000Y-78180000D03*
%TD*%
D20*
%TO.C,C52*%
X243420000Y-72930000D03*
X242580000Y-72930000D03*
%TD*%
D14*
%TO.C,R46*%
X211070000Y-51900000D03*
X211930000Y-51900000D03*
%TD*%
D18*
%TO.C,R32*%
X214200000Y-66170000D03*
X214200000Y-67030000D03*
%TD*%
D12*
%TO.C,SWCLK_M2*%
X222000000Y-78950000D03*
%TD*%
D20*
%TO.C,C46*%
X230220000Y-72570000D03*
X229380000Y-72570000D03*
%TD*%
D31*
%TO.C,C51*%
X234270000Y-77800000D03*
X234270000Y-79200000D03*
%TD*%
D13*
%TO.C,C13*%
X246600000Y-52980000D03*
X246600000Y-53820000D03*
%TD*%
D18*
%TO.C,R11*%
X241650000Y-42110000D03*
X241650000Y-42970000D03*
%TD*%
D33*
%TO.C,M3*%
X228450000Y-46010000D03*
D22*
X228350000Y-46510000D03*
X228350000Y-47010000D03*
X228350000Y-47510000D03*
D34*
X228450000Y-48010000D03*
D35*
X227900000Y-48560000D03*
D25*
X227400000Y-48440000D03*
X226900000Y-48440000D03*
X226400000Y-48440000D03*
D36*
X225900000Y-48560000D03*
D37*
X225350000Y-48010000D03*
D22*
X225450000Y-47510000D03*
X225450000Y-47010000D03*
X225450000Y-46510000D03*
D38*
X225350000Y-46010000D03*
D39*
X225900000Y-45440000D03*
D25*
X226400000Y-45560000D03*
X226900000Y-45560000D03*
X227400000Y-45560000D03*
D40*
X227900000Y-45440000D03*
%TD*%
D18*
%TO.C,R63*%
X241650000Y-68110000D03*
X241650000Y-68970000D03*
%TD*%
D14*
%TO.C,R83*%
X225730000Y-53000000D03*
X224870000Y-53000000D03*
%TD*%
D18*
%TO.C,R2*%
X238600000Y-59630000D03*
X238600000Y-58770000D03*
%TD*%
%TO.C,R18*%
X245600000Y-41830000D03*
X245600000Y-40970000D03*
%TD*%
M02*
