%TF.GenerationSoftware,KiCad,Pcbnew,9.0.7*%
%TF.CreationDate,2026-05-26T21:36:15+02:00*%
%TF.ProjectId,esc,6573632e-6b69-4636-9164-5f7063625858,rev?*%
%TF.SameCoordinates,Original*%
%TF.FileFunction,Paste,Top*%
%TF.FilePolarity,Positive*%
%FSLAX46Y46*%
G04 Gerber Fmt 4.6, Leading zero omitted, Abs format (unit mm)*
G04 Created by KiCad (PCBNEW 9.0.7) date 2026-05-26 21:36:15*
%MOMM*%
%LPD*%
G01*
G04 APERTURE LIST*
G04 Aperture macros list*
%AMRoundRect*
0 Rectangle with rounded corners*
0 $1 Rounding radius*
0 $2 $3 $4 $5 $6 $7 $8 $9 X,Y pos of 4 corners*
0 Add a 4 corners polygon primitive as box body*
4,1,4,$2,$3,$4,$5,$6,$7,$8,$9,$2,$3,0*
0 Add four circle primitives for the rounded corners*
1,1,$1+$1,$2,$3*
1,1,$1+$1,$4,$5*
1,1,$1+$1,$6,$7*
1,1,$1+$1,$8,$9*
0 Add four rect primitives between the rounded corners*
20,1,$1+$1,$2,$3,$4,$5,0*
20,1,$1+$1,$4,$5,$6,$7,0*
20,1,$1+$1,$6,$7,$8,$9,0*
20,1,$1+$1,$8,$9,$2,$3,0*%
%AMFreePoly0*
4,1,13,0.335355,0.685355,0.350000,0.650000,0.350000,-0.650000,0.335355,-0.685355,0.300000,-0.700000,-0.300000,-0.700000,-0.335355,-0.685355,-0.350000,-0.650000,-0.350000,0.650000,-0.335355,0.685355,-0.300000,0.700000,0.300000,0.700000,0.335355,0.685355,0.335355,0.685355,$1*%
G04 Aperture macros list end*
%ADD10RoundRect,0.450000X-1.050000X-1.050000X1.050000X-1.050000X1.050000X1.050000X-1.050000X1.050000X0*%
%ADD11R,1.200000X0.700000*%
%ADD12R,3.800000X4.600000*%
%ADD13R,0.540000X0.566000*%
%ADD14R,0.280000X0.800000*%
%ADD15R,0.800000X0.280000*%
%ADD16R,3.500000X3.500000*%
%ADD17R,0.566000X0.540000*%
%ADD18R,1.230000X1.860000*%
%ADD19RoundRect,0.450000X1.050000X1.050000X-1.050000X1.050000X-1.050000X-1.050000X1.050000X-1.050000X0*%
%ADD20R,0.800000X0.900000*%
%ADD21R,0.540000X0.500000*%
%ADD22R,0.900000X0.800000*%
%ADD23RoundRect,0.150000X0.600000X-0.350000X0.600000X0.350000X-0.600000X0.350000X-0.600000X-0.350000X0*%
%ADD24R,0.500000X0.540000*%
%ADD25O,0.300000X1.500000*%
%ADD26O,1.500000X0.300000*%
%ADD27FreePoly0,180.000000*%
%ADD28R,0.300000X1.300000*%
G04 APERTURE END LIST*
D10*
%TO.C,J8*%
X211600000Y-69630000D03*
%TD*%
%TO.C,J9*%
X211600000Y-75130000D03*
%TD*%
D11*
%TO.C,Q14*%
X219600000Y-47900000D03*
X219600000Y-46630000D03*
X219600000Y-45370000D03*
X219600000Y-44100000D03*
X213800000Y-44100000D03*
X213800000Y-45360000D03*
X213800000Y-46630000D03*
X213800000Y-47900000D03*
D12*
X216160000Y-46000000D03*
%TD*%
D13*
%TO.C,R36*%
X223450000Y-50740000D03*
X223450000Y-51600000D03*
%TD*%
D14*
%TO.C,M1*%
X232250000Y-49500000D03*
X232750000Y-49500000D03*
X233250000Y-49500000D03*
X233750000Y-49500000D03*
X234250000Y-49500000D03*
X234750000Y-49500000D03*
X235250000Y-49500000D03*
X235750000Y-49500000D03*
D15*
X236500000Y-48750000D03*
X236500000Y-48250000D03*
X236500000Y-47750000D03*
X236500000Y-47250000D03*
X236500000Y-46750000D03*
X236500000Y-46250000D03*
X236500000Y-45750000D03*
X236500000Y-45250000D03*
D14*
X235750000Y-44500000D03*
X235250000Y-44500000D03*
X234750000Y-44500000D03*
X234250000Y-44500000D03*
X233750000Y-44500000D03*
X233250000Y-44500000D03*
X232750000Y-44500000D03*
X232250000Y-44500000D03*
D15*
X231500000Y-45250000D03*
X231500000Y-45750000D03*
X231500000Y-46250000D03*
X231500000Y-46750000D03*
X231500000Y-47250000D03*
X231500000Y-47750000D03*
X231500000Y-48250000D03*
X231500000Y-48750000D03*
D16*
X234000000Y-47000000D03*
%TD*%
D17*
%TO.C,R11*%
X247570000Y-49600000D03*
X248430000Y-49600000D03*
%TD*%
%TO.C,R41*%
X212230000Y-55100000D03*
X211370000Y-55100000D03*
%TD*%
D10*
%TO.C,J6*%
X248400000Y-46630000D03*
%TD*%
D17*
%TO.C,R54*%
X247570000Y-61600000D03*
X248430000Y-61600000D03*
%TD*%
D13*
%TO.C,R28*%
X220960000Y-72930000D03*
X220960000Y-73790000D03*
%TD*%
%TO.C,R40*%
X220900000Y-49600000D03*
X220900000Y-50460000D03*
%TD*%
D14*
%TO.C,M4*%
X232250000Y-74500000D03*
X232750000Y-74500000D03*
X233250000Y-74500000D03*
X233750000Y-74500000D03*
X234250000Y-74500000D03*
X234750000Y-74500000D03*
X235250000Y-74500000D03*
X235750000Y-74500000D03*
D15*
X236500000Y-73750000D03*
X236500000Y-73250000D03*
X236500000Y-72750000D03*
X236500000Y-72250000D03*
X236500000Y-71750000D03*
X236500000Y-71250000D03*
X236500000Y-70750000D03*
X236500000Y-70250000D03*
D14*
X235750000Y-69500000D03*
X235250000Y-69500000D03*
X234750000Y-69500000D03*
X234250000Y-69500000D03*
X233750000Y-69500000D03*
X233250000Y-69500000D03*
X232750000Y-69500000D03*
X232250000Y-69500000D03*
D15*
X231500000Y-70250000D03*
X231500000Y-70750000D03*
X231500000Y-71250000D03*
X231500000Y-71750000D03*
X231500000Y-72250000D03*
X231500000Y-72750000D03*
X231500000Y-73250000D03*
X231500000Y-73750000D03*
D16*
X234000000Y-72000000D03*
%TD*%
D18*
%TO.C,boot1*%
X226680000Y-78400000D03*
X222320000Y-78400000D03*
%TD*%
D11*
%TO.C,Q3*%
X246200000Y-53400000D03*
X246200000Y-52130000D03*
X246200000Y-50870000D03*
X246200000Y-49600000D03*
X240400000Y-49600000D03*
X240400000Y-50860000D03*
X240400000Y-52130000D03*
X240400000Y-53400000D03*
D12*
X242760000Y-51500000D03*
%TD*%
D19*
%TO.C,J12*%
X211600000Y-57630000D03*
%TD*%
D20*
%TO.C,C31*%
X229050000Y-75870000D03*
X227650000Y-75870000D03*
%TD*%
D11*
%TO.C,Q16*%
X219600000Y-53400000D03*
X219600000Y-52130000D03*
X219600000Y-50870000D03*
X219600000Y-49600000D03*
X213800000Y-49600000D03*
X213800000Y-50860000D03*
X213800000Y-52130000D03*
X213800000Y-53400000D03*
D12*
X216160000Y-51500000D03*
%TD*%
D11*
%TO.C,Q12*%
X219600000Y-76400000D03*
X219600000Y-75130000D03*
X219600000Y-73870000D03*
X219600000Y-72600000D03*
X213800000Y-72600000D03*
X213800000Y-73860000D03*
X213800000Y-75130000D03*
X213800000Y-76400000D03*
D12*
X216160000Y-74500000D03*
%TD*%
D11*
%TO.C,Q21*%
X246200000Y-70900000D03*
X246200000Y-69630000D03*
X246200000Y-68370000D03*
X246200000Y-67100000D03*
X240400000Y-67100000D03*
X240400000Y-68360000D03*
X240400000Y-69630000D03*
X240400000Y-70900000D03*
D12*
X242760000Y-69000000D03*
%TD*%
D17*
%TO.C,R52*%
X247570000Y-67100000D03*
X248430000Y-67100000D03*
%TD*%
D20*
%TO.C,C52*%
X216700000Y-79000000D03*
X215300000Y-79000000D03*
%TD*%
D19*
%TO.C,J11*%
X211600000Y-52130000D03*
%TD*%
D13*
%TO.C,R8*%
X237390000Y-42750000D03*
X237390000Y-41890000D03*
%TD*%
D21*
%TO.C,C10*%
X237340000Y-64510000D03*
X237340000Y-63670000D03*
%TD*%
D10*
%TO.C,J15*%
X248400000Y-64130000D03*
%TD*%
D13*
%TO.C,R42*%
X220900000Y-55170000D03*
X220900000Y-56030000D03*
%TD*%
D18*
%TO.C,reset1*%
X237680000Y-78400000D03*
X233320000Y-78400000D03*
%TD*%
D22*
%TO.C,C11*%
X237900000Y-60620000D03*
X237900000Y-62020000D03*
%TD*%
D17*
%TO.C,R23*%
X212230000Y-61600000D03*
X211370000Y-61600000D03*
%TD*%
D11*
%TO.C,Q10*%
X219600000Y-70900000D03*
X219600000Y-69630000D03*
X219600000Y-68370000D03*
X219600000Y-67100000D03*
X213800000Y-67100000D03*
X213800000Y-68360000D03*
X213800000Y-69630000D03*
X213800000Y-70900000D03*
D12*
X216160000Y-69000000D03*
%TD*%
D23*
%TO.C,J17*%
X220000000Y-41000000D03*
%TD*%
D11*
%TO.C,Q18*%
X219600000Y-58900000D03*
X219600000Y-57630000D03*
X219600000Y-56370000D03*
X219600000Y-55100000D03*
X213800000Y-55100000D03*
X213800000Y-56360000D03*
X213800000Y-57630000D03*
X213800000Y-58900000D03*
D12*
X216160000Y-57000000D03*
%TD*%
D13*
%TO.C,R26*%
X220980000Y-67040000D03*
X220980000Y-67900000D03*
%TD*%
D11*
%TO.C,Q19*%
X246200000Y-76400000D03*
X246200000Y-75130000D03*
X246200000Y-73870000D03*
X246200000Y-72600000D03*
X240400000Y-72600000D03*
X240400000Y-73860000D03*
X240400000Y-75130000D03*
X240400000Y-76400000D03*
D12*
X242760000Y-74500000D03*
%TD*%
D21*
%TO.C,C12*%
X237290000Y-54920000D03*
X237290000Y-55760000D03*
%TD*%
%TO.C,C8*%
X237310000Y-57610000D03*
X237310000Y-56770000D03*
%TD*%
D20*
%TO.C,C39*%
X228840000Y-50750000D03*
X227440000Y-50750000D03*
%TD*%
D17*
%TO.C,R39*%
X212230000Y-49630000D03*
X211370000Y-49630000D03*
%TD*%
D14*
%TO.C,M2*%
X227750000Y-69500000D03*
X227250000Y-69500000D03*
X226750000Y-69500000D03*
X226250000Y-69500000D03*
X225750000Y-69500000D03*
X225250000Y-69500000D03*
X224750000Y-69500000D03*
X224250000Y-69500000D03*
D15*
X223500000Y-70250000D03*
X223500000Y-70750000D03*
X223500000Y-71250000D03*
X223500000Y-71750000D03*
X223500000Y-72250000D03*
X223500000Y-72750000D03*
X223500000Y-73250000D03*
X223500000Y-73750000D03*
D14*
X224250000Y-74500000D03*
X224750000Y-74500000D03*
X225250000Y-74500000D03*
X225750000Y-74500000D03*
X226250000Y-74500000D03*
X226750000Y-74500000D03*
X227250000Y-74500000D03*
X227750000Y-74500000D03*
D15*
X228500000Y-73750000D03*
X228500000Y-73250000D03*
X228500000Y-72750000D03*
X228500000Y-72250000D03*
X228500000Y-71750000D03*
X228500000Y-71250000D03*
X228500000Y-70750000D03*
X228500000Y-70250000D03*
D16*
X226000000Y-72000000D03*
%TD*%
D10*
%TO.C,J7*%
X211600000Y-64130000D03*
%TD*%
D20*
%TO.C,C53*%
X216700000Y-41000000D03*
X215300000Y-41000000D03*
%TD*%
D23*
%TO.C,J2*%
X240000000Y-41000000D03*
%TD*%
D24*
%TO.C,C9*%
X225920000Y-52790000D03*
X226760000Y-52790000D03*
%TD*%
D25*
%TO.C,U2*%
X226250000Y-65690000D03*
X226750000Y-65690000D03*
X227250000Y-65690000D03*
X227750000Y-65690000D03*
X228250000Y-65690000D03*
X228750000Y-65690000D03*
X229250000Y-65690000D03*
X229750000Y-65690000D03*
X230250000Y-65690000D03*
X230750000Y-65690000D03*
X231250000Y-65690000D03*
X231750000Y-65690000D03*
X232250000Y-65690000D03*
X232750000Y-65690000D03*
X233250000Y-65690000D03*
X233750000Y-65690000D03*
D26*
X235700000Y-63740000D03*
X235700000Y-63240000D03*
X235700000Y-62740000D03*
X235700000Y-62240000D03*
X235700000Y-61740000D03*
X235700000Y-61240000D03*
X235700000Y-60740000D03*
X235700000Y-60240000D03*
X235700000Y-59740000D03*
X235700000Y-59240000D03*
X235700000Y-58740000D03*
X235700000Y-58240000D03*
X235700000Y-57740000D03*
X235700000Y-57240000D03*
X235700000Y-56740000D03*
X235700000Y-56240000D03*
D25*
X233750000Y-54310000D03*
X233250000Y-54310000D03*
X232750000Y-54310000D03*
X232250000Y-54310000D03*
X231750000Y-54310000D03*
X231250000Y-54310000D03*
X230750000Y-54310000D03*
X230250000Y-54310000D03*
X229750000Y-54310000D03*
X229250000Y-54310000D03*
X228750000Y-54310000D03*
X228250000Y-54310000D03*
X227750000Y-54310000D03*
X227250000Y-54310000D03*
X226750000Y-54310000D03*
X226250000Y-54310000D03*
D26*
X224300000Y-56240000D03*
X224300000Y-56740000D03*
X224300000Y-57240000D03*
X224300000Y-57740000D03*
X224300000Y-58240000D03*
X224300000Y-58740000D03*
X224300000Y-59240000D03*
X224300000Y-59740000D03*
X224300000Y-60240000D03*
X224300000Y-60740000D03*
X224300000Y-61240000D03*
X224300000Y-61740000D03*
X224300000Y-62240000D03*
X224300000Y-62740000D03*
X224300000Y-63240000D03*
X224300000Y-63740000D03*
%TD*%
D13*
%TO.C,R38*%
X220920000Y-44010000D03*
X220920000Y-44870000D03*
%TD*%
D22*
%TO.C,C46*%
X230760000Y-75410000D03*
X230760000Y-76810000D03*
%TD*%
D20*
%TO.C,C51*%
X243300000Y-41000000D03*
X244700000Y-41000000D03*
%TD*%
D21*
%TO.C,C14*%
X224280000Y-65570000D03*
X224280000Y-64730000D03*
%TD*%
D20*
%TO.C,C23*%
X230930000Y-42910000D03*
X232330000Y-42910000D03*
%TD*%
%TO.C,C54*%
X243300000Y-79000000D03*
X244700000Y-79000000D03*
%TD*%
D13*
%TO.C,R49*%
X237800000Y-68190000D03*
X237800000Y-67330000D03*
%TD*%
%TO.C,R24*%
X220970000Y-61560000D03*
X220970000Y-62420000D03*
%TD*%
D11*
%TO.C,Q1*%
X246200000Y-58900000D03*
X246200000Y-57630000D03*
X246200000Y-56370000D03*
X246200000Y-55100000D03*
X240400000Y-55100000D03*
X240400000Y-56360000D03*
X240400000Y-57630000D03*
X240400000Y-58900000D03*
D12*
X242760000Y-57000000D03*
%TD*%
D11*
%TO.C,Q23*%
X246200000Y-65400000D03*
X246200000Y-64130000D03*
X246200000Y-62870000D03*
X246200000Y-61600000D03*
X240400000Y-61600000D03*
X240400000Y-62860000D03*
X240400000Y-64130000D03*
X240400000Y-65400000D03*
D12*
X242760000Y-63500000D03*
%TD*%
D22*
%TO.C,C22*%
X230500000Y-49900000D03*
X230500000Y-51300000D03*
%TD*%
D10*
%TO.C,J5*%
X248400000Y-52130000D03*
%TD*%
D17*
%TO.C,R37*%
X212070000Y-44500000D03*
X211210000Y-44500000D03*
%TD*%
D11*
%TO.C,Q5*%
X246200000Y-47900000D03*
X246200000Y-46630000D03*
X246200000Y-45370000D03*
X246200000Y-44100000D03*
X240400000Y-44100000D03*
X240400000Y-45360000D03*
X240400000Y-46630000D03*
X240400000Y-47900000D03*
D12*
X242760000Y-46000000D03*
%TD*%
D17*
%TO.C,R25*%
X212230000Y-67100000D03*
X211370000Y-67100000D03*
%TD*%
D11*
%TO.C,Q8*%
X219600000Y-65400000D03*
X219600000Y-64130000D03*
X219600000Y-62870000D03*
X219600000Y-61600000D03*
X213800000Y-61600000D03*
X213800000Y-62860000D03*
X213800000Y-64130000D03*
X213800000Y-65400000D03*
D12*
X216160000Y-63500000D03*
%TD*%
D17*
%TO.C,R9*%
X247570000Y-55100000D03*
X248430000Y-55100000D03*
%TD*%
D14*
%TO.C,M3*%
X227750000Y-44500000D03*
X227250000Y-44500000D03*
X226750000Y-44500000D03*
X226250000Y-44500000D03*
X225750000Y-44500000D03*
X225250000Y-44500000D03*
X224750000Y-44500000D03*
X224250000Y-44500000D03*
D15*
X223500000Y-45250000D03*
X223500000Y-45750000D03*
X223500000Y-46250000D03*
X223500000Y-46750000D03*
X223500000Y-47250000D03*
X223500000Y-47750000D03*
X223500000Y-48250000D03*
X223500000Y-48750000D03*
D14*
X224250000Y-49500000D03*
X224750000Y-49500000D03*
X225250000Y-49500000D03*
X225750000Y-49500000D03*
X226250000Y-49500000D03*
X226750000Y-49500000D03*
X227250000Y-49500000D03*
X227750000Y-49500000D03*
D15*
X228500000Y-48750000D03*
X228500000Y-48250000D03*
X228500000Y-47750000D03*
X228500000Y-47250000D03*
X228500000Y-46750000D03*
X228500000Y-46250000D03*
X228500000Y-45750000D03*
X228500000Y-45250000D03*
D16*
X226000000Y-47000000D03*
%TD*%
D19*
%TO.C,J1*%
X232000000Y-83000000D03*
X228000000Y-83000000D03*
%TD*%
D22*
%TO.C,C30*%
X229310000Y-69150000D03*
X229310000Y-67750000D03*
%TD*%
D10*
%TO.C,J4*%
X248400000Y-57630000D03*
%TD*%
D13*
%TO.C,R22*%
X223180000Y-75150000D03*
X223180000Y-76010000D03*
%TD*%
D10*
%TO.C,J14*%
X248400000Y-69630000D03*
%TD*%
%TO.C,J13*%
X248400000Y-75130000D03*
%TD*%
D17*
%TO.C,R50*%
X247570000Y-72610000D03*
X248430000Y-72610000D03*
%TD*%
D19*
%TO.C,J10*%
X211600000Y-46630000D03*
%TD*%
D17*
%TO.C,R27*%
X212230000Y-72600000D03*
X211370000Y-72600000D03*
%TD*%
D27*
%TO.C,USBC1*%
X233200000Y-41210000D03*
X232400000Y-41210000D03*
D28*
X231250000Y-41210000D03*
X230250000Y-41210000D03*
X229750000Y-41210000D03*
X228750000Y-41210000D03*
D27*
X226800000Y-41210000D03*
X227600000Y-41210000D03*
D28*
X228250000Y-41210000D03*
X229250000Y-41210000D03*
X230750000Y-41210000D03*
X231750000Y-41210000D03*
%TD*%
D17*
%TO.C,R13*%
X247570000Y-44300000D03*
X248430000Y-44300000D03*
%TD*%
D13*
%TO.C,R3*%
X222300000Y-59740000D03*
X222300000Y-60600000D03*
%TD*%
D24*
%TO.C,C13*%
X224490000Y-53910000D03*
X225330000Y-53910000D03*
%TD*%
M02*
