%TF.GenerationSoftware,KiCad,Pcbnew,10.0.4-10.0.4~ubuntu26.04.1*%
%TF.CreationDate,2026-07-04T16:40:04+02:00*%
%TF.ProjectId,esc,6573632e-6b69-4636-9164-5f7063625858,rev?*%
%TF.SameCoordinates,Original*%
%TF.FileFunction,Soldermask,Top*%
%TF.FilePolarity,Negative*%
%FSLAX46Y46*%
G04 Gerber Fmt 4.6, Leading zero omitted, Abs format (unit mm)*
G04 Created by KiCad (PCBNEW 10.0.4-10.0.4~ubuntu26.04.1) date 2026-07-04 16:40:04*
%MOMM*%
%LPD*%
G01*
G04 APERTURE LIST*
G04 Aperture macros list*
%AMRoundRect*
0 Rectangle with rounded corners*
0 $1 Rounding radius*
0 $2 $3 $4 $5 $6 $7 $8 $9 X,Y pos of 4 corners*
0 Add a 4 corners polygon primitive as box body*
4,1,4,$2,$3,$4,$5,$6,$7,$8,$9,$2,$3,0*
0 Add four circle primitives for the rounded corners*
1,1,$1+$1,$2,$3*
1,1,$1+$1,$4,$5*
1,1,$1+$1,$6,$7*
1,1,$1+$1,$8,$9*
0 Add four rect primitives between the rounded corners*
20,1,$1+$1,$2,$3,$4,$5,0*
20,1,$1+$1,$4,$5,$6,$7,0*
20,1,$1+$1,$6,$7,$8,$9,0*
20,1,$1+$1,$8,$9,$2,$3,0*%
%AMFreePoly0*
4,1,88,-1.134819,1.961571,-0.882121,1.893860,-0.640423,1.793745,-0.413860,1.662939,-0.206308,1.503680,-0.021320,1.318692,0.137939,1.111140,0.268745,0.884577,0.368860,0.642879,0.436571,0.390181,0.470718,0.130806,0.470718,0.062813,0.470936,0.062000,0.470936,-0.062000,0.470718,-0.062813,0.470718,-0.130806,0.436571,-0.390181,0.368860,-0.642879,0.268745,-0.884577,0.137939,-1.111140,
-0.021320,-1.318692,-0.206308,-1.503680,-0.413860,-1.662939,-0.640423,-1.793745,-0.882121,-1.893860,-1.134819,-1.961571,-1.394194,-1.995718,-1.655806,-1.995718,-1.915181,-1.961571,-2.167879,-1.893860,-2.409577,-1.793745,-2.636140,-1.662939,-2.843692,-1.503680,-3.028680,-1.318692,-3.187939,-1.111140,-3.318745,-0.884577,-3.418860,-0.642879,-3.486571,-0.390181,-3.520718,-0.130806,-3.520718,0.103416,
-2.575000,0.103416,-2.575000,-0.103416,-2.534650,-0.306274,-2.455498,-0.497362,-2.340589,-0.669336,-2.194336,-0.815589,-2.022362,-0.930498,-1.831274,-1.009650,-1.628416,-1.050000,-1.421584,-1.050000,-1.218726,-1.009650,-1.027638,-0.930498,-0.855664,-0.815589,-0.709411,-0.669336,-0.594502,-0.497362,-0.515350,-0.306274,-0.475000,-0.103416,-0.475000,0.103416,-0.515350,0.306274,-0.594502,0.497362,
-0.709411,0.669336,-0.855664,0.815589,-1.027638,0.930498,-1.218726,1.009650,-1.421584,1.050000,-1.628416,1.050000,-1.831274,1.009650,-2.022362,0.930498,-2.194336,0.815589,-2.340589,0.669336,-2.455498,0.497362,-2.534650,0.306274,-2.575000,0.103416,-3.520718,0.103416,-3.520718,0.130806,-3.486571,0.390181,-3.418860,0.642879,-3.318745,0.884577,-3.187939,1.111140,-3.028680,1.318692,
-2.843692,1.503680,-2.636140,1.662939,-2.409577,1.793745,-2.167879,1.893860,-1.915181,1.961571,-1.655806,1.995718,-1.394194,1.995718,-1.134819,1.961571,-1.134819,1.961571,$1*%
G04 Aperture macros list end*
%ADD10C,2.100000*%
%ADD11FreePoly0,0.000000*%
%ADD12R,1.200000X0.700000*%
%ADD13R,3.800000X4.600000*%
%ADD14R,1.730000X1.490000*%
%ADD15RoundRect,0.450000X1.050000X1.050000X-1.050000X1.050000X-1.050000X-1.050000X1.050000X-1.050000X0*%
%ADD16C,1.600000*%
G04 APERTURE END LIST*
D10*
%TO.C,REF\u002A\u002A*%
X246000000Y-82000000D03*
D11*
X247525000Y-82000000D03*
%TD*%
D12*
%TO.C,Q14*%
X211100000Y-42100000D03*
X211100000Y-43370000D03*
X211100000Y-44630000D03*
X211100000Y-45900000D03*
X216900000Y-45900000D03*
X216900000Y-44640000D03*
X216900000Y-43370000D03*
X216900000Y-42100000D03*
D13*
X214540000Y-44000000D03*
%TD*%
D12*
%TO.C,Q13*%
X218600000Y-42100000D03*
X218600000Y-43370000D03*
X218600000Y-44630000D03*
X218600000Y-45900000D03*
X224400000Y-45900000D03*
X224400000Y-44640000D03*
X224400000Y-43370000D03*
X224400000Y-42100000D03*
D13*
X222040000Y-44000000D03*
%TD*%
D14*
%TO.C,C56*%
X232200000Y-68410000D03*
X232200000Y-71590000D03*
%TD*%
%TO.C,C25*%
X227800000Y-65590000D03*
X227800000Y-62410000D03*
%TD*%
D12*
%TO.C,Q3*%
X241400000Y-51900000D03*
X241400000Y-50630000D03*
X241400000Y-49370000D03*
X241400000Y-48100000D03*
X235600000Y-48100000D03*
X235600000Y-49360000D03*
X235600000Y-50630000D03*
X235600000Y-51900000D03*
D13*
X237960000Y-50000000D03*
%TD*%
D12*
%TO.C,Q16*%
X211100000Y-48100000D03*
X211100000Y-49370000D03*
X211100000Y-50630000D03*
X211100000Y-51900000D03*
X216900000Y-51900000D03*
X216900000Y-50640000D03*
X216900000Y-49370000D03*
X216900000Y-48100000D03*
D13*
X214540000Y-50000000D03*
%TD*%
D12*
%TO.C,Q15*%
X218600000Y-48100000D03*
X218600000Y-49370000D03*
X218600000Y-50630000D03*
X218600000Y-51900000D03*
X224400000Y-51900000D03*
X224400000Y-50640000D03*
X224400000Y-49370000D03*
X224400000Y-48100000D03*
D13*
X222040000Y-50000000D03*
%TD*%
D12*
%TO.C,Q12*%
X211100000Y-74100000D03*
X211100000Y-75370000D03*
X211100000Y-76630000D03*
X211100000Y-77900000D03*
X216900000Y-77900000D03*
X216900000Y-76640000D03*
X216900000Y-75370000D03*
X216900000Y-74100000D03*
D13*
X214540000Y-76000000D03*
%TD*%
D12*
%TO.C,Q24*%
X248900000Y-65900000D03*
X248900000Y-64630000D03*
X248900000Y-63370000D03*
X248900000Y-62100000D03*
X243100000Y-62100000D03*
X243100000Y-63360000D03*
X243100000Y-64630000D03*
X243100000Y-65900000D03*
D13*
X245460000Y-64000000D03*
%TD*%
D14*
%TO.C,C10*%
X232200000Y-42410000D03*
X232200000Y-45590000D03*
%TD*%
D10*
%TO.C,REF\u002A\u002A*%
X246000000Y-38000000D03*
D11*
X247525000Y-38000000D03*
%TD*%
D12*
%TO.C,Q21*%
X241400000Y-71900000D03*
X241400000Y-70630000D03*
X241400000Y-69370000D03*
X241400000Y-68100000D03*
X235600000Y-68100000D03*
X235600000Y-69360000D03*
X235600000Y-70630000D03*
X235600000Y-71900000D03*
D13*
X237960000Y-70000000D03*
%TD*%
D14*
%TO.C,C42*%
X227800000Y-42410000D03*
X227800000Y-45590000D03*
%TD*%
%TO.C,C27*%
X227800000Y-77590000D03*
X227800000Y-74410000D03*
%TD*%
D12*
%TO.C,Q11*%
X218600000Y-74100000D03*
X218600000Y-75370000D03*
X218600000Y-76630000D03*
X218600000Y-77900000D03*
X224400000Y-77900000D03*
X224400000Y-76640000D03*
X224400000Y-75370000D03*
X224400000Y-74100000D03*
D13*
X222040000Y-76000000D03*
%TD*%
D14*
%TO.C,C40*%
X227800000Y-54410000D03*
X227800000Y-57590000D03*
%TD*%
%TO.C,C57*%
X232200000Y-65590000D03*
X232200000Y-62410000D03*
%TD*%
D12*
%TO.C,Q20*%
X248900000Y-77900000D03*
X248900000Y-76630000D03*
X248900000Y-75370000D03*
X248900000Y-74100000D03*
X243100000Y-74100000D03*
X243100000Y-75360000D03*
X243100000Y-76630000D03*
X243100000Y-77900000D03*
D13*
X245460000Y-76000000D03*
%TD*%
D12*
%TO.C,Q22*%
X248900000Y-71900000D03*
X248900000Y-70630000D03*
X248900000Y-69370000D03*
X248900000Y-68100000D03*
X243100000Y-68100000D03*
X243100000Y-69360000D03*
X243100000Y-70630000D03*
X243100000Y-71900000D03*
D13*
X245460000Y-70000000D03*
%TD*%
D12*
%TO.C,Q17*%
X218600000Y-54100000D03*
X218600000Y-55370000D03*
X218600000Y-56630000D03*
X218600000Y-57900000D03*
X224400000Y-57900000D03*
X224400000Y-56640000D03*
X224400000Y-55370000D03*
X224400000Y-54100000D03*
D13*
X222040000Y-56000000D03*
%TD*%
D12*
%TO.C,Q4*%
X248900000Y-51900000D03*
X248900000Y-50630000D03*
X248900000Y-49370000D03*
X248900000Y-48100000D03*
X243100000Y-48100000D03*
X243100000Y-49360000D03*
X243100000Y-50630000D03*
X243100000Y-51900000D03*
D13*
X245460000Y-50000000D03*
%TD*%
D10*
%TO.C,REF\u002A\u002A*%
X214000000Y-82000000D03*
D11*
X215525000Y-82000000D03*
%TD*%
D12*
%TO.C,Q10*%
X211100000Y-68100000D03*
X211100000Y-69370000D03*
X211100000Y-70630000D03*
X211100000Y-71900000D03*
X216900000Y-71900000D03*
X216900000Y-70640000D03*
X216900000Y-69370000D03*
X216900000Y-68100000D03*
D13*
X214540000Y-70000000D03*
%TD*%
D14*
%TO.C,C55*%
X232200000Y-77590000D03*
X232200000Y-74410000D03*
%TD*%
%TO.C,C12*%
X232200000Y-54410000D03*
X232200000Y-57590000D03*
%TD*%
%TO.C,C26*%
X227800000Y-68410000D03*
X227800000Y-71590000D03*
%TD*%
D12*
%TO.C,Q2*%
X248900000Y-57900000D03*
X248900000Y-56630000D03*
X248900000Y-55370000D03*
X248900000Y-54100000D03*
X243100000Y-54100000D03*
X243100000Y-55360000D03*
X243100000Y-56630000D03*
X243100000Y-57900000D03*
D13*
X245460000Y-56000000D03*
%TD*%
D10*
%TO.C,REF\u002A\u002A*%
X214000000Y-38000000D03*
D11*
X215525000Y-38000000D03*
%TD*%
D12*
%TO.C,Q18*%
X211100000Y-54100000D03*
X211100000Y-55370000D03*
X211100000Y-56630000D03*
X211100000Y-57900000D03*
X216900000Y-57900000D03*
X216900000Y-56640000D03*
X216900000Y-55370000D03*
X216900000Y-54100000D03*
D13*
X214540000Y-56000000D03*
%TD*%
D12*
%TO.C,Q9*%
X218600000Y-68100000D03*
X218600000Y-69370000D03*
X218600000Y-70630000D03*
X218600000Y-71900000D03*
X224400000Y-71900000D03*
X224400000Y-70640000D03*
X224400000Y-69370000D03*
X224400000Y-68100000D03*
D13*
X222040000Y-70000000D03*
%TD*%
D12*
%TO.C,Q19*%
X241400000Y-77900000D03*
X241400000Y-76630000D03*
X241400000Y-75370000D03*
X241400000Y-74100000D03*
X235600000Y-74100000D03*
X235600000Y-75360000D03*
X235600000Y-76630000D03*
X235600000Y-77900000D03*
D13*
X237960000Y-76000000D03*
%TD*%
D10*
%TO.C,REF\u002A\u002A*%
X252000000Y-76000000D03*
D11*
X253525000Y-76000000D03*
%TD*%
D10*
%TO.C,REF\u002A\u002A*%
X208000000Y-76000000D03*
D11*
X209525000Y-76000000D03*
%TD*%
D12*
%TO.C,Q1*%
X241400000Y-57900000D03*
X241400000Y-56630000D03*
X241400000Y-55370000D03*
X241400000Y-54100000D03*
X235600000Y-54100000D03*
X235600000Y-55360000D03*
X235600000Y-56630000D03*
X235600000Y-57900000D03*
D13*
X237960000Y-56000000D03*
%TD*%
D12*
%TO.C,Q23*%
X241400000Y-65900000D03*
X241400000Y-64630000D03*
X241400000Y-63370000D03*
X241400000Y-62100000D03*
X235600000Y-62100000D03*
X235600000Y-63360000D03*
X235600000Y-64630000D03*
X235600000Y-65900000D03*
D13*
X237960000Y-64000000D03*
%TD*%
D14*
%TO.C,C11*%
X232200000Y-51590000D03*
X232200000Y-48410000D03*
%TD*%
D12*
%TO.C,Q5*%
X241400000Y-45900000D03*
X241400000Y-44630000D03*
X241400000Y-43370000D03*
X241400000Y-42100000D03*
X235600000Y-42100000D03*
X235600000Y-43360000D03*
X235600000Y-44630000D03*
X235600000Y-45900000D03*
D13*
X237960000Y-44000000D03*
%TD*%
D12*
%TO.C,Q8*%
X211100000Y-62100000D03*
X211100000Y-63370000D03*
X211100000Y-64630000D03*
X211100000Y-65900000D03*
X216900000Y-65900000D03*
X216900000Y-64640000D03*
X216900000Y-63370000D03*
X216900000Y-62100000D03*
D13*
X214540000Y-64000000D03*
%TD*%
D15*
%TO.C,POWER_IN1*%
X232000000Y-83000000D03*
X228000000Y-83000000D03*
%TD*%
D14*
%TO.C,C41*%
X227800000Y-51590000D03*
X227800000Y-48410000D03*
%TD*%
D16*
%TO.C,C0*%
X227500000Y-83050000D03*
X232500000Y-83050000D03*
%TD*%
D12*
%TO.C,Q6*%
X248900000Y-45900000D03*
X248900000Y-44630000D03*
X248900000Y-43370000D03*
X248900000Y-42100000D03*
X243100000Y-42100000D03*
X243100000Y-43360000D03*
X243100000Y-44630000D03*
X243100000Y-45900000D03*
D13*
X245460000Y-44000000D03*
%TD*%
D10*
%TO.C,REF\u002A\u002A*%
X208000000Y-44000000D03*
D11*
X209525000Y-44000000D03*
%TD*%
D12*
%TO.C,Q7*%
X218600000Y-62100000D03*
X218600000Y-63370000D03*
X218600000Y-64630000D03*
X218600000Y-65900000D03*
X224400000Y-65900000D03*
X224400000Y-64640000D03*
X224400000Y-63370000D03*
X224400000Y-62100000D03*
D13*
X222040000Y-64000000D03*
%TD*%
D10*
%TO.C,REF\u002A\u002A*%
X252000000Y-44000000D03*
D11*
X253525000Y-44000000D03*
%TD*%
M02*
