%TF.GenerationSoftware,KiCad,Pcbnew,10.0.4-10.0.4~ubuntu26.04.1*%
%TF.CreationDate,2026-07-04T16:40:04+02:00*%
%TF.ProjectId,esc,6573632e-6b69-4636-9164-5f7063625858,rev?*%
%TF.SameCoordinates,Original*%
%TF.FileFunction,Profile,NP*%
%FSLAX46Y46*%
G04 Gerber Fmt 4.6, Leading zero omitted, Abs format (unit mm)*
G04 Created by KiCad (PCBNEW 10.0.4-10.0.4~ubuntu26.04.1) date 2026-07-04 16:40:04*
%MOMM*%
%LPD*%
G01*
G04 APERTURE LIST*
%TA.AperFunction,Profile*%
%ADD10C,0.200000*%
%TD*%
G04 APERTURE END LIST*
D10*
X206000000Y-43500000D02*
X206000000Y-44500000D01*
X206000000Y-43500000D02*
G75*
G02*
X207500000Y-42000000I1500000J0D01*
G01*
X206000000Y-75500000D02*
G75*
G02*
X207500000Y-74000000I1500000J0D01*
G01*
X206000000Y-76500000D02*
X206000000Y-75500000D01*
X207500000Y-46000000D02*
G75*
G02*
X206000000Y-44500000I0J1500000D01*
G01*
X207500000Y-46000000D02*
X210000000Y-46000000D01*
X207500000Y-74000000D02*
X210000000Y-74000000D01*
X207500000Y-78000000D02*
G75*
G02*
X206000000Y-76500000I0J1500000D01*
G01*
X210000000Y-41000000D02*
G75*
G02*
X211000000Y-40000000I1000000J0D01*
G01*
X210000000Y-42000000D02*
X207500000Y-42000000D01*
X210000000Y-42000000D02*
X210000000Y-41000000D01*
X210000000Y-46000000D02*
X210000000Y-74000000D01*
X210000000Y-78000000D02*
X207500000Y-78000000D01*
X210000000Y-78000000D02*
X210000000Y-79000000D01*
X211000000Y-80000000D02*
G75*
G02*
X210000000Y-79000000I0J1000000D01*
G01*
X211000000Y-80000000D02*
X212000000Y-80000000D01*
X212000000Y-37480000D02*
G75*
G02*
X213500000Y-35980000I1500000J0D01*
G01*
X212000000Y-40000000D02*
X211000000Y-40000000D01*
X212000000Y-40000000D02*
X212000000Y-37480000D01*
X212000000Y-80000000D02*
X212000000Y-82500000D01*
X213500000Y-84000000D02*
G75*
G02*
X212000000Y-82500000I0J1500000D01*
G01*
X213500000Y-84000000D02*
X214500000Y-84000000D01*
X214500000Y-35980000D02*
X213500000Y-35980000D01*
X214500000Y-35980000D02*
G75*
G02*
X216000000Y-37480000I0J-1500000D01*
G01*
X216000000Y-40000000D02*
X216000000Y-37480000D01*
X216000000Y-40000000D02*
X223900000Y-40000000D01*
X216000000Y-80000000D02*
X216000000Y-82500000D01*
X216000000Y-80000000D02*
X224000000Y-80000000D01*
X216000000Y-82500000D02*
G75*
G02*
X214500000Y-84000000I-1500000J0D01*
G01*
X223900000Y-40000000D02*
X236100000Y-40000000D01*
X224000000Y-80000000D02*
G75*
G02*
X225000000Y-81000000I0J-1000000D01*
G01*
X225000000Y-81000000D02*
X225000000Y-84000000D01*
X226000000Y-85000000D02*
G75*
G02*
X225000000Y-84000000I0J1000000D01*
G01*
X226000000Y-85000000D02*
X234000000Y-85000000D01*
X235000000Y-81000000D02*
X235000000Y-84000000D01*
X235000000Y-81000000D02*
G75*
G02*
X236000000Y-80000000I1000000J0D01*
G01*
X235000000Y-84000000D02*
G75*
G02*
X234000000Y-85000000I-1000000J0D01*
G01*
X244000000Y-37500000D02*
X244000000Y-40000000D01*
X244000000Y-37500000D02*
G75*
G02*
X245500000Y-36000000I1500000J0D01*
G01*
X244000000Y-40000000D02*
X236100000Y-40000000D01*
X244000000Y-80000000D02*
X236000000Y-80000000D01*
X244000000Y-80000000D02*
X244000000Y-82500000D01*
X245500000Y-84000000D02*
G75*
G02*
X244000000Y-82500000I0J1500000D01*
G01*
X245500000Y-84000000D02*
X246500000Y-84000000D01*
X246500000Y-36000000D02*
X245500000Y-36000000D01*
X246500000Y-36000000D02*
G75*
G02*
X248000000Y-37500000I0J-1500000D01*
G01*
X248000000Y-40000000D02*
X248000000Y-37500000D01*
X248000000Y-40000000D02*
X249000000Y-40000000D01*
X248000000Y-80000000D02*
X249000000Y-80000000D01*
X248000000Y-82500000D02*
G75*
G02*
X246500000Y-84000000I-1500000J0D01*
G01*
X248000000Y-82500000D02*
X248000000Y-80000000D01*
X249000000Y-40000000D02*
G75*
G02*
X250000000Y-41000000I0J-1000000D01*
G01*
X250000000Y-42000000D02*
X250000000Y-41000000D01*
X250000000Y-42000000D02*
X252500000Y-42000000D01*
X250000000Y-46000000D02*
X250000000Y-74000000D01*
X250000000Y-78000000D02*
X250000000Y-79000000D01*
X250000000Y-78000000D02*
X252500000Y-78000000D01*
X250000000Y-79000000D02*
G75*
G02*
X249000000Y-80000000I-1000000J0D01*
G01*
X252500000Y-42000000D02*
G75*
G02*
X254000000Y-43500000I0J-1500000D01*
G01*
X252500000Y-46000000D02*
X250000000Y-46000000D01*
X252500000Y-74000000D02*
X250000000Y-74000000D01*
X252500000Y-74000000D02*
G75*
G02*
X254000000Y-75500000I0J-1500000D01*
G01*
X254000000Y-43500000D02*
X254000000Y-44500000D01*
X254000000Y-44500000D02*
G75*
G02*
X252500000Y-46000000I-1500000J0D01*
G01*
X254000000Y-76500000D02*
G75*
G02*
X252500000Y-78000000I-1500000J0D01*
G01*
X254000000Y-76500000D02*
X254000000Y-75500000D01*
M02*
